%TF.GenerationSoftware,KiCad,Pcbnew,9.0.0*%
%TF.CreationDate,2025-04-14T19:02:10-07:00*%
%TF.ProjectId,solenoid_10,736f6c65-6e6f-4696-945f-31302e6b6963,rev?*%
%TF.SameCoordinates,Original*%
%TF.FileFunction,Copper,L1,Top*%
%TF.FilePolarity,Positive*%
%FSLAX46Y46*%
G04 Gerber Fmt 4.6, Leading zero omitted, Abs format (unit mm)*
G04 Created by KiCad (PCBNEW 9.0.0) date 2025-04-14 19:02:10*
%MOMM*%
%LPD*%
G01*
G04 APERTURE LIST*
G04 Aperture macros list*
%AMRoundRect*
0 Rectangle with rounded corners*
0 $1 Rounding radius*
0 $2 $3 $4 $5 $6 $7 $8 $9 X,Y pos of 4 corners*
0 Add a 4 corners polygon primitive as box body*
4,1,4,$2,$3,$4,$5,$6,$7,$8,$9,$2,$3,0*
0 Add four circle primitives for the rounded corners*
1,1,$1+$1,$2,$3*
1,1,$1+$1,$4,$5*
1,1,$1+$1,$6,$7*
1,1,$1+$1,$8,$9*
0 Add four rect primitives between the rounded corners*
20,1,$1+$1,$2,$3,$4,$5,0*
20,1,$1+$1,$4,$5,$6,$7,0*
20,1,$1+$1,$6,$7,$8,$9,0*
20,1,$1+$1,$8,$9,$2,$3,0*%
%AMRotRect*
0 Rectangle, with rotation*
0 The origin of the aperture is its center*
0 $1 length*
0 $2 width*
0 $3 Rotation angle, in degrees counterclockwise*
0 Add horizontal line*
21,1,$1,$2,0,0,$3*%
G04 Aperture macros list end*
%TA.AperFunction,SMDPad,CuDef*%
%ADD10RoundRect,0.250000X0.350000X0.450000X-0.350000X0.450000X-0.350000X-0.450000X0.350000X-0.450000X0*%
%TD*%
%TA.AperFunction,SMDPad,CuDef*%
%ADD11R,1.000000X1.000000*%
%TD*%
%TA.AperFunction,SMDPad,CuDef*%
%ADD12RoundRect,0.250000X1.450000X-0.400000X1.450000X0.400000X-1.450000X0.400000X-1.450000X-0.400000X0*%
%TD*%
%TA.AperFunction,SMDPad,CuDef*%
%ADD13RoundRect,0.250000X-0.350000X-0.450000X0.350000X-0.450000X0.350000X0.450000X-0.350000X0.450000X0*%
%TD*%
%TA.AperFunction,SMDPad,CuDef*%
%ADD14RoundRect,0.150000X0.150000X-0.725000X0.150000X0.725000X-0.150000X0.725000X-0.150000X-0.725000X0*%
%TD*%
%TA.AperFunction,SMDPad,CuDef*%
%ADD15RoundRect,0.225000X-0.375000X0.225000X-0.375000X-0.225000X0.375000X-0.225000X0.375000X0.225000X0*%
%TD*%
%TA.AperFunction,SMDPad,CuDef*%
%ADD16RoundRect,0.100000X-0.130000X-0.100000X0.130000X-0.100000X0.130000X0.100000X-0.130000X0.100000X0*%
%TD*%
%TA.AperFunction,ComponentPad*%
%ADD17R,2.000000X2.000000*%
%TD*%
%TA.AperFunction,ComponentPad*%
%ADD18C,2.000000*%
%TD*%
%TA.AperFunction,SMDPad,CuDef*%
%ADD19RoundRect,0.250000X-0.300000X-0.300000X0.300000X-0.300000X0.300000X0.300000X-0.300000X0.300000X0*%
%TD*%
%TA.AperFunction,SMDPad,CuDef*%
%ADD20RoundRect,0.250001X-0.799999X2.049999X-0.799999X-2.049999X0.799999X-2.049999X0.799999X2.049999X0*%
%TD*%
%TA.AperFunction,SMDPad,CuDef*%
%ADD21RoundRect,0.218750X-0.218750X-0.256250X0.218750X-0.256250X0.218750X0.256250X-0.218750X0.256250X0*%
%TD*%
%TA.AperFunction,SMDPad,CuDef*%
%ADD22RoundRect,0.250000X-0.250000X0.250000X-0.250000X-0.250000X0.250000X-0.250000X0.250000X0.250000X0*%
%TD*%
%TA.AperFunction,SMDPad,CuDef*%
%ADD23RoundRect,0.250000X-0.475000X0.337500X-0.475000X-0.337500X0.475000X-0.337500X0.475000X0.337500X0*%
%TD*%
%TA.AperFunction,SMDPad,CuDef*%
%ADD24RoundRect,0.250000X-0.750000X-0.500000X0.750000X-0.500000X0.750000X0.500000X-0.750000X0.500000X0*%
%TD*%
%TA.AperFunction,SMDPad,CuDef*%
%ADD25RoundRect,0.250000X-0.750000X-1.650000X0.750000X-1.650000X0.750000X1.650000X-0.750000X1.650000X0*%
%TD*%
%TA.AperFunction,SMDPad,CuDef*%
%ADD26RoundRect,0.150000X-0.150000X0.825000X-0.150000X-0.825000X0.150000X-0.825000X0.150000X0.825000X0*%
%TD*%
%TA.AperFunction,SMDPad,CuDef*%
%ADD27RoundRect,0.250000X-0.550000X1.500000X-0.550000X-1.500000X0.550000X-1.500000X0.550000X1.500000X0*%
%TD*%
%TA.AperFunction,ComponentPad*%
%ADD28RotRect,1.308000X1.308000X315.000000*%
%TD*%
%TA.AperFunction,ComponentPad*%
%ADD29C,1.308000*%
%TD*%
%TA.AperFunction,SMDPad,CuDef*%
%ADD30RoundRect,0.250000X-0.400000X-1.450000X0.400000X-1.450000X0.400000X1.450000X-0.400000X1.450000X0*%
%TD*%
%TA.AperFunction,SMDPad,CuDef*%
%ADD31RoundRect,0.250000X-0.450000X0.350000X-0.450000X-0.350000X0.450000X-0.350000X0.450000X0.350000X0*%
%TD*%
%TA.AperFunction,SMDPad,CuDef*%
%ADD32R,3.500000X2.950000*%
%TD*%
%TA.AperFunction,ComponentPad*%
%ADD33R,2.100000X2.100000*%
%TD*%
%TA.AperFunction,ComponentPad*%
%ADD34C,2.100000*%
%TD*%
%TA.AperFunction,ViaPad*%
%ADD35C,0.600000*%
%TD*%
%TA.AperFunction,ViaPad*%
%ADD36C,0.350000*%
%TD*%
%TA.AperFunction,ViaPad*%
%ADD37C,0.500000*%
%TD*%
%TA.AperFunction,Conductor*%
%ADD38C,0.200000*%
%TD*%
%TA.AperFunction,Conductor*%
%ADD39C,0.500000*%
%TD*%
G04 APERTURE END LIST*
D10*
%TO.P,R7,1,+*%
%TO.N,/solenoid_channel2/solenoid_N*%
X137613376Y-89209500D03*
%TO.P,R7,2,-*%
%TO.N,Net-(LED4-K)*%
X135613376Y-89209500D03*
%TD*%
D11*
%TO.P,TP8,1,1*%
%TO.N,/CH6_IN*%
X228800000Y-94000000D03*
%TD*%
D12*
%TO.P,F4,1*%
%TO.N,/+24V*%
X159913376Y-81234500D03*
%TO.P,F4,2*%
%TO.N,/solenoid_channel3/solenoid_P*%
X159913376Y-76784500D03*
%TD*%
%TO.P,F10,1*%
%TO.N,/+24V*%
X297913376Y-81234500D03*
%TO.P,F10,2*%
%TO.N,/solenoid_channel9/solenoid_P*%
X297913376Y-76784500D03*
%TD*%
D13*
%TO.P,R16,1,+*%
%TO.N,/CH7_IN*%
X257738376Y-82809500D03*
%TO.P,R16,2,-*%
%TO.N,Net-(Q8-G)*%
X259738376Y-82809500D03*
%TD*%
D14*
%TO.P,Q3,1,S*%
%TO.N,GND*%
X147958376Y-82384500D03*
%TO.P,Q3,2,S*%
X149228376Y-82384500D03*
%TO.P,Q3,3,S*%
X150498376Y-82384500D03*
%TO.P,Q3,4,G*%
%TO.N,Net-(Q3-G)*%
X151768376Y-82384500D03*
%TO.P,Q3,5,D*%
%TO.N,/solenoid_channel2/solenoid_N*%
X151768376Y-77234500D03*
%TO.P,Q3,6,D*%
X150498376Y-77234500D03*
%TO.P,Q3,7,D*%
X149228376Y-77234500D03*
%TO.P,Q3,8,D*%
X147958376Y-77234500D03*
%TD*%
D12*
%TO.P,F7,1*%
%TO.N,/+24V*%
X228913376Y-81234500D03*
%TO.P,F7,2*%
%TO.N,/solenoid_channel6/solenoid_P*%
X228913376Y-76784500D03*
%TD*%
D15*
%TO.P,D2,1,K*%
%TO.N,Net-(D2-K)*%
X224800000Y-105850000D03*
%TO.P,D2,2,A*%
%TO.N,GND*%
X224800000Y-109150000D03*
%TD*%
D11*
%TO.P,TP7,1,1*%
%TO.N,/CH5_IN*%
X205800000Y-94000000D03*
%TD*%
D16*
%TO.P,LED5,1,K*%
%TO.N,Net-(LED5-K)*%
X159293376Y-86659500D03*
%TO.P,LED5,2,A*%
%TO.N,/solenoid_channel3/solenoid_P*%
X159933376Y-86659500D03*
%TD*%
D13*
%TO.P,R8,1,+*%
%TO.N,/CH3_IN*%
X165738376Y-82809500D03*
%TO.P,R8,2,-*%
%TO.N,Net-(Q4-G)*%
X167738376Y-82809500D03*
%TD*%
D17*
%TO.P,S2,1*%
%TO.N,/CH2_IN*%
X143088376Y-85309500D03*
D18*
%TO.P,S2,2*%
X149588376Y-85309500D03*
%TO.P,S2,3*%
%TO.N,/VGATE*%
X143088376Y-89809500D03*
%TO.P,S2,4*%
X149588376Y-89809500D03*
%TD*%
D14*
%TO.P,Q9,1,S*%
%TO.N,GND*%
X285958376Y-82384500D03*
%TO.P,Q9,2,S*%
X287228376Y-82384500D03*
%TO.P,Q9,3,S*%
X288498376Y-82384500D03*
%TO.P,Q9,4,G*%
%TO.N,Net-(Q9-G)*%
X289768376Y-82384500D03*
%TO.P,Q9,5,D*%
%TO.N,/solenoid_channel8/solenoid_N*%
X289768376Y-77234500D03*
%TO.P,Q9,6,D*%
X288498376Y-77234500D03*
%TO.P,Q9,7,D*%
X287228376Y-77234500D03*
%TO.P,Q9,8,D*%
X285958376Y-77234500D03*
%TD*%
%TO.P,Q7,1,S*%
%TO.N,GND*%
X239958376Y-82384500D03*
%TO.P,Q7,2,S*%
X241228376Y-82384500D03*
%TO.P,Q7,3,S*%
X242498376Y-82384500D03*
%TO.P,Q7,4,G*%
%TO.N,Net-(Q7-G)*%
X243768376Y-82384500D03*
%TO.P,Q7,5,D*%
%TO.N,/solenoid_channel6/solenoid_N*%
X243768376Y-77234500D03*
%TO.P,Q7,6,D*%
X242498376Y-77234500D03*
%TO.P,Q7,7,D*%
X241228376Y-77234500D03*
%TO.P,Q7,8,D*%
X239958376Y-77234500D03*
%TD*%
D16*
%TO.P,LED3,1,K*%
%TO.N,Net-(LED3-K)*%
X113293375Y-86659500D03*
%TO.P,LED3,2,A*%
%TO.N,/solenoid_channel1/solenoid_P*%
X113933375Y-86659500D03*
%TD*%
D10*
%TO.P,R17,1,+*%
%TO.N,/solenoid_channel7/solenoid_N*%
X252613376Y-89209500D03*
%TO.P,R17,2,-*%
%TO.N,Net-(LED9-K)*%
X250613376Y-89209500D03*
%TD*%
D13*
%TO.P,R3,1,+*%
%TO.N,/CH1_IN*%
X119738375Y-82809500D03*
%TO.P,R3,2,-*%
%TO.N,Net-(Q1-G)*%
X121738375Y-82809500D03*
%TD*%
D19*
%TO.P,D10,1,K*%
%TO.N,/solenoid_channel9/solenoid_P*%
X302313376Y-70159500D03*
%TO.P,D10,2,A*%
%TO.N,/solenoid_channel9/solenoid_N*%
X305113376Y-70159500D03*
%TD*%
D10*
%TO.P,R19,1,+*%
%TO.N,/solenoid_channel8/solenoid_N*%
X275613376Y-89209500D03*
%TO.P,R19,2,-*%
%TO.N,Net-(LED10-K)*%
X273613376Y-89209500D03*
%TD*%
D13*
%TO.P,R10,1,+*%
%TO.N,/CH4_IN*%
X188738376Y-82809500D03*
%TO.P,R10,2,-*%
%TO.N,Net-(Q5-G)*%
X190738376Y-82809500D03*
%TD*%
D16*
%TO.P,LED6,1,K*%
%TO.N,Net-(LED6-K)*%
X182293376Y-86659500D03*
%TO.P,LED6,2,A*%
%TO.N,/solenoid_channel4/solenoid_P*%
X182933376Y-86659500D03*
%TD*%
D10*
%TO.P,R15,1,+*%
%TO.N,/solenoid_channel6/solenoid_N*%
X229613376Y-89209500D03*
%TO.P,R15,2,-*%
%TO.N,Net-(LED8-K)*%
X227613376Y-89209500D03*
%TD*%
D20*
%TO.P,C1,1*%
%TO.N,/+24V*%
X191300000Y-100600000D03*
%TO.P,C1,2*%
%TO.N,GND*%
X191300000Y-109400000D03*
%TD*%
D19*
%TO.P,D3,1,K*%
%TO.N,/solenoid_channel2/solenoid_P*%
X141313376Y-70159500D03*
%TO.P,D3,2,A*%
%TO.N,/solenoid_channel2/solenoid_N*%
X144113376Y-70159500D03*
%TD*%
D16*
%TO.P,LED9,1,K*%
%TO.N,Net-(LED9-K)*%
X251293376Y-86659500D03*
%TO.P,LED9,2,A*%
%TO.N,/solenoid_channel7/solenoid_P*%
X251933376Y-86659500D03*
%TD*%
D10*
%TO.P,R21,1,+*%
%TO.N,/solenoid_channel9/solenoid_N*%
X298613376Y-89209500D03*
%TO.P,R21,2,-*%
%TO.N,Net-(LED11-K)*%
X296613376Y-89209500D03*
%TD*%
D21*
%TO.P,LED2,1,K*%
%TO.N,Net-(LED2-K)*%
X181012500Y-104000000D03*
%TO.P,LED2,2,A*%
%TO.N,/VGATE*%
X182587500Y-104000000D03*
%TD*%
D22*
%TO.P,DZ1,1,K*%
%TO.N,/VGATE*%
X246300000Y-103500000D03*
%TO.P,DZ1,2,A*%
%TO.N,Net-(DZ1-A)*%
X246300000Y-106000000D03*
%TD*%
D16*
%TO.P,LED4,1,K*%
%TO.N,Net-(LED4-K)*%
X136293376Y-86659500D03*
%TO.P,LED4,2,A*%
%TO.N,/solenoid_channel2/solenoid_P*%
X136933376Y-86659500D03*
%TD*%
D12*
%TO.P,F5,1*%
%TO.N,/+24V*%
X182913376Y-81234500D03*
%TO.P,F5,2*%
%TO.N,/solenoid_channel4/solenoid_P*%
X182913376Y-76784500D03*
%TD*%
D13*
%TO.P,R6,1,+*%
%TO.N,/CH2_IN*%
X142738376Y-82809500D03*
%TO.P,R6,2,-*%
%TO.N,Net-(Q3-G)*%
X144738376Y-82809500D03*
%TD*%
D12*
%TO.P,F9,1*%
%TO.N,/+24V*%
X274913376Y-81234500D03*
%TO.P,F9,2*%
%TO.N,/solenoid_channel8/solenoid_P*%
X274913376Y-76784500D03*
%TD*%
D11*
%TO.P,TP2,1,1*%
%TO.N,/VGATE*%
X181800000Y-110500000D03*
%TD*%
D19*
%TO.P,D5,1,K*%
%TO.N,/solenoid_channel4/solenoid_P*%
X187313376Y-70159500D03*
%TO.P,D5,2,A*%
%TO.N,/solenoid_channel4/solenoid_N*%
X190113376Y-70159500D03*
%TD*%
D17*
%TO.P,S9,1*%
%TO.N,/CH9_IN*%
X304088376Y-85309500D03*
D18*
%TO.P,S9,2*%
X310588376Y-85309500D03*
%TO.P,S9,3*%
%TO.N,/VGATE*%
X304088376Y-89809500D03*
%TO.P,S9,4*%
X310588376Y-89809500D03*
%TD*%
D17*
%TO.P,S7,1*%
%TO.N,/CH7_IN*%
X258088376Y-85309500D03*
D18*
%TO.P,S7,2*%
X264588376Y-85309500D03*
%TO.P,S7,3*%
%TO.N,/VGATE*%
X258088376Y-89809500D03*
%TO.P,S7,4*%
X264588376Y-89809500D03*
%TD*%
D17*
%TO.P,S6,1*%
%TO.N,/CH6_IN*%
X235088376Y-85309500D03*
D18*
%TO.P,S6,2*%
X241588376Y-85309500D03*
%TO.P,S6,3*%
%TO.N,/VGATE*%
X235088376Y-89809500D03*
%TO.P,S6,4*%
X241588376Y-89809500D03*
%TD*%
D23*
%TO.P,C2,1*%
%TO.N,/+24V*%
X200645000Y-103162500D03*
%TO.P,C2,2*%
%TO.N,GND*%
X200645000Y-105237500D03*
%TD*%
D17*
%TO.P,S10,1*%
%TO.N,/CH10_IN*%
X326963376Y-85309500D03*
D18*
%TO.P,S10,2*%
X333463376Y-85309500D03*
%TO.P,S10,3*%
%TO.N,/VGATE*%
X326963376Y-89809500D03*
%TO.P,S10,4*%
X333463376Y-89809500D03*
%TD*%
D11*
%TO.P,TP6,1,1*%
%TO.N,/CH4_IN*%
X182800000Y-94000000D03*
%TD*%
D12*
%TO.P,F11,1*%
%TO.N,/+24V*%
X320788376Y-81234500D03*
%TO.P,F11,2*%
%TO.N,/solenoid_channel10/solenoid_P*%
X320788376Y-76784500D03*
%TD*%
%TO.P,F1,1*%
%TO.N,/+24V*%
X113913375Y-81234500D03*
%TO.P,F1,2*%
%TO.N,/solenoid_channel1/solenoid_P*%
X113913375Y-76784500D03*
%TD*%
D11*
%TO.P,TP1,1,1*%
%TO.N,/+24V*%
X169300000Y-110500000D03*
%TD*%
D13*
%TO.P,R12,1,+*%
%TO.N,/CH5_IN*%
X211738376Y-82809500D03*
%TO.P,R12,2,-*%
%TO.N,Net-(Q6-G)*%
X213738376Y-82809500D03*
%TD*%
D16*
%TO.P,LED7,1,K*%
%TO.N,Net-(LED7-K)*%
X205293376Y-86659500D03*
%TO.P,LED7,2,A*%
%TO.N,/solenoid_channel5/solenoid_P*%
X205933376Y-86659500D03*
%TD*%
D24*
%TO.P,Q2,1,K*%
%TO.N,GND*%
X251650000Y-104700000D03*
%TO.P,Q2,2,A*%
%TO.N,/VGATE*%
X251650000Y-107000000D03*
D25*
X257950000Y-107000000D03*
D24*
%TO.P,Q2,3,G*%
%TO.N,Net-(DZ1-A)*%
X251650000Y-109300000D03*
%TD*%
D14*
%TO.P,Q1,1,S*%
%TO.N,GND*%
X124958375Y-82384500D03*
%TO.P,Q1,2,S*%
X126228375Y-82384500D03*
%TO.P,Q1,3,S*%
X127498375Y-82384500D03*
%TO.P,Q1,4,G*%
%TO.N,Net-(Q1-G)*%
X128768375Y-82384500D03*
%TO.P,Q1,5,D*%
%TO.N,/solenoid_channel1/solenoid_N*%
X128768375Y-77234500D03*
%TO.P,Q1,6,D*%
X127498375Y-77234500D03*
%TO.P,Q1,7,D*%
X126228375Y-77234500D03*
%TO.P,Q1,8,D*%
X124958375Y-77234500D03*
%TD*%
D19*
%TO.P,D8,1,K*%
%TO.N,/solenoid_channel7/solenoid_P*%
X256313376Y-70159500D03*
%TO.P,D8,2,A*%
%TO.N,/solenoid_channel7/solenoid_N*%
X259113376Y-70159500D03*
%TD*%
D14*
%TO.P,Q10,1,S*%
%TO.N,GND*%
X308958376Y-82384500D03*
%TO.P,Q10,2,S*%
X310228376Y-82384500D03*
%TO.P,Q10,3,S*%
X311498376Y-82384500D03*
%TO.P,Q10,4,G*%
%TO.N,Net-(Q10-G)*%
X312768376Y-82384500D03*
%TO.P,Q10,5,D*%
%TO.N,/solenoid_channel9/solenoid_N*%
X312768376Y-77234500D03*
%TO.P,Q10,6,D*%
X311498376Y-77234500D03*
%TO.P,Q10,7,D*%
X310228376Y-77234500D03*
%TO.P,Q10,8,D*%
X308958376Y-77234500D03*
%TD*%
D19*
%TO.P,D9,1,K*%
%TO.N,/solenoid_channel8/solenoid_P*%
X279313376Y-70159500D03*
%TO.P,D9,2,A*%
%TO.N,/solenoid_channel8/solenoid_N*%
X282113376Y-70159500D03*
%TD*%
D13*
%TO.P,R18,1,+*%
%TO.N,/CH8_IN*%
X280738376Y-82809500D03*
%TO.P,R18,2,-*%
%TO.N,Net-(Q9-G)*%
X282738376Y-82809500D03*
%TD*%
D21*
%TO.P,LED1,1,K*%
%TO.N,Net-(LED1-K)*%
X168712500Y-104075000D03*
%TO.P,LED1,2,A*%
%TO.N,/+24V*%
X170287500Y-104075000D03*
%TD*%
D19*
%TO.P,D4,1,K*%
%TO.N,/solenoid_channel3/solenoid_P*%
X164313376Y-70159500D03*
%TO.P,D4,2,A*%
%TO.N,/solenoid_channel3/solenoid_N*%
X167113376Y-70159500D03*
%TD*%
D10*
%TO.P,R4,1,+*%
%TO.N,/solenoid_channel1/solenoid_N*%
X114613375Y-89209500D03*
%TO.P,R4,2,-*%
%TO.N,Net-(LED3-K)*%
X112613375Y-89209500D03*
%TD*%
D14*
%TO.P,Q8,1,S*%
%TO.N,GND*%
X262958376Y-82384500D03*
%TO.P,Q8,2,S*%
X264228376Y-82384500D03*
%TO.P,Q8,3,S*%
X265498376Y-82384500D03*
%TO.P,Q8,4,G*%
%TO.N,Net-(Q8-G)*%
X266768376Y-82384500D03*
%TO.P,Q8,5,D*%
%TO.N,/solenoid_channel7/solenoid_N*%
X266768376Y-77234500D03*
%TO.P,Q8,6,D*%
X265498376Y-77234500D03*
%TO.P,Q8,7,D*%
X264228376Y-77234500D03*
%TO.P,Q8,8,D*%
X262958376Y-77234500D03*
%TD*%
D26*
%TO.P,U1,1,VIN*%
%TO.N,/+24V*%
X209800000Y-104000000D03*
%TO.P,U1,2,OUT*%
%TO.N,Net-(D2-K)*%
X208530000Y-104000000D03*
%TO.P,U1,3,FB*%
%TO.N,/dc_dc_psu/Feedback*%
X207260000Y-104000000D03*
%TO.P,U1,4,~{EN}*%
%TO.N,/+24V*%
X205990000Y-104000000D03*
%TO.P,U1,5,GND*%
%TO.N,GND*%
X205990000Y-108950000D03*
%TO.P,U1,6,GND*%
X207260000Y-108950000D03*
%TO.P,U1,7,GND*%
X208530000Y-108950000D03*
%TO.P,U1,8,GND*%
X209800000Y-108950000D03*
%TD*%
D27*
%TO.P,C3,1*%
%TO.N,/dc_dc_psu/Feedback*%
X232300000Y-103800000D03*
%TO.P,C3,2*%
%TO.N,GND*%
X232300000Y-109200000D03*
%TD*%
D13*
%TO.P,R1,1,+*%
%TO.N,GND*%
X163125000Y-104100000D03*
%TO.P,R1,2,-*%
%TO.N,Net-(LED1-K)*%
X165125000Y-104100000D03*
%TD*%
D16*
%TO.P,LED8,1,K*%
%TO.N,Net-(LED8-K)*%
X228293376Y-86659500D03*
%TO.P,LED8,2,A*%
%TO.N,/solenoid_channel6/solenoid_P*%
X228933376Y-86659500D03*
%TD*%
D13*
%TO.P,R22,1,+*%
%TO.N,/CH10_IN*%
X326613376Y-82809500D03*
%TO.P,R22,2,-*%
%TO.N,Net-(Q11-G)*%
X328613376Y-82809500D03*
%TD*%
D16*
%TO.P,LED10,1,K*%
%TO.N,Net-(LED10-K)*%
X274293376Y-86659500D03*
%TO.P,LED10,2,A*%
%TO.N,/solenoid_channel8/solenoid_P*%
X274933376Y-86659500D03*
%TD*%
D10*
%TO.P,R23,1,+*%
%TO.N,/solenoid_channel10/solenoid_N*%
X321488376Y-89209500D03*
%TO.P,R23,2,-*%
%TO.N,Net-(LED12-K)*%
X319488376Y-89209500D03*
%TD*%
D19*
%TO.P,D6,1,K*%
%TO.N,/solenoid_channel5/solenoid_P*%
X210313376Y-70159500D03*
%TO.P,D6,2,A*%
%TO.N,/solenoid_channel5/solenoid_N*%
X213113376Y-70159500D03*
%TD*%
D13*
%TO.P,R2,1,+*%
%TO.N,GND*%
X175400000Y-104050000D03*
%TO.P,R2,2,-*%
%TO.N,Net-(LED2-K)*%
X177400000Y-104050000D03*
%TD*%
D14*
%TO.P,Q6,1,S*%
%TO.N,GND*%
X216958376Y-82384500D03*
%TO.P,Q6,2,S*%
X218228376Y-82384500D03*
%TO.P,Q6,3,S*%
X219498376Y-82384500D03*
%TO.P,Q6,4,G*%
%TO.N,Net-(Q6-G)*%
X220768376Y-82384500D03*
%TO.P,Q6,5,D*%
%TO.N,/solenoid_channel5/solenoid_N*%
X220768376Y-77234500D03*
%TO.P,Q6,6,D*%
X219498376Y-77234500D03*
%TO.P,Q6,7,D*%
X218228376Y-77234500D03*
%TO.P,Q6,8,D*%
X216958376Y-77234500D03*
%TD*%
D12*
%TO.P,F6,1*%
%TO.N,/+24V*%
X205913376Y-81234500D03*
%TO.P,F6,2*%
%TO.N,/solenoid_channel5/solenoid_P*%
X205913376Y-76784500D03*
%TD*%
D28*
%TO.P,J22,1,1*%
%TO.N,/CH6_IN*%
X132524371Y-104428356D03*
D29*
%TO.P,J22,2,2*%
%TO.N,/CH4_IN*%
X132525078Y-101573766D03*
%TO.P,J22,3,3*%
%TO.N,/CH3_IN*%
X131128542Y-100328551D03*
%TO.P,J22,4,4*%
%TO.N,/CH2_IN*%
X129263195Y-100195615D03*
%TO.P,J22,5,5*%
%TO.N,/CH1_IN*%
X127704024Y-101228698D03*
%TO.P,J22,6,6*%
%TO.N,/CH10_IN*%
X127100155Y-102999293D03*
%TO.P,J22,7,7*%
%TO.N,/CH9_IN*%
X127702610Y-104769888D03*
%TO.P,J22,8,8*%
%TO.N,/CH8_IN*%
X129261781Y-105804385D03*
%TO.P,J22,9,9*%
%TO.N,/CH7_IN*%
X131127128Y-105671449D03*
%TO.P,J22,10,10*%
%TO.N,/CH5_IN*%
X131100258Y-103000000D03*
%TO.P,J22,11,11*%
%TO.N,/+24V*%
X129449871Y-102046820D03*
%TO.P,J22,12,12*%
%TO.N,GND*%
X129449871Y-103953180D03*
%TD*%
D10*
%TO.P,R9,1,+*%
%TO.N,/solenoid_channel3/solenoid_N*%
X160613376Y-89209500D03*
%TO.P,R9,2,-*%
%TO.N,Net-(LED5-K)*%
X158613376Y-89209500D03*
%TD*%
%TO.P,R11,1,+*%
%TO.N,/solenoid_channel4/solenoid_N*%
X183613376Y-89209500D03*
%TO.P,R11,2,-*%
%TO.N,Net-(LED6-K)*%
X181613376Y-89209500D03*
%TD*%
D13*
%TO.P,R20,1,+*%
%TO.N,/CH9_IN*%
X303738376Y-82809500D03*
%TO.P,R20,2,-*%
%TO.N,Net-(Q10-G)*%
X305738376Y-82809500D03*
%TD*%
D11*
%TO.P,TP9,1,1*%
%TO.N,/CH7_IN*%
X251800000Y-94000000D03*
%TD*%
%TO.P,TP10,1,1*%
%TO.N,/CH8_IN*%
X274800000Y-94000000D03*
%TD*%
D17*
%TO.P,S4,1*%
%TO.N,/CH4_IN*%
X189088376Y-85309500D03*
D18*
%TO.P,S4,2*%
X195588376Y-85309500D03*
%TO.P,S4,3*%
%TO.N,/VGATE*%
X189088376Y-89809500D03*
%TO.P,S4,4*%
X195588376Y-89809500D03*
%TD*%
D10*
%TO.P,R13,1,+*%
%TO.N,/solenoid_channel5/solenoid_N*%
X206613376Y-89209500D03*
%TO.P,R13,2,-*%
%TO.N,Net-(LED7-K)*%
X204613376Y-89209500D03*
%TD*%
D19*
%TO.P,D7,1,K*%
%TO.N,/solenoid_channel6/solenoid_P*%
X233313376Y-70159500D03*
%TO.P,D7,2,A*%
%TO.N,/solenoid_channel6/solenoid_N*%
X236113376Y-70159500D03*
%TD*%
D11*
%TO.P,TP12,1,1*%
%TO.N,/CH10_IN*%
X320300000Y-94000000D03*
%TD*%
D16*
%TO.P,LED12,1,K*%
%TO.N,Net-(LED12-K)*%
X320168376Y-86659500D03*
%TO.P,LED12,2,A*%
%TO.N,/solenoid_channel10/solenoid_P*%
X320808376Y-86659500D03*
%TD*%
D17*
%TO.P,S5,1*%
%TO.N,/CH5_IN*%
X212088376Y-85309500D03*
D18*
%TO.P,S5,2*%
X218588376Y-85309500D03*
%TO.P,S5,3*%
%TO.N,/VGATE*%
X212088376Y-89809500D03*
%TO.P,S5,4*%
X218588376Y-89809500D03*
%TD*%
D19*
%TO.P,D1,1,K*%
%TO.N,/solenoid_channel1/solenoid_P*%
X118313375Y-70159500D03*
%TO.P,D1,2,A*%
%TO.N,/solenoid_channel1/solenoid_N*%
X121113375Y-70159500D03*
%TD*%
D14*
%TO.P,Q11,1,S*%
%TO.N,GND*%
X331833376Y-82384500D03*
%TO.P,Q11,2,S*%
X333103376Y-82384500D03*
%TO.P,Q11,3,S*%
X334373376Y-82384500D03*
%TO.P,Q11,4,G*%
%TO.N,Net-(Q11-G)*%
X335643376Y-82384500D03*
%TO.P,Q11,5,D*%
%TO.N,/solenoid_channel10/solenoid_N*%
X335643376Y-77234500D03*
%TO.P,Q11,6,D*%
X334373376Y-77234500D03*
%TO.P,Q11,7,D*%
X333103376Y-77234500D03*
%TO.P,Q11,8,D*%
X331833376Y-77234500D03*
%TD*%
D12*
%TO.P,F8,1*%
%TO.N,/+24V*%
X251913376Y-81234500D03*
%TO.P,F8,2*%
%TO.N,/solenoid_channel7/solenoid_P*%
X251913376Y-76784500D03*
%TD*%
D11*
%TO.P,TP4,1,1*%
%TO.N,/CH2_IN*%
X139000000Y-94000000D03*
%TD*%
%TO.P,TP5,1,1*%
%TO.N,/CH3_IN*%
X159800000Y-94000000D03*
%TD*%
%TO.P,TP3,1,1*%
%TO.N,/CH1_IN*%
X113800000Y-94000000D03*
%TD*%
D14*
%TO.P,Q4,1,S*%
%TO.N,GND*%
X170958376Y-82384500D03*
%TO.P,Q4,2,S*%
X172228376Y-82384500D03*
%TO.P,Q4,3,S*%
X173498376Y-82384500D03*
%TO.P,Q4,4,G*%
%TO.N,Net-(Q4-G)*%
X174768376Y-82384500D03*
%TO.P,Q4,5,D*%
%TO.N,/solenoid_channel3/solenoid_N*%
X174768376Y-77234500D03*
%TO.P,Q4,6,D*%
X173498376Y-77234500D03*
%TO.P,Q4,7,D*%
X172228376Y-77234500D03*
%TO.P,Q4,8,D*%
X170958376Y-77234500D03*
%TD*%
D19*
%TO.P,D11,1,K*%
%TO.N,/solenoid_channel10/solenoid_P*%
X325188376Y-70159500D03*
%TO.P,D11,2,A*%
%TO.N,/solenoid_channel10/solenoid_N*%
X327988376Y-70159500D03*
%TD*%
D16*
%TO.P,LED11,1,K*%
%TO.N,Net-(LED11-K)*%
X297293376Y-86659500D03*
%TO.P,LED11,2,A*%
%TO.N,/solenoid_channel9/solenoid_P*%
X297933376Y-86659500D03*
%TD*%
D17*
%TO.P,S3,1*%
%TO.N,/CH3_IN*%
X166088376Y-85309500D03*
D18*
%TO.P,S3,2*%
X172588376Y-85309500D03*
%TO.P,S3,3*%
%TO.N,/VGATE*%
X166088376Y-89809500D03*
%TO.P,S3,4*%
X172588376Y-89809500D03*
%TD*%
D30*
%TO.P,F2,1*%
%TO.N,/dc_dc_psu/Feedback*%
X238575000Y-103500000D03*
%TO.P,F2,2*%
%TO.N,/VGATE*%
X243025000Y-103500000D03*
%TD*%
D17*
%TO.P,S8,1*%
%TO.N,/CH8_IN*%
X281088376Y-85309500D03*
D18*
%TO.P,S8,2*%
X287588376Y-85309500D03*
%TO.P,S8,3*%
%TO.N,/VGATE*%
X281088376Y-89809500D03*
%TO.P,S8,4*%
X287588376Y-89809500D03*
%TD*%
D31*
%TO.P,R5,1,+*%
%TO.N,Net-(DZ1-A)*%
X246300000Y-108000000D03*
%TO.P,R5,2,-*%
%TO.N,GND*%
X246300000Y-110000000D03*
%TD*%
D32*
%TO.P,L1,1,1*%
%TO.N,Net-(D2-K)*%
X218300000Y-109100000D03*
%TO.P,L1,2,2*%
%TO.N,/dc_dc_psu/Feedback*%
X218300000Y-103650000D03*
%TD*%
D17*
%TO.P,S1,1*%
%TO.N,/CH1_IN*%
X120088375Y-85309500D03*
D18*
%TO.P,S1,2*%
X126588375Y-85309500D03*
%TO.P,S1,3*%
%TO.N,/VGATE*%
X120088375Y-89809500D03*
%TO.P,S1,4*%
X126588375Y-89809500D03*
%TD*%
D12*
%TO.P,F3,1*%
%TO.N,/+24V*%
X136913376Y-81234500D03*
%TO.P,F3,2*%
%TO.N,/solenoid_channel2/solenoid_P*%
X136913376Y-76784500D03*
%TD*%
D11*
%TO.P,TP11,1,1*%
%TO.N,/CH9_IN*%
X297800000Y-94000000D03*
%TD*%
D13*
%TO.P,R14,1,+*%
%TO.N,/CH6_IN*%
X234738376Y-82809500D03*
%TO.P,R14,2,-*%
%TO.N,Net-(Q7-G)*%
X236738376Y-82809500D03*
%TD*%
D14*
%TO.P,Q5,1,S*%
%TO.N,GND*%
X193958376Y-82384500D03*
%TO.P,Q5,2,S*%
X195228376Y-82384500D03*
%TO.P,Q5,3,S*%
X196498376Y-82384500D03*
%TO.P,Q5,4,G*%
%TO.N,Net-(Q5-G)*%
X197768376Y-82384500D03*
%TO.P,Q5,5,D*%
%TO.N,/solenoid_channel4/solenoid_N*%
X197768376Y-77234500D03*
%TO.P,Q5,6,D*%
X196498376Y-77234500D03*
%TO.P,Q5,7,D*%
X195228376Y-77234500D03*
%TO.P,Q5,8,D*%
X193958376Y-77234500D03*
%TD*%
D33*
%TO.P,J3,1,1*%
%TO.N,/solenoid_channel1/solenoid_N*%
X125213375Y-69219500D03*
D34*
%TO.P,J3,2,2*%
X125213375Y-74299500D03*
%TD*%
D33*
%TO.P,J6,1,1*%
%TO.N,/solenoid_channel3/solenoid_P*%
X160213376Y-69219500D03*
D34*
%TO.P,J6,2,2*%
X160213376Y-74299500D03*
%TD*%
D33*
%TO.P,J20,1,1*%
%TO.N,/solenoid_channel10/solenoid_P*%
X321088376Y-69219500D03*
D34*
%TO.P,J20,2,2*%
X321088376Y-74299500D03*
%TD*%
D33*
%TO.P,J10,1,1*%
%TO.N,/solenoid_channel5/solenoid_P*%
X206213376Y-69219500D03*
D34*
%TO.P,J10,2,2*%
X206213376Y-74299500D03*
%TD*%
D33*
%TO.P,J12,1,1*%
%TO.N,/solenoid_channel6/solenoid_P*%
X229213376Y-69219500D03*
D34*
%TO.P,J12,2,2*%
X229213376Y-74299500D03*
%TD*%
D33*
%TO.P,J9,1,1*%
%TO.N,/solenoid_channel4/solenoid_N*%
X194213376Y-69219500D03*
D34*
%TO.P,J9,2,2*%
X194213376Y-74299500D03*
%TD*%
D33*
%TO.P,J13,1,1*%
%TO.N,/solenoid_channel6/solenoid_N*%
X240213376Y-69219500D03*
D34*
%TO.P,J13,2,2*%
X240213376Y-74299500D03*
%TD*%
D33*
%TO.P,J14,1,1*%
%TO.N,/solenoid_channel7/solenoid_P*%
X252213376Y-69219500D03*
D34*
%TO.P,J14,2,2*%
X252213376Y-74299500D03*
%TD*%
D33*
%TO.P,J5,1,1*%
%TO.N,/solenoid_channel2/solenoid_N*%
X148213376Y-69219500D03*
D34*
%TO.P,J5,2,2*%
X148213376Y-74299500D03*
%TD*%
D33*
%TO.P,J8,1,1*%
%TO.N,/solenoid_channel4/solenoid_P*%
X183213376Y-69219500D03*
D34*
%TO.P,J8,2,2*%
X183213376Y-74299500D03*
%TD*%
D33*
%TO.P,J18,1,1*%
%TO.N,/solenoid_channel9/solenoid_P*%
X298213376Y-69219500D03*
D34*
%TO.P,J18,2,2*%
X298213376Y-74299500D03*
%TD*%
D33*
%TO.P,J15,1,1*%
%TO.N,/solenoid_channel7/solenoid_N*%
X263213376Y-69219500D03*
D34*
%TO.P,J15,2,2*%
X263213376Y-74299500D03*
%TD*%
D33*
%TO.P,J4,1,1*%
%TO.N,/solenoid_channel2/solenoid_P*%
X137213376Y-69219500D03*
D34*
%TO.P,J4,2,2*%
X137213376Y-74299500D03*
%TD*%
D33*
%TO.P,J19,1,1*%
%TO.N,/solenoid_channel9/solenoid_N*%
X309213376Y-69219500D03*
D34*
%TO.P,J19,2,2*%
X309213376Y-74299500D03*
%TD*%
D33*
%TO.P,J7,1,1*%
%TO.N,/solenoid_channel3/solenoid_N*%
X171213376Y-69219500D03*
D34*
%TO.P,J7,2,2*%
X171213376Y-74299500D03*
%TD*%
D33*
%TO.P,J2,1,1*%
%TO.N,/solenoid_channel1/solenoid_P*%
X114213375Y-69219500D03*
D34*
%TO.P,J2,2,2*%
X114213375Y-74299500D03*
%TD*%
D33*
%TO.P,J17,1,1*%
%TO.N,/solenoid_channel8/solenoid_N*%
X286213376Y-69219500D03*
D34*
%TO.P,J17,2,2*%
X286213376Y-74299500D03*
%TD*%
D33*
%TO.P,J16,1,1*%
%TO.N,/solenoid_channel8/solenoid_P*%
X275213376Y-69219500D03*
D34*
%TO.P,J16,2,2*%
X275213376Y-74299500D03*
%TD*%
D33*
%TO.P,J21,1,1*%
%TO.N,/solenoid_channel10/solenoid_N*%
X332088376Y-69219500D03*
D34*
%TO.P,J21,2,2*%
X332088376Y-74299500D03*
%TD*%
D33*
%TO.P,J11,1,1*%
%TO.N,/solenoid_channel5/solenoid_N*%
X217213376Y-69219500D03*
D34*
%TO.P,J11,2,2*%
X217213376Y-74299500D03*
%TD*%
D35*
%TO.N,/+24V*%
X191300000Y-103500000D03*
D36*
X134200000Y-102550000D03*
X132500000Y-98850000D03*
D35*
X182300001Y-79250000D03*
X251300001Y-79250000D03*
X274300001Y-79250000D03*
X320175001Y-79250000D03*
X200645000Y-101155000D03*
X228300001Y-79250000D03*
X204250000Y-104000000D03*
X211650000Y-104050000D03*
X297300001Y-79250000D03*
X113300000Y-79250000D03*
X170400000Y-105900000D03*
X136300001Y-79250000D03*
X167800000Y-110500000D03*
D36*
X127350000Y-98850000D03*
D35*
X205300001Y-79250000D03*
X159300001Y-79250000D03*
D37*
%TO.N,GND*%
X160450000Y-104100000D03*
D36*
X133700000Y-105800000D03*
D37*
X204300000Y-109000000D03*
X264800001Y-79900000D03*
X195800001Y-79900000D03*
X244150000Y-110000000D03*
X149800001Y-79900000D03*
D36*
X130200000Y-107150000D03*
D37*
X200650000Y-107250000D03*
X224800000Y-110800000D03*
X234950000Y-107250000D03*
D36*
X128000000Y-106850000D03*
D37*
X218800001Y-79900000D03*
X126800000Y-79900000D03*
X254550000Y-104650000D03*
X172800001Y-79900000D03*
X333675001Y-79900000D03*
X191350000Y-105850000D03*
X173150000Y-104050000D03*
X241800001Y-79900000D03*
X310800001Y-79900000D03*
X287800001Y-79900000D03*
D36*
%TO.N,/VGATE*%
X246300000Y-101900000D03*
X241000000Y-103500000D03*
X260100000Y-107000000D03*
X181800000Y-108950000D03*
X182587500Y-105562500D03*
%TD*%
D38*
%TO.N,/+24V*%
X136913376Y-81234500D02*
X136913376Y-79863375D01*
X211600000Y-104000000D02*
X211650000Y-104050000D01*
X320788376Y-81234500D02*
X320788376Y-79863375D01*
X205913376Y-79863375D02*
X205300001Y-79250000D01*
X228913376Y-79863375D02*
X228300001Y-79250000D01*
X132221448Y-102550000D02*
X134200000Y-102550000D01*
X251913376Y-81234500D02*
X251913376Y-79863375D01*
X274913376Y-81234500D02*
X274913376Y-79863375D01*
X297913376Y-79863375D02*
X297300001Y-79250000D01*
X205990000Y-104000000D02*
X204250000Y-104000000D01*
X169300000Y-110500000D02*
X167800000Y-110500000D01*
X159913376Y-81234500D02*
X159913376Y-79863375D01*
X127350000Y-99562284D02*
X129449871Y-101662155D01*
X191300000Y-100600000D02*
X191300000Y-103500000D01*
X131327229Y-98850000D02*
X132500000Y-98850000D01*
X130168195Y-101328496D02*
X130168195Y-100009034D01*
X320788376Y-79863375D02*
X320175001Y-79250000D01*
X274913376Y-79863375D02*
X274300001Y-79250000D01*
X251913376Y-79863375D02*
X251300001Y-79250000D01*
X182913376Y-81234500D02*
X182913376Y-79863375D01*
X127350000Y-98850000D02*
X127350000Y-99562284D01*
X129449871Y-101662155D02*
X129449871Y-102046820D01*
X113913375Y-79863375D02*
X113300000Y-79250000D01*
X159913376Y-79863375D02*
X159300001Y-79250000D01*
X170375000Y-104075000D02*
X170375000Y-105875000D01*
X297913376Y-81234500D02*
X297913376Y-79863375D01*
X131718268Y-102046820D02*
X132221448Y-102550000D01*
X182913376Y-79863375D02*
X182300001Y-79250000D01*
X129449871Y-102046820D02*
X131718268Y-102046820D01*
X113913375Y-81234500D02*
X113913375Y-79863375D01*
X200645000Y-103162500D02*
X200645000Y-101155000D01*
X205913376Y-81234500D02*
X205913376Y-79863375D01*
X170375000Y-105875000D02*
X170400000Y-105900000D01*
X129449871Y-102046820D02*
X130168195Y-101328496D01*
X209800000Y-104000000D02*
X211600000Y-104000000D01*
X228913376Y-81234500D02*
X228913376Y-79863375D01*
X200650000Y-101150000D02*
X200645000Y-101155000D01*
X130168195Y-100009034D02*
X131327229Y-98850000D01*
X136913376Y-79863375D02*
X136300001Y-79250000D01*
D39*
%TO.N,GND*%
X331833376Y-82384500D02*
X334373376Y-82384500D01*
X310228376Y-80471625D02*
X310800001Y-79900000D01*
X195228376Y-82384500D02*
X195228376Y-80471625D01*
D38*
X129449871Y-103953180D02*
X130688723Y-103953180D01*
D39*
X310228376Y-82384500D02*
X310228376Y-80471625D01*
X205990000Y-108950000D02*
X209800000Y-108950000D01*
X264228376Y-80471625D02*
X264800001Y-79900000D01*
D38*
X129449871Y-104302491D02*
X128000000Y-105752362D01*
D39*
X264228376Y-82384500D02*
X264228376Y-80471625D01*
X234250000Y-107250000D02*
X234950000Y-107250000D01*
X170958376Y-82384500D02*
X173498376Y-82384500D01*
X239958376Y-82384500D02*
X242498376Y-82384500D01*
X175400000Y-104050000D02*
X173150000Y-104050000D01*
X124958375Y-82384500D02*
X127498375Y-82384500D01*
X287228376Y-80471625D02*
X287800001Y-79900000D01*
X333103376Y-80471625D02*
X333675001Y-79900000D01*
X147958376Y-82384500D02*
X150498376Y-82384500D01*
X191300000Y-109400000D02*
X191300000Y-105900000D01*
X126228375Y-80471625D02*
X126800000Y-79900000D01*
X254500000Y-104700000D02*
X254550000Y-104650000D01*
X333103376Y-82384500D02*
X333103376Y-80471625D01*
D38*
X132535543Y-105800000D02*
X133700000Y-105800000D01*
D39*
X172228376Y-80471625D02*
X172800001Y-79900000D01*
X191300000Y-105900000D02*
X191350000Y-105850000D01*
X172228376Y-82384500D02*
X172228376Y-80471625D01*
X218228376Y-82384500D02*
X218228376Y-80471625D01*
X200645000Y-105237500D02*
X200645000Y-107245000D01*
X308958376Y-82384500D02*
X311498376Y-82384500D01*
X204350000Y-108950000D02*
X204300000Y-109000000D01*
X218228376Y-80471625D02*
X218800001Y-79900000D01*
X149228376Y-82384500D02*
X149228376Y-80471625D01*
X205990000Y-108950000D02*
X204350000Y-108950000D01*
X193958376Y-82384500D02*
X196498376Y-82384500D01*
X251650000Y-104700000D02*
X254500000Y-104700000D01*
X246300000Y-110000000D02*
X244150000Y-110000000D01*
D38*
X130688723Y-103953180D02*
X132535543Y-105800000D01*
D39*
X262958376Y-82384500D02*
X265498376Y-82384500D01*
X195228376Y-80471625D02*
X195800001Y-79900000D01*
D38*
X128000000Y-105752362D02*
X128000000Y-106850000D01*
D39*
X241228376Y-80471625D02*
X241800001Y-79900000D01*
X224800000Y-109150000D02*
X224800000Y-110800000D01*
X149228376Y-80471625D02*
X149800001Y-79900000D01*
X216958376Y-82384500D02*
X219498376Y-82384500D01*
D38*
X130200000Y-104703309D02*
X130200000Y-107150000D01*
D39*
X200645000Y-107245000D02*
X200650000Y-107250000D01*
D38*
X129449871Y-103953180D02*
X129449871Y-104302491D01*
D39*
X241228376Y-82384500D02*
X241228376Y-80471625D01*
X287228376Y-82384500D02*
X287228376Y-80471625D01*
X163125000Y-104100000D02*
X160450000Y-104100000D01*
D38*
X129449871Y-103953180D02*
X130200000Y-104703309D01*
D39*
X126228375Y-82384500D02*
X126228375Y-80471625D01*
X285958376Y-82384500D02*
X288498376Y-82384500D01*
X232300000Y-109200000D02*
X234250000Y-107250000D01*
D38*
%TO.N,/dc_dc_psu/Feedback*%
X218300000Y-103650000D02*
X217374000Y-102724000D01*
X218450000Y-103800000D02*
X218300000Y-103650000D01*
X208189032Y-102724000D02*
X207260000Y-103653032D01*
X217374000Y-102724000D02*
X208189032Y-102724000D01*
X207260000Y-103653032D02*
X207260000Y-104000000D01*
X207260000Y-104974999D02*
X207260000Y-104000000D01*
X232300000Y-103800000D02*
X218450000Y-103800000D01*
X232600000Y-103500000D02*
X232300000Y-103800000D01*
X238575000Y-103500000D02*
X232600000Y-103500000D01*
%TO.N,/solenoid_channel1/solenoid_P*%
X113913375Y-76784500D02*
X113913375Y-74599500D01*
X115914375Y-78785500D02*
X113913375Y-76784500D01*
X118313375Y-70159500D02*
X115153375Y-70159500D01*
X114213375Y-69219500D02*
X114213375Y-74299500D01*
X114020875Y-86659500D02*
X115914375Y-84766000D01*
X115914375Y-84766000D02*
X115914375Y-78785500D01*
X115153375Y-70159500D02*
X114213375Y-69219500D01*
X113913375Y-74599500D02*
X114213375Y-74299500D01*
%TO.N,/solenoid_channel1/solenoid_N*%
X124958375Y-77234500D02*
X128768375Y-77234500D01*
X118300000Y-82661715D02*
X119361715Y-81600000D01*
X125213375Y-74299500D02*
X125213375Y-69219500D01*
X121113375Y-70159500D02*
X124273375Y-70159500D01*
X124958375Y-74554500D02*
X125213375Y-74299500D01*
X118300000Y-85522875D02*
X118300000Y-82661715D01*
X124958375Y-79141625D02*
X124958375Y-77234500D01*
X119361715Y-81600000D02*
X122500000Y-81600000D01*
X122500000Y-81600000D02*
X124958375Y-79141625D01*
X124958375Y-77234500D02*
X124958375Y-74554500D01*
X114613375Y-89209500D02*
X118300000Y-85522875D01*
X124273375Y-70159500D02*
X125213375Y-69219500D01*
X114613375Y-89209500D02*
X115213375Y-89209500D01*
%TO.N,Net-(D2-K)*%
X208530000Y-104000000D02*
X208530000Y-103653032D01*
X208530000Y-104000000D02*
X208530000Y-104346968D01*
X208530000Y-104346968D02*
X213283032Y-109100000D01*
X213283032Y-109100000D02*
X218300000Y-109100000D01*
X221550000Y-109100000D02*
X224800000Y-105850000D01*
X218300000Y-109100000D02*
X221550000Y-109100000D01*
%TO.N,/solenoid_channel2/solenoid_P*%
X138914376Y-84766000D02*
X138914376Y-78785500D01*
X136913376Y-74599500D02*
X137213376Y-74299500D01*
X137213376Y-69219500D02*
X137213376Y-74299500D01*
X137020876Y-86659500D02*
X138914376Y-84766000D01*
X136913376Y-76784500D02*
X136913376Y-74599500D01*
X141313376Y-70159500D02*
X138153376Y-70159500D01*
X138153376Y-70159500D02*
X137213376Y-69219500D01*
X138914376Y-78785500D02*
X136913376Y-76784500D01*
%TO.N,/solenoid_channel2/solenoid_N*%
X145500001Y-81600000D02*
X147958376Y-79141625D01*
X144113376Y-70159500D02*
X147273376Y-70159500D01*
X141300001Y-82661715D02*
X142361716Y-81600000D01*
X148213376Y-74299500D02*
X148213376Y-69219500D01*
X147958376Y-79141625D02*
X147958376Y-77234500D01*
X137613376Y-89209500D02*
X138213376Y-89209500D01*
X147273376Y-70159500D02*
X148213376Y-69219500D01*
X147958376Y-77234500D02*
X151768376Y-77234500D01*
X147958376Y-77234500D02*
X147958376Y-74554500D01*
X142361716Y-81600000D02*
X145500001Y-81600000D01*
X137613376Y-89209500D02*
X141300001Y-85522875D01*
X141300001Y-85522875D02*
X141300001Y-82661715D01*
X147958376Y-74554500D02*
X148213376Y-74299500D01*
%TO.N,/solenoid_channel3/solenoid_N*%
X170958376Y-74554500D02*
X171213376Y-74299500D01*
X171213376Y-74299500D02*
X171213376Y-69219500D01*
X164300001Y-85522875D02*
X164300001Y-82661715D01*
X170958376Y-77234500D02*
X174768376Y-77234500D01*
X160613376Y-89209500D02*
X161213376Y-89209500D01*
X167113376Y-70159500D02*
X170273376Y-70159500D01*
X165361716Y-81600000D02*
X168500001Y-81600000D01*
X170273376Y-70159500D02*
X171213376Y-69219500D01*
X168500001Y-81600000D02*
X170958376Y-79141625D01*
X170958376Y-77234500D02*
X170958376Y-74554500D01*
X170958376Y-79141625D02*
X170958376Y-77234500D01*
X164300001Y-82661715D02*
X165361716Y-81600000D01*
X160613376Y-89209500D02*
X164300001Y-85522875D01*
%TO.N,/solenoid_channel3/solenoid_P*%
X161914376Y-84766000D02*
X161914376Y-78785500D01*
X164313376Y-70159500D02*
X161153376Y-70159500D01*
X160020876Y-86659500D02*
X161914376Y-84766000D01*
X159913376Y-76784500D02*
X159913376Y-74599500D01*
X161914376Y-78785500D02*
X159913376Y-76784500D01*
X159913376Y-74599500D02*
X160213376Y-74299500D01*
X161153376Y-70159500D02*
X160213376Y-69219500D01*
X160213376Y-69219500D02*
X160213376Y-74299500D01*
%TO.N,/solenoid_channel4/solenoid_N*%
X187300001Y-82661715D02*
X188361716Y-81600000D01*
X193958376Y-79141625D02*
X193958376Y-77234500D01*
X183613376Y-89209500D02*
X184213376Y-89209500D01*
X193273376Y-70159500D02*
X194213376Y-69219500D01*
X193958376Y-77234500D02*
X193958376Y-74554500D01*
X190113376Y-70159500D02*
X193273376Y-70159500D01*
X183613376Y-89209500D02*
X187300001Y-85522875D01*
X187300001Y-85522875D02*
X187300001Y-82661715D01*
X188361716Y-81600000D02*
X191500001Y-81600000D01*
X193958376Y-74554500D02*
X194213376Y-74299500D01*
X191500001Y-81600000D02*
X193958376Y-79141625D01*
X194213376Y-74299500D02*
X194213376Y-69219500D01*
X193958376Y-77234500D02*
X197768376Y-77234500D01*
%TO.N,/solenoid_channel4/solenoid_P*%
X183020876Y-86659500D02*
X184914376Y-84766000D01*
X184153376Y-70159500D02*
X183213376Y-69219500D01*
X187313376Y-70159500D02*
X184153376Y-70159500D01*
X182913376Y-76784500D02*
X182913376Y-74599500D01*
X183213376Y-69219500D02*
X183213376Y-74299500D01*
X184914376Y-84766000D02*
X184914376Y-78785500D01*
X184914376Y-78785500D02*
X182913376Y-76784500D01*
X182913376Y-74599500D02*
X183213376Y-74299500D01*
%TO.N,/solenoid_channel5/solenoid_P*%
X206020876Y-86659500D02*
X207914376Y-84766000D01*
X206213376Y-69219500D02*
X206213376Y-74299500D01*
X205913376Y-74599500D02*
X206213376Y-74299500D01*
X210313376Y-70159500D02*
X207153376Y-70159500D01*
X205913376Y-76784500D02*
X205913376Y-74599500D01*
X207914376Y-84766000D02*
X207914376Y-78785500D01*
X207914376Y-78785500D02*
X205913376Y-76784500D01*
X207153376Y-70159500D02*
X206213376Y-69219500D01*
%TO.N,/solenoid_channel5/solenoid_N*%
X216958376Y-79141625D02*
X216958376Y-77234500D01*
X213113376Y-70159500D02*
X216273376Y-70159500D01*
X217213376Y-74299500D02*
X217213376Y-69219500D01*
X214500001Y-81600000D02*
X216958376Y-79141625D01*
X216958376Y-77234500D02*
X220768376Y-77234500D01*
X216273376Y-70159500D02*
X217213376Y-69219500D01*
X211361716Y-81600000D02*
X214500001Y-81600000D01*
X206613376Y-89209500D02*
X210300001Y-85522875D01*
X216958376Y-77234500D02*
X216958376Y-74554500D01*
X216958376Y-74554500D02*
X217213376Y-74299500D01*
X206613376Y-89209500D02*
X207213376Y-89209500D01*
X210300001Y-85522875D02*
X210300001Y-82661715D01*
X210300001Y-82661715D02*
X211361716Y-81600000D01*
%TO.N,/solenoid_channel6/solenoid_N*%
X229613376Y-89209500D02*
X233300001Y-85522875D01*
X240213376Y-74299500D02*
X240213376Y-69219500D01*
X239958376Y-77234500D02*
X239958376Y-74554500D01*
X229613376Y-89209500D02*
X230213376Y-89209500D01*
X233300001Y-82661715D02*
X234361716Y-81600000D01*
X234361716Y-81600000D02*
X237500001Y-81600000D01*
X239958376Y-79141625D02*
X239958376Y-77234500D01*
X239958376Y-74554500D02*
X240213376Y-74299500D01*
X239273376Y-70159500D02*
X240213376Y-69219500D01*
X236113376Y-70159500D02*
X239273376Y-70159500D01*
X239958376Y-77234500D02*
X243768376Y-77234500D01*
X233300001Y-85522875D02*
X233300001Y-82661715D01*
X237500001Y-81600000D02*
X239958376Y-79141625D01*
%TO.N,/solenoid_channel6/solenoid_P*%
X230153376Y-70159500D02*
X229213376Y-69219500D01*
X229020876Y-86659500D02*
X230914376Y-84766000D01*
X230914376Y-78785500D02*
X228913376Y-76784500D01*
X233313376Y-70159500D02*
X230153376Y-70159500D01*
X229213376Y-69219500D02*
X229213376Y-74299500D01*
X230914376Y-84766000D02*
X230914376Y-78785500D01*
X228913376Y-76784500D02*
X228913376Y-74599500D01*
X228913376Y-74599500D02*
X229213376Y-74299500D01*
%TO.N,/solenoid_channel7/solenoid_N*%
X256300001Y-85522875D02*
X256300001Y-82661715D01*
X262958376Y-77234500D02*
X266768376Y-77234500D01*
X252613376Y-89209500D02*
X256300001Y-85522875D01*
X257361716Y-81600000D02*
X260500001Y-81600000D01*
X256300001Y-82661715D02*
X257361716Y-81600000D01*
X260500001Y-81600000D02*
X262958376Y-79141625D01*
X262958376Y-77234500D02*
X262958376Y-74554500D01*
X262958376Y-79141625D02*
X262958376Y-77234500D01*
X263213376Y-74299500D02*
X263213376Y-69219500D01*
X252613376Y-89209500D02*
X253213376Y-89209500D01*
X262273376Y-70159500D02*
X263213376Y-69219500D01*
X262958376Y-74554500D02*
X263213376Y-74299500D01*
X259113376Y-70159500D02*
X262273376Y-70159500D01*
%TO.N,/solenoid_channel7/solenoid_P*%
X251913376Y-76784500D02*
X251913376Y-74599500D01*
X253153376Y-70159500D02*
X252213376Y-69219500D01*
X252213376Y-69219500D02*
X252213376Y-74299500D01*
X251913376Y-74599500D02*
X252213376Y-74299500D01*
X253914376Y-78785500D02*
X251913376Y-76784500D01*
X252020876Y-86659500D02*
X253914376Y-84766000D01*
X256313376Y-70159500D02*
X253153376Y-70159500D01*
X253914376Y-84766000D02*
X253914376Y-78785500D01*
%TO.N,/solenoid_channel8/solenoid_P*%
X276153376Y-70159500D02*
X275213376Y-69219500D01*
X274913376Y-76784500D02*
X274913376Y-74599500D01*
X274913376Y-74599500D02*
X275213376Y-74299500D01*
X275213376Y-69219500D02*
X275213376Y-74299500D01*
X276914376Y-78785500D02*
X274913376Y-76784500D01*
X279313376Y-70159500D02*
X276153376Y-70159500D01*
X275020876Y-86659500D02*
X276914376Y-84766000D01*
X276914376Y-84766000D02*
X276914376Y-78785500D01*
%TO.N,/solenoid_channel8/solenoid_N*%
X285273376Y-70159500D02*
X286213376Y-69219500D01*
X279300001Y-82661715D02*
X280361716Y-81600000D01*
X283500001Y-81600000D02*
X285958376Y-79141625D01*
X285958376Y-79141625D02*
X285958376Y-77234500D01*
X279300001Y-85522875D02*
X279300001Y-82661715D01*
X285958376Y-77234500D02*
X285958376Y-74554500D01*
X280361716Y-81600000D02*
X283500001Y-81600000D01*
X285958376Y-74554500D02*
X286213376Y-74299500D01*
X286213376Y-74299500D02*
X286213376Y-69219500D01*
X275613376Y-89209500D02*
X276213376Y-89209500D01*
X275613376Y-89209500D02*
X279300001Y-85522875D01*
X285958376Y-77234500D02*
X289768376Y-77234500D01*
X282113376Y-70159500D02*
X285273376Y-70159500D01*
%TO.N,/solenoid_channel9/solenoid_P*%
X297913376Y-74599500D02*
X298213376Y-74299500D01*
X299153376Y-70159500D02*
X298213376Y-69219500D01*
X299914376Y-78785500D02*
X297913376Y-76784500D01*
X302313376Y-70159500D02*
X299153376Y-70159500D01*
X299914376Y-84766000D02*
X299914376Y-78785500D01*
X298020876Y-86659500D02*
X299914376Y-84766000D01*
X298213376Y-69219500D02*
X298213376Y-74299500D01*
X297913376Y-76784500D02*
X297913376Y-74599500D01*
%TO.N,/solenoid_channel9/solenoid_N*%
X308273376Y-70159500D02*
X309213376Y-69219500D01*
X306500001Y-81600000D02*
X308958376Y-79141625D01*
X309213376Y-74299500D02*
X309213376Y-69219500D01*
X302300001Y-82661715D02*
X303361716Y-81600000D01*
X303361716Y-81600000D02*
X306500001Y-81600000D01*
X308958376Y-77234500D02*
X312768376Y-77234500D01*
X308958376Y-77234500D02*
X308958376Y-74554500D01*
X302300001Y-85522875D02*
X302300001Y-82661715D01*
X305113376Y-70159500D02*
X308273376Y-70159500D01*
X298613376Y-89209500D02*
X302300001Y-85522875D01*
X308958376Y-79141625D02*
X308958376Y-77234500D01*
X308958376Y-74554500D02*
X309213376Y-74299500D01*
X298613376Y-89209500D02*
X299213376Y-89209500D01*
%TO.N,/solenoid_channel10/solenoid_N*%
X325175001Y-85522875D02*
X325175001Y-82661715D01*
X326236716Y-81600000D02*
X329375001Y-81600000D01*
X331148376Y-70159500D02*
X332088376Y-69219500D01*
X321488376Y-89209500D02*
X325175001Y-85522875D01*
X331833376Y-74554500D02*
X332088376Y-74299500D01*
X329375001Y-81600000D02*
X331833376Y-79141625D01*
X331833376Y-77234500D02*
X331833376Y-74554500D01*
X327988376Y-70159500D02*
X331148376Y-70159500D01*
X332088376Y-74299500D02*
X332088376Y-69219500D01*
X331833376Y-79141625D02*
X331833376Y-77234500D01*
X325175001Y-82661715D02*
X326236716Y-81600000D01*
X321488376Y-89209500D02*
X322088376Y-89209500D01*
X331833376Y-77234500D02*
X335643376Y-77234500D01*
%TO.N,/solenoid_channel10/solenoid_P*%
X321088376Y-69219500D02*
X321088376Y-74299500D01*
X322789376Y-84766000D02*
X322789376Y-78785500D01*
X322789376Y-78785500D02*
X320788376Y-76784500D01*
X325188376Y-70159500D02*
X322028376Y-70159500D01*
X320895876Y-86659500D02*
X322789376Y-84766000D01*
X320788376Y-74599500D02*
X321088376Y-74299500D01*
X320788376Y-76784500D02*
X320788376Y-74599500D01*
X322028376Y-70159500D02*
X321088376Y-69219500D01*
%TO.N,Net-(DZ1-A)*%
X251650000Y-109300000D02*
X247600000Y-109300000D01*
X247600000Y-109300000D02*
X246300000Y-108000000D01*
X246300000Y-106000000D02*
X246300000Y-108000000D01*
%TO.N,/VGATE*%
X251650000Y-107000000D02*
X249800000Y-107000000D01*
X333462176Y-89798900D02*
X326962176Y-89798900D01*
X264587176Y-89798900D02*
X258087176Y-89798900D01*
X241587176Y-89798900D02*
X235087176Y-89798900D01*
X195587176Y-89798900D02*
X189087176Y-89798900D01*
X243025000Y-103500000D02*
X241000000Y-103500000D01*
X172587176Y-89798900D02*
X166087176Y-89798900D01*
X218587176Y-89798900D02*
X212087176Y-89798900D01*
X243025000Y-103500000D02*
X246300000Y-103500000D01*
X257950000Y-107000000D02*
X260100000Y-107000000D01*
X249800000Y-107000000D02*
X246300000Y-103500000D01*
X257950000Y-107000000D02*
X251650000Y-107000000D01*
X149587176Y-89798900D02*
X143087176Y-89798900D01*
X126587175Y-89798900D02*
X120087175Y-89798900D01*
X246300000Y-103500000D02*
X246300000Y-101900000D01*
X182587500Y-104000000D02*
X182587500Y-105562500D01*
X181800000Y-108950000D02*
X181800000Y-108900000D01*
X310587176Y-89798900D02*
X304087176Y-89798900D01*
X287587176Y-89798900D02*
X281087176Y-89798900D01*
X181800000Y-110500000D02*
X181800000Y-108950000D01*
%TO.N,/CH7_IN*%
X258087176Y-87712825D02*
X258087176Y-85298900D01*
X258088376Y-85309500D02*
X258088376Y-83159500D01*
X130700000Y-105870000D02*
X131580000Y-106750000D01*
X264588376Y-85309500D02*
X258088376Y-85309500D01*
X230800000Y-94000000D02*
X251800000Y-94000000D01*
X131580000Y-106750000D02*
X133887200Y-106750000D01*
X228800000Y-96000000D02*
X230800000Y-94000000D01*
X133887200Y-106750000D02*
X144137200Y-96500000D01*
X251800000Y-94000000D02*
X258088376Y-87711625D01*
X144137200Y-96500000D02*
X182300000Y-96500000D01*
X182800000Y-96000000D02*
X228800000Y-96000000D01*
X258088376Y-83159500D02*
X257738376Y-82809500D01*
X182300000Y-96500000D02*
X182800000Y-96000000D01*
%TO.N,/CH5_IN*%
X212087176Y-87712825D02*
X212087176Y-85298900D01*
X212088376Y-85309500D02*
X212088376Y-83159500D01*
X212088376Y-83159500D02*
X211738376Y-82809500D01*
X182367100Y-95000000D02*
X204800000Y-95000000D01*
X135167100Y-103200000D02*
X142867100Y-95500000D01*
X181867100Y-95500000D02*
X182367100Y-95000000D01*
X142867100Y-95500000D02*
X181867100Y-95500000D01*
X130670000Y-103200000D02*
X135167100Y-103200000D01*
X205800000Y-94000000D02*
X212088375Y-87711625D01*
X204800000Y-95000000D02*
X205800000Y-94000000D01*
X218588376Y-85309500D02*
X212088376Y-85309500D01*
%TO.N,/CH9_IN*%
X183300000Y-97000000D02*
X229800000Y-97000000D01*
X229800000Y-97000000D02*
X230800000Y-96000000D01*
X127845388Y-108049000D02*
X133722400Y-108049000D01*
X277800000Y-94000000D02*
X297800000Y-94000000D01*
X297800000Y-94000000D02*
X304088375Y-87711625D01*
X127270000Y-107473612D02*
X127845388Y-108049000D01*
X230800000Y-96000000D02*
X275800000Y-96000000D01*
X304088376Y-83159500D02*
X303738376Y-82809500D01*
X144271400Y-97500000D02*
X182800000Y-97500000D01*
X304088376Y-85309500D02*
X304088376Y-83159500D01*
X133722400Y-108049000D02*
X144271400Y-97500000D01*
X304087176Y-87712825D02*
X304087176Y-85298900D01*
X182800000Y-97500000D02*
X183300000Y-97000000D01*
X275800000Y-96000000D02*
X277800000Y-94000000D01*
X127270000Y-104970000D02*
X127270000Y-107473612D01*
X310588376Y-85309500D02*
X304088376Y-85309500D01*
%TO.N,/CH8_IN*%
X281087176Y-87712825D02*
X281087176Y-85298900D01*
X287588376Y-85309500D02*
X281088376Y-85309500D01*
X129298000Y-107698000D02*
X133506300Y-107698000D01*
X128830000Y-106000000D02*
X128830000Y-107230000D01*
X254300000Y-94000000D02*
X274800000Y-94000000D01*
X229266450Y-96533550D02*
X230300000Y-95500000D01*
X144204300Y-97000000D02*
X182367100Y-97000000D01*
X252800000Y-95500000D02*
X254300000Y-94000000D01*
X281088376Y-85309500D02*
X281088376Y-83159500D01*
X274800000Y-94000000D02*
X281088375Y-87711625D01*
X133506300Y-107698000D02*
X144204300Y-97000000D01*
X128830000Y-107230000D02*
X129298000Y-107698000D01*
X182833550Y-96533550D02*
X229266450Y-96533550D01*
X230300000Y-95500000D02*
X252800000Y-95500000D01*
X281088376Y-83159500D02*
X280738376Y-82809500D01*
X182367100Y-97000000D02*
X182833550Y-96533550D01*
%TO.N,/CH2_IN*%
X135458810Y-94000000D02*
X139000000Y-94000000D01*
X139000000Y-89397876D02*
X143088376Y-85309500D01*
X143088376Y-83159500D02*
X142738376Y-82809500D01*
X129263195Y-100195615D02*
X135458810Y-94000000D01*
X139000000Y-94000000D02*
X139000000Y-89397876D01*
X143088376Y-85309500D02*
X143088376Y-83159500D01*
X149588376Y-85309500D02*
X143088376Y-85309500D01*
%TO.N,/CH6_IN*%
X241588376Y-85309500D02*
X235088376Y-85309500D01*
X132090000Y-104630000D02*
X134304200Y-104630000D01*
X182434200Y-95500000D02*
X227300000Y-95500000D01*
X235087176Y-87712825D02*
X235087176Y-85298900D01*
X181934200Y-96000000D02*
X182434200Y-95500000D01*
X142934200Y-96000000D02*
X181934200Y-96000000D01*
X228800000Y-94000000D02*
X235088375Y-87711625D01*
X235088376Y-85309500D02*
X235088376Y-83159500D01*
X235088376Y-83159500D02*
X234738376Y-82809500D01*
X227300000Y-95500000D02*
X228800000Y-94000000D01*
X134304200Y-104630000D02*
X142934200Y-96000000D01*
%TO.N,/CH4_IN*%
X181800000Y-95000000D02*
X182800000Y-94000000D01*
X182800000Y-94000000D02*
X189088375Y-87711625D01*
X136030000Y-101770000D02*
X142800000Y-95000000D01*
X195588376Y-85309500D02*
X189088376Y-85309500D01*
X189087176Y-87712825D02*
X189087176Y-85298900D01*
X189088376Y-85309500D02*
X189088376Y-83159500D01*
X142800000Y-95000000D02*
X181800000Y-95000000D01*
X189088376Y-83159500D02*
X188738376Y-82809500D01*
X132090000Y-101770000D02*
X136030000Y-101770000D01*
%TO.N,/CH10_IN*%
X125850000Y-104020000D02*
X125850000Y-106550000D01*
X326963376Y-85309500D02*
X326963376Y-83159500D01*
X126670000Y-103200000D02*
X125850000Y-104020000D01*
X326962176Y-87712825D02*
X326962176Y-85298900D01*
X302300000Y-94000000D02*
X320300000Y-94000000D01*
X183800000Y-97500000D02*
X298800000Y-97500000D01*
X133938498Y-108400000D02*
X144338498Y-98000000D01*
X298800000Y-97500000D02*
X302300000Y-94000000D01*
X333463376Y-85309500D02*
X326963376Y-85309500D01*
X320300000Y-94000000D02*
X320650000Y-94000000D01*
X125850000Y-106550000D02*
X127700000Y-108400000D01*
X144338498Y-98000000D02*
X183300000Y-98000000D01*
X320650000Y-94000000D02*
X326963376Y-87686624D01*
X127700000Y-108400000D02*
X133938498Y-108400000D01*
X326963376Y-83159500D02*
X326613376Y-82809500D01*
X183300000Y-98000000D02*
X183800000Y-97500000D01*
%TO.N,/CH1_IN*%
X120087175Y-87712825D02*
X120087175Y-85298900D01*
X121230000Y-101430000D02*
X113800000Y-94000000D01*
X120088375Y-83159500D02*
X119738375Y-82809500D01*
X127270000Y-101430000D02*
X121230000Y-101430000D01*
X113800000Y-94000000D02*
X120087175Y-87712825D01*
X120088375Y-85309500D02*
X120088375Y-83159500D01*
X126588375Y-85309500D02*
X120088375Y-85309500D01*
%TO.N,/CH3_IN*%
X166088376Y-83159500D02*
X165738376Y-82809500D01*
X142800000Y-94000000D02*
X159800000Y-94000000D01*
X172588376Y-85309500D02*
X166088376Y-85309500D01*
X130700000Y-100530000D02*
X136270000Y-100530000D01*
X159800000Y-94000000D02*
X166088375Y-87711625D01*
X136270000Y-100530000D02*
X142800000Y-94000000D01*
X166088376Y-85309500D02*
X166088376Y-83159500D01*
X166087176Y-87712825D02*
X166087176Y-85298900D01*
%TO.N,Net-(LED1-K)*%
X168600000Y-104100000D02*
X168625000Y-104075000D01*
X165125000Y-104100000D02*
X168600000Y-104100000D01*
X165150000Y-104075000D02*
X165125000Y-104100000D01*
%TO.N,Net-(LED2-K)*%
X180875000Y-104050000D02*
X180925000Y-104000000D01*
X177450000Y-104000000D02*
X177400000Y-104050000D01*
X177400000Y-104050000D02*
X180875000Y-104050000D01*
%TO.N,Net-(LED3-K)*%
X112613375Y-87252000D02*
X113205875Y-86659500D01*
X112613375Y-89209500D02*
X112613375Y-87252000D01*
%TO.N,Net-(LED4-K)*%
X135613376Y-87252000D02*
X136205876Y-86659500D01*
X135613376Y-89209500D02*
X135613376Y-87252000D01*
%TO.N,Net-(LED5-K)*%
X158613376Y-87252000D02*
X159205876Y-86659500D01*
X158613376Y-89209500D02*
X158613376Y-87252000D01*
%TO.N,Net-(LED6-K)*%
X181613376Y-87252000D02*
X182205876Y-86659500D01*
X181613376Y-89209500D02*
X181613376Y-87252000D01*
%TO.N,Net-(LED7-K)*%
X204613376Y-89209500D02*
X204613376Y-87252000D01*
X204613376Y-87252000D02*
X205205876Y-86659500D01*
%TO.N,Net-(LED8-K)*%
X227613376Y-87252000D02*
X228205876Y-86659500D01*
X227613376Y-89209500D02*
X227613376Y-87252000D01*
%TO.N,Net-(LED9-K)*%
X250613376Y-89209500D02*
X250613376Y-87252000D01*
X250613376Y-87252000D02*
X251205876Y-86659500D01*
%TO.N,Net-(LED10-K)*%
X273613376Y-89209500D02*
X273613376Y-87252000D01*
X273613376Y-87252000D02*
X274205876Y-86659500D01*
%TO.N,Net-(LED11-K)*%
X296613376Y-87252000D02*
X297205876Y-86659500D01*
X296613376Y-89209500D02*
X296613376Y-87252000D01*
%TO.N,Net-(LED12-K)*%
X319488376Y-87252000D02*
X320080876Y-86659500D01*
X319488376Y-89209500D02*
X319488376Y-87252000D01*
%TO.N,Net-(Q1-G)*%
X128768375Y-82384500D02*
X128768375Y-83259499D01*
X128467374Y-83560500D02*
X122489375Y-83560500D01*
X122489375Y-83560500D02*
X121738375Y-82809500D01*
X128768375Y-83259499D02*
X128467374Y-83560500D01*
%TO.N,Net-(Q3-G)*%
X151467375Y-83560500D02*
X145489376Y-83560500D01*
X145489376Y-83560500D02*
X144738376Y-82809500D01*
X151768376Y-83259499D02*
X151467375Y-83560500D01*
X151768376Y-82384500D02*
X151768376Y-83259499D01*
%TO.N,Net-(Q4-G)*%
X174768376Y-83259499D02*
X174467375Y-83560500D01*
X174768376Y-82384500D02*
X174768376Y-83259499D01*
X168489376Y-83560500D02*
X167738376Y-82809500D01*
X174467375Y-83560500D02*
X168489376Y-83560500D01*
%TO.N,Net-(Q5-G)*%
X197467375Y-83560500D02*
X191489376Y-83560500D01*
X197768376Y-83259499D02*
X197467375Y-83560500D01*
X197768376Y-82384500D02*
X197768376Y-83259499D01*
X191489376Y-83560500D02*
X190738376Y-82809500D01*
%TO.N,Net-(Q6-G)*%
X220768376Y-83259499D02*
X220467375Y-83560500D01*
X220768376Y-82384500D02*
X220768376Y-83259499D01*
X214489376Y-83560500D02*
X213738376Y-82809500D01*
X220467375Y-83560500D02*
X214489376Y-83560500D01*
%TO.N,Net-(Q7-G)*%
X237489376Y-83560500D02*
X236738376Y-82809500D01*
X243467375Y-83560500D02*
X237489376Y-83560500D01*
X243768376Y-83259499D02*
X243467375Y-83560500D01*
X243768376Y-82384500D02*
X243768376Y-83259499D01*
%TO.N,Net-(Q8-G)*%
X260489376Y-83560500D02*
X259738376Y-82809500D01*
X266467375Y-83560500D02*
X260489376Y-83560500D01*
X266768376Y-83259499D02*
X266467375Y-83560500D01*
X266768376Y-82384500D02*
X266768376Y-83259499D01*
%TO.N,Net-(Q9-G)*%
X289768376Y-82384500D02*
X289768376Y-83259499D01*
X283489376Y-83560500D02*
X282738376Y-82809500D01*
X289467375Y-83560500D02*
X283489376Y-83560500D01*
X289768376Y-83259499D02*
X289467375Y-83560500D01*
%TO.N,Net-(Q10-G)*%
X312768376Y-82384500D02*
X312768376Y-83259499D01*
X306489376Y-83560500D02*
X305738376Y-82809500D01*
X312467375Y-83560500D02*
X306489376Y-83560500D01*
X312768376Y-83259499D02*
X312467375Y-83560500D01*
%TO.N,Net-(Q11-G)*%
X335643376Y-83259499D02*
X335342375Y-83560500D01*
X335342375Y-83560500D02*
X329364376Y-83560500D01*
X329364376Y-83560500D02*
X328613376Y-82809500D01*
X335643376Y-82384500D02*
X335643376Y-83259499D01*
%TD*%
M02*
