G04 #@! TF.GenerationSoftware,KiCad,Pcbnew,9.0.0*
G04 #@! TF.CreationDate,2025-04-14T19:28:54-07:00*
G04 #@! TF.ProjectId,solenoid_10,736f6c65-6e6f-4696-945f-31302e6b6963,rev?*
G04 #@! TF.SameCoordinates,Original*
G04 #@! TF.FileFunction,Copper,L1,Top*
G04 #@! TF.FilePolarity,Positive*
%FSLAX46Y46*%
G04 Gerber Fmt 4.6, Leading zero omitted, Abs format (unit mm)*
G04 Created by KiCad (PCBNEW 9.0.0) date 2025-04-14 19:28:54*
%MOMM*%
%LPD*%
G01*
G04 APERTURE LIST*
G04 Aperture macros list*
%AMRoundRect*
0 Rectangle with rounded corners*
0 $1 Rounding radius*
0 $2 $3 $4 $5 $6 $7 $8 $9 X,Y pos of 4 corners*
0 Add a 4 corners polygon primitive as box body*
4,1,4,$2,$3,$4,$5,$6,$7,$8,$9,$2,$3,0*
0 Add four circle primitives for the rounded corners*
1,1,$1+$1,$2,$3*
1,1,$1+$1,$4,$5*
1,1,$1+$1,$6,$7*
1,1,$1+$1,$8,$9*
0 Add four rect primitives between the rounded corners*
20,1,$1+$1,$2,$3,$4,$5,0*
20,1,$1+$1,$4,$5,$6,$7,0*
20,1,$1+$1,$6,$7,$8,$9,0*
20,1,$1+$1,$8,$9,$2,$3,0*%
%AMRotRect*
0 Rectangle, with rotation*
0 The origin of the aperture is its center*
0 $1 length*
0 $2 width*
0 $3 Rotation angle, in degrees counterclockwise*
0 Add horizontal line*
21,1,$1,$2,0,0,$3*%
G04 Aperture macros list end*
G04 #@! TA.AperFunction,SMDPad,CuDef*
%ADD10RoundRect,0.250000X0.350000X0.450000X-0.350000X0.450000X-0.350000X-0.450000X0.350000X-0.450000X0*%
G04 #@! TD*
G04 #@! TA.AperFunction,SMDPad,CuDef*
%ADD11R,1.000000X1.000000*%
G04 #@! TD*
G04 #@! TA.AperFunction,SMDPad,CuDef*
%ADD12RoundRect,0.250000X1.450000X-0.400000X1.450000X0.400000X-1.450000X0.400000X-1.450000X-0.400000X0*%
G04 #@! TD*
G04 #@! TA.AperFunction,SMDPad,CuDef*
%ADD13RoundRect,0.250000X-0.350000X-0.450000X0.350000X-0.450000X0.350000X0.450000X-0.350000X0.450000X0*%
G04 #@! TD*
G04 #@! TA.AperFunction,SMDPad,CuDef*
%ADD14RoundRect,0.150000X0.150000X-0.725000X0.150000X0.725000X-0.150000X0.725000X-0.150000X-0.725000X0*%
G04 #@! TD*
G04 #@! TA.AperFunction,SMDPad,CuDef*
%ADD15RoundRect,0.225000X-0.375000X0.225000X-0.375000X-0.225000X0.375000X-0.225000X0.375000X0.225000X0*%
G04 #@! TD*
G04 #@! TA.AperFunction,SMDPad,CuDef*
%ADD16RoundRect,0.100000X-0.130000X-0.100000X0.130000X-0.100000X0.130000X0.100000X-0.130000X0.100000X0*%
G04 #@! TD*
G04 #@! TA.AperFunction,ComponentPad*
%ADD17R,2.000000X2.000000*%
G04 #@! TD*
G04 #@! TA.AperFunction,ComponentPad*
%ADD18C,2.000000*%
G04 #@! TD*
G04 #@! TA.AperFunction,SMDPad,CuDef*
%ADD19RoundRect,0.250000X-0.300000X-0.300000X0.300000X-0.300000X0.300000X0.300000X-0.300000X0.300000X0*%
G04 #@! TD*
G04 #@! TA.AperFunction,SMDPad,CuDef*
%ADD20RoundRect,0.250001X-0.799999X2.049999X-0.799999X-2.049999X0.799999X-2.049999X0.799999X2.049999X0*%
G04 #@! TD*
G04 #@! TA.AperFunction,SMDPad,CuDef*
%ADD21RoundRect,0.218750X-0.218750X-0.256250X0.218750X-0.256250X0.218750X0.256250X-0.218750X0.256250X0*%
G04 #@! TD*
G04 #@! TA.AperFunction,SMDPad,CuDef*
%ADD22RoundRect,0.250000X-0.250000X0.250000X-0.250000X-0.250000X0.250000X-0.250000X0.250000X0.250000X0*%
G04 #@! TD*
G04 #@! TA.AperFunction,SMDPad,CuDef*
%ADD23RoundRect,0.250000X-0.475000X0.337500X-0.475000X-0.337500X0.475000X-0.337500X0.475000X0.337500X0*%
G04 #@! TD*
G04 #@! TA.AperFunction,SMDPad,CuDef*
%ADD24RoundRect,0.250000X-0.750000X-0.500000X0.750000X-0.500000X0.750000X0.500000X-0.750000X0.500000X0*%
G04 #@! TD*
G04 #@! TA.AperFunction,SMDPad,CuDef*
%ADD25RoundRect,0.250000X-0.750000X-1.650000X0.750000X-1.650000X0.750000X1.650000X-0.750000X1.650000X0*%
G04 #@! TD*
G04 #@! TA.AperFunction,SMDPad,CuDef*
%ADD26RoundRect,0.150000X-0.150000X0.825000X-0.150000X-0.825000X0.150000X-0.825000X0.150000X0.825000X0*%
G04 #@! TD*
G04 #@! TA.AperFunction,SMDPad,CuDef*
%ADD27RoundRect,0.250000X-0.550000X1.500000X-0.550000X-1.500000X0.550000X-1.500000X0.550000X1.500000X0*%
G04 #@! TD*
G04 #@! TA.AperFunction,ComponentPad*
%ADD28RotRect,1.308000X1.308000X315.000000*%
G04 #@! TD*
G04 #@! TA.AperFunction,ComponentPad*
%ADD29C,1.308000*%
G04 #@! TD*
G04 #@! TA.AperFunction,SMDPad,CuDef*
%ADD30RoundRect,0.250000X-0.400000X-1.450000X0.400000X-1.450000X0.400000X1.450000X-0.400000X1.450000X0*%
G04 #@! TD*
G04 #@! TA.AperFunction,SMDPad,CuDef*
%ADD31RoundRect,0.250000X-0.450000X0.350000X-0.450000X-0.350000X0.450000X-0.350000X0.450000X0.350000X0*%
G04 #@! TD*
G04 #@! TA.AperFunction,SMDPad,CuDef*
%ADD32R,3.500000X2.950000*%
G04 #@! TD*
G04 #@! TA.AperFunction,ComponentPad*
%ADD33R,2.100000X2.100000*%
G04 #@! TD*
G04 #@! TA.AperFunction,ComponentPad*
%ADD34C,2.100000*%
G04 #@! TD*
G04 #@! TA.AperFunction,ViaPad*
%ADD35C,0.600000*%
G04 #@! TD*
G04 #@! TA.AperFunction,ViaPad*
%ADD36C,0.350000*%
G04 #@! TD*
G04 #@! TA.AperFunction,ViaPad*
%ADD37C,0.500000*%
G04 #@! TD*
G04 #@! TA.AperFunction,Conductor*
%ADD38C,0.200000*%
G04 #@! TD*
G04 #@! TA.AperFunction,Conductor*
%ADD39C,0.500000*%
G04 #@! TD*
G04 APERTURE END LIST*
D10*
X137613376Y-89209500D03*
X135613376Y-89209500D03*
D11*
X228800000Y-94000000D03*
D12*
X159913376Y-81234500D03*
X159913376Y-76784500D03*
X297913376Y-81234500D03*
X297913376Y-76784500D03*
D13*
X257738376Y-82809500D03*
X259738376Y-82809500D03*
D14*
X147958376Y-82384500D03*
X149228376Y-82384500D03*
X150498376Y-82384500D03*
X151768376Y-82384500D03*
X151768376Y-77234500D03*
X150498376Y-77234500D03*
X149228376Y-77234500D03*
X147958376Y-77234500D03*
D12*
X228913376Y-81234500D03*
X228913376Y-76784500D03*
D15*
X224800000Y-105850000D03*
X224800000Y-109150000D03*
D11*
X205800000Y-94000000D03*
D16*
X159293376Y-86659500D03*
X159933376Y-86659500D03*
D13*
X165738376Y-82809500D03*
X167738376Y-82809500D03*
D17*
X143088376Y-85309500D03*
D18*
X149588376Y-85309500D03*
X143088376Y-89809500D03*
X149588376Y-89809500D03*
D14*
X285958376Y-82384500D03*
X287228376Y-82384500D03*
X288498376Y-82384500D03*
X289768376Y-82384500D03*
X289768376Y-77234500D03*
X288498376Y-77234500D03*
X287228376Y-77234500D03*
X285958376Y-77234500D03*
X239958376Y-82384500D03*
X241228376Y-82384500D03*
X242498376Y-82384500D03*
X243768376Y-82384500D03*
X243768376Y-77234500D03*
X242498376Y-77234500D03*
X241228376Y-77234500D03*
X239958376Y-77234500D03*
D16*
X113293375Y-86659500D03*
X113933375Y-86659500D03*
D10*
X252613376Y-89209500D03*
X250613376Y-89209500D03*
D13*
X119738375Y-82809500D03*
X121738375Y-82809500D03*
D19*
X302313376Y-70159500D03*
X305113376Y-70159500D03*
D10*
X275613376Y-89209500D03*
X273613376Y-89209500D03*
D13*
X188738376Y-82809500D03*
X190738376Y-82809500D03*
D16*
X182293376Y-86659500D03*
X182933376Y-86659500D03*
D10*
X229613376Y-89209500D03*
X227613376Y-89209500D03*
D20*
X191300000Y-100600000D03*
X191300000Y-109400000D03*
D19*
X141313376Y-70159500D03*
X144113376Y-70159500D03*
D16*
X251293376Y-86659500D03*
X251933376Y-86659500D03*
D10*
X298613376Y-89209500D03*
X296613376Y-89209500D03*
D21*
X181012500Y-104000000D03*
X182587500Y-104000000D03*
D22*
X246300000Y-103500000D03*
X246300000Y-106000000D03*
D16*
X136293376Y-86659500D03*
X136933376Y-86659500D03*
D12*
X182913376Y-81234500D03*
X182913376Y-76784500D03*
D13*
X142738376Y-82809500D03*
X144738376Y-82809500D03*
D12*
X274913376Y-81234500D03*
X274913376Y-76784500D03*
D11*
X181800000Y-110500000D03*
D19*
X187313376Y-70159500D03*
X190113376Y-70159500D03*
D17*
X304088376Y-85309500D03*
D18*
X310588376Y-85309500D03*
X304088376Y-89809500D03*
X310588376Y-89809500D03*
D17*
X258088376Y-85309500D03*
D18*
X264588376Y-85309500D03*
X258088376Y-89809500D03*
X264588376Y-89809500D03*
D17*
X235088376Y-85309500D03*
D18*
X241588376Y-85309500D03*
X235088376Y-89809500D03*
X241588376Y-89809500D03*
D23*
X200645000Y-103162500D03*
X200645000Y-105237500D03*
D17*
X326963376Y-85309500D03*
D18*
X333463376Y-85309500D03*
X326963376Y-89809500D03*
X333463376Y-89809500D03*
D11*
X182800000Y-94000000D03*
D12*
X320788376Y-81234500D03*
X320788376Y-76784500D03*
X113913375Y-81234500D03*
X113913375Y-76784500D03*
D11*
X169300000Y-110500000D03*
D13*
X211738376Y-82809500D03*
X213738376Y-82809500D03*
D16*
X205293376Y-86659500D03*
X205933376Y-86659500D03*
D24*
X251650000Y-104700000D03*
X251650000Y-107000000D03*
D25*
X257950000Y-107000000D03*
D24*
X251650000Y-109300000D03*
D14*
X124958375Y-82384500D03*
X126228375Y-82384500D03*
X127498375Y-82384500D03*
X128768375Y-82384500D03*
X128768375Y-77234500D03*
X127498375Y-77234500D03*
X126228375Y-77234500D03*
X124958375Y-77234500D03*
D19*
X256313376Y-70159500D03*
X259113376Y-70159500D03*
D14*
X308958376Y-82384500D03*
X310228376Y-82384500D03*
X311498376Y-82384500D03*
X312768376Y-82384500D03*
X312768376Y-77234500D03*
X311498376Y-77234500D03*
X310228376Y-77234500D03*
X308958376Y-77234500D03*
D19*
X279313376Y-70159500D03*
X282113376Y-70159500D03*
D13*
X280738376Y-82809500D03*
X282738376Y-82809500D03*
D21*
X168712500Y-104075000D03*
X170287500Y-104075000D03*
D19*
X164313376Y-70159500D03*
X167113376Y-70159500D03*
D10*
X114613375Y-89209500D03*
X112613375Y-89209500D03*
D14*
X262958376Y-82384500D03*
X264228376Y-82384500D03*
X265498376Y-82384500D03*
X266768376Y-82384500D03*
X266768376Y-77234500D03*
X265498376Y-77234500D03*
X264228376Y-77234500D03*
X262958376Y-77234500D03*
D26*
X209800000Y-104000000D03*
X208530000Y-104000000D03*
X207260000Y-104000000D03*
X205990000Y-104000000D03*
X205990000Y-108950000D03*
X207260000Y-108950000D03*
X208530000Y-108950000D03*
X209800000Y-108950000D03*
D27*
X232300000Y-103800000D03*
X232300000Y-109200000D03*
D13*
X163125000Y-104100000D03*
X165125000Y-104100000D03*
D16*
X228293376Y-86659500D03*
X228933376Y-86659500D03*
D13*
X326613376Y-82809500D03*
X328613376Y-82809500D03*
D16*
X274293376Y-86659500D03*
X274933376Y-86659500D03*
D10*
X321488376Y-89209500D03*
X319488376Y-89209500D03*
D19*
X210313376Y-70159500D03*
X213113376Y-70159500D03*
D13*
X175400000Y-104050000D03*
X177400000Y-104050000D03*
D14*
X216958376Y-82384500D03*
X218228376Y-82384500D03*
X219498376Y-82384500D03*
X220768376Y-82384500D03*
X220768376Y-77234500D03*
X219498376Y-77234500D03*
X218228376Y-77234500D03*
X216958376Y-77234500D03*
D12*
X205913376Y-81234500D03*
X205913376Y-76784500D03*
D28*
X132524371Y-104428356D03*
D29*
X132525078Y-101573766D03*
X131128542Y-100328551D03*
X129263195Y-100195615D03*
X127704024Y-101228698D03*
X127100155Y-102999293D03*
X127702610Y-104769888D03*
X129261781Y-105804385D03*
X131127128Y-105671449D03*
X131100258Y-103000000D03*
X129449871Y-102046820D03*
X129449871Y-103953180D03*
D10*
X160613376Y-89209500D03*
X158613376Y-89209500D03*
X183613376Y-89209500D03*
X181613376Y-89209500D03*
D13*
X303738376Y-82809500D03*
X305738376Y-82809500D03*
D11*
X251800000Y-94000000D03*
X274800000Y-94000000D03*
D17*
X189088376Y-85309500D03*
D18*
X195588376Y-85309500D03*
X189088376Y-89809500D03*
X195588376Y-89809500D03*
D10*
X206613376Y-89209500D03*
X204613376Y-89209500D03*
D19*
X233313376Y-70159500D03*
X236113376Y-70159500D03*
D11*
X320300000Y-94000000D03*
D16*
X320168376Y-86659500D03*
X320808376Y-86659500D03*
D17*
X212088376Y-85309500D03*
D18*
X218588376Y-85309500D03*
X212088376Y-89809500D03*
X218588376Y-89809500D03*
D19*
X118313375Y-70159500D03*
X121113375Y-70159500D03*
D14*
X331833376Y-82384500D03*
X333103376Y-82384500D03*
X334373376Y-82384500D03*
X335643376Y-82384500D03*
X335643376Y-77234500D03*
X334373376Y-77234500D03*
X333103376Y-77234500D03*
X331833376Y-77234500D03*
D12*
X251913376Y-81234500D03*
X251913376Y-76784500D03*
D11*
X139000000Y-94000000D03*
X159800000Y-94000000D03*
X113800000Y-94000000D03*
D14*
X170958376Y-82384500D03*
X172228376Y-82384500D03*
X173498376Y-82384500D03*
X174768376Y-82384500D03*
X174768376Y-77234500D03*
X173498376Y-77234500D03*
X172228376Y-77234500D03*
X170958376Y-77234500D03*
D19*
X325188376Y-70159500D03*
X327988376Y-70159500D03*
D16*
X297293376Y-86659500D03*
X297933376Y-86659500D03*
D17*
X166088376Y-85309500D03*
D18*
X172588376Y-85309500D03*
X166088376Y-89809500D03*
X172588376Y-89809500D03*
D30*
X238575000Y-103500000D03*
X243025000Y-103500000D03*
D17*
X281088376Y-85309500D03*
D18*
X287588376Y-85309500D03*
X281088376Y-89809500D03*
X287588376Y-89809500D03*
D31*
X246300000Y-108000000D03*
X246300000Y-110000000D03*
D32*
X218300000Y-109100000D03*
X218300000Y-103650000D03*
D17*
X120088375Y-85309500D03*
D18*
X126588375Y-85309500D03*
X120088375Y-89809500D03*
X126588375Y-89809500D03*
D12*
X136913376Y-81234500D03*
X136913376Y-76784500D03*
D11*
X297800000Y-94000000D03*
D13*
X234738376Y-82809500D03*
X236738376Y-82809500D03*
D14*
X193958376Y-82384500D03*
X195228376Y-82384500D03*
X196498376Y-82384500D03*
X197768376Y-82384500D03*
X197768376Y-77234500D03*
X196498376Y-77234500D03*
X195228376Y-77234500D03*
X193958376Y-77234500D03*
D33*
X125213375Y-69219500D03*
D34*
X125213375Y-74299500D03*
D33*
X160213376Y-69219500D03*
D34*
X160213376Y-74299500D03*
D33*
X321088376Y-69219500D03*
D34*
X321088376Y-74299500D03*
D33*
X206213376Y-69219500D03*
D34*
X206213376Y-74299500D03*
D33*
X229213376Y-69219500D03*
D34*
X229213376Y-74299500D03*
D33*
X194213376Y-69219500D03*
D34*
X194213376Y-74299500D03*
D33*
X240213376Y-69219500D03*
D34*
X240213376Y-74299500D03*
D33*
X252213376Y-69219500D03*
D34*
X252213376Y-74299500D03*
D33*
X148213376Y-69219500D03*
D34*
X148213376Y-74299500D03*
D33*
X183213376Y-69219500D03*
D34*
X183213376Y-74299500D03*
D33*
X298213376Y-69219500D03*
D34*
X298213376Y-74299500D03*
D33*
X263213376Y-69219500D03*
D34*
X263213376Y-74299500D03*
D33*
X137213376Y-69219500D03*
D34*
X137213376Y-74299500D03*
D33*
X309213376Y-69219500D03*
D34*
X309213376Y-74299500D03*
D33*
X171213376Y-69219500D03*
D34*
X171213376Y-74299500D03*
D33*
X114213375Y-69219500D03*
D34*
X114213375Y-74299500D03*
D33*
X286213376Y-69219500D03*
D34*
X286213376Y-74299500D03*
D33*
X275213376Y-69219500D03*
D34*
X275213376Y-74299500D03*
D33*
X332088376Y-69219500D03*
D34*
X332088376Y-74299500D03*
D33*
X217213376Y-69219500D03*
D34*
X217213376Y-74299500D03*
D35*
X191300000Y-103500000D03*
D36*
X134200000Y-102550000D03*
X132500000Y-98850000D03*
D35*
X182300001Y-79250000D03*
X251300001Y-79250000D03*
X274300001Y-79250000D03*
X320175001Y-79250000D03*
X200645000Y-101155000D03*
X228300001Y-79250000D03*
X204250000Y-104000000D03*
X211650000Y-104050000D03*
X297300001Y-79250000D03*
X113300000Y-79250000D03*
X170400000Y-105900000D03*
X136300001Y-79250000D03*
X167800000Y-110500000D03*
D36*
X127350000Y-98850000D03*
D35*
X205300001Y-79250000D03*
X159300001Y-79250000D03*
D37*
X160450000Y-104100000D03*
D36*
X133700000Y-105800000D03*
D37*
X204300000Y-109000000D03*
X264800001Y-79900000D03*
X195800001Y-79900000D03*
X244150000Y-110000000D03*
X149800001Y-79900000D03*
D36*
X130200000Y-107150000D03*
D37*
X200650000Y-107250000D03*
X224800000Y-110800000D03*
X234950000Y-107250000D03*
D36*
X128000000Y-106850000D03*
D37*
X218800001Y-79900000D03*
X126800000Y-79900000D03*
X254550000Y-104650000D03*
X172800001Y-79900000D03*
X333675001Y-79900000D03*
X191350000Y-105850000D03*
X173150000Y-104050000D03*
X241800001Y-79900000D03*
X310800001Y-79900000D03*
X287800001Y-79900000D03*
D36*
X246300000Y-101900000D03*
X241000000Y-103500000D03*
X260100000Y-107000000D03*
X181800000Y-108950000D03*
X182587500Y-105562500D03*
D38*
X136913376Y-81234500D02*
X136913376Y-79863375D01*
X211600000Y-104000000D02*
X211650000Y-104050000D01*
X320788376Y-81234500D02*
X320788376Y-79863375D01*
X205913376Y-79863375D02*
X205300001Y-79250000D01*
X228913376Y-79863375D02*
X228300001Y-79250000D01*
X132221448Y-102550000D02*
X134200000Y-102550000D01*
X251913376Y-81234500D02*
X251913376Y-79863375D01*
X274913376Y-81234500D02*
X274913376Y-79863375D01*
X297913376Y-79863375D02*
X297300001Y-79250000D01*
X205990000Y-104000000D02*
X204250000Y-104000000D01*
X169300000Y-110500000D02*
X167800000Y-110500000D01*
X159913376Y-81234500D02*
X159913376Y-79863375D01*
X127350000Y-99562284D02*
X129449871Y-101662155D01*
X191300000Y-100600000D02*
X191300000Y-103500000D01*
X131327229Y-98850000D02*
X132500000Y-98850000D01*
X130168195Y-101328496D02*
X130168195Y-100009034D01*
X320788376Y-79863375D02*
X320175001Y-79250000D01*
X274913376Y-79863375D02*
X274300001Y-79250000D01*
X251913376Y-79863375D02*
X251300001Y-79250000D01*
X182913376Y-81234500D02*
X182913376Y-79863375D01*
X127350000Y-98850000D02*
X127350000Y-99562284D01*
X129449871Y-101662155D02*
X129449871Y-102046820D01*
X113913375Y-79863375D02*
X113300000Y-79250000D01*
X159913376Y-79863375D02*
X159300001Y-79250000D01*
X170375000Y-104075000D02*
X170375000Y-105875000D01*
X297913376Y-81234500D02*
X297913376Y-79863375D01*
X131718268Y-102046820D02*
X132221448Y-102550000D01*
X182913376Y-79863375D02*
X182300001Y-79250000D01*
X129449871Y-102046820D02*
X131718268Y-102046820D01*
X113913375Y-81234500D02*
X113913375Y-79863375D01*
X200645000Y-103162500D02*
X200645000Y-101155000D01*
X205913376Y-81234500D02*
X205913376Y-79863375D01*
X170375000Y-105875000D02*
X170400000Y-105900000D01*
X129449871Y-102046820D02*
X130168195Y-101328496D01*
X209800000Y-104000000D02*
X211600000Y-104000000D01*
X228913376Y-81234500D02*
X228913376Y-79863375D01*
X200650000Y-101150000D02*
X200645000Y-101155000D01*
X130168195Y-100009034D02*
X131327229Y-98850000D01*
X136913376Y-79863375D02*
X136300001Y-79250000D01*
D39*
X331833376Y-82384500D02*
X334373376Y-82384500D01*
X310228376Y-80471625D02*
X310800001Y-79900000D01*
X195228376Y-82384500D02*
X195228376Y-80471625D01*
D38*
X129449871Y-103953180D02*
X130688723Y-103953180D01*
D39*
X310228376Y-82384500D02*
X310228376Y-80471625D01*
X205990000Y-108950000D02*
X209800000Y-108950000D01*
X264228376Y-80471625D02*
X264800001Y-79900000D01*
D38*
X129449871Y-104302491D02*
X128000000Y-105752362D01*
D39*
X264228376Y-82384500D02*
X264228376Y-80471625D01*
X234250000Y-107250000D02*
X234950000Y-107250000D01*
X170958376Y-82384500D02*
X173498376Y-82384500D01*
X239958376Y-82384500D02*
X242498376Y-82384500D01*
X175400000Y-104050000D02*
X173150000Y-104050000D01*
X124958375Y-82384500D02*
X127498375Y-82384500D01*
X287228376Y-80471625D02*
X287800001Y-79900000D01*
X333103376Y-80471625D02*
X333675001Y-79900000D01*
X147958376Y-82384500D02*
X150498376Y-82384500D01*
X191300000Y-109400000D02*
X191300000Y-105900000D01*
X126228375Y-80471625D02*
X126800000Y-79900000D01*
X254500000Y-104700000D02*
X254550000Y-104650000D01*
X333103376Y-82384500D02*
X333103376Y-80471625D01*
D38*
X132535543Y-105800000D02*
X133700000Y-105800000D01*
D39*
X172228376Y-80471625D02*
X172800001Y-79900000D01*
X191300000Y-105900000D02*
X191350000Y-105850000D01*
X172228376Y-82384500D02*
X172228376Y-80471625D01*
X218228376Y-82384500D02*
X218228376Y-80471625D01*
X200645000Y-105237500D02*
X200645000Y-107245000D01*
X308958376Y-82384500D02*
X311498376Y-82384500D01*
X204350000Y-108950000D02*
X204300000Y-109000000D01*
X218228376Y-80471625D02*
X218800001Y-79900000D01*
X149228376Y-82384500D02*
X149228376Y-80471625D01*
X205990000Y-108950000D02*
X204350000Y-108950000D01*
X193958376Y-82384500D02*
X196498376Y-82384500D01*
X251650000Y-104700000D02*
X254500000Y-104700000D01*
X246300000Y-110000000D02*
X244150000Y-110000000D01*
D38*
X130688723Y-103953180D02*
X132535543Y-105800000D01*
D39*
X262958376Y-82384500D02*
X265498376Y-82384500D01*
X195228376Y-80471625D02*
X195800001Y-79900000D01*
D38*
X128000000Y-105752362D02*
X128000000Y-106850000D01*
D39*
X241228376Y-80471625D02*
X241800001Y-79900000D01*
X224800000Y-109150000D02*
X224800000Y-110800000D01*
X149228376Y-80471625D02*
X149800001Y-79900000D01*
X216958376Y-82384500D02*
X219498376Y-82384500D01*
D38*
X130200000Y-104703309D02*
X130200000Y-107150000D01*
D39*
X200645000Y-107245000D02*
X200650000Y-107250000D01*
D38*
X129449871Y-103953180D02*
X129449871Y-104302491D01*
D39*
X241228376Y-82384500D02*
X241228376Y-80471625D01*
X287228376Y-82384500D02*
X287228376Y-80471625D01*
X163125000Y-104100000D02*
X160450000Y-104100000D01*
D38*
X129449871Y-103953180D02*
X130200000Y-104703309D01*
D39*
X126228375Y-82384500D02*
X126228375Y-80471625D01*
X285958376Y-82384500D02*
X288498376Y-82384500D01*
X232300000Y-109200000D02*
X234250000Y-107250000D01*
D38*
X218300000Y-103650000D02*
X217374000Y-102724000D01*
X218450000Y-103800000D02*
X218300000Y-103650000D01*
X208189032Y-102724000D02*
X207260000Y-103653032D01*
X217374000Y-102724000D02*
X208189032Y-102724000D01*
X207260000Y-103653032D02*
X207260000Y-104000000D01*
X207260000Y-104974999D02*
X207260000Y-104000000D01*
X232300000Y-103800000D02*
X218450000Y-103800000D01*
X232600000Y-103500000D02*
X232300000Y-103800000D01*
X238575000Y-103500000D02*
X232600000Y-103500000D01*
X113913375Y-76784500D02*
X113913375Y-74599500D01*
X115914375Y-78785500D02*
X113913375Y-76784500D01*
X118313375Y-70159500D02*
X115153375Y-70159500D01*
X114213375Y-69219500D02*
X114213375Y-74299500D01*
X114020875Y-86659500D02*
X115914375Y-84766000D01*
X115914375Y-84766000D02*
X115914375Y-78785500D01*
X115153375Y-70159500D02*
X114213375Y-69219500D01*
X113913375Y-74599500D02*
X114213375Y-74299500D01*
X124958375Y-77234500D02*
X128768375Y-77234500D01*
X118300000Y-82661715D02*
X119361715Y-81600000D01*
X125213375Y-74299500D02*
X125213375Y-69219500D01*
X121113375Y-70159500D02*
X124273375Y-70159500D01*
X124958375Y-74554500D02*
X125213375Y-74299500D01*
X118300000Y-85522875D02*
X118300000Y-82661715D01*
X124958375Y-79141625D02*
X124958375Y-77234500D01*
X119361715Y-81600000D02*
X122500000Y-81600000D01*
X122500000Y-81600000D02*
X124958375Y-79141625D01*
X124958375Y-77234500D02*
X124958375Y-74554500D01*
X114613375Y-89209500D02*
X118300000Y-85522875D01*
X124273375Y-70159500D02*
X125213375Y-69219500D01*
X114613375Y-89209500D02*
X115213375Y-89209500D01*
X208530000Y-104000000D02*
X208530000Y-103653032D01*
X208530000Y-104000000D02*
X208530000Y-104346968D01*
X208530000Y-104346968D02*
X213283032Y-109100000D01*
X213283032Y-109100000D02*
X218300000Y-109100000D01*
X221550000Y-109100000D02*
X224800000Y-105850000D01*
X218300000Y-109100000D02*
X221550000Y-109100000D01*
X138914376Y-84766000D02*
X138914376Y-78785500D01*
X136913376Y-74599500D02*
X137213376Y-74299500D01*
X137213376Y-69219500D02*
X137213376Y-74299500D01*
X137020876Y-86659500D02*
X138914376Y-84766000D01*
X136913376Y-76784500D02*
X136913376Y-74599500D01*
X141313376Y-70159500D02*
X138153376Y-70159500D01*
X138153376Y-70159500D02*
X137213376Y-69219500D01*
X138914376Y-78785500D02*
X136913376Y-76784500D01*
X145500001Y-81600000D02*
X147958376Y-79141625D01*
X144113376Y-70159500D02*
X147273376Y-70159500D01*
X141300001Y-82661715D02*
X142361716Y-81600000D01*
X148213376Y-74299500D02*
X148213376Y-69219500D01*
X147958376Y-79141625D02*
X147958376Y-77234500D01*
X137613376Y-89209500D02*
X138213376Y-89209500D01*
X147273376Y-70159500D02*
X148213376Y-69219500D01*
X147958376Y-77234500D02*
X151768376Y-77234500D01*
X147958376Y-77234500D02*
X147958376Y-74554500D01*
X142361716Y-81600000D02*
X145500001Y-81600000D01*
X137613376Y-89209500D02*
X141300001Y-85522875D01*
X141300001Y-85522875D02*
X141300001Y-82661715D01*
X147958376Y-74554500D02*
X148213376Y-74299500D01*
X170958376Y-74554500D02*
X171213376Y-74299500D01*
X171213376Y-74299500D02*
X171213376Y-69219500D01*
X164300001Y-85522875D02*
X164300001Y-82661715D01*
X170958376Y-77234500D02*
X174768376Y-77234500D01*
X160613376Y-89209500D02*
X161213376Y-89209500D01*
X167113376Y-70159500D02*
X170273376Y-70159500D01*
X165361716Y-81600000D02*
X168500001Y-81600000D01*
X170273376Y-70159500D02*
X171213376Y-69219500D01*
X168500001Y-81600000D02*
X170958376Y-79141625D01*
X170958376Y-77234500D02*
X170958376Y-74554500D01*
X170958376Y-79141625D02*
X170958376Y-77234500D01*
X164300001Y-82661715D02*
X165361716Y-81600000D01*
X160613376Y-89209500D02*
X164300001Y-85522875D01*
X161914376Y-84766000D02*
X161914376Y-78785500D01*
X164313376Y-70159500D02*
X161153376Y-70159500D01*
X160020876Y-86659500D02*
X161914376Y-84766000D01*
X159913376Y-76784500D02*
X159913376Y-74599500D01*
X161914376Y-78785500D02*
X159913376Y-76784500D01*
X159913376Y-74599500D02*
X160213376Y-74299500D01*
X161153376Y-70159500D02*
X160213376Y-69219500D01*
X160213376Y-69219500D02*
X160213376Y-74299500D01*
X187300001Y-82661715D02*
X188361716Y-81600000D01*
X193958376Y-79141625D02*
X193958376Y-77234500D01*
X183613376Y-89209500D02*
X184213376Y-89209500D01*
X193273376Y-70159500D02*
X194213376Y-69219500D01*
X193958376Y-77234500D02*
X193958376Y-74554500D01*
X190113376Y-70159500D02*
X193273376Y-70159500D01*
X183613376Y-89209500D02*
X187300001Y-85522875D01*
X187300001Y-85522875D02*
X187300001Y-82661715D01*
X188361716Y-81600000D02*
X191500001Y-81600000D01*
X193958376Y-74554500D02*
X194213376Y-74299500D01*
X191500001Y-81600000D02*
X193958376Y-79141625D01*
X194213376Y-74299500D02*
X194213376Y-69219500D01*
X193958376Y-77234500D02*
X197768376Y-77234500D01*
X183020876Y-86659500D02*
X184914376Y-84766000D01*
X184153376Y-70159500D02*
X183213376Y-69219500D01*
X187313376Y-70159500D02*
X184153376Y-70159500D01*
X182913376Y-76784500D02*
X182913376Y-74599500D01*
X183213376Y-69219500D02*
X183213376Y-74299500D01*
X184914376Y-84766000D02*
X184914376Y-78785500D01*
X184914376Y-78785500D02*
X182913376Y-76784500D01*
X182913376Y-74599500D02*
X183213376Y-74299500D01*
X206020876Y-86659500D02*
X207914376Y-84766000D01*
X206213376Y-69219500D02*
X206213376Y-74299500D01*
X205913376Y-74599500D02*
X206213376Y-74299500D01*
X210313376Y-70159500D02*
X207153376Y-70159500D01*
X205913376Y-76784500D02*
X205913376Y-74599500D01*
X207914376Y-84766000D02*
X207914376Y-78785500D01*
X207914376Y-78785500D02*
X205913376Y-76784500D01*
X207153376Y-70159500D02*
X206213376Y-69219500D01*
X216958376Y-79141625D02*
X216958376Y-77234500D01*
X213113376Y-70159500D02*
X216273376Y-70159500D01*
X217213376Y-74299500D02*
X217213376Y-69219500D01*
X214500001Y-81600000D02*
X216958376Y-79141625D01*
X216958376Y-77234500D02*
X220768376Y-77234500D01*
X216273376Y-70159500D02*
X217213376Y-69219500D01*
X211361716Y-81600000D02*
X214500001Y-81600000D01*
X206613376Y-89209500D02*
X210300001Y-85522875D01*
X216958376Y-77234500D02*
X216958376Y-74554500D01*
X216958376Y-74554500D02*
X217213376Y-74299500D01*
X206613376Y-89209500D02*
X207213376Y-89209500D01*
X210300001Y-85522875D02*
X210300001Y-82661715D01*
X210300001Y-82661715D02*
X211361716Y-81600000D01*
X229613376Y-89209500D02*
X233300001Y-85522875D01*
X240213376Y-74299500D02*
X240213376Y-69219500D01*
X239958376Y-77234500D02*
X239958376Y-74554500D01*
X229613376Y-89209500D02*
X230213376Y-89209500D01*
X233300001Y-82661715D02*
X234361716Y-81600000D01*
X234361716Y-81600000D02*
X237500001Y-81600000D01*
X239958376Y-79141625D02*
X239958376Y-77234500D01*
X239958376Y-74554500D02*
X240213376Y-74299500D01*
X239273376Y-70159500D02*
X240213376Y-69219500D01*
X236113376Y-70159500D02*
X239273376Y-70159500D01*
X239958376Y-77234500D02*
X243768376Y-77234500D01*
X233300001Y-85522875D02*
X233300001Y-82661715D01*
X237500001Y-81600000D02*
X239958376Y-79141625D01*
X230153376Y-70159500D02*
X229213376Y-69219500D01*
X229020876Y-86659500D02*
X230914376Y-84766000D01*
X230914376Y-78785500D02*
X228913376Y-76784500D01*
X233313376Y-70159500D02*
X230153376Y-70159500D01*
X229213376Y-69219500D02*
X229213376Y-74299500D01*
X230914376Y-84766000D02*
X230914376Y-78785500D01*
X228913376Y-76784500D02*
X228913376Y-74599500D01*
X228913376Y-74599500D02*
X229213376Y-74299500D01*
X256300001Y-85522875D02*
X256300001Y-82661715D01*
X262958376Y-77234500D02*
X266768376Y-77234500D01*
X252613376Y-89209500D02*
X256300001Y-85522875D01*
X257361716Y-81600000D02*
X260500001Y-81600000D01*
X256300001Y-82661715D02*
X257361716Y-81600000D01*
X260500001Y-81600000D02*
X262958376Y-79141625D01*
X262958376Y-77234500D02*
X262958376Y-74554500D01*
X262958376Y-79141625D02*
X262958376Y-77234500D01*
X263213376Y-74299500D02*
X263213376Y-69219500D01*
X252613376Y-89209500D02*
X253213376Y-89209500D01*
X262273376Y-70159500D02*
X263213376Y-69219500D01*
X262958376Y-74554500D02*
X263213376Y-74299500D01*
X259113376Y-70159500D02*
X262273376Y-70159500D01*
X251913376Y-76784500D02*
X251913376Y-74599500D01*
X253153376Y-70159500D02*
X252213376Y-69219500D01*
X252213376Y-69219500D02*
X252213376Y-74299500D01*
X251913376Y-74599500D02*
X252213376Y-74299500D01*
X253914376Y-78785500D02*
X251913376Y-76784500D01*
X252020876Y-86659500D02*
X253914376Y-84766000D01*
X256313376Y-70159500D02*
X253153376Y-70159500D01*
X253914376Y-84766000D02*
X253914376Y-78785500D01*
X276153376Y-70159500D02*
X275213376Y-69219500D01*
X274913376Y-76784500D02*
X274913376Y-74599500D01*
X274913376Y-74599500D02*
X275213376Y-74299500D01*
X275213376Y-69219500D02*
X275213376Y-74299500D01*
X276914376Y-78785500D02*
X274913376Y-76784500D01*
X279313376Y-70159500D02*
X276153376Y-70159500D01*
X275020876Y-86659500D02*
X276914376Y-84766000D01*
X276914376Y-84766000D02*
X276914376Y-78785500D01*
X285273376Y-70159500D02*
X286213376Y-69219500D01*
X279300001Y-82661715D02*
X280361716Y-81600000D01*
X283500001Y-81600000D02*
X285958376Y-79141625D01*
X285958376Y-79141625D02*
X285958376Y-77234500D01*
X279300001Y-85522875D02*
X279300001Y-82661715D01*
X285958376Y-77234500D02*
X285958376Y-74554500D01*
X280361716Y-81600000D02*
X283500001Y-81600000D01*
X285958376Y-74554500D02*
X286213376Y-74299500D01*
X286213376Y-74299500D02*
X286213376Y-69219500D01*
X275613376Y-89209500D02*
X276213376Y-89209500D01*
X275613376Y-89209500D02*
X279300001Y-85522875D01*
X285958376Y-77234500D02*
X289768376Y-77234500D01*
X282113376Y-70159500D02*
X285273376Y-70159500D01*
X297913376Y-74599500D02*
X298213376Y-74299500D01*
X299153376Y-70159500D02*
X298213376Y-69219500D01*
X299914376Y-78785500D02*
X297913376Y-76784500D01*
X302313376Y-70159500D02*
X299153376Y-70159500D01*
X299914376Y-84766000D02*
X299914376Y-78785500D01*
X298020876Y-86659500D02*
X299914376Y-84766000D01*
X298213376Y-69219500D02*
X298213376Y-74299500D01*
X297913376Y-76784500D02*
X297913376Y-74599500D01*
X308273376Y-70159500D02*
X309213376Y-69219500D01*
X306500001Y-81600000D02*
X308958376Y-79141625D01*
X309213376Y-74299500D02*
X309213376Y-69219500D01*
X302300001Y-82661715D02*
X303361716Y-81600000D01*
X303361716Y-81600000D02*
X306500001Y-81600000D01*
X308958376Y-77234500D02*
X312768376Y-77234500D01*
X308958376Y-77234500D02*
X308958376Y-74554500D01*
X302300001Y-85522875D02*
X302300001Y-82661715D01*
X305113376Y-70159500D02*
X308273376Y-70159500D01*
X298613376Y-89209500D02*
X302300001Y-85522875D01*
X308958376Y-79141625D02*
X308958376Y-77234500D01*
X308958376Y-74554500D02*
X309213376Y-74299500D01*
X298613376Y-89209500D02*
X299213376Y-89209500D01*
X325175001Y-85522875D02*
X325175001Y-82661715D01*
X326236716Y-81600000D02*
X329375001Y-81600000D01*
X331148376Y-70159500D02*
X332088376Y-69219500D01*
X321488376Y-89209500D02*
X325175001Y-85522875D01*
X331833376Y-74554500D02*
X332088376Y-74299500D01*
X329375001Y-81600000D02*
X331833376Y-79141625D01*
X331833376Y-77234500D02*
X331833376Y-74554500D01*
X327988376Y-70159500D02*
X331148376Y-70159500D01*
X332088376Y-74299500D02*
X332088376Y-69219500D01*
X331833376Y-79141625D02*
X331833376Y-77234500D01*
X325175001Y-82661715D02*
X326236716Y-81600000D01*
X321488376Y-89209500D02*
X322088376Y-89209500D01*
X331833376Y-77234500D02*
X335643376Y-77234500D01*
X321088376Y-69219500D02*
X321088376Y-74299500D01*
X322789376Y-84766000D02*
X322789376Y-78785500D01*
X322789376Y-78785500D02*
X320788376Y-76784500D01*
X325188376Y-70159500D02*
X322028376Y-70159500D01*
X320895876Y-86659500D02*
X322789376Y-84766000D01*
X320788376Y-74599500D02*
X321088376Y-74299500D01*
X320788376Y-76784500D02*
X320788376Y-74599500D01*
X322028376Y-70159500D02*
X321088376Y-69219500D01*
X251650000Y-109300000D02*
X247600000Y-109300000D01*
X247600000Y-109300000D02*
X246300000Y-108000000D01*
X246300000Y-106000000D02*
X246300000Y-108000000D01*
X251650000Y-107000000D02*
X249800000Y-107000000D01*
X333462176Y-89798900D02*
X326962176Y-89798900D01*
X264587176Y-89798900D02*
X258087176Y-89798900D01*
X241587176Y-89798900D02*
X235087176Y-89798900D01*
X195587176Y-89798900D02*
X189087176Y-89798900D01*
X243025000Y-103500000D02*
X241000000Y-103500000D01*
X172587176Y-89798900D02*
X166087176Y-89798900D01*
X218587176Y-89798900D02*
X212087176Y-89798900D01*
X243025000Y-103500000D02*
X246300000Y-103500000D01*
X257950000Y-107000000D02*
X260100000Y-107000000D01*
X249800000Y-107000000D02*
X246300000Y-103500000D01*
X257950000Y-107000000D02*
X251650000Y-107000000D01*
X149587176Y-89798900D02*
X143087176Y-89798900D01*
X126587175Y-89798900D02*
X120087175Y-89798900D01*
X246300000Y-103500000D02*
X246300000Y-101900000D01*
X182587500Y-104000000D02*
X182587500Y-105562500D01*
X181800000Y-108950000D02*
X181800000Y-108900000D01*
X310587176Y-89798900D02*
X304087176Y-89798900D01*
X287587176Y-89798900D02*
X281087176Y-89798900D01*
X181800000Y-110500000D02*
X181800000Y-108950000D01*
X258087176Y-87712825D02*
X258087176Y-85298900D01*
X258088376Y-85309500D02*
X258088376Y-83159500D01*
X130700000Y-105870000D02*
X131580000Y-106750000D01*
X264588376Y-85309500D02*
X258088376Y-85309500D01*
X230800000Y-94000000D02*
X251800000Y-94000000D01*
X131580000Y-106750000D02*
X133887200Y-106750000D01*
X228800000Y-96000000D02*
X230800000Y-94000000D01*
X133887200Y-106750000D02*
X144137200Y-96500000D01*
X251800000Y-94000000D02*
X258088376Y-87711625D01*
X144137200Y-96500000D02*
X182300000Y-96500000D01*
X182800000Y-96000000D02*
X228800000Y-96000000D01*
X258088376Y-83159500D02*
X257738376Y-82809500D01*
X182300000Y-96500000D02*
X182800000Y-96000000D01*
X212087176Y-87712825D02*
X212087176Y-85298900D01*
X212088376Y-85309500D02*
X212088376Y-83159500D01*
X212088376Y-83159500D02*
X211738376Y-82809500D01*
X182367100Y-95000000D02*
X204800000Y-95000000D01*
X135167100Y-103200000D02*
X142867100Y-95500000D01*
X181867100Y-95500000D02*
X182367100Y-95000000D01*
X142867100Y-95500000D02*
X181867100Y-95500000D01*
X130670000Y-103200000D02*
X135167100Y-103200000D01*
X205800000Y-94000000D02*
X212088375Y-87711625D01*
X204800000Y-95000000D02*
X205800000Y-94000000D01*
X218588376Y-85309500D02*
X212088376Y-85309500D01*
X183300000Y-97000000D02*
X229800000Y-97000000D01*
X229800000Y-97000000D02*
X230800000Y-96000000D01*
X127845388Y-108049000D02*
X133722400Y-108049000D01*
X277800000Y-94000000D02*
X297800000Y-94000000D01*
X297800000Y-94000000D02*
X304088375Y-87711625D01*
X127270000Y-107473612D02*
X127845388Y-108049000D01*
X230800000Y-96000000D02*
X275800000Y-96000000D01*
X304088376Y-83159500D02*
X303738376Y-82809500D01*
X144271400Y-97500000D02*
X182800000Y-97500000D01*
X304088376Y-85309500D02*
X304088376Y-83159500D01*
X133722400Y-108049000D02*
X144271400Y-97500000D01*
X304087176Y-87712825D02*
X304087176Y-85298900D01*
X182800000Y-97500000D02*
X183300000Y-97000000D01*
X275800000Y-96000000D02*
X277800000Y-94000000D01*
X127270000Y-104970000D02*
X127270000Y-107473612D01*
X310588376Y-85309500D02*
X304088376Y-85309500D01*
X281087176Y-87712825D02*
X281087176Y-85298900D01*
X287588376Y-85309500D02*
X281088376Y-85309500D01*
X129298000Y-107698000D02*
X133506300Y-107698000D01*
X128830000Y-106000000D02*
X128830000Y-107230000D01*
X254300000Y-94000000D02*
X274800000Y-94000000D01*
X229266450Y-96533550D02*
X230300000Y-95500000D01*
X144204300Y-97000000D02*
X182367100Y-97000000D01*
X252800000Y-95500000D02*
X254300000Y-94000000D01*
X281088376Y-85309500D02*
X281088376Y-83159500D01*
X274800000Y-94000000D02*
X281088375Y-87711625D01*
X133506300Y-107698000D02*
X144204300Y-97000000D01*
X128830000Y-107230000D02*
X129298000Y-107698000D01*
X182833550Y-96533550D02*
X229266450Y-96533550D01*
X230300000Y-95500000D02*
X252800000Y-95500000D01*
X281088376Y-83159500D02*
X280738376Y-82809500D01*
X182367100Y-97000000D02*
X182833550Y-96533550D01*
X135458810Y-94000000D02*
X139000000Y-94000000D01*
X139000000Y-89397876D02*
X143088376Y-85309500D01*
X143088376Y-83159500D02*
X142738376Y-82809500D01*
X129263195Y-100195615D02*
X135458810Y-94000000D01*
X139000000Y-94000000D02*
X139000000Y-89397876D01*
X143088376Y-85309500D02*
X143088376Y-83159500D01*
X149588376Y-85309500D02*
X143088376Y-85309500D01*
X241588376Y-85309500D02*
X235088376Y-85309500D01*
X132090000Y-104630000D02*
X134304200Y-104630000D01*
X182434200Y-95500000D02*
X227300000Y-95500000D01*
X235087176Y-87712825D02*
X235087176Y-85298900D01*
X181934200Y-96000000D02*
X182434200Y-95500000D01*
X142934200Y-96000000D02*
X181934200Y-96000000D01*
X228800000Y-94000000D02*
X235088375Y-87711625D01*
X235088376Y-85309500D02*
X235088376Y-83159500D01*
X235088376Y-83159500D02*
X234738376Y-82809500D01*
X227300000Y-95500000D02*
X228800000Y-94000000D01*
X134304200Y-104630000D02*
X142934200Y-96000000D01*
X181800000Y-95000000D02*
X182800000Y-94000000D01*
X182800000Y-94000000D02*
X189088375Y-87711625D01*
X136030000Y-101770000D02*
X142800000Y-95000000D01*
X195588376Y-85309500D02*
X189088376Y-85309500D01*
X189087176Y-87712825D02*
X189087176Y-85298900D01*
X189088376Y-85309500D02*
X189088376Y-83159500D01*
X142800000Y-95000000D02*
X181800000Y-95000000D01*
X189088376Y-83159500D02*
X188738376Y-82809500D01*
X132090000Y-101770000D02*
X136030000Y-101770000D01*
X125850000Y-104020000D02*
X125850000Y-106550000D01*
X326963376Y-85309500D02*
X326963376Y-83159500D01*
X126670000Y-103200000D02*
X125850000Y-104020000D01*
X326962176Y-87712825D02*
X326962176Y-85298900D01*
X302300000Y-94000000D02*
X320300000Y-94000000D01*
X183800000Y-97500000D02*
X298800000Y-97500000D01*
X133938498Y-108400000D02*
X144338498Y-98000000D01*
X298800000Y-97500000D02*
X302300000Y-94000000D01*
X333463376Y-85309500D02*
X326963376Y-85309500D01*
X320300000Y-94000000D02*
X320650000Y-94000000D01*
X125850000Y-106550000D02*
X127700000Y-108400000D01*
X144338498Y-98000000D02*
X183300000Y-98000000D01*
X320650000Y-94000000D02*
X326963376Y-87686624D01*
X127700000Y-108400000D02*
X133938498Y-108400000D01*
X326963376Y-83159500D02*
X326613376Y-82809500D01*
X183300000Y-98000000D02*
X183800000Y-97500000D01*
X120087175Y-87712825D02*
X120087175Y-85298900D01*
X121230000Y-101430000D02*
X113800000Y-94000000D01*
X120088375Y-83159500D02*
X119738375Y-82809500D01*
X127270000Y-101430000D02*
X121230000Y-101430000D01*
X113800000Y-94000000D02*
X120087175Y-87712825D01*
X120088375Y-85309500D02*
X120088375Y-83159500D01*
X126588375Y-85309500D02*
X120088375Y-85309500D01*
X166088376Y-83159500D02*
X165738376Y-82809500D01*
X142800000Y-94000000D02*
X159800000Y-94000000D01*
X172588376Y-85309500D02*
X166088376Y-85309500D01*
X130700000Y-100530000D02*
X136270000Y-100530000D01*
X159800000Y-94000000D02*
X166088375Y-87711625D01*
X136270000Y-100530000D02*
X142800000Y-94000000D01*
X166088376Y-85309500D02*
X166088376Y-83159500D01*
X166087176Y-87712825D02*
X166087176Y-85298900D01*
X168600000Y-104100000D02*
X168625000Y-104075000D01*
X165125000Y-104100000D02*
X168600000Y-104100000D01*
X165150000Y-104075000D02*
X165125000Y-104100000D01*
X180875000Y-104050000D02*
X180925000Y-104000000D01*
X177450000Y-104000000D02*
X177400000Y-104050000D01*
X177400000Y-104050000D02*
X180875000Y-104050000D01*
X112613375Y-87252000D02*
X113205875Y-86659500D01*
X112613375Y-89209500D02*
X112613375Y-87252000D01*
X135613376Y-87252000D02*
X136205876Y-86659500D01*
X135613376Y-89209500D02*
X135613376Y-87252000D01*
X158613376Y-87252000D02*
X159205876Y-86659500D01*
X158613376Y-89209500D02*
X158613376Y-87252000D01*
X181613376Y-87252000D02*
X182205876Y-86659500D01*
X181613376Y-89209500D02*
X181613376Y-87252000D01*
X204613376Y-89209500D02*
X204613376Y-87252000D01*
X204613376Y-87252000D02*
X205205876Y-86659500D01*
X227613376Y-87252000D02*
X228205876Y-86659500D01*
X227613376Y-89209500D02*
X227613376Y-87252000D01*
X250613376Y-89209500D02*
X250613376Y-87252000D01*
X250613376Y-87252000D02*
X251205876Y-86659500D01*
X273613376Y-89209500D02*
X273613376Y-87252000D01*
X273613376Y-87252000D02*
X274205876Y-86659500D01*
X296613376Y-87252000D02*
X297205876Y-86659500D01*
X296613376Y-89209500D02*
X296613376Y-87252000D01*
X319488376Y-87252000D02*
X320080876Y-86659500D01*
X319488376Y-89209500D02*
X319488376Y-87252000D01*
X128768375Y-82384500D02*
X128768375Y-83259499D01*
X128467374Y-83560500D02*
X122489375Y-83560500D01*
X122489375Y-83560500D02*
X121738375Y-82809500D01*
X128768375Y-83259499D02*
X128467374Y-83560500D01*
X151467375Y-83560500D02*
X145489376Y-83560500D01*
X145489376Y-83560500D02*
X144738376Y-82809500D01*
X151768376Y-83259499D02*
X151467375Y-83560500D01*
X151768376Y-82384500D02*
X151768376Y-83259499D01*
X174768376Y-83259499D02*
X174467375Y-83560500D01*
X174768376Y-82384500D02*
X174768376Y-83259499D01*
X168489376Y-83560500D02*
X167738376Y-82809500D01*
X174467375Y-83560500D02*
X168489376Y-83560500D01*
X197467375Y-83560500D02*
X191489376Y-83560500D01*
X197768376Y-83259499D02*
X197467375Y-83560500D01*
X197768376Y-82384500D02*
X197768376Y-83259499D01*
X191489376Y-83560500D02*
X190738376Y-82809500D01*
X220768376Y-83259499D02*
X220467375Y-83560500D01*
X220768376Y-82384500D02*
X220768376Y-83259499D01*
X214489376Y-83560500D02*
X213738376Y-82809500D01*
X220467375Y-83560500D02*
X214489376Y-83560500D01*
X237489376Y-83560500D02*
X236738376Y-82809500D01*
X243467375Y-83560500D02*
X237489376Y-83560500D01*
X243768376Y-83259499D02*
X243467375Y-83560500D01*
X243768376Y-82384500D02*
X243768376Y-83259499D01*
X260489376Y-83560500D02*
X259738376Y-82809500D01*
X266467375Y-83560500D02*
X260489376Y-83560500D01*
X266768376Y-83259499D02*
X266467375Y-83560500D01*
X266768376Y-82384500D02*
X266768376Y-83259499D01*
X289768376Y-82384500D02*
X289768376Y-83259499D01*
X283489376Y-83560500D02*
X282738376Y-82809500D01*
X289467375Y-83560500D02*
X283489376Y-83560500D01*
X289768376Y-83259499D02*
X289467375Y-83560500D01*
X312768376Y-82384500D02*
X312768376Y-83259499D01*
X306489376Y-83560500D02*
X305738376Y-82809500D01*
X312467375Y-83560500D02*
X306489376Y-83560500D01*
X312768376Y-83259499D02*
X312467375Y-83560500D01*
X335643376Y-83259499D02*
X335342375Y-83560500D01*
X335342375Y-83560500D02*
X329364376Y-83560500D01*
X329364376Y-83560500D02*
X328613376Y-82809500D01*
X335643376Y-82384500D02*
X335643376Y-83259499D01*
M02*
