G04 #@! TF.GenerationSoftware,KiCad,Pcbnew,9.0.0*
G04 #@! TF.CreationDate,2025-04-14T19:28:54-07:00*
G04 #@! TF.ProjectId,solenoid_10,736f6c65-6e6f-4696-945f-31302e6b6963,rev?*
G04 #@! TF.SameCoordinates,Original*
G04 #@! TF.FileFunction,Copper,L2,Inr*
G04 #@! TF.FilePolarity,Positive*
%FSLAX46Y46*%
G04 Gerber Fmt 4.6, Leading zero omitted, Abs format (unit mm)*
G04 Created by KiCad (PCBNEW 9.0.0) date 2025-04-14 19:28:54*
%MOMM*%
%LPD*%
G01*
G04 APERTURE LIST*
G04 Aperture macros list*
%AMRotRect*
0 Rectangle, with rotation*
0 The origin of the aperture is its center*
0 $1 length*
0 $2 width*
0 $3 Rotation angle, in degrees counterclockwise*
0 Add horizontal line*
21,1,$1,$2,0,0,$3*%
G04 Aperture macros list end*
G04 #@! TA.AperFunction,ComponentPad*
%ADD10R,2.000000X2.000000*%
G04 #@! TD*
G04 #@! TA.AperFunction,ComponentPad*
%ADD11C,2.000000*%
G04 #@! TD*
G04 #@! TA.AperFunction,ComponentPad*
%ADD12RotRect,1.308000X1.308000X315.000000*%
G04 #@! TD*
G04 #@! TA.AperFunction,ComponentPad*
%ADD13C,1.308000*%
G04 #@! TD*
G04 #@! TA.AperFunction,ComponentPad*
%ADD14R,2.100000X2.100000*%
G04 #@! TD*
G04 #@! TA.AperFunction,ComponentPad*
%ADD15C,2.100000*%
G04 #@! TD*
G04 #@! TA.AperFunction,ViaPad*
%ADD16C,0.600000*%
G04 #@! TD*
G04 #@! TA.AperFunction,ViaPad*
%ADD17C,0.350000*%
G04 #@! TD*
G04 #@! TA.AperFunction,ViaPad*
%ADD18C,0.500000*%
G04 #@! TD*
G04 APERTURE END LIST*
D10*
X143088376Y-85309500D03*
D11*
X149588376Y-85309500D03*
X143088376Y-89809500D03*
X149588376Y-89809500D03*
D10*
X304088376Y-85309500D03*
D11*
X310588376Y-85309500D03*
X304088376Y-89809500D03*
X310588376Y-89809500D03*
D10*
X258088376Y-85309500D03*
D11*
X264588376Y-85309500D03*
X258088376Y-89809500D03*
X264588376Y-89809500D03*
D10*
X235088376Y-85309500D03*
D11*
X241588376Y-85309500D03*
X235088376Y-89809500D03*
X241588376Y-89809500D03*
D10*
X326963376Y-85309500D03*
D11*
X333463376Y-85309500D03*
X326963376Y-89809500D03*
X333463376Y-89809500D03*
D12*
X132524371Y-104428356D03*
D13*
X132525078Y-101573766D03*
X131128542Y-100328551D03*
X129263195Y-100195615D03*
X127704024Y-101228698D03*
X127100155Y-102999293D03*
X127702610Y-104769888D03*
X129261781Y-105804385D03*
X131127128Y-105671449D03*
X131100258Y-103000000D03*
X129449871Y-102046820D03*
X129449871Y-103953180D03*
D10*
X189088376Y-85309500D03*
D11*
X195588376Y-85309500D03*
X189088376Y-89809500D03*
X195588376Y-89809500D03*
D10*
X212088376Y-85309500D03*
D11*
X218588376Y-85309500D03*
X212088376Y-89809500D03*
X218588376Y-89809500D03*
D10*
X166088376Y-85309500D03*
D11*
X172588376Y-85309500D03*
X166088376Y-89809500D03*
X172588376Y-89809500D03*
D10*
X281088376Y-85309500D03*
D11*
X287588376Y-85309500D03*
X281088376Y-89809500D03*
X287588376Y-89809500D03*
D10*
X120088375Y-85309500D03*
D11*
X126588375Y-85309500D03*
X120088375Y-89809500D03*
X126588375Y-89809500D03*
D14*
X125213375Y-69219500D03*
D15*
X125213375Y-74299500D03*
D14*
X160213376Y-69219500D03*
D15*
X160213376Y-74299500D03*
D14*
X321088376Y-69219500D03*
D15*
X321088376Y-74299500D03*
D14*
X206213376Y-69219500D03*
D15*
X206213376Y-74299500D03*
D14*
X229213376Y-69219500D03*
D15*
X229213376Y-74299500D03*
D14*
X194213376Y-69219500D03*
D15*
X194213376Y-74299500D03*
D14*
X240213376Y-69219500D03*
D15*
X240213376Y-74299500D03*
D14*
X252213376Y-69219500D03*
D15*
X252213376Y-74299500D03*
D14*
X148213376Y-69219500D03*
D15*
X148213376Y-74299500D03*
D14*
X183213376Y-69219500D03*
D15*
X183213376Y-74299500D03*
D14*
X298213376Y-69219500D03*
D15*
X298213376Y-74299500D03*
D14*
X263213376Y-69219500D03*
D15*
X263213376Y-74299500D03*
D14*
X137213376Y-69219500D03*
D15*
X137213376Y-74299500D03*
D14*
X309213376Y-69219500D03*
D15*
X309213376Y-74299500D03*
D14*
X171213376Y-69219500D03*
D15*
X171213376Y-74299500D03*
D14*
X114213375Y-69219500D03*
D15*
X114213375Y-74299500D03*
D14*
X286213376Y-69219500D03*
D15*
X286213376Y-74299500D03*
D14*
X275213376Y-69219500D03*
D15*
X275213376Y-74299500D03*
D14*
X332088376Y-69219500D03*
D15*
X332088376Y-74299500D03*
D14*
X217213376Y-69219500D03*
D15*
X217213376Y-74299500D03*
D16*
X191300000Y-103500000D03*
D17*
X134200000Y-102550000D03*
X132500000Y-98850000D03*
D16*
X182300001Y-79250000D03*
X251300001Y-79250000D03*
X274300001Y-79250000D03*
X320175001Y-79250000D03*
X200645000Y-101155000D03*
X228300001Y-79250000D03*
X204250000Y-104000000D03*
X211650000Y-104050000D03*
X297300001Y-79250000D03*
X113300000Y-79250000D03*
X170400000Y-105900000D03*
X136300001Y-79250000D03*
X167800000Y-110500000D03*
D17*
X127350000Y-98850000D03*
D16*
X205300001Y-79250000D03*
X159300001Y-79250000D03*
D18*
X160450000Y-104100000D03*
D17*
X133700000Y-105800000D03*
D18*
X204300000Y-109000000D03*
X264800001Y-79900000D03*
X195800001Y-79900000D03*
X244150000Y-110000000D03*
X149800001Y-79900000D03*
D17*
X130200000Y-107150000D03*
D18*
X200650000Y-107250000D03*
X224800000Y-110800000D03*
X234950000Y-107250000D03*
D17*
X128000000Y-106850000D03*
D18*
X218800001Y-79900000D03*
X126800000Y-79900000D03*
X254550000Y-104650000D03*
X172800001Y-79900000D03*
X333675001Y-79900000D03*
X191350000Y-105850000D03*
X173150000Y-104050000D03*
X241800001Y-79900000D03*
X310800001Y-79900000D03*
X287800001Y-79900000D03*
D17*
X246300000Y-101900000D03*
X241000000Y-103500000D03*
X260100000Y-107000000D03*
X181800000Y-108950000D03*
X182587500Y-105562500D03*
G04 #@! TA.AperFunction,Conductor*
G36*
X336551767Y-65519685D02*
G01*
X336559039Y-65524733D01*
X336674867Y-65611441D01*
X336688237Y-65623027D01*
X336826972Y-65761762D01*
X336838558Y-65775132D01*
X336956146Y-65932210D01*
X336965710Y-65947094D01*
X336965711Y-65947095D01*
X337059740Y-66119298D01*
X337067090Y-66135390D01*
X337135662Y-66319236D01*
X337140646Y-66336212D01*
X337182351Y-66527931D01*
X337184869Y-66545442D01*
X337199184Y-66745580D01*
X337199500Y-66754427D01*
X337199500Y-111245572D01*
X337199184Y-111254419D01*
X337184869Y-111454557D01*
X337182351Y-111472068D01*
X337140646Y-111663787D01*
X337135662Y-111680763D01*
X337067090Y-111864609D01*
X337059740Y-111880701D01*
X336965711Y-112052904D01*
X336956146Y-112067789D01*
X336838558Y-112224867D01*
X336826972Y-112238237D01*
X336688237Y-112376972D01*
X336674867Y-112388558D01*
X336559039Y-112475267D01*
X336493575Y-112499684D01*
X336484728Y-112500000D01*
X109915272Y-112500000D01*
X109848233Y-112480315D01*
X109840961Y-112475267D01*
X109725132Y-112388558D01*
X109711762Y-112376972D01*
X109573027Y-112238237D01*
X109561441Y-112224867D01*
X109443849Y-112067784D01*
X109434288Y-112052904D01*
X109340259Y-111880701D01*
X109332909Y-111864608D01*
X109307818Y-111797336D01*
X109300000Y-111754003D01*
X109300000Y-110421153D01*
X166999500Y-110421153D01*
X166999500Y-110578846D01*
X167030261Y-110733489D01*
X167030264Y-110733501D01*
X167090602Y-110879172D01*
X167090609Y-110879185D01*
X167178210Y-111010288D01*
X167178213Y-111010292D01*
X167289707Y-111121786D01*
X167289711Y-111121789D01*
X167420814Y-111209390D01*
X167420827Y-111209397D01*
X167566498Y-111269735D01*
X167566503Y-111269737D01*
X167721153Y-111300499D01*
X167721156Y-111300500D01*
X167721158Y-111300500D01*
X167878844Y-111300500D01*
X167878845Y-111300499D01*
X168033497Y-111269737D01*
X168179179Y-111209394D01*
X168310289Y-111121789D01*
X168421789Y-111010289D01*
X168509394Y-110879179D01*
X168569737Y-110733497D01*
X168600500Y-110578842D01*
X168600500Y-110421158D01*
X168600500Y-110421155D01*
X168600499Y-110421153D01*
X168569738Y-110266510D01*
X168569737Y-110266503D01*
X168569735Y-110266498D01*
X168509397Y-110120827D01*
X168509390Y-110120814D01*
X168421789Y-109989711D01*
X168421786Y-109989707D01*
X168310292Y-109878213D01*
X168310288Y-109878210D01*
X168179185Y-109790609D01*
X168179172Y-109790602D01*
X168033501Y-109730264D01*
X168033489Y-109730261D01*
X167878845Y-109699500D01*
X167878842Y-109699500D01*
X167721158Y-109699500D01*
X167721155Y-109699500D01*
X167566510Y-109730261D01*
X167566498Y-109730264D01*
X167420827Y-109790602D01*
X167420814Y-109790609D01*
X167289711Y-109878210D01*
X167289707Y-109878213D01*
X167178213Y-109989707D01*
X167178210Y-109989711D01*
X167090609Y-110120814D01*
X167090602Y-110120827D01*
X167030264Y-110266498D01*
X167030261Y-110266510D01*
X166999500Y-110421153D01*
X109300000Y-110421153D01*
X109300000Y-109016533D01*
X181124499Y-109016533D01*
X181150458Y-109147030D01*
X181150461Y-109147040D01*
X181201376Y-109269961D01*
X181201386Y-109269979D01*
X181275301Y-109380601D01*
X181275307Y-109380609D01*
X181369390Y-109474692D01*
X181369398Y-109474698D01*
X181480020Y-109548613D01*
X181480023Y-109548614D01*
X181480031Y-109548620D01*
X181602964Y-109599540D01*
X181602968Y-109599540D01*
X181602969Y-109599541D01*
X181733466Y-109625500D01*
X181733469Y-109625500D01*
X181866533Y-109625500D01*
X181954325Y-109608035D01*
X181997036Y-109599540D01*
X182119969Y-109548620D01*
X182230606Y-109474695D01*
X182324695Y-109380606D01*
X182398620Y-109269969D01*
X182449540Y-109147036D01*
X182475500Y-109016531D01*
X182475500Y-108883469D01*
X182475500Y-108883466D01*
X182449541Y-108752969D01*
X182449540Y-108752968D01*
X182449540Y-108752964D01*
X182398620Y-108630031D01*
X182324695Y-108519394D01*
X182324692Y-108519390D01*
X182230609Y-108425307D01*
X182230601Y-108425301D01*
X182119979Y-108351386D01*
X182119972Y-108351382D01*
X182119969Y-108351380D01*
X182119965Y-108351378D01*
X182119961Y-108351376D01*
X181997040Y-108300461D01*
X181997030Y-108300458D01*
X181866533Y-108274500D01*
X181866531Y-108274500D01*
X181733469Y-108274500D01*
X181733467Y-108274500D01*
X181602969Y-108300458D01*
X181602959Y-108300461D01*
X181480038Y-108351376D01*
X181480020Y-108351386D01*
X181369398Y-108425301D01*
X181369390Y-108425307D01*
X181275307Y-108519390D01*
X181275301Y-108519398D01*
X181201386Y-108630020D01*
X181201376Y-108630038D01*
X181150461Y-108752959D01*
X181150458Y-108752969D01*
X181124500Y-108883466D01*
X181124500Y-108883469D01*
X181124500Y-109016531D01*
X181124500Y-109016533D01*
X181124499Y-109016533D01*
X109300000Y-109016533D01*
X109300000Y-107066533D01*
X259424499Y-107066533D01*
X259450458Y-107197030D01*
X259450461Y-107197040D01*
X259501376Y-107319961D01*
X259501386Y-107319979D01*
X259575301Y-107430601D01*
X259575307Y-107430609D01*
X259669390Y-107524692D01*
X259669398Y-107524698D01*
X259780020Y-107598613D01*
X259780023Y-107598614D01*
X259780031Y-107598620D01*
X259902964Y-107649540D01*
X259902968Y-107649540D01*
X259902969Y-107649541D01*
X260033466Y-107675500D01*
X260033469Y-107675500D01*
X260166533Y-107675500D01*
X260254325Y-107658035D01*
X260297036Y-107649540D01*
X260419969Y-107598620D01*
X260530606Y-107524695D01*
X260624695Y-107430606D01*
X260698620Y-107319969D01*
X260749540Y-107197036D01*
X260775500Y-107066531D01*
X260775500Y-106933469D01*
X260775500Y-106933466D01*
X260749541Y-106802969D01*
X260749540Y-106802968D01*
X260749540Y-106802964D01*
X260749538Y-106802959D01*
X260698623Y-106680038D01*
X260698622Y-106680037D01*
X260698620Y-106680031D01*
X260691742Y-106669738D01*
X260624698Y-106569398D01*
X260624692Y-106569390D01*
X260530609Y-106475307D01*
X260530601Y-106475301D01*
X260419979Y-106401386D01*
X260419972Y-106401382D01*
X260419969Y-106401380D01*
X260419965Y-106401378D01*
X260419961Y-106401376D01*
X260297040Y-106350461D01*
X260297030Y-106350458D01*
X260166533Y-106324500D01*
X260166531Y-106324500D01*
X260033469Y-106324500D01*
X260033467Y-106324500D01*
X259902969Y-106350458D01*
X259902959Y-106350461D01*
X259780038Y-106401376D01*
X259780020Y-106401386D01*
X259669398Y-106475301D01*
X259669390Y-106475307D01*
X259575307Y-106569390D01*
X259575301Y-106569398D01*
X259501386Y-106680020D01*
X259501376Y-106680038D01*
X259450461Y-106802959D01*
X259450458Y-106802969D01*
X259424500Y-106933466D01*
X259424500Y-106933469D01*
X259424500Y-107066531D01*
X259424500Y-107066533D01*
X259424499Y-107066533D01*
X109300000Y-107066533D01*
X109300000Y-102862378D01*
X111549500Y-102862378D01*
X111549500Y-103137621D01*
X111580315Y-103411108D01*
X111580317Y-103411124D01*
X111641561Y-103679453D01*
X111641565Y-103679465D01*
X111732467Y-103939246D01*
X111851884Y-104187218D01*
X111857153Y-104195603D01*
X111998319Y-104420268D01*
X112169925Y-104635455D01*
X112364545Y-104830075D01*
X112579732Y-105001681D01*
X112812779Y-105148114D01*
X113060757Y-105267534D01*
X113255865Y-105335805D01*
X113320534Y-105358434D01*
X113320546Y-105358438D01*
X113588879Y-105419683D01*
X113862378Y-105450499D01*
X113862379Y-105450500D01*
X113862383Y-105450500D01*
X114137621Y-105450500D01*
X114137621Y-105450499D01*
X114411121Y-105419683D01*
X114679454Y-105358438D01*
X114939243Y-105267534D01*
X115187221Y-105148114D01*
X115420268Y-105001681D01*
X115635455Y-104830075D01*
X115830075Y-104635455D01*
X116001681Y-104420268D01*
X116148114Y-104187221D01*
X116267534Y-103939243D01*
X116358438Y-103679454D01*
X116419683Y-103411121D01*
X116450500Y-103137617D01*
X116450500Y-102908432D01*
X125945655Y-102908432D01*
X125945655Y-103090154D01*
X125953173Y-103137621D01*
X125974083Y-103269640D01*
X125974083Y-103269643D01*
X126030236Y-103442464D01*
X126030238Y-103442467D01*
X126112738Y-103604383D01*
X126219552Y-103751399D01*
X126348049Y-103879896D01*
X126404837Y-103921155D01*
X126495066Y-103986711D01*
X126631375Y-104056163D01*
X126682172Y-104104137D01*
X126698967Y-104171958D01*
X126685566Y-104222942D01*
X126632695Y-104326708D01*
X126632691Y-104326716D01*
X126576538Y-104499537D01*
X126576538Y-104499540D01*
X126565249Y-104570815D01*
X126548110Y-104679027D01*
X126548110Y-104860749D01*
X126558094Y-104923782D01*
X126576538Y-105040235D01*
X126576538Y-105040238D01*
X126632691Y-105213059D01*
X126632693Y-105213062D01*
X126715193Y-105374978D01*
X126822007Y-105521994D01*
X126950504Y-105650491D01*
X127097520Y-105757305D01*
X127259436Y-105839805D01*
X127259438Y-105839806D01*
X127420639Y-105892182D01*
X127432264Y-105895960D01*
X127611749Y-105924388D01*
X127611750Y-105924388D01*
X127793470Y-105924388D01*
X127793471Y-105924388D01*
X127886373Y-105909673D01*
X127977768Y-105895198D01*
X127977971Y-105896480D01*
X128041805Y-105899668D01*
X128098626Y-105940327D01*
X128123453Y-105997356D01*
X128135709Y-106074733D01*
X128135709Y-106074735D01*
X128191862Y-106247556D01*
X128191864Y-106247559D01*
X128274364Y-106409475D01*
X128381178Y-106556491D01*
X128509675Y-106684988D01*
X128656691Y-106791802D01*
X128818607Y-106874302D01*
X128818609Y-106874303D01*
X128979810Y-106926679D01*
X128991435Y-106930457D01*
X129170920Y-106958885D01*
X129170921Y-106958885D01*
X129352641Y-106958885D01*
X129352642Y-106958885D01*
X129532127Y-106930457D01*
X129532130Y-106930456D01*
X129532131Y-106930456D01*
X129704952Y-106874303D01*
X129704952Y-106874302D01*
X129704955Y-106874302D01*
X129866871Y-106791802D01*
X130013887Y-106684988D01*
X130142384Y-106556491D01*
X130156809Y-106536636D01*
X130212136Y-106493970D01*
X130281749Y-106487989D01*
X130343545Y-106520593D01*
X130344809Y-106521839D01*
X130375022Y-106552052D01*
X130522038Y-106658866D01*
X130683954Y-106741366D01*
X130683956Y-106741367D01*
X130839178Y-106791801D01*
X130856782Y-106797521D01*
X131036267Y-106825949D01*
X131036268Y-106825949D01*
X131217988Y-106825949D01*
X131217989Y-106825949D01*
X131290882Y-106814403D01*
X131350861Y-106804904D01*
X131357111Y-106803913D01*
X131397474Y-106797521D01*
X131397477Y-106797520D01*
X131397478Y-106797520D01*
X131570299Y-106741367D01*
X131570299Y-106741366D01*
X131570302Y-106741366D01*
X131732218Y-106658866D01*
X131879234Y-106552052D01*
X132007731Y-106423555D01*
X132114545Y-106276539D01*
X132197045Y-106114623D01*
X132253200Y-105941795D01*
X132253200Y-105941789D01*
X132254336Y-105937064D01*
X132255774Y-105937409D01*
X132282878Y-105880230D01*
X132342188Y-105843296D01*
X132393071Y-105840021D01*
X132524371Y-105858898D01*
X132666828Y-105838417D01*
X132704630Y-105821153D01*
X169599500Y-105821153D01*
X169599500Y-105978846D01*
X169630261Y-106133489D01*
X169630264Y-106133501D01*
X169690602Y-106279172D01*
X169690609Y-106279185D01*
X169778210Y-106410288D01*
X169778213Y-106410292D01*
X169889707Y-106521786D01*
X169889711Y-106521789D01*
X170020814Y-106609390D01*
X170020827Y-106609397D01*
X170140255Y-106658865D01*
X170166503Y-106669737D01*
X170321153Y-106700499D01*
X170321156Y-106700500D01*
X170321158Y-106700500D01*
X170478844Y-106700500D01*
X170478845Y-106700499D01*
X170633497Y-106669737D01*
X170779179Y-106609394D01*
X170910289Y-106521789D01*
X171021789Y-106410289D01*
X171109394Y-106279179D01*
X171169737Y-106133497D01*
X171200500Y-105978842D01*
X171200500Y-105821158D01*
X171200500Y-105821155D01*
X171200499Y-105821153D01*
X171194416Y-105790573D01*
X171169737Y-105666503D01*
X171163105Y-105650491D01*
X171154217Y-105629033D01*
X181911999Y-105629033D01*
X181937958Y-105759530D01*
X181937961Y-105759540D01*
X181988876Y-105882461D01*
X181988886Y-105882479D01*
X182062801Y-105993101D01*
X182062807Y-105993109D01*
X182156890Y-106087192D01*
X182156898Y-106087198D01*
X182267520Y-106161113D01*
X182267523Y-106161114D01*
X182267531Y-106161120D01*
X182390464Y-106212040D01*
X182390468Y-106212040D01*
X182390469Y-106212041D01*
X182520966Y-106238000D01*
X182520969Y-106238000D01*
X182654033Y-106238000D01*
X182741825Y-106220535D01*
X182784536Y-106212040D01*
X182907469Y-106161120D01*
X183018106Y-106087195D01*
X183112195Y-105993106D01*
X183186120Y-105882469D01*
X183237040Y-105759536D01*
X183263000Y-105629031D01*
X183263000Y-105495969D01*
X183263000Y-105495966D01*
X183237041Y-105365469D01*
X183237040Y-105365468D01*
X183237040Y-105365464D01*
X183200899Y-105278210D01*
X183186123Y-105242538D01*
X183186122Y-105242537D01*
X183186120Y-105242531D01*
X183151422Y-105190602D01*
X183112198Y-105131898D01*
X183112192Y-105131890D01*
X183018109Y-105037807D01*
X183018101Y-105037801D01*
X182907479Y-104963886D01*
X182907472Y-104963882D01*
X182907469Y-104963880D01*
X182907465Y-104963878D01*
X182907461Y-104963876D01*
X182784540Y-104912961D01*
X182784530Y-104912958D01*
X182654033Y-104887000D01*
X182654031Y-104887000D01*
X182520969Y-104887000D01*
X182520967Y-104887000D01*
X182390469Y-104912958D01*
X182390459Y-104912961D01*
X182267538Y-104963876D01*
X182267520Y-104963886D01*
X182156898Y-105037801D01*
X182156890Y-105037807D01*
X182062807Y-105131890D01*
X182062801Y-105131898D01*
X181988886Y-105242520D01*
X181988876Y-105242538D01*
X181937961Y-105365459D01*
X181937958Y-105365469D01*
X181912000Y-105495966D01*
X181912000Y-105495969D01*
X181912000Y-105629031D01*
X181912000Y-105629033D01*
X181911999Y-105629033D01*
X171154217Y-105629033D01*
X171116243Y-105537355D01*
X171116231Y-105537328D01*
X171109394Y-105520821D01*
X171109390Y-105520814D01*
X171021789Y-105389711D01*
X171021786Y-105389707D01*
X170910292Y-105278213D01*
X170910288Y-105278210D01*
X170779185Y-105190609D01*
X170779172Y-105190602D01*
X170633501Y-105130264D01*
X170633489Y-105130261D01*
X170478845Y-105099500D01*
X170478842Y-105099500D01*
X170321158Y-105099500D01*
X170321155Y-105099500D01*
X170166510Y-105130261D01*
X170166498Y-105130264D01*
X170020827Y-105190602D01*
X170020814Y-105190609D01*
X169889711Y-105278210D01*
X169889707Y-105278213D01*
X169778213Y-105389707D01*
X169778210Y-105389711D01*
X169690609Y-105520814D01*
X169690602Y-105520827D01*
X169630264Y-105666498D01*
X169630261Y-105666510D01*
X169599500Y-105821153D01*
X132704630Y-105821153D01*
X132797744Y-105778629D01*
X132844427Y-105741010D01*
X132844436Y-105741001D01*
X132858053Y-105727385D01*
X133672478Y-104912958D01*
X133837024Y-104748412D01*
X133874644Y-104701729D01*
X133934432Y-104570813D01*
X133954913Y-104428356D01*
X133934432Y-104285899D01*
X133933331Y-104283489D01*
X133874645Y-104154985D01*
X133874644Y-104154984D01*
X133874644Y-104154983D01*
X133837025Y-104108300D01*
X133837020Y-104108295D01*
X133837016Y-104108290D01*
X132844434Y-103115710D01*
X132844427Y-103115703D01*
X132797744Y-103078083D01*
X132797742Y-103078082D01*
X132797740Y-103078080D01*
X132666830Y-103018295D01*
X132666826Y-103018294D01*
X132524371Y-102997814D01*
X132395488Y-103016343D01*
X132387408Y-103015181D01*
X132379611Y-103017592D01*
X132353333Y-103010281D01*
X132326329Y-103006399D01*
X132320159Y-103001053D01*
X132312298Y-102998866D01*
X132294141Y-102978507D01*
X132273526Y-102960643D01*
X132270030Y-102951471D01*
X132265794Y-102946721D01*
X132255368Y-102913001D01*
X132254758Y-102909149D01*
X132254758Y-102909139D01*
X132247453Y-102863020D01*
X132256409Y-102793731D01*
X132301406Y-102740280D01*
X132368158Y-102719641D01*
X132389315Y-102721154D01*
X132434217Y-102728266D01*
X132434219Y-102728266D01*
X132615938Y-102728266D01*
X132615939Y-102728266D01*
X132795424Y-102699838D01*
X132795427Y-102699837D01*
X132795428Y-102699837D01*
X132968249Y-102643684D01*
X132968249Y-102643683D01*
X132968252Y-102643683D01*
X133130168Y-102561183D01*
X133277184Y-102454369D01*
X133312819Y-102418734D01*
X133374142Y-102385249D01*
X133443834Y-102390233D01*
X133499767Y-102432105D01*
X133524184Y-102497569D01*
X133524500Y-102506415D01*
X133524500Y-102616531D01*
X133524500Y-102616533D01*
X133524499Y-102616533D01*
X133550458Y-102747030D01*
X133550461Y-102747040D01*
X133601376Y-102869961D01*
X133601386Y-102869979D01*
X133675301Y-102980601D01*
X133675307Y-102980609D01*
X133769390Y-103074692D01*
X133769398Y-103074698D01*
X133880020Y-103148613D01*
X133880023Y-103148614D01*
X133880031Y-103148620D01*
X133880037Y-103148622D01*
X133880038Y-103148623D01*
X134002867Y-103199500D01*
X134002964Y-103199540D01*
X134002968Y-103199540D01*
X134002969Y-103199541D01*
X134133466Y-103225500D01*
X134133469Y-103225500D01*
X134266533Y-103225500D01*
X134387680Y-103201401D01*
X134397036Y-103199540D01*
X134519969Y-103148620D01*
X134630606Y-103074695D01*
X134724695Y-102980606D01*
X134798620Y-102869969D01*
X134801764Y-102862378D01*
X143549500Y-102862378D01*
X143549500Y-103137621D01*
X143580315Y-103411108D01*
X143580317Y-103411124D01*
X143641561Y-103679453D01*
X143641565Y-103679465D01*
X143732467Y-103939246D01*
X143851884Y-104187218D01*
X143857153Y-104195603D01*
X143998319Y-104420268D01*
X144169925Y-104635455D01*
X144364545Y-104830075D01*
X144579732Y-105001681D01*
X144812779Y-105148114D01*
X145060757Y-105267534D01*
X145255865Y-105335805D01*
X145320534Y-105358434D01*
X145320546Y-105358438D01*
X145588879Y-105419683D01*
X145862378Y-105450499D01*
X145862379Y-105450500D01*
X145862383Y-105450500D01*
X146137621Y-105450500D01*
X146137621Y-105450499D01*
X146411121Y-105419683D01*
X146679454Y-105358438D01*
X146939243Y-105267534D01*
X147187221Y-105148114D01*
X147420268Y-105001681D01*
X147635455Y-104830075D01*
X147830075Y-104635455D01*
X148001681Y-104420268D01*
X148148114Y-104187221D01*
X148267534Y-103939243D01*
X148358438Y-103679454D01*
X148417393Y-103421153D01*
X190499500Y-103421153D01*
X190499500Y-103578846D01*
X190530261Y-103733489D01*
X190530264Y-103733501D01*
X190590602Y-103879172D01*
X190590609Y-103879185D01*
X190678210Y-104010288D01*
X190678213Y-104010292D01*
X190789707Y-104121786D01*
X190789711Y-104121789D01*
X190920814Y-104209390D01*
X190920827Y-104209397D01*
X191027508Y-104253585D01*
X191066503Y-104269737D01*
X191191839Y-104294668D01*
X191221153Y-104300499D01*
X191221156Y-104300500D01*
X191221158Y-104300500D01*
X191378844Y-104300500D01*
X191378845Y-104300499D01*
X191533497Y-104269737D01*
X191679179Y-104209394D01*
X191810289Y-104121789D01*
X191921789Y-104010289D01*
X191981348Y-103921153D01*
X203449500Y-103921153D01*
X203449500Y-104078846D01*
X203480261Y-104233489D01*
X203480264Y-104233501D01*
X203540602Y-104379172D01*
X203540609Y-104379185D01*
X203628210Y-104510288D01*
X203628213Y-104510292D01*
X203739707Y-104621786D01*
X203739711Y-104621789D01*
X203870814Y-104709390D01*
X203870827Y-104709397D01*
X204016498Y-104769735D01*
X204016503Y-104769737D01*
X204171153Y-104800499D01*
X204171156Y-104800500D01*
X204171158Y-104800500D01*
X204328844Y-104800500D01*
X204328845Y-104800499D01*
X204483497Y-104769737D01*
X204629179Y-104709394D01*
X204760289Y-104621789D01*
X204871789Y-104510289D01*
X204959394Y-104379179D01*
X205019737Y-104233497D01*
X205050500Y-104078842D01*
X205050500Y-103971153D01*
X210849500Y-103971153D01*
X210849500Y-104128846D01*
X210880261Y-104283489D01*
X210880264Y-104283501D01*
X210940602Y-104429172D01*
X210940609Y-104429185D01*
X211028210Y-104560288D01*
X211028213Y-104560292D01*
X211139707Y-104671786D01*
X211139711Y-104671789D01*
X211270814Y-104759390D01*
X211270827Y-104759397D01*
X211370060Y-104800500D01*
X211416503Y-104819737D01*
X211571153Y-104850499D01*
X211571156Y-104850500D01*
X211571158Y-104850500D01*
X211728844Y-104850500D01*
X211728845Y-104850499D01*
X211883497Y-104819737D01*
X212029179Y-104759394D01*
X212160289Y-104671789D01*
X212271789Y-104560289D01*
X212359394Y-104429179D01*
X212419737Y-104283497D01*
X212450500Y-104128842D01*
X212450500Y-103971158D01*
X212450500Y-103971155D01*
X212450499Y-103971153D01*
X212432203Y-103879175D01*
X212419737Y-103816503D01*
X212419735Y-103816498D01*
X212359397Y-103670827D01*
X212359390Y-103670814D01*
X212289711Y-103566533D01*
X240324499Y-103566533D01*
X240350458Y-103697030D01*
X240350461Y-103697040D01*
X240401376Y-103819961D01*
X240401386Y-103819979D01*
X240475301Y-103930601D01*
X240475307Y-103930609D01*
X240569390Y-104024692D01*
X240569398Y-104024698D01*
X240680020Y-104098613D01*
X240680023Y-104098614D01*
X240680031Y-104098620D01*
X240680037Y-104098622D01*
X240680038Y-104098623D01*
X240752994Y-104128842D01*
X240802964Y-104149540D01*
X240802968Y-104149540D01*
X240802969Y-104149541D01*
X240933466Y-104175500D01*
X240933469Y-104175500D01*
X241066533Y-104175500D01*
X241172101Y-104154500D01*
X241197036Y-104149540D01*
X241319969Y-104098620D01*
X241430606Y-104024695D01*
X241524695Y-103930606D01*
X241598620Y-103819969D01*
X241649540Y-103697036D01*
X241662258Y-103633100D01*
X241675500Y-103566533D01*
X241675500Y-103433466D01*
X241649541Y-103302969D01*
X241649540Y-103302968D01*
X241649540Y-103302964D01*
X241649538Y-103302959D01*
X241598623Y-103180038D01*
X241598622Y-103180037D01*
X241598620Y-103180031D01*
X241577627Y-103148613D01*
X241524698Y-103069398D01*
X241524692Y-103069390D01*
X241430609Y-102975307D01*
X241430601Y-102975301D01*
X241319979Y-102901386D01*
X241319972Y-102901382D01*
X241319969Y-102901380D01*
X241319965Y-102901378D01*
X241319961Y-102901376D01*
X241197040Y-102850461D01*
X241197030Y-102850458D01*
X241066533Y-102824500D01*
X241066531Y-102824500D01*
X240933469Y-102824500D01*
X240933467Y-102824500D01*
X240802969Y-102850458D01*
X240802959Y-102850461D01*
X240680038Y-102901376D01*
X240680020Y-102901386D01*
X240569398Y-102975301D01*
X240569390Y-102975307D01*
X240475307Y-103069390D01*
X240475301Y-103069398D01*
X240401386Y-103180020D01*
X240401376Y-103180038D01*
X240350461Y-103302959D01*
X240350458Y-103302969D01*
X240324500Y-103433466D01*
X240324500Y-103433469D01*
X240324500Y-103566531D01*
X240324500Y-103566533D01*
X240324499Y-103566533D01*
X212289711Y-103566533D01*
X212271789Y-103539711D01*
X212271786Y-103539707D01*
X212160292Y-103428213D01*
X212160288Y-103428210D01*
X212029185Y-103340609D01*
X212029172Y-103340602D01*
X211883501Y-103280264D01*
X211883489Y-103280261D01*
X211728845Y-103249500D01*
X211728842Y-103249500D01*
X211571158Y-103249500D01*
X211571155Y-103249500D01*
X211416510Y-103280261D01*
X211416498Y-103280264D01*
X211270827Y-103340602D01*
X211270814Y-103340609D01*
X211139711Y-103428210D01*
X211139707Y-103428213D01*
X211028213Y-103539707D01*
X211028210Y-103539711D01*
X210940609Y-103670814D01*
X210940602Y-103670827D01*
X210880264Y-103816498D01*
X210880261Y-103816510D01*
X210849500Y-103971153D01*
X205050500Y-103971153D01*
X205050500Y-103921158D01*
X205050500Y-103921155D01*
X205050499Y-103921153D01*
X205030372Y-103819969D01*
X205019737Y-103766503D01*
X204983685Y-103679465D01*
X204959397Y-103620827D01*
X204959390Y-103620814D01*
X204871789Y-103489711D01*
X204871786Y-103489707D01*
X204760292Y-103378213D01*
X204760288Y-103378210D01*
X204629185Y-103290609D01*
X204629172Y-103290602D01*
X204483501Y-103230264D01*
X204483489Y-103230261D01*
X204328845Y-103199500D01*
X204328842Y-103199500D01*
X204171158Y-103199500D01*
X204171155Y-103199500D01*
X204016510Y-103230261D01*
X204016498Y-103230264D01*
X203870827Y-103290602D01*
X203870814Y-103290609D01*
X203739711Y-103378210D01*
X203739707Y-103378213D01*
X203628213Y-103489707D01*
X203628210Y-103489711D01*
X203540609Y-103620814D01*
X203540602Y-103620827D01*
X203480264Y-103766498D01*
X203480261Y-103766510D01*
X203449500Y-103921153D01*
X191981348Y-103921153D01*
X192009394Y-103879179D01*
X192069737Y-103733497D01*
X192100500Y-103578842D01*
X192100500Y-103421158D01*
X192100500Y-103421155D01*
X192100499Y-103421153D01*
X192098504Y-103411124D01*
X192069737Y-103266503D01*
X192062694Y-103249500D01*
X192009397Y-103120827D01*
X192009390Y-103120814D01*
X191921789Y-102989711D01*
X191921786Y-102989707D01*
X191810292Y-102878213D01*
X191810288Y-102878210D01*
X191679185Y-102790609D01*
X191679172Y-102790602D01*
X191533501Y-102730264D01*
X191533489Y-102730261D01*
X191378845Y-102699500D01*
X191378842Y-102699500D01*
X191221158Y-102699500D01*
X191221155Y-102699500D01*
X191066510Y-102730261D01*
X191066498Y-102730264D01*
X190920827Y-102790602D01*
X190920814Y-102790609D01*
X190789711Y-102878210D01*
X190789707Y-102878213D01*
X190678213Y-102989707D01*
X190678210Y-102989711D01*
X190590609Y-103120814D01*
X190590602Y-103120827D01*
X190530264Y-103266498D01*
X190530261Y-103266510D01*
X190499500Y-103421153D01*
X148417393Y-103421153D01*
X148419683Y-103411121D01*
X148450500Y-103137617D01*
X148450500Y-102862383D01*
X148419683Y-102588879D01*
X148358438Y-102320546D01*
X148267534Y-102060757D01*
X148222158Y-101966533D01*
X245624499Y-101966533D01*
X245650458Y-102097030D01*
X245650461Y-102097040D01*
X245701376Y-102219961D01*
X245701386Y-102219979D01*
X245775301Y-102330601D01*
X245775307Y-102330609D01*
X245869390Y-102424692D01*
X245869398Y-102424698D01*
X245980020Y-102498613D01*
X245980023Y-102498614D01*
X245980031Y-102498620D01*
X246102964Y-102549540D01*
X246102968Y-102549540D01*
X246102969Y-102549541D01*
X246233466Y-102575500D01*
X246233469Y-102575500D01*
X246366533Y-102575500D01*
X246463967Y-102556118D01*
X246497036Y-102549540D01*
X246619969Y-102498620D01*
X246730606Y-102424695D01*
X246824695Y-102330606D01*
X246898620Y-102219969D01*
X246949540Y-102097036D01*
X246963809Y-102025305D01*
X246975500Y-101966533D01*
X246975500Y-101833466D01*
X246949541Y-101702969D01*
X246949540Y-101702968D01*
X246949540Y-101702964D01*
X246933934Y-101665288D01*
X246898623Y-101580038D01*
X246898622Y-101580037D01*
X246898620Y-101580031D01*
X246898420Y-101579732D01*
X246824698Y-101469398D01*
X246824692Y-101469390D01*
X246730609Y-101375307D01*
X246730601Y-101375301D01*
X246619979Y-101301386D01*
X246619972Y-101301382D01*
X246619969Y-101301380D01*
X246619965Y-101301378D01*
X246619961Y-101301376D01*
X246497040Y-101250461D01*
X246497030Y-101250458D01*
X246366533Y-101224500D01*
X246366531Y-101224500D01*
X246233469Y-101224500D01*
X246233467Y-101224500D01*
X246102969Y-101250458D01*
X246102959Y-101250461D01*
X245980038Y-101301376D01*
X245980020Y-101301386D01*
X245869398Y-101375301D01*
X245869390Y-101375307D01*
X245775307Y-101469390D01*
X245775301Y-101469398D01*
X245701386Y-101580020D01*
X245701376Y-101580038D01*
X245650461Y-101702959D01*
X245650458Y-101702969D01*
X245624500Y-101833466D01*
X245624500Y-101833469D01*
X245624500Y-101966531D01*
X245624500Y-101966533D01*
X245624499Y-101966533D01*
X148222158Y-101966533D01*
X148172972Y-101864397D01*
X148148115Y-101812781D01*
X148146822Y-101810723D01*
X148001681Y-101579732D01*
X147830075Y-101364545D01*
X147635455Y-101169925D01*
X147635454Y-101169924D01*
X147635450Y-101169920D01*
X147631809Y-101167016D01*
X147631804Y-101167013D01*
X147543893Y-101096906D01*
X147517869Y-101076153D01*
X199844500Y-101076153D01*
X199844500Y-101233846D01*
X199875261Y-101388489D01*
X199875264Y-101388501D01*
X199935602Y-101534172D01*
X199935609Y-101534185D01*
X200023210Y-101665288D01*
X200023213Y-101665292D01*
X200134707Y-101776786D01*
X200134711Y-101776789D01*
X200265814Y-101864390D01*
X200265827Y-101864397D01*
X200411498Y-101924735D01*
X200411503Y-101924737D01*
X200545446Y-101951380D01*
X200566153Y-101955499D01*
X200566156Y-101955500D01*
X200566158Y-101955500D01*
X200723844Y-101955500D01*
X200723845Y-101955499D01*
X200878497Y-101924737D01*
X201024179Y-101864394D01*
X201155289Y-101776789D01*
X201157007Y-101775071D01*
X201192383Y-101739696D01*
X201266786Y-101665292D01*
X201266789Y-101665289D01*
X201354394Y-101534179D01*
X201359392Y-101522114D01*
X201381230Y-101469390D01*
X201414737Y-101388497D01*
X201445500Y-101233842D01*
X201445500Y-101076158D01*
X201445500Y-101076155D01*
X201445499Y-101076153D01*
X201430017Y-100998319D01*
X201414737Y-100921503D01*
X201373381Y-100821660D01*
X201354397Y-100775827D01*
X201354390Y-100775814D01*
X201266789Y-100644711D01*
X201266786Y-100644707D01*
X201155292Y-100533213D01*
X201155288Y-100533210D01*
X201024185Y-100445609D01*
X201024172Y-100445602D01*
X200878501Y-100385264D01*
X200878489Y-100385261D01*
X200723845Y-100354500D01*
X200723842Y-100354500D01*
X200566158Y-100354500D01*
X200566155Y-100354500D01*
X200411510Y-100385261D01*
X200411498Y-100385264D01*
X200265827Y-100445602D01*
X200265814Y-100445609D01*
X200134711Y-100533210D01*
X200134707Y-100533213D01*
X200023213Y-100644707D01*
X200023210Y-100644711D01*
X199935609Y-100775814D01*
X199935602Y-100775827D01*
X199875264Y-100921498D01*
X199875261Y-100921510D01*
X199844500Y-101076153D01*
X147517869Y-101076153D01*
X147420268Y-100998319D01*
X147187221Y-100851886D01*
X147187218Y-100851884D01*
X146939246Y-100732467D01*
X146679465Y-100641565D01*
X146679453Y-100641561D01*
X146411124Y-100580317D01*
X146411108Y-100580315D01*
X146137621Y-100549500D01*
X146137617Y-100549500D01*
X145862383Y-100549500D01*
X145862379Y-100549500D01*
X145588891Y-100580315D01*
X145588875Y-100580317D01*
X145320546Y-100641561D01*
X145320534Y-100641565D01*
X145060753Y-100732467D01*
X144812781Y-100851884D01*
X144579733Y-100998318D01*
X144364545Y-101169924D01*
X144169924Y-101364545D01*
X143998318Y-101579733D01*
X143851884Y-101812781D01*
X143732467Y-102060753D01*
X143641565Y-102320534D01*
X143641561Y-102320546D01*
X143580317Y-102588875D01*
X143580315Y-102588891D01*
X143549500Y-102862378D01*
X134801764Y-102862378D01*
X134849540Y-102747036D01*
X134867748Y-102655502D01*
X134875500Y-102616533D01*
X134875500Y-102483466D01*
X134849541Y-102352969D01*
X134849540Y-102352968D01*
X134849540Y-102352964D01*
X134798620Y-102230031D01*
X134791903Y-102219979D01*
X134724698Y-102119398D01*
X134724692Y-102119390D01*
X134630609Y-102025307D01*
X134630601Y-102025301D01*
X134519979Y-101951386D01*
X134519970Y-101951381D01*
X134519969Y-101951380D01*
X134519965Y-101951378D01*
X134519961Y-101951376D01*
X134397040Y-101900461D01*
X134397030Y-101900458D01*
X134266533Y-101874500D01*
X134266531Y-101874500D01*
X134133469Y-101874500D01*
X134133467Y-101874500D01*
X134002969Y-101900458D01*
X134002959Y-101900461D01*
X133880038Y-101951376D01*
X133880029Y-101951381D01*
X133840168Y-101978015D01*
X133773490Y-101998891D01*
X133706110Y-101980405D01*
X133659421Y-101928425D01*
X133648246Y-101859455D01*
X133650706Y-101845962D01*
X133651150Y-101844112D01*
X133661813Y-101776789D01*
X133679578Y-101664627D01*
X133679578Y-101482905D01*
X133651150Y-101303420D01*
X133651149Y-101303416D01*
X133651149Y-101303415D01*
X133594996Y-101130594D01*
X133594994Y-101130591D01*
X133569552Y-101080657D01*
X133512495Y-100968676D01*
X133405681Y-100821660D01*
X133277184Y-100693163D01*
X133130168Y-100586349D01*
X132968252Y-100503849D01*
X132968249Y-100503847D01*
X132795426Y-100447694D01*
X132623717Y-100420498D01*
X132615939Y-100419266D01*
X132434217Y-100419266D01*
X132434213Y-100419266D01*
X132426431Y-100420498D01*
X132357139Y-100411538D01*
X132303690Y-100366538D01*
X132283055Y-100299785D01*
X132283042Y-100298023D01*
X132283042Y-100237690D01*
X132270544Y-100158781D01*
X132254614Y-100058205D01*
X132254613Y-100058201D01*
X132254613Y-100058200D01*
X132198460Y-99885379D01*
X132198458Y-99885376D01*
X132115956Y-99723456D01*
X132061160Y-99648037D01*
X132037679Y-99582231D01*
X132053504Y-99514177D01*
X132103609Y-99465482D01*
X132172087Y-99451606D01*
X132208929Y-99460590D01*
X132251352Y-99478162D01*
X132302964Y-99499540D01*
X132302968Y-99499540D01*
X132302969Y-99499541D01*
X132433466Y-99525500D01*
X132433469Y-99525500D01*
X132566533Y-99525500D01*
X132654325Y-99508035D01*
X132697036Y-99499540D01*
X132819969Y-99448620D01*
X132930606Y-99374695D01*
X133024695Y-99280606D01*
X133098620Y-99169969D01*
X133149540Y-99047036D01*
X133175500Y-98916531D01*
X133175500Y-98783469D01*
X133175500Y-98783466D01*
X133149541Y-98652969D01*
X133149540Y-98652968D01*
X133149540Y-98652964D01*
X133098620Y-98530031D01*
X133024695Y-98419394D01*
X133024692Y-98419390D01*
X132930609Y-98325307D01*
X132930601Y-98325301D01*
X132819979Y-98251386D01*
X132819972Y-98251382D01*
X132819969Y-98251380D01*
X132819965Y-98251378D01*
X132819961Y-98251376D01*
X132697040Y-98200461D01*
X132697030Y-98200458D01*
X132566533Y-98174500D01*
X132566531Y-98174500D01*
X132433469Y-98174500D01*
X132433467Y-98174500D01*
X132302969Y-98200458D01*
X132302959Y-98200461D01*
X132180038Y-98251376D01*
X132180020Y-98251386D01*
X132069398Y-98325301D01*
X132069390Y-98325307D01*
X131975307Y-98419390D01*
X131975301Y-98419398D01*
X131901386Y-98530020D01*
X131901376Y-98530038D01*
X131850461Y-98652959D01*
X131850458Y-98652969D01*
X131824500Y-98783466D01*
X131824500Y-98783469D01*
X131824500Y-98916531D01*
X131824500Y-98916533D01*
X131824499Y-98916533D01*
X131850458Y-99047030D01*
X131850461Y-99047040D01*
X131901380Y-99169971D01*
X131903818Y-99174532D01*
X131918054Y-99242936D01*
X131893049Y-99308178D01*
X131836740Y-99349544D01*
X131767006Y-99353900D01*
X131738516Y-99342279D01*
X131737973Y-99343346D01*
X131614844Y-99280609D01*
X131571716Y-99258634D01*
X131571713Y-99258632D01*
X131398890Y-99202479D01*
X131279231Y-99183527D01*
X131219403Y-99174051D01*
X131037681Y-99174051D01*
X130977852Y-99183527D01*
X130858194Y-99202479D01*
X130858191Y-99202479D01*
X130685370Y-99258632D01*
X130685367Y-99258634D01*
X130523451Y-99341134D01*
X130376436Y-99447948D01*
X130346222Y-99478162D01*
X130284898Y-99511646D01*
X130215207Y-99506660D01*
X130159274Y-99464788D01*
X130158225Y-99463366D01*
X130143798Y-99443509D01*
X130015303Y-99315014D01*
X130015301Y-99315012D01*
X129868285Y-99208198D01*
X129706369Y-99125698D01*
X129706366Y-99125696D01*
X129533543Y-99069543D01*
X129391401Y-99047030D01*
X129354056Y-99041115D01*
X129172334Y-99041115D01*
X129134989Y-99047030D01*
X128992847Y-99069543D01*
X128992844Y-99069543D01*
X128820023Y-99125696D01*
X128820020Y-99125698D01*
X128658104Y-99208198D01*
X128588689Y-99258632D01*
X128511089Y-99315012D01*
X128511087Y-99315014D01*
X128511086Y-99315014D01*
X128382594Y-99443506D01*
X128382594Y-99443507D01*
X128382592Y-99443509D01*
X128370182Y-99460590D01*
X128275778Y-99590524D01*
X128193278Y-99752440D01*
X128193276Y-99752443D01*
X128137123Y-99925264D01*
X128137123Y-99925266D01*
X128125083Y-100001281D01*
X128095153Y-100064416D01*
X128035841Y-100101346D01*
X127979345Y-100102357D01*
X127979182Y-100103388D01*
X127887787Y-100088912D01*
X127794885Y-100074198D01*
X127613163Y-100074198D01*
X127553334Y-100083674D01*
X127433676Y-100102626D01*
X127433673Y-100102626D01*
X127260852Y-100158779D01*
X127260849Y-100158781D01*
X127098933Y-100241281D01*
X127020836Y-100298023D01*
X126951918Y-100348095D01*
X126951916Y-100348097D01*
X126951915Y-100348097D01*
X126823423Y-100476589D01*
X126823423Y-100476590D01*
X126823421Y-100476592D01*
X126803619Y-100503847D01*
X126716607Y-100623607D01*
X126634107Y-100785523D01*
X126634105Y-100785526D01*
X126577952Y-100958347D01*
X126577952Y-100958350D01*
X126550671Y-101130594D01*
X126549524Y-101137837D01*
X126549524Y-101319559D01*
X126562022Y-101398466D01*
X126577952Y-101499045D01*
X126577952Y-101499048D01*
X126634105Y-101671869D01*
X126634109Y-101671878D01*
X126686688Y-101775071D01*
X126699584Y-101843740D01*
X126673307Y-101908480D01*
X126632498Y-101941850D01*
X126495064Y-102011876D01*
X126427792Y-102060753D01*
X126348049Y-102118690D01*
X126348047Y-102118692D01*
X126348046Y-102118692D01*
X126219554Y-102247184D01*
X126219554Y-102247185D01*
X126219552Y-102247187D01*
X126182187Y-102298615D01*
X126112738Y-102394202D01*
X126030238Y-102556118D01*
X126030236Y-102556121D01*
X125974083Y-102728942D01*
X125974083Y-102728945D01*
X125952847Y-102863024D01*
X125945655Y-102908432D01*
X116450500Y-102908432D01*
X116450500Y-102862383D01*
X116419683Y-102588879D01*
X116358438Y-102320546D01*
X116267534Y-102060757D01*
X116172972Y-101864397D01*
X116148115Y-101812781D01*
X116146822Y-101810723D01*
X116001681Y-101579732D01*
X115830075Y-101364545D01*
X115635455Y-101169925D01*
X115631803Y-101167013D01*
X115580804Y-101126343D01*
X115420268Y-100998319D01*
X115187221Y-100851886D01*
X115187218Y-100851884D01*
X114939246Y-100732467D01*
X114679465Y-100641565D01*
X114679453Y-100641561D01*
X114411124Y-100580317D01*
X114411108Y-100580315D01*
X114137621Y-100549500D01*
X114137617Y-100549500D01*
X113862383Y-100549500D01*
X113862379Y-100549500D01*
X113588891Y-100580315D01*
X113588875Y-100580317D01*
X113320546Y-100641561D01*
X113320534Y-100641565D01*
X113060753Y-100732467D01*
X112812781Y-100851884D01*
X112579733Y-100998318D01*
X112364545Y-101169924D01*
X112169924Y-101364545D01*
X111998318Y-101579733D01*
X111851884Y-101812781D01*
X111732467Y-102060753D01*
X111641565Y-102320534D01*
X111641561Y-102320546D01*
X111580317Y-102588875D01*
X111580315Y-102588891D01*
X111549500Y-102862378D01*
X109300000Y-102862378D01*
X109300000Y-98916533D01*
X126674499Y-98916533D01*
X126700458Y-99047030D01*
X126700461Y-99047040D01*
X126751376Y-99169961D01*
X126751378Y-99169965D01*
X126751380Y-99169969D01*
X126751382Y-99169972D01*
X126751386Y-99169979D01*
X126825301Y-99280601D01*
X126825307Y-99280609D01*
X126919390Y-99374692D01*
X126919398Y-99374698D01*
X127030020Y-99448613D01*
X127030023Y-99448614D01*
X127030031Y-99448620D01*
X127152964Y-99499540D01*
X127152968Y-99499540D01*
X127152969Y-99499541D01*
X127283466Y-99525500D01*
X127283469Y-99525500D01*
X127416533Y-99525500D01*
X127504325Y-99508035D01*
X127547036Y-99499540D01*
X127669969Y-99448620D01*
X127780606Y-99374695D01*
X127874695Y-99280606D01*
X127948620Y-99169969D01*
X127999540Y-99047036D01*
X128025500Y-98916531D01*
X128025500Y-98783469D01*
X128025500Y-98783466D01*
X127999541Y-98652969D01*
X127999540Y-98652968D01*
X127999540Y-98652964D01*
X127948620Y-98530031D01*
X127874695Y-98419394D01*
X127874692Y-98419390D01*
X127780609Y-98325307D01*
X127780601Y-98325301D01*
X127669979Y-98251386D01*
X127669972Y-98251382D01*
X127669969Y-98251380D01*
X127669965Y-98251378D01*
X127669961Y-98251376D01*
X127547040Y-98200461D01*
X127547030Y-98200458D01*
X127416533Y-98174500D01*
X127416531Y-98174500D01*
X127283469Y-98174500D01*
X127283467Y-98174500D01*
X127152969Y-98200458D01*
X127152959Y-98200461D01*
X127030038Y-98251376D01*
X127030020Y-98251386D01*
X126919398Y-98325301D01*
X126919390Y-98325307D01*
X126825307Y-98419390D01*
X126825301Y-98419398D01*
X126751386Y-98530020D01*
X126751376Y-98530038D01*
X126700461Y-98652959D01*
X126700458Y-98652969D01*
X126674500Y-98783466D01*
X126674500Y-98783469D01*
X126674500Y-98916531D01*
X126674500Y-98916533D01*
X126674499Y-98916533D01*
X109300000Y-98916533D01*
X109300000Y-89691402D01*
X118587875Y-89691402D01*
X118587875Y-89927597D01*
X118624821Y-90160868D01*
X118697808Y-90385496D01*
X118805032Y-90595933D01*
X118943858Y-90787010D01*
X119110865Y-90954017D01*
X119301942Y-91092843D01*
X119401366Y-91143502D01*
X119512378Y-91200066D01*
X119512380Y-91200066D01*
X119512383Y-91200068D01*
X119632787Y-91239189D01*
X119737006Y-91273053D01*
X119970278Y-91310000D01*
X119970283Y-91310000D01*
X120206472Y-91310000D01*
X120439743Y-91273053D01*
X120664367Y-91200068D01*
X120874808Y-91092843D01*
X121065885Y-90954017D01*
X121232892Y-90787010D01*
X121371718Y-90595933D01*
X121478943Y-90385492D01*
X121551928Y-90160868D01*
X121588875Y-89927597D01*
X121588875Y-89691402D01*
X125087875Y-89691402D01*
X125087875Y-89927597D01*
X125124821Y-90160868D01*
X125197808Y-90385496D01*
X125305032Y-90595933D01*
X125443858Y-90787010D01*
X125610865Y-90954017D01*
X125801942Y-91092843D01*
X125901366Y-91143502D01*
X126012378Y-91200066D01*
X126012380Y-91200066D01*
X126012383Y-91200068D01*
X126132787Y-91239189D01*
X126237006Y-91273053D01*
X126470278Y-91310000D01*
X126470283Y-91310000D01*
X126706472Y-91310000D01*
X126939743Y-91273053D01*
X127164367Y-91200068D01*
X127374808Y-91092843D01*
X127565885Y-90954017D01*
X127732892Y-90787010D01*
X127871718Y-90595933D01*
X127978943Y-90385492D01*
X128051928Y-90160868D01*
X128088875Y-89927597D01*
X128088875Y-89691402D01*
X141587876Y-89691402D01*
X141587876Y-89927597D01*
X141624822Y-90160868D01*
X141697809Y-90385496D01*
X141805033Y-90595933D01*
X141943859Y-90787010D01*
X142110866Y-90954017D01*
X142301943Y-91092843D01*
X142401367Y-91143502D01*
X142512379Y-91200066D01*
X142512381Y-91200066D01*
X142512384Y-91200068D01*
X142632788Y-91239189D01*
X142737007Y-91273053D01*
X142970279Y-91310000D01*
X142970284Y-91310000D01*
X143206473Y-91310000D01*
X143439744Y-91273053D01*
X143664368Y-91200068D01*
X143874809Y-91092843D01*
X144065886Y-90954017D01*
X144232893Y-90787010D01*
X144371719Y-90595933D01*
X144478944Y-90385492D01*
X144551929Y-90160868D01*
X144588876Y-89927597D01*
X144588876Y-89691402D01*
X148087876Y-89691402D01*
X148087876Y-89927597D01*
X148124822Y-90160868D01*
X148197809Y-90385496D01*
X148305033Y-90595933D01*
X148443859Y-90787010D01*
X148610866Y-90954017D01*
X148801943Y-91092843D01*
X148901367Y-91143502D01*
X149012379Y-91200066D01*
X149012381Y-91200066D01*
X149012384Y-91200068D01*
X149132788Y-91239189D01*
X149237007Y-91273053D01*
X149470279Y-91310000D01*
X149470284Y-91310000D01*
X149706473Y-91310000D01*
X149939744Y-91273053D01*
X150164368Y-91200068D01*
X150374809Y-91092843D01*
X150565886Y-90954017D01*
X150732893Y-90787010D01*
X150871719Y-90595933D01*
X150978944Y-90385492D01*
X151051929Y-90160868D01*
X151088876Y-89927597D01*
X151088876Y-89691402D01*
X164587876Y-89691402D01*
X164587876Y-89927597D01*
X164624822Y-90160868D01*
X164697809Y-90385496D01*
X164805033Y-90595933D01*
X164943859Y-90787010D01*
X165110866Y-90954017D01*
X165301943Y-91092843D01*
X165401367Y-91143502D01*
X165512379Y-91200066D01*
X165512381Y-91200066D01*
X165512384Y-91200068D01*
X165632788Y-91239189D01*
X165737007Y-91273053D01*
X165970279Y-91310000D01*
X165970284Y-91310000D01*
X166206473Y-91310000D01*
X166439744Y-91273053D01*
X166664368Y-91200068D01*
X166874809Y-91092843D01*
X167065886Y-90954017D01*
X167232893Y-90787010D01*
X167371719Y-90595933D01*
X167478944Y-90385492D01*
X167551929Y-90160868D01*
X167588876Y-89927597D01*
X167588876Y-89691402D01*
X171087876Y-89691402D01*
X171087876Y-89927597D01*
X171124822Y-90160868D01*
X171197809Y-90385496D01*
X171305033Y-90595933D01*
X171443859Y-90787010D01*
X171610866Y-90954017D01*
X171801943Y-91092843D01*
X171901367Y-91143502D01*
X172012379Y-91200066D01*
X172012381Y-91200066D01*
X172012384Y-91200068D01*
X172132788Y-91239189D01*
X172237007Y-91273053D01*
X172470279Y-91310000D01*
X172470284Y-91310000D01*
X172706473Y-91310000D01*
X172939744Y-91273053D01*
X173164368Y-91200068D01*
X173374809Y-91092843D01*
X173565886Y-90954017D01*
X173732893Y-90787010D01*
X173871719Y-90595933D01*
X173978944Y-90385492D01*
X174051929Y-90160868D01*
X174088876Y-89927597D01*
X174088876Y-89691402D01*
X187587876Y-89691402D01*
X187587876Y-89927597D01*
X187624822Y-90160868D01*
X187697809Y-90385496D01*
X187805033Y-90595933D01*
X187943859Y-90787010D01*
X188110866Y-90954017D01*
X188301943Y-91092843D01*
X188401367Y-91143502D01*
X188512379Y-91200066D01*
X188512381Y-91200066D01*
X188512384Y-91200068D01*
X188632788Y-91239189D01*
X188737007Y-91273053D01*
X188970279Y-91310000D01*
X188970284Y-91310000D01*
X189206473Y-91310000D01*
X189439744Y-91273053D01*
X189664368Y-91200068D01*
X189874809Y-91092843D01*
X190065886Y-90954017D01*
X190232893Y-90787010D01*
X190371719Y-90595933D01*
X190478944Y-90385492D01*
X190551929Y-90160868D01*
X190588876Y-89927597D01*
X190588876Y-89691402D01*
X194087876Y-89691402D01*
X194087876Y-89927597D01*
X194124822Y-90160868D01*
X194197809Y-90385496D01*
X194305033Y-90595933D01*
X194443859Y-90787010D01*
X194610866Y-90954017D01*
X194801943Y-91092843D01*
X194901367Y-91143502D01*
X195012379Y-91200066D01*
X195012381Y-91200066D01*
X195012384Y-91200068D01*
X195132788Y-91239189D01*
X195237007Y-91273053D01*
X195470279Y-91310000D01*
X195470284Y-91310000D01*
X195706473Y-91310000D01*
X195939744Y-91273053D01*
X196164368Y-91200068D01*
X196374809Y-91092843D01*
X196565886Y-90954017D01*
X196732893Y-90787010D01*
X196871719Y-90595933D01*
X196978944Y-90385492D01*
X197051929Y-90160868D01*
X197088876Y-89927597D01*
X197088876Y-89691402D01*
X210587876Y-89691402D01*
X210587876Y-89927597D01*
X210624822Y-90160868D01*
X210697809Y-90385496D01*
X210805033Y-90595933D01*
X210943859Y-90787010D01*
X211110866Y-90954017D01*
X211301943Y-91092843D01*
X211401367Y-91143502D01*
X211512379Y-91200066D01*
X211512381Y-91200066D01*
X211512384Y-91200068D01*
X211632788Y-91239189D01*
X211737007Y-91273053D01*
X211970279Y-91310000D01*
X211970284Y-91310000D01*
X212206473Y-91310000D01*
X212439744Y-91273053D01*
X212664368Y-91200068D01*
X212874809Y-91092843D01*
X213065886Y-90954017D01*
X213232893Y-90787010D01*
X213371719Y-90595933D01*
X213478944Y-90385492D01*
X213551929Y-90160868D01*
X213588876Y-89927597D01*
X213588876Y-89691402D01*
X217087876Y-89691402D01*
X217087876Y-89927597D01*
X217124822Y-90160868D01*
X217197809Y-90385496D01*
X217305033Y-90595933D01*
X217443859Y-90787010D01*
X217610866Y-90954017D01*
X217801943Y-91092843D01*
X217901367Y-91143502D01*
X218012379Y-91200066D01*
X218012381Y-91200066D01*
X218012384Y-91200068D01*
X218132788Y-91239189D01*
X218237007Y-91273053D01*
X218470279Y-91310000D01*
X218470284Y-91310000D01*
X218706473Y-91310000D01*
X218939744Y-91273053D01*
X219164368Y-91200068D01*
X219374809Y-91092843D01*
X219565886Y-90954017D01*
X219732893Y-90787010D01*
X219871719Y-90595933D01*
X219978944Y-90385492D01*
X220051929Y-90160868D01*
X220088876Y-89927597D01*
X220088876Y-89691402D01*
X233587876Y-89691402D01*
X233587876Y-89927597D01*
X233624822Y-90160868D01*
X233697809Y-90385496D01*
X233805033Y-90595933D01*
X233943859Y-90787010D01*
X234110866Y-90954017D01*
X234301943Y-91092843D01*
X234401367Y-91143502D01*
X234512379Y-91200066D01*
X234512381Y-91200066D01*
X234512384Y-91200068D01*
X234632788Y-91239189D01*
X234737007Y-91273053D01*
X234970279Y-91310000D01*
X234970284Y-91310000D01*
X235206473Y-91310000D01*
X235439744Y-91273053D01*
X235664368Y-91200068D01*
X235874809Y-91092843D01*
X236065886Y-90954017D01*
X236232893Y-90787010D01*
X236371719Y-90595933D01*
X236478944Y-90385492D01*
X236551929Y-90160868D01*
X236588876Y-89927597D01*
X236588876Y-89691402D01*
X240087876Y-89691402D01*
X240087876Y-89927597D01*
X240124822Y-90160868D01*
X240197809Y-90385496D01*
X240305033Y-90595933D01*
X240443859Y-90787010D01*
X240610866Y-90954017D01*
X240801943Y-91092843D01*
X240901367Y-91143502D01*
X241012379Y-91200066D01*
X241012381Y-91200066D01*
X241012384Y-91200068D01*
X241132788Y-91239189D01*
X241237007Y-91273053D01*
X241470279Y-91310000D01*
X241470284Y-91310000D01*
X241706473Y-91310000D01*
X241939744Y-91273053D01*
X242164368Y-91200068D01*
X242374809Y-91092843D01*
X242565886Y-90954017D01*
X242732893Y-90787010D01*
X242871719Y-90595933D01*
X242978944Y-90385492D01*
X243051929Y-90160868D01*
X243088876Y-89927597D01*
X243088876Y-89691402D01*
X256587876Y-89691402D01*
X256587876Y-89927597D01*
X256624822Y-90160868D01*
X256697809Y-90385496D01*
X256805033Y-90595933D01*
X256943859Y-90787010D01*
X257110866Y-90954017D01*
X257301943Y-91092843D01*
X257401367Y-91143502D01*
X257512379Y-91200066D01*
X257512381Y-91200066D01*
X257512384Y-91200068D01*
X257632788Y-91239189D01*
X257737007Y-91273053D01*
X257970279Y-91310000D01*
X257970284Y-91310000D01*
X258206473Y-91310000D01*
X258439744Y-91273053D01*
X258664368Y-91200068D01*
X258874809Y-91092843D01*
X259065886Y-90954017D01*
X259232893Y-90787010D01*
X259371719Y-90595933D01*
X259478944Y-90385492D01*
X259551929Y-90160868D01*
X259588876Y-89927597D01*
X259588876Y-89691402D01*
X263087876Y-89691402D01*
X263087876Y-89927597D01*
X263124822Y-90160868D01*
X263197809Y-90385496D01*
X263305033Y-90595933D01*
X263443859Y-90787010D01*
X263610866Y-90954017D01*
X263801943Y-91092843D01*
X263901367Y-91143502D01*
X264012379Y-91200066D01*
X264012381Y-91200066D01*
X264012384Y-91200068D01*
X264132788Y-91239189D01*
X264237007Y-91273053D01*
X264470279Y-91310000D01*
X264470284Y-91310000D01*
X264706473Y-91310000D01*
X264939744Y-91273053D01*
X265164368Y-91200068D01*
X265374809Y-91092843D01*
X265565886Y-90954017D01*
X265732893Y-90787010D01*
X265871719Y-90595933D01*
X265978944Y-90385492D01*
X266051929Y-90160868D01*
X266088876Y-89927597D01*
X266088876Y-89691402D01*
X279587876Y-89691402D01*
X279587876Y-89927597D01*
X279624822Y-90160868D01*
X279697809Y-90385496D01*
X279805033Y-90595933D01*
X279943859Y-90787010D01*
X280110866Y-90954017D01*
X280301943Y-91092843D01*
X280401367Y-91143502D01*
X280512379Y-91200066D01*
X280512381Y-91200066D01*
X280512384Y-91200068D01*
X280632788Y-91239189D01*
X280737007Y-91273053D01*
X280970279Y-91310000D01*
X280970284Y-91310000D01*
X281206473Y-91310000D01*
X281439744Y-91273053D01*
X281664368Y-91200068D01*
X281874809Y-91092843D01*
X282065886Y-90954017D01*
X282232893Y-90787010D01*
X282371719Y-90595933D01*
X282478944Y-90385492D01*
X282551929Y-90160868D01*
X282588876Y-89927597D01*
X282588876Y-89691402D01*
X286087876Y-89691402D01*
X286087876Y-89927597D01*
X286124822Y-90160868D01*
X286197809Y-90385496D01*
X286305033Y-90595933D01*
X286443859Y-90787010D01*
X286610866Y-90954017D01*
X286801943Y-91092843D01*
X286901367Y-91143502D01*
X287012379Y-91200066D01*
X287012381Y-91200066D01*
X287012384Y-91200068D01*
X287132788Y-91239189D01*
X287237007Y-91273053D01*
X287470279Y-91310000D01*
X287470284Y-91310000D01*
X287706473Y-91310000D01*
X287939744Y-91273053D01*
X288164368Y-91200068D01*
X288374809Y-91092843D01*
X288565886Y-90954017D01*
X288732893Y-90787010D01*
X288871719Y-90595933D01*
X288978944Y-90385492D01*
X289051929Y-90160868D01*
X289088876Y-89927597D01*
X289088876Y-89691402D01*
X302587876Y-89691402D01*
X302587876Y-89927597D01*
X302624822Y-90160868D01*
X302697809Y-90385496D01*
X302805033Y-90595933D01*
X302943859Y-90787010D01*
X303110866Y-90954017D01*
X303301943Y-91092843D01*
X303401367Y-91143502D01*
X303512379Y-91200066D01*
X303512381Y-91200066D01*
X303512384Y-91200068D01*
X303632788Y-91239189D01*
X303737007Y-91273053D01*
X303970279Y-91310000D01*
X303970284Y-91310000D01*
X304206473Y-91310000D01*
X304439744Y-91273053D01*
X304664368Y-91200068D01*
X304874809Y-91092843D01*
X305065886Y-90954017D01*
X305232893Y-90787010D01*
X305371719Y-90595933D01*
X305478944Y-90385492D01*
X305551929Y-90160868D01*
X305588876Y-89927597D01*
X305588876Y-89691402D01*
X309087876Y-89691402D01*
X309087876Y-89927597D01*
X309124822Y-90160868D01*
X309197809Y-90385496D01*
X309305033Y-90595933D01*
X309443859Y-90787010D01*
X309610866Y-90954017D01*
X309801943Y-91092843D01*
X309901367Y-91143502D01*
X310012379Y-91200066D01*
X310012381Y-91200066D01*
X310012384Y-91200068D01*
X310132788Y-91239189D01*
X310237007Y-91273053D01*
X310470279Y-91310000D01*
X310470284Y-91310000D01*
X310706473Y-91310000D01*
X310939744Y-91273053D01*
X311164368Y-91200068D01*
X311374809Y-91092843D01*
X311565886Y-90954017D01*
X311732893Y-90787010D01*
X311871719Y-90595933D01*
X311978944Y-90385492D01*
X312051929Y-90160868D01*
X312088876Y-89927597D01*
X312088876Y-89691402D01*
X325462876Y-89691402D01*
X325462876Y-89927597D01*
X325499822Y-90160868D01*
X325572809Y-90385496D01*
X325680033Y-90595933D01*
X325818859Y-90787010D01*
X325985866Y-90954017D01*
X326176943Y-91092843D01*
X326276367Y-91143502D01*
X326387379Y-91200066D01*
X326387381Y-91200066D01*
X326387384Y-91200068D01*
X326507788Y-91239189D01*
X326612007Y-91273053D01*
X326845279Y-91310000D01*
X326845284Y-91310000D01*
X327081473Y-91310000D01*
X327314744Y-91273053D01*
X327539368Y-91200068D01*
X327749809Y-91092843D01*
X327940886Y-90954017D01*
X328107893Y-90787010D01*
X328246719Y-90595933D01*
X328353944Y-90385492D01*
X328426929Y-90160868D01*
X328463876Y-89927597D01*
X328463876Y-89691402D01*
X331962876Y-89691402D01*
X331962876Y-89927597D01*
X331999822Y-90160868D01*
X332072809Y-90385496D01*
X332180033Y-90595933D01*
X332318859Y-90787010D01*
X332485866Y-90954017D01*
X332676943Y-91092843D01*
X332776367Y-91143502D01*
X332887379Y-91200066D01*
X332887381Y-91200066D01*
X332887384Y-91200068D01*
X333007788Y-91239189D01*
X333112007Y-91273053D01*
X333345279Y-91310000D01*
X333345284Y-91310000D01*
X333581473Y-91310000D01*
X333814744Y-91273053D01*
X334039368Y-91200068D01*
X334249809Y-91092843D01*
X334440886Y-90954017D01*
X334607893Y-90787010D01*
X334746719Y-90595933D01*
X334853944Y-90385492D01*
X334926929Y-90160868D01*
X334963876Y-89927597D01*
X334963876Y-89691402D01*
X334926929Y-89458131D01*
X334853942Y-89233503D01*
X334746718Y-89023066D01*
X334607893Y-88831990D01*
X334440886Y-88664983D01*
X334249809Y-88526157D01*
X334039372Y-88418933D01*
X333814744Y-88345946D01*
X333581473Y-88309000D01*
X333581468Y-88309000D01*
X333345284Y-88309000D01*
X333345279Y-88309000D01*
X333112007Y-88345946D01*
X332887379Y-88418933D01*
X332676942Y-88526157D01*
X332567926Y-88605362D01*
X332485866Y-88664983D01*
X332485864Y-88664985D01*
X332485863Y-88664985D01*
X332318861Y-88831987D01*
X332318861Y-88831988D01*
X332318859Y-88831990D01*
X332259238Y-88914050D01*
X332180033Y-89023066D01*
X332072809Y-89233503D01*
X331999822Y-89458131D01*
X331962876Y-89691402D01*
X328463876Y-89691402D01*
X328426929Y-89458131D01*
X328353942Y-89233503D01*
X328246718Y-89023066D01*
X328107893Y-88831990D01*
X327940886Y-88664983D01*
X327749809Y-88526157D01*
X327539372Y-88418933D01*
X327314744Y-88345946D01*
X327081473Y-88309000D01*
X327081468Y-88309000D01*
X326845284Y-88309000D01*
X326845279Y-88309000D01*
X326612007Y-88345946D01*
X326387379Y-88418933D01*
X326176942Y-88526157D01*
X326067926Y-88605362D01*
X325985866Y-88664983D01*
X325985864Y-88664985D01*
X325985863Y-88664985D01*
X325818861Y-88831987D01*
X325818861Y-88831988D01*
X325818859Y-88831990D01*
X325759238Y-88914050D01*
X325680033Y-89023066D01*
X325572809Y-89233503D01*
X325499822Y-89458131D01*
X325462876Y-89691402D01*
X312088876Y-89691402D01*
X312051929Y-89458131D01*
X311978942Y-89233503D01*
X311871718Y-89023066D01*
X311732893Y-88831990D01*
X311565886Y-88664983D01*
X311374809Y-88526157D01*
X311164372Y-88418933D01*
X310939744Y-88345946D01*
X310706473Y-88309000D01*
X310706468Y-88309000D01*
X310470284Y-88309000D01*
X310470279Y-88309000D01*
X310237007Y-88345946D01*
X310012379Y-88418933D01*
X309801942Y-88526157D01*
X309692926Y-88605362D01*
X309610866Y-88664983D01*
X309610864Y-88664985D01*
X309610863Y-88664985D01*
X309443861Y-88831987D01*
X309443861Y-88831988D01*
X309443859Y-88831990D01*
X309384238Y-88914050D01*
X309305033Y-89023066D01*
X309197809Y-89233503D01*
X309124822Y-89458131D01*
X309087876Y-89691402D01*
X305588876Y-89691402D01*
X305551929Y-89458131D01*
X305478942Y-89233503D01*
X305371718Y-89023066D01*
X305232893Y-88831990D01*
X305065886Y-88664983D01*
X304874809Y-88526157D01*
X304664372Y-88418933D01*
X304439744Y-88345946D01*
X304206473Y-88309000D01*
X304206468Y-88309000D01*
X303970284Y-88309000D01*
X303970279Y-88309000D01*
X303737007Y-88345946D01*
X303512379Y-88418933D01*
X303301942Y-88526157D01*
X303192926Y-88605362D01*
X303110866Y-88664983D01*
X303110864Y-88664985D01*
X303110863Y-88664985D01*
X302943861Y-88831987D01*
X302943861Y-88831988D01*
X302943859Y-88831990D01*
X302884238Y-88914050D01*
X302805033Y-89023066D01*
X302697809Y-89233503D01*
X302624822Y-89458131D01*
X302587876Y-89691402D01*
X289088876Y-89691402D01*
X289051929Y-89458131D01*
X288978942Y-89233503D01*
X288871718Y-89023066D01*
X288732893Y-88831990D01*
X288565886Y-88664983D01*
X288374809Y-88526157D01*
X288164372Y-88418933D01*
X287939744Y-88345946D01*
X287706473Y-88309000D01*
X287706468Y-88309000D01*
X287470284Y-88309000D01*
X287470279Y-88309000D01*
X287237007Y-88345946D01*
X287012379Y-88418933D01*
X286801942Y-88526157D01*
X286692926Y-88605362D01*
X286610866Y-88664983D01*
X286610864Y-88664985D01*
X286610863Y-88664985D01*
X286443861Y-88831987D01*
X286443861Y-88831988D01*
X286443859Y-88831990D01*
X286384238Y-88914050D01*
X286305033Y-89023066D01*
X286197809Y-89233503D01*
X286124822Y-89458131D01*
X286087876Y-89691402D01*
X282588876Y-89691402D01*
X282551929Y-89458131D01*
X282478942Y-89233503D01*
X282371718Y-89023066D01*
X282232893Y-88831990D01*
X282065886Y-88664983D01*
X281874809Y-88526157D01*
X281664372Y-88418933D01*
X281439744Y-88345946D01*
X281206473Y-88309000D01*
X281206468Y-88309000D01*
X280970284Y-88309000D01*
X280970279Y-88309000D01*
X280737007Y-88345946D01*
X280512379Y-88418933D01*
X280301942Y-88526157D01*
X280192926Y-88605362D01*
X280110866Y-88664983D01*
X280110864Y-88664985D01*
X280110863Y-88664985D01*
X279943861Y-88831987D01*
X279943861Y-88831988D01*
X279943859Y-88831990D01*
X279884238Y-88914050D01*
X279805033Y-89023066D01*
X279697809Y-89233503D01*
X279624822Y-89458131D01*
X279587876Y-89691402D01*
X266088876Y-89691402D01*
X266051929Y-89458131D01*
X265978942Y-89233503D01*
X265871718Y-89023066D01*
X265732893Y-88831990D01*
X265565886Y-88664983D01*
X265374809Y-88526157D01*
X265164372Y-88418933D01*
X264939744Y-88345946D01*
X264706473Y-88309000D01*
X264706468Y-88309000D01*
X264470284Y-88309000D01*
X264470279Y-88309000D01*
X264237007Y-88345946D01*
X264012379Y-88418933D01*
X263801942Y-88526157D01*
X263692926Y-88605362D01*
X263610866Y-88664983D01*
X263610864Y-88664985D01*
X263610863Y-88664985D01*
X263443861Y-88831987D01*
X263443861Y-88831988D01*
X263443859Y-88831990D01*
X263384238Y-88914050D01*
X263305033Y-89023066D01*
X263197809Y-89233503D01*
X263124822Y-89458131D01*
X263087876Y-89691402D01*
X259588876Y-89691402D01*
X259551929Y-89458131D01*
X259478942Y-89233503D01*
X259371718Y-89023066D01*
X259232893Y-88831990D01*
X259065886Y-88664983D01*
X258874809Y-88526157D01*
X258664372Y-88418933D01*
X258439744Y-88345946D01*
X258206473Y-88309000D01*
X258206468Y-88309000D01*
X257970284Y-88309000D01*
X257970279Y-88309000D01*
X257737007Y-88345946D01*
X257512379Y-88418933D01*
X257301942Y-88526157D01*
X257192926Y-88605362D01*
X257110866Y-88664983D01*
X257110864Y-88664985D01*
X257110863Y-88664985D01*
X256943861Y-88831987D01*
X256943861Y-88831988D01*
X256943859Y-88831990D01*
X256884238Y-88914050D01*
X256805033Y-89023066D01*
X256697809Y-89233503D01*
X256624822Y-89458131D01*
X256587876Y-89691402D01*
X243088876Y-89691402D01*
X243051929Y-89458131D01*
X242978942Y-89233503D01*
X242871718Y-89023066D01*
X242732893Y-88831990D01*
X242565886Y-88664983D01*
X242374809Y-88526157D01*
X242164372Y-88418933D01*
X241939744Y-88345946D01*
X241706473Y-88309000D01*
X241706468Y-88309000D01*
X241470284Y-88309000D01*
X241470279Y-88309000D01*
X241237007Y-88345946D01*
X241012379Y-88418933D01*
X240801942Y-88526157D01*
X240692926Y-88605362D01*
X240610866Y-88664983D01*
X240610864Y-88664985D01*
X240610863Y-88664985D01*
X240443861Y-88831987D01*
X240443861Y-88831988D01*
X240443859Y-88831990D01*
X240384238Y-88914050D01*
X240305033Y-89023066D01*
X240197809Y-89233503D01*
X240124822Y-89458131D01*
X240087876Y-89691402D01*
X236588876Y-89691402D01*
X236551929Y-89458131D01*
X236478942Y-89233503D01*
X236371718Y-89023066D01*
X236232893Y-88831990D01*
X236065886Y-88664983D01*
X235874809Y-88526157D01*
X235664372Y-88418933D01*
X235439744Y-88345946D01*
X235206473Y-88309000D01*
X235206468Y-88309000D01*
X234970284Y-88309000D01*
X234970279Y-88309000D01*
X234737007Y-88345946D01*
X234512379Y-88418933D01*
X234301942Y-88526157D01*
X234192926Y-88605362D01*
X234110866Y-88664983D01*
X234110864Y-88664985D01*
X234110863Y-88664985D01*
X233943861Y-88831987D01*
X233943861Y-88831988D01*
X233943859Y-88831990D01*
X233884238Y-88914050D01*
X233805033Y-89023066D01*
X233697809Y-89233503D01*
X233624822Y-89458131D01*
X233587876Y-89691402D01*
X220088876Y-89691402D01*
X220051929Y-89458131D01*
X219978942Y-89233503D01*
X219871718Y-89023066D01*
X219732893Y-88831990D01*
X219565886Y-88664983D01*
X219374809Y-88526157D01*
X219164372Y-88418933D01*
X218939744Y-88345946D01*
X218706473Y-88309000D01*
X218706468Y-88309000D01*
X218470284Y-88309000D01*
X218470279Y-88309000D01*
X218237007Y-88345946D01*
X218012379Y-88418933D01*
X217801942Y-88526157D01*
X217692926Y-88605362D01*
X217610866Y-88664983D01*
X217610864Y-88664985D01*
X217610863Y-88664985D01*
X217443861Y-88831987D01*
X217443861Y-88831988D01*
X217443859Y-88831990D01*
X217384238Y-88914050D01*
X217305033Y-89023066D01*
X217197809Y-89233503D01*
X217124822Y-89458131D01*
X217087876Y-89691402D01*
X213588876Y-89691402D01*
X213551929Y-89458131D01*
X213478942Y-89233503D01*
X213371718Y-89023066D01*
X213232893Y-88831990D01*
X213065886Y-88664983D01*
X212874809Y-88526157D01*
X212664372Y-88418933D01*
X212439744Y-88345946D01*
X212206473Y-88309000D01*
X212206468Y-88309000D01*
X211970284Y-88309000D01*
X211970279Y-88309000D01*
X211737007Y-88345946D01*
X211512379Y-88418933D01*
X211301942Y-88526157D01*
X211192926Y-88605362D01*
X211110866Y-88664983D01*
X211110864Y-88664985D01*
X211110863Y-88664985D01*
X210943861Y-88831987D01*
X210943861Y-88831988D01*
X210943859Y-88831990D01*
X210884238Y-88914050D01*
X210805033Y-89023066D01*
X210697809Y-89233503D01*
X210624822Y-89458131D01*
X210587876Y-89691402D01*
X197088876Y-89691402D01*
X197051929Y-89458131D01*
X196978942Y-89233503D01*
X196871718Y-89023066D01*
X196732893Y-88831990D01*
X196565886Y-88664983D01*
X196374809Y-88526157D01*
X196164372Y-88418933D01*
X195939744Y-88345946D01*
X195706473Y-88309000D01*
X195706468Y-88309000D01*
X195470284Y-88309000D01*
X195470279Y-88309000D01*
X195237007Y-88345946D01*
X195012379Y-88418933D01*
X194801942Y-88526157D01*
X194692926Y-88605362D01*
X194610866Y-88664983D01*
X194610864Y-88664985D01*
X194610863Y-88664985D01*
X194443861Y-88831987D01*
X194443861Y-88831988D01*
X194443859Y-88831990D01*
X194384238Y-88914050D01*
X194305033Y-89023066D01*
X194197809Y-89233503D01*
X194124822Y-89458131D01*
X194087876Y-89691402D01*
X190588876Y-89691402D01*
X190551929Y-89458131D01*
X190478942Y-89233503D01*
X190371718Y-89023066D01*
X190232893Y-88831990D01*
X190065886Y-88664983D01*
X189874809Y-88526157D01*
X189664372Y-88418933D01*
X189439744Y-88345946D01*
X189206473Y-88309000D01*
X189206468Y-88309000D01*
X188970284Y-88309000D01*
X188970279Y-88309000D01*
X188737007Y-88345946D01*
X188512379Y-88418933D01*
X188301942Y-88526157D01*
X188192926Y-88605362D01*
X188110866Y-88664983D01*
X188110864Y-88664985D01*
X188110863Y-88664985D01*
X187943861Y-88831987D01*
X187943861Y-88831988D01*
X187943859Y-88831990D01*
X187884238Y-88914050D01*
X187805033Y-89023066D01*
X187697809Y-89233503D01*
X187624822Y-89458131D01*
X187587876Y-89691402D01*
X174088876Y-89691402D01*
X174051929Y-89458131D01*
X173978942Y-89233503D01*
X173871718Y-89023066D01*
X173732893Y-88831990D01*
X173565886Y-88664983D01*
X173374809Y-88526157D01*
X173164372Y-88418933D01*
X172939744Y-88345946D01*
X172706473Y-88309000D01*
X172706468Y-88309000D01*
X172470284Y-88309000D01*
X172470279Y-88309000D01*
X172237007Y-88345946D01*
X172012379Y-88418933D01*
X171801942Y-88526157D01*
X171692926Y-88605362D01*
X171610866Y-88664983D01*
X171610864Y-88664985D01*
X171610863Y-88664985D01*
X171443861Y-88831987D01*
X171443861Y-88831988D01*
X171443859Y-88831990D01*
X171384238Y-88914050D01*
X171305033Y-89023066D01*
X171197809Y-89233503D01*
X171124822Y-89458131D01*
X171087876Y-89691402D01*
X167588876Y-89691402D01*
X167551929Y-89458131D01*
X167478942Y-89233503D01*
X167371718Y-89023066D01*
X167232893Y-88831990D01*
X167065886Y-88664983D01*
X166874809Y-88526157D01*
X166664372Y-88418933D01*
X166439744Y-88345946D01*
X166206473Y-88309000D01*
X166206468Y-88309000D01*
X165970284Y-88309000D01*
X165970279Y-88309000D01*
X165737007Y-88345946D01*
X165512379Y-88418933D01*
X165301942Y-88526157D01*
X165192926Y-88605362D01*
X165110866Y-88664983D01*
X165110864Y-88664985D01*
X165110863Y-88664985D01*
X164943861Y-88831987D01*
X164943861Y-88831988D01*
X164943859Y-88831990D01*
X164884238Y-88914050D01*
X164805033Y-89023066D01*
X164697809Y-89233503D01*
X164624822Y-89458131D01*
X164587876Y-89691402D01*
X151088876Y-89691402D01*
X151051929Y-89458131D01*
X150978942Y-89233503D01*
X150871718Y-89023066D01*
X150732893Y-88831990D01*
X150565886Y-88664983D01*
X150374809Y-88526157D01*
X150164372Y-88418933D01*
X149939744Y-88345946D01*
X149706473Y-88309000D01*
X149706468Y-88309000D01*
X149470284Y-88309000D01*
X149470279Y-88309000D01*
X149237007Y-88345946D01*
X149012379Y-88418933D01*
X148801942Y-88526157D01*
X148692926Y-88605362D01*
X148610866Y-88664983D01*
X148610864Y-88664985D01*
X148610863Y-88664985D01*
X148443861Y-88831987D01*
X148443861Y-88831988D01*
X148443859Y-88831990D01*
X148384238Y-88914050D01*
X148305033Y-89023066D01*
X148197809Y-89233503D01*
X148124822Y-89458131D01*
X148087876Y-89691402D01*
X144588876Y-89691402D01*
X144551929Y-89458131D01*
X144478942Y-89233503D01*
X144371718Y-89023066D01*
X144232893Y-88831990D01*
X144065886Y-88664983D01*
X143874809Y-88526157D01*
X143664372Y-88418933D01*
X143439744Y-88345946D01*
X143206473Y-88309000D01*
X143206468Y-88309000D01*
X142970284Y-88309000D01*
X142970279Y-88309000D01*
X142737007Y-88345946D01*
X142512379Y-88418933D01*
X142301942Y-88526157D01*
X142192926Y-88605362D01*
X142110866Y-88664983D01*
X142110864Y-88664985D01*
X142110863Y-88664985D01*
X141943861Y-88831987D01*
X141943861Y-88831988D01*
X141943859Y-88831990D01*
X141884238Y-88914050D01*
X141805033Y-89023066D01*
X141697809Y-89233503D01*
X141624822Y-89458131D01*
X141587876Y-89691402D01*
X128088875Y-89691402D01*
X128051928Y-89458131D01*
X127978941Y-89233503D01*
X127871717Y-89023066D01*
X127732892Y-88831990D01*
X127565885Y-88664983D01*
X127374808Y-88526157D01*
X127164371Y-88418933D01*
X126939743Y-88345946D01*
X126706472Y-88309000D01*
X126706467Y-88309000D01*
X126470283Y-88309000D01*
X126470278Y-88309000D01*
X126237006Y-88345946D01*
X126012378Y-88418933D01*
X125801941Y-88526157D01*
X125692925Y-88605362D01*
X125610865Y-88664983D01*
X125610863Y-88664985D01*
X125610862Y-88664985D01*
X125443860Y-88831987D01*
X125443860Y-88831988D01*
X125443858Y-88831990D01*
X125384237Y-88914050D01*
X125305032Y-89023066D01*
X125197808Y-89233503D01*
X125124821Y-89458131D01*
X125087875Y-89691402D01*
X121588875Y-89691402D01*
X121551928Y-89458131D01*
X121478941Y-89233503D01*
X121371717Y-89023066D01*
X121232892Y-88831990D01*
X121065885Y-88664983D01*
X120874808Y-88526157D01*
X120664371Y-88418933D01*
X120439743Y-88345946D01*
X120206472Y-88309000D01*
X120206467Y-88309000D01*
X119970283Y-88309000D01*
X119970278Y-88309000D01*
X119737006Y-88345946D01*
X119512378Y-88418933D01*
X119301941Y-88526157D01*
X119192925Y-88605362D01*
X119110865Y-88664983D01*
X119110863Y-88664985D01*
X119110862Y-88664985D01*
X118943860Y-88831987D01*
X118943860Y-88831988D01*
X118943858Y-88831990D01*
X118884237Y-88914050D01*
X118805032Y-89023066D01*
X118697808Y-89233503D01*
X118624821Y-89458131D01*
X118587875Y-89691402D01*
X109300000Y-89691402D01*
X109300000Y-84261635D01*
X118587875Y-84261635D01*
X118587875Y-86357370D01*
X118587876Y-86357376D01*
X118594283Y-86416983D01*
X118644577Y-86551828D01*
X118644581Y-86551835D01*
X118730827Y-86667044D01*
X118730830Y-86667047D01*
X118846039Y-86753293D01*
X118846046Y-86753297D01*
X118980892Y-86803591D01*
X118980891Y-86803591D01*
X118987819Y-86804335D01*
X119040502Y-86810000D01*
X121136247Y-86809999D01*
X121195858Y-86803591D01*
X121330706Y-86753296D01*
X121445921Y-86667046D01*
X121532171Y-86551831D01*
X121582466Y-86416983D01*
X121588875Y-86357373D01*
X121588874Y-85191402D01*
X125087875Y-85191402D01*
X125087875Y-85427597D01*
X125124821Y-85660868D01*
X125197808Y-85885496D01*
X125305032Y-86095933D01*
X125443858Y-86287010D01*
X125610865Y-86454017D01*
X125801942Y-86592843D01*
X125901366Y-86643502D01*
X126012378Y-86700066D01*
X126012380Y-86700066D01*
X126012383Y-86700068D01*
X126132787Y-86739189D01*
X126237006Y-86773053D01*
X126470278Y-86810000D01*
X126470283Y-86810000D01*
X126706472Y-86810000D01*
X126939743Y-86773053D01*
X127164367Y-86700068D01*
X127374808Y-86592843D01*
X127565885Y-86454017D01*
X127732892Y-86287010D01*
X127871718Y-86095933D01*
X127978943Y-85885492D01*
X128051928Y-85660868D01*
X128088875Y-85427597D01*
X128088875Y-85191402D01*
X128051928Y-84958131D01*
X127978941Y-84733503D01*
X127871717Y-84523066D01*
X127732892Y-84331990D01*
X127662537Y-84261635D01*
X141587876Y-84261635D01*
X141587876Y-86357370D01*
X141587877Y-86357376D01*
X141594284Y-86416983D01*
X141644578Y-86551828D01*
X141644582Y-86551835D01*
X141730828Y-86667044D01*
X141730831Y-86667047D01*
X141846040Y-86753293D01*
X141846047Y-86753297D01*
X141980893Y-86803591D01*
X141980892Y-86803591D01*
X141987820Y-86804335D01*
X142040503Y-86810000D01*
X144136248Y-86809999D01*
X144195859Y-86803591D01*
X144330707Y-86753296D01*
X144445922Y-86667046D01*
X144532172Y-86551831D01*
X144582467Y-86416983D01*
X144588876Y-86357373D01*
X144588875Y-85191402D01*
X148087876Y-85191402D01*
X148087876Y-85427597D01*
X148124822Y-85660868D01*
X148197809Y-85885496D01*
X148305033Y-86095933D01*
X148443859Y-86287010D01*
X148610866Y-86454017D01*
X148801943Y-86592843D01*
X148901367Y-86643502D01*
X149012379Y-86700066D01*
X149012381Y-86700066D01*
X149012384Y-86700068D01*
X149132788Y-86739189D01*
X149237007Y-86773053D01*
X149470279Y-86810000D01*
X149470284Y-86810000D01*
X149706473Y-86810000D01*
X149939744Y-86773053D01*
X150164368Y-86700068D01*
X150374809Y-86592843D01*
X150565886Y-86454017D01*
X150732893Y-86287010D01*
X150871719Y-86095933D01*
X150978944Y-85885492D01*
X151051929Y-85660868D01*
X151088876Y-85427597D01*
X151088876Y-85191402D01*
X151051929Y-84958131D01*
X150978942Y-84733503D01*
X150871718Y-84523066D01*
X150732893Y-84331990D01*
X150662538Y-84261635D01*
X164587876Y-84261635D01*
X164587876Y-86357370D01*
X164587877Y-86357376D01*
X164594284Y-86416983D01*
X164644578Y-86551828D01*
X164644582Y-86551835D01*
X164730828Y-86667044D01*
X164730831Y-86667047D01*
X164846040Y-86753293D01*
X164846047Y-86753297D01*
X164980893Y-86803591D01*
X164980892Y-86803591D01*
X164987820Y-86804335D01*
X165040503Y-86810000D01*
X167136248Y-86809999D01*
X167195859Y-86803591D01*
X167330707Y-86753296D01*
X167445922Y-86667046D01*
X167532172Y-86551831D01*
X167582467Y-86416983D01*
X167588876Y-86357373D01*
X167588875Y-85191402D01*
X171087876Y-85191402D01*
X171087876Y-85427597D01*
X171124822Y-85660868D01*
X171197809Y-85885496D01*
X171305033Y-86095933D01*
X171443859Y-86287010D01*
X171610866Y-86454017D01*
X171801943Y-86592843D01*
X171901367Y-86643502D01*
X172012379Y-86700066D01*
X172012381Y-86700066D01*
X172012384Y-86700068D01*
X172132788Y-86739189D01*
X172237007Y-86773053D01*
X172470279Y-86810000D01*
X172470284Y-86810000D01*
X172706473Y-86810000D01*
X172939744Y-86773053D01*
X173164368Y-86700068D01*
X173374809Y-86592843D01*
X173565886Y-86454017D01*
X173732893Y-86287010D01*
X173871719Y-86095933D01*
X173978944Y-85885492D01*
X174051929Y-85660868D01*
X174088876Y-85427597D01*
X174088876Y-85191402D01*
X174051929Y-84958131D01*
X173978942Y-84733503D01*
X173871718Y-84523066D01*
X173732893Y-84331990D01*
X173662538Y-84261635D01*
X187587876Y-84261635D01*
X187587876Y-86357370D01*
X187587877Y-86357376D01*
X187594284Y-86416983D01*
X187644578Y-86551828D01*
X187644582Y-86551835D01*
X187730828Y-86667044D01*
X187730831Y-86667047D01*
X187846040Y-86753293D01*
X187846047Y-86753297D01*
X187980893Y-86803591D01*
X187980892Y-86803591D01*
X187987820Y-86804335D01*
X188040503Y-86810000D01*
X190136248Y-86809999D01*
X190195859Y-86803591D01*
X190330707Y-86753296D01*
X190445922Y-86667046D01*
X190532172Y-86551831D01*
X190582467Y-86416983D01*
X190588876Y-86357373D01*
X190588875Y-85191402D01*
X194087876Y-85191402D01*
X194087876Y-85427597D01*
X194124822Y-85660868D01*
X194197809Y-85885496D01*
X194305033Y-86095933D01*
X194443859Y-86287010D01*
X194610866Y-86454017D01*
X194801943Y-86592843D01*
X194901367Y-86643502D01*
X195012379Y-86700066D01*
X195012381Y-86700066D01*
X195012384Y-86700068D01*
X195132788Y-86739189D01*
X195237007Y-86773053D01*
X195470279Y-86810000D01*
X195470284Y-86810000D01*
X195706473Y-86810000D01*
X195939744Y-86773053D01*
X196164368Y-86700068D01*
X196374809Y-86592843D01*
X196565886Y-86454017D01*
X196732893Y-86287010D01*
X196871719Y-86095933D01*
X196978944Y-85885492D01*
X197051929Y-85660868D01*
X197088876Y-85427597D01*
X197088876Y-85191402D01*
X197051929Y-84958131D01*
X196978942Y-84733503D01*
X196871718Y-84523066D01*
X196732893Y-84331990D01*
X196662538Y-84261635D01*
X210587876Y-84261635D01*
X210587876Y-86357370D01*
X210587877Y-86357376D01*
X210594284Y-86416983D01*
X210644578Y-86551828D01*
X210644582Y-86551835D01*
X210730828Y-86667044D01*
X210730831Y-86667047D01*
X210846040Y-86753293D01*
X210846047Y-86753297D01*
X210980893Y-86803591D01*
X210980892Y-86803591D01*
X210987820Y-86804335D01*
X211040503Y-86810000D01*
X213136248Y-86809999D01*
X213195859Y-86803591D01*
X213330707Y-86753296D01*
X213445922Y-86667046D01*
X213532172Y-86551831D01*
X213582467Y-86416983D01*
X213588876Y-86357373D01*
X213588875Y-85191402D01*
X217087876Y-85191402D01*
X217087876Y-85427597D01*
X217124822Y-85660868D01*
X217197809Y-85885496D01*
X217305033Y-86095933D01*
X217443859Y-86287010D01*
X217610866Y-86454017D01*
X217801943Y-86592843D01*
X217901367Y-86643502D01*
X218012379Y-86700066D01*
X218012381Y-86700066D01*
X218012384Y-86700068D01*
X218132788Y-86739189D01*
X218237007Y-86773053D01*
X218470279Y-86810000D01*
X218470284Y-86810000D01*
X218706473Y-86810000D01*
X218939744Y-86773053D01*
X219164368Y-86700068D01*
X219374809Y-86592843D01*
X219565886Y-86454017D01*
X219732893Y-86287010D01*
X219871719Y-86095933D01*
X219978944Y-85885492D01*
X220051929Y-85660868D01*
X220088876Y-85427597D01*
X220088876Y-85191402D01*
X220051929Y-84958131D01*
X219978942Y-84733503D01*
X219871718Y-84523066D01*
X219732893Y-84331990D01*
X219662538Y-84261635D01*
X233587876Y-84261635D01*
X233587876Y-86357370D01*
X233587877Y-86357376D01*
X233594284Y-86416983D01*
X233644578Y-86551828D01*
X233644582Y-86551835D01*
X233730828Y-86667044D01*
X233730831Y-86667047D01*
X233846040Y-86753293D01*
X233846047Y-86753297D01*
X233980893Y-86803591D01*
X233980892Y-86803591D01*
X233987820Y-86804335D01*
X234040503Y-86810000D01*
X236136248Y-86809999D01*
X236195859Y-86803591D01*
X236330707Y-86753296D01*
X236445922Y-86667046D01*
X236532172Y-86551831D01*
X236582467Y-86416983D01*
X236588876Y-86357373D01*
X236588875Y-85191402D01*
X240087876Y-85191402D01*
X240087876Y-85427597D01*
X240124822Y-85660868D01*
X240197809Y-85885496D01*
X240305033Y-86095933D01*
X240443859Y-86287010D01*
X240610866Y-86454017D01*
X240801943Y-86592843D01*
X240901367Y-86643502D01*
X241012379Y-86700066D01*
X241012381Y-86700066D01*
X241012384Y-86700068D01*
X241132788Y-86739189D01*
X241237007Y-86773053D01*
X241470279Y-86810000D01*
X241470284Y-86810000D01*
X241706473Y-86810000D01*
X241939744Y-86773053D01*
X242164368Y-86700068D01*
X242374809Y-86592843D01*
X242565886Y-86454017D01*
X242732893Y-86287010D01*
X242871719Y-86095933D01*
X242978944Y-85885492D01*
X243051929Y-85660868D01*
X243088876Y-85427597D01*
X243088876Y-85191402D01*
X243051929Y-84958131D01*
X242978942Y-84733503D01*
X242871718Y-84523066D01*
X242732893Y-84331990D01*
X242662538Y-84261635D01*
X256587876Y-84261635D01*
X256587876Y-86357370D01*
X256587877Y-86357376D01*
X256594284Y-86416983D01*
X256644578Y-86551828D01*
X256644582Y-86551835D01*
X256730828Y-86667044D01*
X256730831Y-86667047D01*
X256846040Y-86753293D01*
X256846047Y-86753297D01*
X256980893Y-86803591D01*
X256980892Y-86803591D01*
X256987820Y-86804335D01*
X257040503Y-86810000D01*
X259136248Y-86809999D01*
X259195859Y-86803591D01*
X259330707Y-86753296D01*
X259445922Y-86667046D01*
X259532172Y-86551831D01*
X259582467Y-86416983D01*
X259588876Y-86357373D01*
X259588875Y-85191402D01*
X263087876Y-85191402D01*
X263087876Y-85427597D01*
X263124822Y-85660868D01*
X263197809Y-85885496D01*
X263305033Y-86095933D01*
X263443859Y-86287010D01*
X263610866Y-86454017D01*
X263801943Y-86592843D01*
X263901367Y-86643502D01*
X264012379Y-86700066D01*
X264012381Y-86700066D01*
X264012384Y-86700068D01*
X264132788Y-86739189D01*
X264237007Y-86773053D01*
X264470279Y-86810000D01*
X264470284Y-86810000D01*
X264706473Y-86810000D01*
X264939744Y-86773053D01*
X265164368Y-86700068D01*
X265374809Y-86592843D01*
X265565886Y-86454017D01*
X265732893Y-86287010D01*
X265871719Y-86095933D01*
X265978944Y-85885492D01*
X266051929Y-85660868D01*
X266088876Y-85427597D01*
X266088876Y-85191402D01*
X266051929Y-84958131D01*
X265978942Y-84733503D01*
X265871718Y-84523066D01*
X265732893Y-84331990D01*
X265662538Y-84261635D01*
X279587876Y-84261635D01*
X279587876Y-86357370D01*
X279587877Y-86357376D01*
X279594284Y-86416983D01*
X279644578Y-86551828D01*
X279644582Y-86551835D01*
X279730828Y-86667044D01*
X279730831Y-86667047D01*
X279846040Y-86753293D01*
X279846047Y-86753297D01*
X279980893Y-86803591D01*
X279980892Y-86803591D01*
X279987820Y-86804335D01*
X280040503Y-86810000D01*
X282136248Y-86809999D01*
X282195859Y-86803591D01*
X282330707Y-86753296D01*
X282445922Y-86667046D01*
X282532172Y-86551831D01*
X282582467Y-86416983D01*
X282588876Y-86357373D01*
X282588875Y-85191402D01*
X286087876Y-85191402D01*
X286087876Y-85427597D01*
X286124822Y-85660868D01*
X286197809Y-85885496D01*
X286305033Y-86095933D01*
X286443859Y-86287010D01*
X286610866Y-86454017D01*
X286801943Y-86592843D01*
X286901367Y-86643502D01*
X287012379Y-86700066D01*
X287012381Y-86700066D01*
X287012384Y-86700068D01*
X287132788Y-86739189D01*
X287237007Y-86773053D01*
X287470279Y-86810000D01*
X287470284Y-86810000D01*
X287706473Y-86810000D01*
X287939744Y-86773053D01*
X288164368Y-86700068D01*
X288374809Y-86592843D01*
X288565886Y-86454017D01*
X288732893Y-86287010D01*
X288871719Y-86095933D01*
X288978944Y-85885492D01*
X289051929Y-85660868D01*
X289088876Y-85427597D01*
X289088876Y-85191402D01*
X289051929Y-84958131D01*
X288978942Y-84733503D01*
X288871718Y-84523066D01*
X288732893Y-84331990D01*
X288662538Y-84261635D01*
X302587876Y-84261635D01*
X302587876Y-86357370D01*
X302587877Y-86357376D01*
X302594284Y-86416983D01*
X302644578Y-86551828D01*
X302644582Y-86551835D01*
X302730828Y-86667044D01*
X302730831Y-86667047D01*
X302846040Y-86753293D01*
X302846047Y-86753297D01*
X302980893Y-86803591D01*
X302980892Y-86803591D01*
X302987820Y-86804335D01*
X303040503Y-86810000D01*
X305136248Y-86809999D01*
X305195859Y-86803591D01*
X305330707Y-86753296D01*
X305445922Y-86667046D01*
X305532172Y-86551831D01*
X305582467Y-86416983D01*
X305588876Y-86357373D01*
X305588875Y-85191402D01*
X309087876Y-85191402D01*
X309087876Y-85427597D01*
X309124822Y-85660868D01*
X309197809Y-85885496D01*
X309305033Y-86095933D01*
X309443859Y-86287010D01*
X309610866Y-86454017D01*
X309801943Y-86592843D01*
X309901367Y-86643502D01*
X310012379Y-86700066D01*
X310012381Y-86700066D01*
X310012384Y-86700068D01*
X310132788Y-86739189D01*
X310237007Y-86773053D01*
X310470279Y-86810000D01*
X310470284Y-86810000D01*
X310706473Y-86810000D01*
X310939744Y-86773053D01*
X311164368Y-86700068D01*
X311374809Y-86592843D01*
X311565886Y-86454017D01*
X311732893Y-86287010D01*
X311871719Y-86095933D01*
X311978944Y-85885492D01*
X312051929Y-85660868D01*
X312088876Y-85427597D01*
X312088876Y-85191402D01*
X312051929Y-84958131D01*
X311978942Y-84733503D01*
X311871718Y-84523066D01*
X311732893Y-84331990D01*
X311662538Y-84261635D01*
X325462876Y-84261635D01*
X325462876Y-86357370D01*
X325462877Y-86357376D01*
X325469284Y-86416983D01*
X325519578Y-86551828D01*
X325519582Y-86551835D01*
X325605828Y-86667044D01*
X325605831Y-86667047D01*
X325721040Y-86753293D01*
X325721047Y-86753297D01*
X325855893Y-86803591D01*
X325855892Y-86803591D01*
X325862820Y-86804335D01*
X325915503Y-86810000D01*
X328011248Y-86809999D01*
X328070859Y-86803591D01*
X328205707Y-86753296D01*
X328320922Y-86667046D01*
X328407172Y-86551831D01*
X328457467Y-86416983D01*
X328463876Y-86357373D01*
X328463875Y-85191402D01*
X331962876Y-85191402D01*
X331962876Y-85427597D01*
X331999822Y-85660868D01*
X332072809Y-85885496D01*
X332180033Y-86095933D01*
X332318859Y-86287010D01*
X332485866Y-86454017D01*
X332676943Y-86592843D01*
X332776367Y-86643502D01*
X332887379Y-86700066D01*
X332887381Y-86700066D01*
X332887384Y-86700068D01*
X333007788Y-86739189D01*
X333112007Y-86773053D01*
X333345279Y-86810000D01*
X333345284Y-86810000D01*
X333581473Y-86810000D01*
X333814744Y-86773053D01*
X334039368Y-86700068D01*
X334249809Y-86592843D01*
X334440886Y-86454017D01*
X334607893Y-86287010D01*
X334746719Y-86095933D01*
X334853944Y-85885492D01*
X334926929Y-85660868D01*
X334963876Y-85427597D01*
X334963876Y-85191402D01*
X334926929Y-84958131D01*
X334853942Y-84733503D01*
X334746718Y-84523066D01*
X334607893Y-84331990D01*
X334440886Y-84164983D01*
X334249809Y-84026157D01*
X334039372Y-83918933D01*
X333814744Y-83845946D01*
X333581473Y-83809000D01*
X333581468Y-83809000D01*
X333345284Y-83809000D01*
X333345279Y-83809000D01*
X333112007Y-83845946D01*
X332887379Y-83918933D01*
X332676942Y-84026157D01*
X332620495Y-84067169D01*
X332485866Y-84164983D01*
X332485864Y-84164985D01*
X332485863Y-84164985D01*
X332318861Y-84331987D01*
X332318861Y-84331988D01*
X332318859Y-84331990D01*
X332259238Y-84414050D01*
X332180033Y-84523066D01*
X332072809Y-84733503D01*
X331999822Y-84958131D01*
X331962876Y-85191402D01*
X328463875Y-85191402D01*
X328463875Y-84261628D01*
X328457467Y-84202017D01*
X328443654Y-84164983D01*
X328407173Y-84067171D01*
X328407169Y-84067164D01*
X328320923Y-83951955D01*
X328320920Y-83951952D01*
X328205711Y-83865706D01*
X328205704Y-83865702D01*
X328070858Y-83815408D01*
X328070859Y-83815408D01*
X328011259Y-83809001D01*
X328011257Y-83809000D01*
X328011249Y-83809000D01*
X328011240Y-83809000D01*
X325915505Y-83809000D01*
X325915499Y-83809001D01*
X325855892Y-83815408D01*
X325721047Y-83865702D01*
X325721040Y-83865706D01*
X325605831Y-83951952D01*
X325605828Y-83951955D01*
X325519582Y-84067164D01*
X325519578Y-84067171D01*
X325469284Y-84202017D01*
X325462877Y-84261616D01*
X325462877Y-84261623D01*
X325462876Y-84261635D01*
X311662538Y-84261635D01*
X311565886Y-84164983D01*
X311374809Y-84026157D01*
X311164372Y-83918933D01*
X310939744Y-83845946D01*
X310706473Y-83809000D01*
X310706468Y-83809000D01*
X310470284Y-83809000D01*
X310470279Y-83809000D01*
X310237007Y-83845946D01*
X310012379Y-83918933D01*
X309801942Y-84026157D01*
X309745495Y-84067169D01*
X309610866Y-84164983D01*
X309610864Y-84164985D01*
X309610863Y-84164985D01*
X309443861Y-84331987D01*
X309443861Y-84331988D01*
X309443859Y-84331990D01*
X309384238Y-84414050D01*
X309305033Y-84523066D01*
X309197809Y-84733503D01*
X309124822Y-84958131D01*
X309087876Y-85191402D01*
X305588875Y-85191402D01*
X305588875Y-84261628D01*
X305582467Y-84202017D01*
X305568654Y-84164983D01*
X305532173Y-84067171D01*
X305532169Y-84067164D01*
X305445923Y-83951955D01*
X305445920Y-83951952D01*
X305330711Y-83865706D01*
X305330704Y-83865702D01*
X305195858Y-83815408D01*
X305195859Y-83815408D01*
X305136259Y-83809001D01*
X305136257Y-83809000D01*
X305136249Y-83809000D01*
X305136240Y-83809000D01*
X303040505Y-83809000D01*
X303040499Y-83809001D01*
X302980892Y-83815408D01*
X302846047Y-83865702D01*
X302846040Y-83865706D01*
X302730831Y-83951952D01*
X302730828Y-83951955D01*
X302644582Y-84067164D01*
X302644578Y-84067171D01*
X302594284Y-84202017D01*
X302587877Y-84261616D01*
X302587877Y-84261623D01*
X302587876Y-84261635D01*
X288662538Y-84261635D01*
X288565886Y-84164983D01*
X288374809Y-84026157D01*
X288164372Y-83918933D01*
X287939744Y-83845946D01*
X287706473Y-83809000D01*
X287706468Y-83809000D01*
X287470284Y-83809000D01*
X287470279Y-83809000D01*
X287237007Y-83845946D01*
X287012379Y-83918933D01*
X286801942Y-84026157D01*
X286745495Y-84067169D01*
X286610866Y-84164983D01*
X286610864Y-84164985D01*
X286610863Y-84164985D01*
X286443861Y-84331987D01*
X286443861Y-84331988D01*
X286443859Y-84331990D01*
X286384238Y-84414050D01*
X286305033Y-84523066D01*
X286197809Y-84733503D01*
X286124822Y-84958131D01*
X286087876Y-85191402D01*
X282588875Y-85191402D01*
X282588875Y-84261628D01*
X282582467Y-84202017D01*
X282568654Y-84164983D01*
X282532173Y-84067171D01*
X282532169Y-84067164D01*
X282445923Y-83951955D01*
X282445920Y-83951952D01*
X282330711Y-83865706D01*
X282330704Y-83865702D01*
X282195858Y-83815408D01*
X282195859Y-83815408D01*
X282136259Y-83809001D01*
X282136257Y-83809000D01*
X282136249Y-83809000D01*
X282136240Y-83809000D01*
X280040505Y-83809000D01*
X280040499Y-83809001D01*
X279980892Y-83815408D01*
X279846047Y-83865702D01*
X279846040Y-83865706D01*
X279730831Y-83951952D01*
X279730828Y-83951955D01*
X279644582Y-84067164D01*
X279644578Y-84067171D01*
X279594284Y-84202017D01*
X279587877Y-84261616D01*
X279587877Y-84261623D01*
X279587876Y-84261635D01*
X265662538Y-84261635D01*
X265565886Y-84164983D01*
X265374809Y-84026157D01*
X265164372Y-83918933D01*
X264939744Y-83845946D01*
X264706473Y-83809000D01*
X264706468Y-83809000D01*
X264470284Y-83809000D01*
X264470279Y-83809000D01*
X264237007Y-83845946D01*
X264012379Y-83918933D01*
X263801942Y-84026157D01*
X263745495Y-84067169D01*
X263610866Y-84164983D01*
X263610864Y-84164985D01*
X263610863Y-84164985D01*
X263443861Y-84331987D01*
X263443861Y-84331988D01*
X263443859Y-84331990D01*
X263384238Y-84414050D01*
X263305033Y-84523066D01*
X263197809Y-84733503D01*
X263124822Y-84958131D01*
X263087876Y-85191402D01*
X259588875Y-85191402D01*
X259588875Y-84261628D01*
X259582467Y-84202017D01*
X259568654Y-84164983D01*
X259532173Y-84067171D01*
X259532169Y-84067164D01*
X259445923Y-83951955D01*
X259445920Y-83951952D01*
X259330711Y-83865706D01*
X259330704Y-83865702D01*
X259195858Y-83815408D01*
X259195859Y-83815408D01*
X259136259Y-83809001D01*
X259136257Y-83809000D01*
X259136249Y-83809000D01*
X259136240Y-83809000D01*
X257040505Y-83809000D01*
X257040499Y-83809001D01*
X256980892Y-83815408D01*
X256846047Y-83865702D01*
X256846040Y-83865706D01*
X256730831Y-83951952D01*
X256730828Y-83951955D01*
X256644582Y-84067164D01*
X256644578Y-84067171D01*
X256594284Y-84202017D01*
X256587877Y-84261616D01*
X256587877Y-84261623D01*
X256587876Y-84261635D01*
X242662538Y-84261635D01*
X242565886Y-84164983D01*
X242374809Y-84026157D01*
X242164372Y-83918933D01*
X241939744Y-83845946D01*
X241706473Y-83809000D01*
X241706468Y-83809000D01*
X241470284Y-83809000D01*
X241470279Y-83809000D01*
X241237007Y-83845946D01*
X241012379Y-83918933D01*
X240801942Y-84026157D01*
X240745495Y-84067169D01*
X240610866Y-84164983D01*
X240610864Y-84164985D01*
X240610863Y-84164985D01*
X240443861Y-84331987D01*
X240443861Y-84331988D01*
X240443859Y-84331990D01*
X240384238Y-84414050D01*
X240305033Y-84523066D01*
X240197809Y-84733503D01*
X240124822Y-84958131D01*
X240087876Y-85191402D01*
X236588875Y-85191402D01*
X236588875Y-84261628D01*
X236582467Y-84202017D01*
X236568654Y-84164983D01*
X236532173Y-84067171D01*
X236532169Y-84067164D01*
X236445923Y-83951955D01*
X236445920Y-83951952D01*
X236330711Y-83865706D01*
X236330704Y-83865702D01*
X236195858Y-83815408D01*
X236195859Y-83815408D01*
X236136259Y-83809001D01*
X236136257Y-83809000D01*
X236136249Y-83809000D01*
X236136240Y-83809000D01*
X234040505Y-83809000D01*
X234040499Y-83809001D01*
X233980892Y-83815408D01*
X233846047Y-83865702D01*
X233846040Y-83865706D01*
X233730831Y-83951952D01*
X233730828Y-83951955D01*
X233644582Y-84067164D01*
X233644578Y-84067171D01*
X233594284Y-84202017D01*
X233587877Y-84261616D01*
X233587877Y-84261623D01*
X233587876Y-84261635D01*
X219662538Y-84261635D01*
X219565886Y-84164983D01*
X219374809Y-84026157D01*
X219164372Y-83918933D01*
X218939744Y-83845946D01*
X218706473Y-83809000D01*
X218706468Y-83809000D01*
X218470284Y-83809000D01*
X218470279Y-83809000D01*
X218237007Y-83845946D01*
X218012379Y-83918933D01*
X217801942Y-84026157D01*
X217745495Y-84067169D01*
X217610866Y-84164983D01*
X217610864Y-84164985D01*
X217610863Y-84164985D01*
X217443861Y-84331987D01*
X217443861Y-84331988D01*
X217443859Y-84331990D01*
X217384238Y-84414050D01*
X217305033Y-84523066D01*
X217197809Y-84733503D01*
X217124822Y-84958131D01*
X217087876Y-85191402D01*
X213588875Y-85191402D01*
X213588875Y-84261628D01*
X213582467Y-84202017D01*
X213568654Y-84164983D01*
X213532173Y-84067171D01*
X213532169Y-84067164D01*
X213445923Y-83951955D01*
X213445920Y-83951952D01*
X213330711Y-83865706D01*
X213330704Y-83865702D01*
X213195858Y-83815408D01*
X213195859Y-83815408D01*
X213136259Y-83809001D01*
X213136257Y-83809000D01*
X213136249Y-83809000D01*
X213136240Y-83809000D01*
X211040505Y-83809000D01*
X211040499Y-83809001D01*
X210980892Y-83815408D01*
X210846047Y-83865702D01*
X210846040Y-83865706D01*
X210730831Y-83951952D01*
X210730828Y-83951955D01*
X210644582Y-84067164D01*
X210644578Y-84067171D01*
X210594284Y-84202017D01*
X210587877Y-84261616D01*
X210587877Y-84261623D01*
X210587876Y-84261635D01*
X196662538Y-84261635D01*
X196565886Y-84164983D01*
X196374809Y-84026157D01*
X196164372Y-83918933D01*
X195939744Y-83845946D01*
X195706473Y-83809000D01*
X195706468Y-83809000D01*
X195470284Y-83809000D01*
X195470279Y-83809000D01*
X195237007Y-83845946D01*
X195012379Y-83918933D01*
X194801942Y-84026157D01*
X194745495Y-84067169D01*
X194610866Y-84164983D01*
X194610864Y-84164985D01*
X194610863Y-84164985D01*
X194443861Y-84331987D01*
X194443861Y-84331988D01*
X194443859Y-84331990D01*
X194384238Y-84414050D01*
X194305033Y-84523066D01*
X194197809Y-84733503D01*
X194124822Y-84958131D01*
X194087876Y-85191402D01*
X190588875Y-85191402D01*
X190588875Y-84261628D01*
X190582467Y-84202017D01*
X190568654Y-84164983D01*
X190532173Y-84067171D01*
X190532169Y-84067164D01*
X190445923Y-83951955D01*
X190445920Y-83951952D01*
X190330711Y-83865706D01*
X190330704Y-83865702D01*
X190195858Y-83815408D01*
X190195859Y-83815408D01*
X190136259Y-83809001D01*
X190136257Y-83809000D01*
X190136249Y-83809000D01*
X190136240Y-83809000D01*
X188040505Y-83809000D01*
X188040499Y-83809001D01*
X187980892Y-83815408D01*
X187846047Y-83865702D01*
X187846040Y-83865706D01*
X187730831Y-83951952D01*
X187730828Y-83951955D01*
X187644582Y-84067164D01*
X187644578Y-84067171D01*
X187594284Y-84202017D01*
X187587877Y-84261616D01*
X187587877Y-84261623D01*
X187587876Y-84261635D01*
X173662538Y-84261635D01*
X173565886Y-84164983D01*
X173374809Y-84026157D01*
X173164372Y-83918933D01*
X172939744Y-83845946D01*
X172706473Y-83809000D01*
X172706468Y-83809000D01*
X172470284Y-83809000D01*
X172470279Y-83809000D01*
X172237007Y-83845946D01*
X172012379Y-83918933D01*
X171801942Y-84026157D01*
X171745495Y-84067169D01*
X171610866Y-84164983D01*
X171610864Y-84164985D01*
X171610863Y-84164985D01*
X171443861Y-84331987D01*
X171443861Y-84331988D01*
X171443859Y-84331990D01*
X171384238Y-84414050D01*
X171305033Y-84523066D01*
X171197809Y-84733503D01*
X171124822Y-84958131D01*
X171087876Y-85191402D01*
X167588875Y-85191402D01*
X167588875Y-84261628D01*
X167582467Y-84202017D01*
X167568654Y-84164983D01*
X167532173Y-84067171D01*
X167532169Y-84067164D01*
X167445923Y-83951955D01*
X167445920Y-83951952D01*
X167330711Y-83865706D01*
X167330704Y-83865702D01*
X167195858Y-83815408D01*
X167195859Y-83815408D01*
X167136259Y-83809001D01*
X167136257Y-83809000D01*
X167136249Y-83809000D01*
X167136240Y-83809000D01*
X165040505Y-83809000D01*
X165040499Y-83809001D01*
X164980892Y-83815408D01*
X164846047Y-83865702D01*
X164846040Y-83865706D01*
X164730831Y-83951952D01*
X164730828Y-83951955D01*
X164644582Y-84067164D01*
X164644578Y-84067171D01*
X164594284Y-84202017D01*
X164587877Y-84261616D01*
X164587877Y-84261623D01*
X164587876Y-84261635D01*
X150662538Y-84261635D01*
X150565886Y-84164983D01*
X150374809Y-84026157D01*
X150164372Y-83918933D01*
X149939744Y-83845946D01*
X149706473Y-83809000D01*
X149706468Y-83809000D01*
X149470284Y-83809000D01*
X149470279Y-83809000D01*
X149237007Y-83845946D01*
X149012379Y-83918933D01*
X148801942Y-84026157D01*
X148745495Y-84067169D01*
X148610866Y-84164983D01*
X148610864Y-84164985D01*
X148610863Y-84164985D01*
X148443861Y-84331987D01*
X148443861Y-84331988D01*
X148443859Y-84331990D01*
X148384238Y-84414050D01*
X148305033Y-84523066D01*
X148197809Y-84733503D01*
X148124822Y-84958131D01*
X148087876Y-85191402D01*
X144588875Y-85191402D01*
X144588875Y-84261628D01*
X144582467Y-84202017D01*
X144568654Y-84164983D01*
X144532173Y-84067171D01*
X144532169Y-84067164D01*
X144445923Y-83951955D01*
X144445920Y-83951952D01*
X144330711Y-83865706D01*
X144330704Y-83865702D01*
X144195858Y-83815408D01*
X144195859Y-83815408D01*
X144136259Y-83809001D01*
X144136257Y-83809000D01*
X144136249Y-83809000D01*
X144136240Y-83809000D01*
X142040505Y-83809000D01*
X142040499Y-83809001D01*
X141980892Y-83815408D01*
X141846047Y-83865702D01*
X141846040Y-83865706D01*
X141730831Y-83951952D01*
X141730828Y-83951955D01*
X141644582Y-84067164D01*
X141644578Y-84067171D01*
X141594284Y-84202017D01*
X141587877Y-84261616D01*
X141587877Y-84261623D01*
X141587876Y-84261635D01*
X127662537Y-84261635D01*
X127565885Y-84164983D01*
X127374808Y-84026157D01*
X127164371Y-83918933D01*
X126939743Y-83845946D01*
X126706472Y-83809000D01*
X126706467Y-83809000D01*
X126470283Y-83809000D01*
X126470278Y-83809000D01*
X126237006Y-83845946D01*
X126012378Y-83918933D01*
X125801941Y-84026157D01*
X125745494Y-84067169D01*
X125610865Y-84164983D01*
X125610863Y-84164985D01*
X125610862Y-84164985D01*
X125443860Y-84331987D01*
X125443860Y-84331988D01*
X125443858Y-84331990D01*
X125384237Y-84414050D01*
X125305032Y-84523066D01*
X125197808Y-84733503D01*
X125124821Y-84958131D01*
X125087875Y-85191402D01*
X121588874Y-85191402D01*
X121588874Y-84261628D01*
X121582466Y-84202017D01*
X121568653Y-84164983D01*
X121532172Y-84067171D01*
X121532168Y-84067164D01*
X121445922Y-83951955D01*
X121445919Y-83951952D01*
X121330710Y-83865706D01*
X121330703Y-83865702D01*
X121195857Y-83815408D01*
X121195858Y-83815408D01*
X121136258Y-83809001D01*
X121136256Y-83809000D01*
X121136248Y-83809000D01*
X121136239Y-83809000D01*
X119040504Y-83809000D01*
X119040498Y-83809001D01*
X118980891Y-83815408D01*
X118846046Y-83865702D01*
X118846039Y-83865706D01*
X118730830Y-83951952D01*
X118730827Y-83951955D01*
X118644581Y-84067164D01*
X118644577Y-84067171D01*
X118594283Y-84202017D01*
X118587876Y-84261616D01*
X118587876Y-84261623D01*
X118587875Y-84261635D01*
X109300000Y-84261635D01*
X109300000Y-79171153D01*
X112499500Y-79171153D01*
X112499500Y-79328846D01*
X112530261Y-79483489D01*
X112530264Y-79483501D01*
X112590602Y-79629172D01*
X112590609Y-79629185D01*
X112678210Y-79760288D01*
X112678213Y-79760292D01*
X112789707Y-79871786D01*
X112789711Y-79871789D01*
X112920814Y-79959390D01*
X112920827Y-79959397D01*
X113066498Y-80019735D01*
X113066503Y-80019737D01*
X113221153Y-80050499D01*
X113221156Y-80050500D01*
X113221158Y-80050500D01*
X113378844Y-80050500D01*
X113378845Y-80050499D01*
X113533497Y-80019737D01*
X113679179Y-79959394D01*
X113810289Y-79871789D01*
X113921789Y-79760289D01*
X114009394Y-79629179D01*
X114069737Y-79483497D01*
X114100500Y-79328842D01*
X114100500Y-79171158D01*
X114100500Y-79171155D01*
X114100499Y-79171153D01*
X114069738Y-79016510D01*
X114069737Y-79016503D01*
X114069735Y-79016498D01*
X114009397Y-78870827D01*
X114009390Y-78870814D01*
X113921789Y-78739711D01*
X113921786Y-78739707D01*
X113810292Y-78628213D01*
X113810288Y-78628210D01*
X113679185Y-78540609D01*
X113679172Y-78540602D01*
X113533501Y-78480264D01*
X113533489Y-78480261D01*
X113378845Y-78449500D01*
X113378842Y-78449500D01*
X113221158Y-78449500D01*
X113221155Y-78449500D01*
X113066510Y-78480261D01*
X113066498Y-78480264D01*
X112920827Y-78540602D01*
X112920814Y-78540609D01*
X112789711Y-78628210D01*
X112789707Y-78628213D01*
X112678213Y-78739707D01*
X112678210Y-78739711D01*
X112590609Y-78870814D01*
X112590602Y-78870827D01*
X112530264Y-79016498D01*
X112530261Y-79016510D01*
X112499500Y-79171153D01*
X109300000Y-79171153D01*
X109300000Y-77481149D01*
X118231500Y-77481149D01*
X118231500Y-77736850D01*
X118257457Y-77934007D01*
X118264874Y-77990340D01*
X118331050Y-78237312D01*
X118331053Y-78237322D01*
X118428894Y-78473531D01*
X118428899Y-78473542D01*
X118556734Y-78694957D01*
X118556745Y-78694973D01*
X118712388Y-78897811D01*
X118712394Y-78897818D01*
X118893181Y-79078605D01*
X118893187Y-79078610D01*
X119096035Y-79234261D01*
X119096042Y-79234265D01*
X119317457Y-79362100D01*
X119317462Y-79362102D01*
X119317465Y-79362104D01*
X119553687Y-79459950D01*
X119800660Y-79526126D01*
X120054157Y-79559500D01*
X120054164Y-79559500D01*
X120309836Y-79559500D01*
X120309843Y-79559500D01*
X120563340Y-79526126D01*
X120810313Y-79459950D01*
X121046535Y-79362104D01*
X121267965Y-79234261D01*
X121350209Y-79171153D01*
X135499501Y-79171153D01*
X135499501Y-79328846D01*
X135530262Y-79483489D01*
X135530265Y-79483501D01*
X135590603Y-79629172D01*
X135590610Y-79629185D01*
X135678211Y-79760288D01*
X135678214Y-79760292D01*
X135789708Y-79871786D01*
X135789712Y-79871789D01*
X135920815Y-79959390D01*
X135920828Y-79959397D01*
X136066499Y-80019735D01*
X136066504Y-80019737D01*
X136221154Y-80050499D01*
X136221157Y-80050500D01*
X136221159Y-80050500D01*
X136378845Y-80050500D01*
X136378846Y-80050499D01*
X136533498Y-80019737D01*
X136679180Y-79959394D01*
X136810290Y-79871789D01*
X136921790Y-79760289D01*
X137009395Y-79629179D01*
X137069738Y-79483497D01*
X137100501Y-79328842D01*
X137100501Y-79171158D01*
X137100501Y-79171155D01*
X137100500Y-79171153D01*
X137069739Y-79016510D01*
X137069738Y-79016503D01*
X137069736Y-79016498D01*
X137009398Y-78870827D01*
X137009391Y-78870814D01*
X136921790Y-78739711D01*
X136921787Y-78739707D01*
X136810293Y-78628213D01*
X136810289Y-78628210D01*
X136679186Y-78540609D01*
X136679173Y-78540602D01*
X136533502Y-78480264D01*
X136533490Y-78480261D01*
X136378846Y-78449500D01*
X136378843Y-78449500D01*
X136221159Y-78449500D01*
X136221156Y-78449500D01*
X136066511Y-78480261D01*
X136066499Y-78480264D01*
X135920828Y-78540602D01*
X135920815Y-78540609D01*
X135789712Y-78628210D01*
X135789708Y-78628213D01*
X135678214Y-78739707D01*
X135678211Y-78739711D01*
X135590610Y-78870814D01*
X135590603Y-78870827D01*
X135530265Y-79016498D01*
X135530262Y-79016510D01*
X135499501Y-79171153D01*
X121350209Y-79171153D01*
X121470813Y-79078610D01*
X121470818Y-79078605D01*
X121472039Y-79077385D01*
X121651605Y-78897818D01*
X121651610Y-78897813D01*
X121807261Y-78694965D01*
X121935104Y-78473535D01*
X122032950Y-78237313D01*
X122099126Y-77990340D01*
X122132500Y-77736843D01*
X122132500Y-77481157D01*
X122132499Y-77481149D01*
X141231501Y-77481149D01*
X141231501Y-77736850D01*
X141257458Y-77934007D01*
X141264875Y-77990340D01*
X141331051Y-78237312D01*
X141331054Y-78237322D01*
X141428895Y-78473531D01*
X141428900Y-78473542D01*
X141556735Y-78694957D01*
X141556746Y-78694973D01*
X141712389Y-78897811D01*
X141712395Y-78897818D01*
X141893182Y-79078605D01*
X141893188Y-79078610D01*
X142096036Y-79234261D01*
X142096043Y-79234265D01*
X142317458Y-79362100D01*
X142317463Y-79362102D01*
X142317466Y-79362104D01*
X142553688Y-79459950D01*
X142800661Y-79526126D01*
X143054158Y-79559500D01*
X143054165Y-79559500D01*
X143309837Y-79559500D01*
X143309844Y-79559500D01*
X143563341Y-79526126D01*
X143810314Y-79459950D01*
X144046536Y-79362104D01*
X144267966Y-79234261D01*
X144350210Y-79171153D01*
X158499501Y-79171153D01*
X158499501Y-79328846D01*
X158530262Y-79483489D01*
X158530265Y-79483501D01*
X158590603Y-79629172D01*
X158590610Y-79629185D01*
X158678211Y-79760288D01*
X158678214Y-79760292D01*
X158789708Y-79871786D01*
X158789712Y-79871789D01*
X158920815Y-79959390D01*
X158920828Y-79959397D01*
X159066499Y-80019735D01*
X159066504Y-80019737D01*
X159221154Y-80050499D01*
X159221157Y-80050500D01*
X159221159Y-80050500D01*
X159378845Y-80050500D01*
X159378846Y-80050499D01*
X159533498Y-80019737D01*
X159679180Y-79959394D01*
X159810290Y-79871789D01*
X159921790Y-79760289D01*
X160009395Y-79629179D01*
X160069738Y-79483497D01*
X160100501Y-79328842D01*
X160100501Y-79171158D01*
X160100501Y-79171155D01*
X160100500Y-79171153D01*
X160069739Y-79016510D01*
X160069738Y-79016503D01*
X160069736Y-79016498D01*
X160009398Y-78870827D01*
X160009391Y-78870814D01*
X159921790Y-78739711D01*
X159921787Y-78739707D01*
X159810293Y-78628213D01*
X159810289Y-78628210D01*
X159679186Y-78540609D01*
X159679173Y-78540602D01*
X159533502Y-78480264D01*
X159533490Y-78480261D01*
X159378846Y-78449500D01*
X159378843Y-78449500D01*
X159221159Y-78449500D01*
X159221156Y-78449500D01*
X159066511Y-78480261D01*
X159066499Y-78480264D01*
X158920828Y-78540602D01*
X158920815Y-78540609D01*
X158789712Y-78628210D01*
X158789708Y-78628213D01*
X158678214Y-78739707D01*
X158678211Y-78739711D01*
X158590610Y-78870814D01*
X158590603Y-78870827D01*
X158530265Y-79016498D01*
X158530262Y-79016510D01*
X158499501Y-79171153D01*
X144350210Y-79171153D01*
X144470814Y-79078610D01*
X144470819Y-79078605D01*
X144472040Y-79077385D01*
X144651606Y-78897818D01*
X144651611Y-78897813D01*
X144807262Y-78694965D01*
X144935105Y-78473535D01*
X145032951Y-78237313D01*
X145099127Y-77990340D01*
X145132501Y-77736843D01*
X145132501Y-77481157D01*
X145132500Y-77481149D01*
X164231501Y-77481149D01*
X164231501Y-77736850D01*
X164257458Y-77934007D01*
X164264875Y-77990340D01*
X164331051Y-78237312D01*
X164331054Y-78237322D01*
X164428895Y-78473531D01*
X164428900Y-78473542D01*
X164556735Y-78694957D01*
X164556746Y-78694973D01*
X164712389Y-78897811D01*
X164712395Y-78897818D01*
X164893182Y-79078605D01*
X164893188Y-79078610D01*
X165096036Y-79234261D01*
X165096043Y-79234265D01*
X165317458Y-79362100D01*
X165317463Y-79362102D01*
X165317466Y-79362104D01*
X165553688Y-79459950D01*
X165800661Y-79526126D01*
X166054158Y-79559500D01*
X166054165Y-79559500D01*
X166309837Y-79559500D01*
X166309844Y-79559500D01*
X166563341Y-79526126D01*
X166810314Y-79459950D01*
X167046536Y-79362104D01*
X167267966Y-79234261D01*
X167350210Y-79171153D01*
X181499501Y-79171153D01*
X181499501Y-79328846D01*
X181530262Y-79483489D01*
X181530265Y-79483501D01*
X181590603Y-79629172D01*
X181590610Y-79629185D01*
X181678211Y-79760288D01*
X181678214Y-79760292D01*
X181789708Y-79871786D01*
X181789712Y-79871789D01*
X181920815Y-79959390D01*
X181920828Y-79959397D01*
X182066499Y-80019735D01*
X182066504Y-80019737D01*
X182221154Y-80050499D01*
X182221157Y-80050500D01*
X182221159Y-80050500D01*
X182378845Y-80050500D01*
X182378846Y-80050499D01*
X182533498Y-80019737D01*
X182679180Y-79959394D01*
X182810290Y-79871789D01*
X182921790Y-79760289D01*
X183009395Y-79629179D01*
X183069738Y-79483497D01*
X183100501Y-79328842D01*
X183100501Y-79171158D01*
X183100501Y-79171155D01*
X183100500Y-79171153D01*
X183069739Y-79016510D01*
X183069738Y-79016503D01*
X183069736Y-79016498D01*
X183009398Y-78870827D01*
X183009391Y-78870814D01*
X182921790Y-78739711D01*
X182921787Y-78739707D01*
X182810293Y-78628213D01*
X182810289Y-78628210D01*
X182679186Y-78540609D01*
X182679173Y-78540602D01*
X182533502Y-78480264D01*
X182533490Y-78480261D01*
X182378846Y-78449500D01*
X182378843Y-78449500D01*
X182221159Y-78449500D01*
X182221156Y-78449500D01*
X182066511Y-78480261D01*
X182066499Y-78480264D01*
X181920828Y-78540602D01*
X181920815Y-78540609D01*
X181789712Y-78628210D01*
X181789708Y-78628213D01*
X181678214Y-78739707D01*
X181678211Y-78739711D01*
X181590610Y-78870814D01*
X181590603Y-78870827D01*
X181530265Y-79016498D01*
X181530262Y-79016510D01*
X181499501Y-79171153D01*
X167350210Y-79171153D01*
X167470814Y-79078610D01*
X167470819Y-79078605D01*
X167472040Y-79077385D01*
X167651606Y-78897818D01*
X167651611Y-78897813D01*
X167807262Y-78694965D01*
X167935105Y-78473535D01*
X168032951Y-78237313D01*
X168099127Y-77990340D01*
X168132501Y-77736843D01*
X168132501Y-77481157D01*
X168132500Y-77481149D01*
X187231501Y-77481149D01*
X187231501Y-77736850D01*
X187257458Y-77934007D01*
X187264875Y-77990340D01*
X187331051Y-78237312D01*
X187331054Y-78237322D01*
X187428895Y-78473531D01*
X187428900Y-78473542D01*
X187556735Y-78694957D01*
X187556746Y-78694973D01*
X187712389Y-78897811D01*
X187712395Y-78897818D01*
X187893182Y-79078605D01*
X187893188Y-79078610D01*
X188096036Y-79234261D01*
X188096043Y-79234265D01*
X188317458Y-79362100D01*
X188317463Y-79362102D01*
X188317466Y-79362104D01*
X188553688Y-79459950D01*
X188800661Y-79526126D01*
X189054158Y-79559500D01*
X189054165Y-79559500D01*
X189309837Y-79559500D01*
X189309844Y-79559500D01*
X189563341Y-79526126D01*
X189810314Y-79459950D01*
X190046536Y-79362104D01*
X190267966Y-79234261D01*
X190350210Y-79171153D01*
X204499501Y-79171153D01*
X204499501Y-79328846D01*
X204530262Y-79483489D01*
X204530265Y-79483501D01*
X204590603Y-79629172D01*
X204590610Y-79629185D01*
X204678211Y-79760288D01*
X204678214Y-79760292D01*
X204789708Y-79871786D01*
X204789712Y-79871789D01*
X204920815Y-79959390D01*
X204920828Y-79959397D01*
X205066499Y-80019735D01*
X205066504Y-80019737D01*
X205221154Y-80050499D01*
X205221157Y-80050500D01*
X205221159Y-80050500D01*
X205378845Y-80050500D01*
X205378846Y-80050499D01*
X205533498Y-80019737D01*
X205679180Y-79959394D01*
X205810290Y-79871789D01*
X205921790Y-79760289D01*
X206009395Y-79629179D01*
X206069738Y-79483497D01*
X206100501Y-79328842D01*
X206100501Y-79171158D01*
X206100501Y-79171155D01*
X206100500Y-79171153D01*
X206069739Y-79016510D01*
X206069738Y-79016503D01*
X206069736Y-79016498D01*
X206009398Y-78870827D01*
X206009391Y-78870814D01*
X205921790Y-78739711D01*
X205921787Y-78739707D01*
X205810293Y-78628213D01*
X205810289Y-78628210D01*
X205679186Y-78540609D01*
X205679173Y-78540602D01*
X205533502Y-78480264D01*
X205533490Y-78480261D01*
X205378846Y-78449500D01*
X205378843Y-78449500D01*
X205221159Y-78449500D01*
X205221156Y-78449500D01*
X205066511Y-78480261D01*
X205066499Y-78480264D01*
X204920828Y-78540602D01*
X204920815Y-78540609D01*
X204789712Y-78628210D01*
X204789708Y-78628213D01*
X204678214Y-78739707D01*
X204678211Y-78739711D01*
X204590610Y-78870814D01*
X204590603Y-78870827D01*
X204530265Y-79016498D01*
X204530262Y-79016510D01*
X204499501Y-79171153D01*
X190350210Y-79171153D01*
X190470814Y-79078610D01*
X190470819Y-79078605D01*
X190472040Y-79077385D01*
X190651606Y-78897818D01*
X190651611Y-78897813D01*
X190807262Y-78694965D01*
X190935105Y-78473535D01*
X191032951Y-78237313D01*
X191099127Y-77990340D01*
X191132501Y-77736843D01*
X191132501Y-77481157D01*
X191132500Y-77481149D01*
X210231501Y-77481149D01*
X210231501Y-77736850D01*
X210257458Y-77934007D01*
X210264875Y-77990340D01*
X210331051Y-78237312D01*
X210331054Y-78237322D01*
X210428895Y-78473531D01*
X210428900Y-78473542D01*
X210556735Y-78694957D01*
X210556746Y-78694973D01*
X210712389Y-78897811D01*
X210712395Y-78897818D01*
X210893182Y-79078605D01*
X210893188Y-79078610D01*
X211096036Y-79234261D01*
X211096043Y-79234265D01*
X211317458Y-79362100D01*
X211317463Y-79362102D01*
X211317466Y-79362104D01*
X211553688Y-79459950D01*
X211800661Y-79526126D01*
X212054158Y-79559500D01*
X212054165Y-79559500D01*
X212309837Y-79559500D01*
X212309844Y-79559500D01*
X212563341Y-79526126D01*
X212810314Y-79459950D01*
X213046536Y-79362104D01*
X213267966Y-79234261D01*
X213350210Y-79171153D01*
X227499501Y-79171153D01*
X227499501Y-79328846D01*
X227530262Y-79483489D01*
X227530265Y-79483501D01*
X227590603Y-79629172D01*
X227590610Y-79629185D01*
X227678211Y-79760288D01*
X227678214Y-79760292D01*
X227789708Y-79871786D01*
X227789712Y-79871789D01*
X227920815Y-79959390D01*
X227920828Y-79959397D01*
X228066499Y-80019735D01*
X228066504Y-80019737D01*
X228221154Y-80050499D01*
X228221157Y-80050500D01*
X228221159Y-80050500D01*
X228378845Y-80050500D01*
X228378846Y-80050499D01*
X228533498Y-80019737D01*
X228679180Y-79959394D01*
X228810290Y-79871789D01*
X228921790Y-79760289D01*
X229009395Y-79629179D01*
X229069738Y-79483497D01*
X229100501Y-79328842D01*
X229100501Y-79171158D01*
X229100501Y-79171155D01*
X229100500Y-79171153D01*
X229069739Y-79016510D01*
X229069738Y-79016503D01*
X229069736Y-79016498D01*
X229009398Y-78870827D01*
X229009391Y-78870814D01*
X228921790Y-78739711D01*
X228921787Y-78739707D01*
X228810293Y-78628213D01*
X228810289Y-78628210D01*
X228679186Y-78540609D01*
X228679173Y-78540602D01*
X228533502Y-78480264D01*
X228533490Y-78480261D01*
X228378846Y-78449500D01*
X228378843Y-78449500D01*
X228221159Y-78449500D01*
X228221156Y-78449500D01*
X228066511Y-78480261D01*
X228066499Y-78480264D01*
X227920828Y-78540602D01*
X227920815Y-78540609D01*
X227789712Y-78628210D01*
X227789708Y-78628213D01*
X227678214Y-78739707D01*
X227678211Y-78739711D01*
X227590610Y-78870814D01*
X227590603Y-78870827D01*
X227530265Y-79016498D01*
X227530262Y-79016510D01*
X227499501Y-79171153D01*
X213350210Y-79171153D01*
X213470814Y-79078610D01*
X213470819Y-79078605D01*
X213472040Y-79077385D01*
X213651606Y-78897818D01*
X213651611Y-78897813D01*
X213807262Y-78694965D01*
X213935105Y-78473535D01*
X214032951Y-78237313D01*
X214099127Y-77990340D01*
X214132501Y-77736843D01*
X214132501Y-77481157D01*
X214132500Y-77481149D01*
X233231501Y-77481149D01*
X233231501Y-77736850D01*
X233257458Y-77934007D01*
X233264875Y-77990340D01*
X233331051Y-78237312D01*
X233331054Y-78237322D01*
X233428895Y-78473531D01*
X233428900Y-78473542D01*
X233556735Y-78694957D01*
X233556746Y-78694973D01*
X233712389Y-78897811D01*
X233712395Y-78897818D01*
X233893182Y-79078605D01*
X233893188Y-79078610D01*
X234096036Y-79234261D01*
X234096043Y-79234265D01*
X234317458Y-79362100D01*
X234317463Y-79362102D01*
X234317466Y-79362104D01*
X234553688Y-79459950D01*
X234800661Y-79526126D01*
X235054158Y-79559500D01*
X235054165Y-79559500D01*
X235309837Y-79559500D01*
X235309844Y-79559500D01*
X235563341Y-79526126D01*
X235810314Y-79459950D01*
X236046536Y-79362104D01*
X236267966Y-79234261D01*
X236350210Y-79171153D01*
X250499501Y-79171153D01*
X250499501Y-79328846D01*
X250530262Y-79483489D01*
X250530265Y-79483501D01*
X250590603Y-79629172D01*
X250590610Y-79629185D01*
X250678211Y-79760288D01*
X250678214Y-79760292D01*
X250789708Y-79871786D01*
X250789712Y-79871789D01*
X250920815Y-79959390D01*
X250920828Y-79959397D01*
X251066499Y-80019735D01*
X251066504Y-80019737D01*
X251221154Y-80050499D01*
X251221157Y-80050500D01*
X251221159Y-80050500D01*
X251378845Y-80050500D01*
X251378846Y-80050499D01*
X251533498Y-80019737D01*
X251679180Y-79959394D01*
X251810290Y-79871789D01*
X251921790Y-79760289D01*
X252009395Y-79629179D01*
X252069738Y-79483497D01*
X252100501Y-79328842D01*
X252100501Y-79171158D01*
X252100501Y-79171155D01*
X252100500Y-79171153D01*
X252069739Y-79016510D01*
X252069738Y-79016503D01*
X252069736Y-79016498D01*
X252009398Y-78870827D01*
X252009391Y-78870814D01*
X251921790Y-78739711D01*
X251921787Y-78739707D01*
X251810293Y-78628213D01*
X251810289Y-78628210D01*
X251679186Y-78540609D01*
X251679173Y-78540602D01*
X251533502Y-78480264D01*
X251533490Y-78480261D01*
X251378846Y-78449500D01*
X251378843Y-78449500D01*
X251221159Y-78449500D01*
X251221156Y-78449500D01*
X251066511Y-78480261D01*
X251066499Y-78480264D01*
X250920828Y-78540602D01*
X250920815Y-78540609D01*
X250789712Y-78628210D01*
X250789708Y-78628213D01*
X250678214Y-78739707D01*
X250678211Y-78739711D01*
X250590610Y-78870814D01*
X250590603Y-78870827D01*
X250530265Y-79016498D01*
X250530262Y-79016510D01*
X250499501Y-79171153D01*
X236350210Y-79171153D01*
X236470814Y-79078610D01*
X236470819Y-79078605D01*
X236472040Y-79077385D01*
X236651606Y-78897818D01*
X236651611Y-78897813D01*
X236807262Y-78694965D01*
X236935105Y-78473535D01*
X237032951Y-78237313D01*
X237099127Y-77990340D01*
X237132501Y-77736843D01*
X237132501Y-77481157D01*
X237132500Y-77481149D01*
X256231501Y-77481149D01*
X256231501Y-77736850D01*
X256257458Y-77934007D01*
X256264875Y-77990340D01*
X256331051Y-78237312D01*
X256331054Y-78237322D01*
X256428895Y-78473531D01*
X256428900Y-78473542D01*
X256556735Y-78694957D01*
X256556746Y-78694973D01*
X256712389Y-78897811D01*
X256712395Y-78897818D01*
X256893182Y-79078605D01*
X256893188Y-79078610D01*
X257096036Y-79234261D01*
X257096043Y-79234265D01*
X257317458Y-79362100D01*
X257317463Y-79362102D01*
X257317466Y-79362104D01*
X257553688Y-79459950D01*
X257800661Y-79526126D01*
X258054158Y-79559500D01*
X258054165Y-79559500D01*
X258309837Y-79559500D01*
X258309844Y-79559500D01*
X258563341Y-79526126D01*
X258810314Y-79459950D01*
X259046536Y-79362104D01*
X259267966Y-79234261D01*
X259350210Y-79171153D01*
X273499501Y-79171153D01*
X273499501Y-79328846D01*
X273530262Y-79483489D01*
X273530265Y-79483501D01*
X273590603Y-79629172D01*
X273590610Y-79629185D01*
X273678211Y-79760288D01*
X273678214Y-79760292D01*
X273789708Y-79871786D01*
X273789712Y-79871789D01*
X273920815Y-79959390D01*
X273920828Y-79959397D01*
X274066499Y-80019735D01*
X274066504Y-80019737D01*
X274221154Y-80050499D01*
X274221157Y-80050500D01*
X274221159Y-80050500D01*
X274378845Y-80050500D01*
X274378846Y-80050499D01*
X274533498Y-80019737D01*
X274679180Y-79959394D01*
X274810290Y-79871789D01*
X274921790Y-79760289D01*
X275009395Y-79629179D01*
X275069738Y-79483497D01*
X275100501Y-79328842D01*
X275100501Y-79171158D01*
X275100501Y-79171155D01*
X275100500Y-79171153D01*
X275069739Y-79016510D01*
X275069738Y-79016503D01*
X275069736Y-79016498D01*
X275009398Y-78870827D01*
X275009391Y-78870814D01*
X274921790Y-78739711D01*
X274921787Y-78739707D01*
X274810293Y-78628213D01*
X274810289Y-78628210D01*
X274679186Y-78540609D01*
X274679173Y-78540602D01*
X274533502Y-78480264D01*
X274533490Y-78480261D01*
X274378846Y-78449500D01*
X274378843Y-78449500D01*
X274221159Y-78449500D01*
X274221156Y-78449500D01*
X274066511Y-78480261D01*
X274066499Y-78480264D01*
X273920828Y-78540602D01*
X273920815Y-78540609D01*
X273789712Y-78628210D01*
X273789708Y-78628213D01*
X273678214Y-78739707D01*
X273678211Y-78739711D01*
X273590610Y-78870814D01*
X273590603Y-78870827D01*
X273530265Y-79016498D01*
X273530262Y-79016510D01*
X273499501Y-79171153D01*
X259350210Y-79171153D01*
X259470814Y-79078610D01*
X259470819Y-79078605D01*
X259472040Y-79077385D01*
X259651606Y-78897818D01*
X259651611Y-78897813D01*
X259807262Y-78694965D01*
X259935105Y-78473535D01*
X260032951Y-78237313D01*
X260099127Y-77990340D01*
X260132501Y-77736843D01*
X260132501Y-77481157D01*
X260132500Y-77481149D01*
X279231501Y-77481149D01*
X279231501Y-77736850D01*
X279257458Y-77934007D01*
X279264875Y-77990340D01*
X279331051Y-78237312D01*
X279331054Y-78237322D01*
X279428895Y-78473531D01*
X279428900Y-78473542D01*
X279556735Y-78694957D01*
X279556746Y-78694973D01*
X279712389Y-78897811D01*
X279712395Y-78897818D01*
X279893182Y-79078605D01*
X279893188Y-79078610D01*
X280096036Y-79234261D01*
X280096043Y-79234265D01*
X280317458Y-79362100D01*
X280317463Y-79362102D01*
X280317466Y-79362104D01*
X280553688Y-79459950D01*
X280800661Y-79526126D01*
X281054158Y-79559500D01*
X281054165Y-79559500D01*
X281309837Y-79559500D01*
X281309844Y-79559500D01*
X281563341Y-79526126D01*
X281810314Y-79459950D01*
X282046536Y-79362104D01*
X282267966Y-79234261D01*
X282350210Y-79171153D01*
X296499501Y-79171153D01*
X296499501Y-79328846D01*
X296530262Y-79483489D01*
X296530265Y-79483501D01*
X296590603Y-79629172D01*
X296590610Y-79629185D01*
X296678211Y-79760288D01*
X296678214Y-79760292D01*
X296789708Y-79871786D01*
X296789712Y-79871789D01*
X296920815Y-79959390D01*
X296920828Y-79959397D01*
X297066499Y-80019735D01*
X297066504Y-80019737D01*
X297221154Y-80050499D01*
X297221157Y-80050500D01*
X297221159Y-80050500D01*
X297378845Y-80050500D01*
X297378846Y-80050499D01*
X297533498Y-80019737D01*
X297679180Y-79959394D01*
X297810290Y-79871789D01*
X297921790Y-79760289D01*
X298009395Y-79629179D01*
X298069738Y-79483497D01*
X298100501Y-79328842D01*
X298100501Y-79171158D01*
X298100501Y-79171155D01*
X298100500Y-79171153D01*
X298069739Y-79016510D01*
X298069738Y-79016503D01*
X298069736Y-79016498D01*
X298009398Y-78870827D01*
X298009391Y-78870814D01*
X297921790Y-78739711D01*
X297921787Y-78739707D01*
X297810293Y-78628213D01*
X297810289Y-78628210D01*
X297679186Y-78540609D01*
X297679173Y-78540602D01*
X297533502Y-78480264D01*
X297533490Y-78480261D01*
X297378846Y-78449500D01*
X297378843Y-78449500D01*
X297221159Y-78449500D01*
X297221156Y-78449500D01*
X297066511Y-78480261D01*
X297066499Y-78480264D01*
X296920828Y-78540602D01*
X296920815Y-78540609D01*
X296789712Y-78628210D01*
X296789708Y-78628213D01*
X296678214Y-78739707D01*
X296678211Y-78739711D01*
X296590610Y-78870814D01*
X296590603Y-78870827D01*
X296530265Y-79016498D01*
X296530262Y-79016510D01*
X296499501Y-79171153D01*
X282350210Y-79171153D01*
X282470814Y-79078610D01*
X282470819Y-79078605D01*
X282472040Y-79077385D01*
X282651606Y-78897818D01*
X282651611Y-78897813D01*
X282807262Y-78694965D01*
X282935105Y-78473535D01*
X283032951Y-78237313D01*
X283099127Y-77990340D01*
X283132501Y-77736843D01*
X283132501Y-77481157D01*
X283132500Y-77481149D01*
X302231501Y-77481149D01*
X302231501Y-77736850D01*
X302257458Y-77934007D01*
X302264875Y-77990340D01*
X302331051Y-78237312D01*
X302331054Y-78237322D01*
X302428895Y-78473531D01*
X302428900Y-78473542D01*
X302556735Y-78694957D01*
X302556746Y-78694973D01*
X302712389Y-78897811D01*
X302712395Y-78897818D01*
X302893182Y-79078605D01*
X302893188Y-79078610D01*
X303096036Y-79234261D01*
X303096043Y-79234265D01*
X303317458Y-79362100D01*
X303317463Y-79362102D01*
X303317466Y-79362104D01*
X303553688Y-79459950D01*
X303800661Y-79526126D01*
X304054158Y-79559500D01*
X304054165Y-79559500D01*
X304309837Y-79559500D01*
X304309844Y-79559500D01*
X304563341Y-79526126D01*
X304810314Y-79459950D01*
X305046536Y-79362104D01*
X305267966Y-79234261D01*
X305350210Y-79171153D01*
X319374501Y-79171153D01*
X319374501Y-79328846D01*
X319405262Y-79483489D01*
X319405265Y-79483501D01*
X319465603Y-79629172D01*
X319465610Y-79629185D01*
X319553211Y-79760288D01*
X319553214Y-79760292D01*
X319664708Y-79871786D01*
X319664712Y-79871789D01*
X319795815Y-79959390D01*
X319795828Y-79959397D01*
X319941499Y-80019735D01*
X319941504Y-80019737D01*
X320096154Y-80050499D01*
X320096157Y-80050500D01*
X320096159Y-80050500D01*
X320253845Y-80050500D01*
X320253846Y-80050499D01*
X320408498Y-80019737D01*
X320554180Y-79959394D01*
X320685290Y-79871789D01*
X320796790Y-79760289D01*
X320884395Y-79629179D01*
X320944738Y-79483497D01*
X320975501Y-79328842D01*
X320975501Y-79171158D01*
X320975501Y-79171155D01*
X320975500Y-79171153D01*
X320944739Y-79016510D01*
X320944738Y-79016503D01*
X320944736Y-79016498D01*
X320884398Y-78870827D01*
X320884391Y-78870814D01*
X320796790Y-78739711D01*
X320796787Y-78739707D01*
X320685293Y-78628213D01*
X320685289Y-78628210D01*
X320554186Y-78540609D01*
X320554173Y-78540602D01*
X320408502Y-78480264D01*
X320408490Y-78480261D01*
X320253846Y-78449500D01*
X320253843Y-78449500D01*
X320096159Y-78449500D01*
X320096156Y-78449500D01*
X319941511Y-78480261D01*
X319941499Y-78480264D01*
X319795828Y-78540602D01*
X319795815Y-78540609D01*
X319664712Y-78628210D01*
X319664708Y-78628213D01*
X319553214Y-78739707D01*
X319553211Y-78739711D01*
X319465610Y-78870814D01*
X319465603Y-78870827D01*
X319405265Y-79016498D01*
X319405262Y-79016510D01*
X319374501Y-79171153D01*
X305350210Y-79171153D01*
X305470814Y-79078610D01*
X305470819Y-79078605D01*
X305472040Y-79077385D01*
X305651606Y-78897818D01*
X305651611Y-78897813D01*
X305807262Y-78694965D01*
X305935105Y-78473535D01*
X306032951Y-78237313D01*
X306099127Y-77990340D01*
X306132501Y-77736843D01*
X306132501Y-77481157D01*
X306132500Y-77481149D01*
X325106501Y-77481149D01*
X325106501Y-77736850D01*
X325132458Y-77934007D01*
X325139875Y-77990340D01*
X325206051Y-78237312D01*
X325206054Y-78237322D01*
X325303895Y-78473531D01*
X325303900Y-78473542D01*
X325431735Y-78694957D01*
X325431746Y-78694973D01*
X325587389Y-78897811D01*
X325587395Y-78897818D01*
X325768182Y-79078605D01*
X325768188Y-79078610D01*
X325971036Y-79234261D01*
X325971043Y-79234265D01*
X326192458Y-79362100D01*
X326192463Y-79362102D01*
X326192466Y-79362104D01*
X326428688Y-79459950D01*
X326675661Y-79526126D01*
X326929158Y-79559500D01*
X326929165Y-79559500D01*
X327184837Y-79559500D01*
X327184844Y-79559500D01*
X327438341Y-79526126D01*
X327685314Y-79459950D01*
X327921536Y-79362104D01*
X328142966Y-79234261D01*
X328345814Y-79078610D01*
X328526611Y-78897813D01*
X328682262Y-78694965D01*
X328810105Y-78473535D01*
X328907951Y-78237313D01*
X328974127Y-77990340D01*
X329007501Y-77736843D01*
X329007501Y-77481157D01*
X328974127Y-77227660D01*
X328907951Y-76980687D01*
X328810105Y-76744465D01*
X328810103Y-76744462D01*
X328810101Y-76744457D01*
X328682266Y-76523042D01*
X328682262Y-76523035D01*
X328526611Y-76320187D01*
X328526606Y-76320181D01*
X328345819Y-76139394D01*
X328345812Y-76139388D01*
X328142974Y-75983745D01*
X328142972Y-75983743D01*
X328142966Y-75983739D01*
X328142961Y-75983736D01*
X328142958Y-75983734D01*
X327921543Y-75855899D01*
X327921532Y-75855894D01*
X327685323Y-75758053D01*
X327685316Y-75758051D01*
X327685314Y-75758050D01*
X327438341Y-75691874D01*
X327382008Y-75684457D01*
X327184851Y-75658500D01*
X327184844Y-75658500D01*
X326929158Y-75658500D01*
X326929150Y-75658500D01*
X326703827Y-75688165D01*
X326675661Y-75691874D01*
X326428688Y-75758050D01*
X326428678Y-75758053D01*
X326192469Y-75855894D01*
X326192458Y-75855899D01*
X325971043Y-75983734D01*
X325971027Y-75983745D01*
X325768189Y-76139388D01*
X325768182Y-76139394D01*
X325587395Y-76320181D01*
X325587389Y-76320188D01*
X325431746Y-76523026D01*
X325431735Y-76523042D01*
X325303900Y-76744457D01*
X325303895Y-76744468D01*
X325206054Y-76980677D01*
X325206051Y-76980687D01*
X325139875Y-77227661D01*
X325106501Y-77481149D01*
X306132500Y-77481149D01*
X306099127Y-77227660D01*
X306032951Y-76980687D01*
X305935105Y-76744465D01*
X305935103Y-76744462D01*
X305935101Y-76744457D01*
X305807266Y-76523042D01*
X305807262Y-76523035D01*
X305651611Y-76320187D01*
X305651606Y-76320181D01*
X305470819Y-76139394D01*
X305470812Y-76139388D01*
X305267974Y-75983745D01*
X305267972Y-75983743D01*
X305267966Y-75983739D01*
X305267961Y-75983736D01*
X305267958Y-75983734D01*
X305046543Y-75855899D01*
X305046532Y-75855894D01*
X304810323Y-75758053D01*
X304810316Y-75758051D01*
X304810314Y-75758050D01*
X304563341Y-75691874D01*
X304507008Y-75684457D01*
X304309851Y-75658500D01*
X304309844Y-75658500D01*
X304054158Y-75658500D01*
X304054150Y-75658500D01*
X303828827Y-75688165D01*
X303800661Y-75691874D01*
X303553688Y-75758050D01*
X303553678Y-75758053D01*
X303317469Y-75855894D01*
X303317458Y-75855899D01*
X303096043Y-75983734D01*
X303096027Y-75983745D01*
X302893189Y-76139388D01*
X302893182Y-76139394D01*
X302712395Y-76320181D01*
X302712389Y-76320188D01*
X302556746Y-76523026D01*
X302556735Y-76523042D01*
X302428900Y-76744457D01*
X302428895Y-76744468D01*
X302331054Y-76980677D01*
X302331051Y-76980687D01*
X302264875Y-77227661D01*
X302231501Y-77481149D01*
X283132500Y-77481149D01*
X283099127Y-77227660D01*
X283032951Y-76980687D01*
X282935105Y-76744465D01*
X282935103Y-76744462D01*
X282935101Y-76744457D01*
X282807266Y-76523042D01*
X282807262Y-76523035D01*
X282651611Y-76320187D01*
X282651606Y-76320181D01*
X282470819Y-76139394D01*
X282470812Y-76139388D01*
X282267974Y-75983745D01*
X282267972Y-75983743D01*
X282267966Y-75983739D01*
X282267961Y-75983736D01*
X282267958Y-75983734D01*
X282046543Y-75855899D01*
X282046532Y-75855894D01*
X281810323Y-75758053D01*
X281810316Y-75758051D01*
X281810314Y-75758050D01*
X281563341Y-75691874D01*
X281507008Y-75684457D01*
X281309851Y-75658500D01*
X281309844Y-75658500D01*
X281054158Y-75658500D01*
X281054150Y-75658500D01*
X280828827Y-75688165D01*
X280800661Y-75691874D01*
X280553688Y-75758050D01*
X280553678Y-75758053D01*
X280317469Y-75855894D01*
X280317458Y-75855899D01*
X280096043Y-75983734D01*
X280096027Y-75983745D01*
X279893189Y-76139388D01*
X279893182Y-76139394D01*
X279712395Y-76320181D01*
X279712389Y-76320188D01*
X279556746Y-76523026D01*
X279556735Y-76523042D01*
X279428900Y-76744457D01*
X279428895Y-76744468D01*
X279331054Y-76980677D01*
X279331051Y-76980687D01*
X279264875Y-77227661D01*
X279231501Y-77481149D01*
X260132500Y-77481149D01*
X260099127Y-77227660D01*
X260032951Y-76980687D01*
X259935105Y-76744465D01*
X259935103Y-76744462D01*
X259935101Y-76744457D01*
X259807266Y-76523042D01*
X259807262Y-76523035D01*
X259651611Y-76320187D01*
X259651606Y-76320181D01*
X259470819Y-76139394D01*
X259470812Y-76139388D01*
X259267974Y-75983745D01*
X259267972Y-75983743D01*
X259267966Y-75983739D01*
X259267961Y-75983736D01*
X259267958Y-75983734D01*
X259046543Y-75855899D01*
X259046532Y-75855894D01*
X258810323Y-75758053D01*
X258810316Y-75758051D01*
X258810314Y-75758050D01*
X258563341Y-75691874D01*
X258507008Y-75684457D01*
X258309851Y-75658500D01*
X258309844Y-75658500D01*
X258054158Y-75658500D01*
X258054150Y-75658500D01*
X257828827Y-75688165D01*
X257800661Y-75691874D01*
X257553688Y-75758050D01*
X257553678Y-75758053D01*
X257317469Y-75855894D01*
X257317458Y-75855899D01*
X257096043Y-75983734D01*
X257096027Y-75983745D01*
X256893189Y-76139388D01*
X256893182Y-76139394D01*
X256712395Y-76320181D01*
X256712389Y-76320188D01*
X256556746Y-76523026D01*
X256556735Y-76523042D01*
X256428900Y-76744457D01*
X256428895Y-76744468D01*
X256331054Y-76980677D01*
X256331051Y-76980687D01*
X256264875Y-77227661D01*
X256231501Y-77481149D01*
X237132500Y-77481149D01*
X237099127Y-77227660D01*
X237032951Y-76980687D01*
X236935105Y-76744465D01*
X236935103Y-76744462D01*
X236935101Y-76744457D01*
X236807266Y-76523042D01*
X236807262Y-76523035D01*
X236651611Y-76320187D01*
X236651606Y-76320181D01*
X236470819Y-76139394D01*
X236470812Y-76139388D01*
X236267974Y-75983745D01*
X236267972Y-75983743D01*
X236267966Y-75983739D01*
X236267961Y-75983736D01*
X236267958Y-75983734D01*
X236046543Y-75855899D01*
X236046532Y-75855894D01*
X235810323Y-75758053D01*
X235810316Y-75758051D01*
X235810314Y-75758050D01*
X235563341Y-75691874D01*
X235507008Y-75684457D01*
X235309851Y-75658500D01*
X235309844Y-75658500D01*
X235054158Y-75658500D01*
X235054150Y-75658500D01*
X234828827Y-75688165D01*
X234800661Y-75691874D01*
X234553688Y-75758050D01*
X234553678Y-75758053D01*
X234317469Y-75855894D01*
X234317458Y-75855899D01*
X234096043Y-75983734D01*
X234096027Y-75983745D01*
X233893189Y-76139388D01*
X233893182Y-76139394D01*
X233712395Y-76320181D01*
X233712389Y-76320188D01*
X233556746Y-76523026D01*
X233556735Y-76523042D01*
X233428900Y-76744457D01*
X233428895Y-76744468D01*
X233331054Y-76980677D01*
X233331051Y-76980687D01*
X233264875Y-77227661D01*
X233231501Y-77481149D01*
X214132500Y-77481149D01*
X214099127Y-77227660D01*
X214032951Y-76980687D01*
X213935105Y-76744465D01*
X213935103Y-76744462D01*
X213935101Y-76744457D01*
X213807266Y-76523042D01*
X213807262Y-76523035D01*
X213651611Y-76320187D01*
X213651606Y-76320181D01*
X213470819Y-76139394D01*
X213470812Y-76139388D01*
X213267974Y-75983745D01*
X213267972Y-75983743D01*
X213267966Y-75983739D01*
X213267961Y-75983736D01*
X213267958Y-75983734D01*
X213046543Y-75855899D01*
X213046532Y-75855894D01*
X212810323Y-75758053D01*
X212810316Y-75758051D01*
X212810314Y-75758050D01*
X212563341Y-75691874D01*
X212507008Y-75684457D01*
X212309851Y-75658500D01*
X212309844Y-75658500D01*
X212054158Y-75658500D01*
X212054150Y-75658500D01*
X211828827Y-75688165D01*
X211800661Y-75691874D01*
X211553688Y-75758050D01*
X211553678Y-75758053D01*
X211317469Y-75855894D01*
X211317458Y-75855899D01*
X211096043Y-75983734D01*
X211096027Y-75983745D01*
X210893189Y-76139388D01*
X210893182Y-76139394D01*
X210712395Y-76320181D01*
X210712389Y-76320188D01*
X210556746Y-76523026D01*
X210556735Y-76523042D01*
X210428900Y-76744457D01*
X210428895Y-76744468D01*
X210331054Y-76980677D01*
X210331051Y-76980687D01*
X210264875Y-77227661D01*
X210231501Y-77481149D01*
X191132500Y-77481149D01*
X191099127Y-77227660D01*
X191032951Y-76980687D01*
X190935105Y-76744465D01*
X190935103Y-76744462D01*
X190935101Y-76744457D01*
X190807266Y-76523042D01*
X190807262Y-76523035D01*
X190651611Y-76320187D01*
X190651606Y-76320181D01*
X190470819Y-76139394D01*
X190470812Y-76139388D01*
X190267974Y-75983745D01*
X190267972Y-75983743D01*
X190267966Y-75983739D01*
X190267961Y-75983736D01*
X190267958Y-75983734D01*
X190046543Y-75855899D01*
X190046532Y-75855894D01*
X189810323Y-75758053D01*
X189810316Y-75758051D01*
X189810314Y-75758050D01*
X189563341Y-75691874D01*
X189507008Y-75684457D01*
X189309851Y-75658500D01*
X189309844Y-75658500D01*
X189054158Y-75658500D01*
X189054150Y-75658500D01*
X188828827Y-75688165D01*
X188800661Y-75691874D01*
X188553688Y-75758050D01*
X188553678Y-75758053D01*
X188317469Y-75855894D01*
X188317458Y-75855899D01*
X188096043Y-75983734D01*
X188096027Y-75983745D01*
X187893189Y-76139388D01*
X187893182Y-76139394D01*
X187712395Y-76320181D01*
X187712389Y-76320188D01*
X187556746Y-76523026D01*
X187556735Y-76523042D01*
X187428900Y-76744457D01*
X187428895Y-76744468D01*
X187331054Y-76980677D01*
X187331051Y-76980687D01*
X187264875Y-77227661D01*
X187231501Y-77481149D01*
X168132500Y-77481149D01*
X168099127Y-77227660D01*
X168032951Y-76980687D01*
X167935105Y-76744465D01*
X167935103Y-76744462D01*
X167935101Y-76744457D01*
X167807266Y-76523042D01*
X167807262Y-76523035D01*
X167651611Y-76320187D01*
X167651606Y-76320181D01*
X167470819Y-76139394D01*
X167470812Y-76139388D01*
X167267974Y-75983745D01*
X167267972Y-75983743D01*
X167267966Y-75983739D01*
X167267961Y-75983736D01*
X167267958Y-75983734D01*
X167046543Y-75855899D01*
X167046532Y-75855894D01*
X166810323Y-75758053D01*
X166810316Y-75758051D01*
X166810314Y-75758050D01*
X166563341Y-75691874D01*
X166507008Y-75684457D01*
X166309851Y-75658500D01*
X166309844Y-75658500D01*
X166054158Y-75658500D01*
X166054150Y-75658500D01*
X165828827Y-75688165D01*
X165800661Y-75691874D01*
X165553688Y-75758050D01*
X165553678Y-75758053D01*
X165317469Y-75855894D01*
X165317458Y-75855899D01*
X165096043Y-75983734D01*
X165096027Y-75983745D01*
X164893189Y-76139388D01*
X164893182Y-76139394D01*
X164712395Y-76320181D01*
X164712389Y-76320188D01*
X164556746Y-76523026D01*
X164556735Y-76523042D01*
X164428900Y-76744457D01*
X164428895Y-76744468D01*
X164331054Y-76980677D01*
X164331051Y-76980687D01*
X164264875Y-77227661D01*
X164231501Y-77481149D01*
X145132500Y-77481149D01*
X145099127Y-77227660D01*
X145032951Y-76980687D01*
X144935105Y-76744465D01*
X144935103Y-76744462D01*
X144935101Y-76744457D01*
X144807266Y-76523042D01*
X144807262Y-76523035D01*
X144651611Y-76320187D01*
X144651606Y-76320181D01*
X144470819Y-76139394D01*
X144470812Y-76139388D01*
X144267974Y-75983745D01*
X144267972Y-75983743D01*
X144267966Y-75983739D01*
X144267961Y-75983736D01*
X144267958Y-75983734D01*
X144046543Y-75855899D01*
X144046532Y-75855894D01*
X143810323Y-75758053D01*
X143810316Y-75758051D01*
X143810314Y-75758050D01*
X143563341Y-75691874D01*
X143507008Y-75684457D01*
X143309851Y-75658500D01*
X143309844Y-75658500D01*
X143054158Y-75658500D01*
X143054150Y-75658500D01*
X142828827Y-75688165D01*
X142800661Y-75691874D01*
X142553688Y-75758050D01*
X142553678Y-75758053D01*
X142317469Y-75855894D01*
X142317458Y-75855899D01*
X142096043Y-75983734D01*
X142096027Y-75983745D01*
X141893189Y-76139388D01*
X141893182Y-76139394D01*
X141712395Y-76320181D01*
X141712389Y-76320188D01*
X141556746Y-76523026D01*
X141556735Y-76523042D01*
X141428900Y-76744457D01*
X141428895Y-76744468D01*
X141331054Y-76980677D01*
X141331051Y-76980687D01*
X141264875Y-77227661D01*
X141231501Y-77481149D01*
X122132499Y-77481149D01*
X122099126Y-77227660D01*
X122032950Y-76980687D01*
X121935104Y-76744465D01*
X121935102Y-76744462D01*
X121935100Y-76744457D01*
X121807265Y-76523042D01*
X121807261Y-76523035D01*
X121651610Y-76320187D01*
X121651605Y-76320181D01*
X121470818Y-76139394D01*
X121470811Y-76139388D01*
X121267973Y-75983745D01*
X121267971Y-75983743D01*
X121267965Y-75983739D01*
X121267960Y-75983736D01*
X121267957Y-75983734D01*
X121046542Y-75855899D01*
X121046531Y-75855894D01*
X120810322Y-75758053D01*
X120810315Y-75758051D01*
X120810313Y-75758050D01*
X120563340Y-75691874D01*
X120507007Y-75684457D01*
X120309850Y-75658500D01*
X120309843Y-75658500D01*
X120054157Y-75658500D01*
X120054149Y-75658500D01*
X119828826Y-75688165D01*
X119800660Y-75691874D01*
X119553687Y-75758050D01*
X119553677Y-75758053D01*
X119317468Y-75855894D01*
X119317457Y-75855899D01*
X119096042Y-75983734D01*
X119096026Y-75983745D01*
X118893188Y-76139388D01*
X118893181Y-76139394D01*
X118712394Y-76320181D01*
X118712388Y-76320188D01*
X118556745Y-76523026D01*
X118556734Y-76523042D01*
X118428899Y-76744457D01*
X118428894Y-76744468D01*
X118331053Y-76980677D01*
X118331050Y-76980687D01*
X118264874Y-77227661D01*
X118231500Y-77481149D01*
X109300000Y-77481149D01*
X109300000Y-74177473D01*
X112662875Y-74177473D01*
X112662875Y-74421526D01*
X112701053Y-74662572D01*
X112776472Y-74894687D01*
X112887271Y-75112142D01*
X113030714Y-75309576D01*
X113030718Y-75309581D01*
X113203293Y-75482156D01*
X113203298Y-75482160D01*
X113375511Y-75607279D01*
X113400736Y-75625606D01*
X113618190Y-75736404D01*
X113850299Y-75811821D01*
X114091348Y-75850000D01*
X114091349Y-75850000D01*
X114335401Y-75850000D01*
X114335402Y-75850000D01*
X114576451Y-75811821D01*
X114808560Y-75736404D01*
X115026014Y-75625606D01*
X115223458Y-75482155D01*
X115396030Y-75309583D01*
X115539481Y-75112139D01*
X115650279Y-74894685D01*
X115725696Y-74662576D01*
X115763875Y-74421527D01*
X115763875Y-74177473D01*
X123662875Y-74177473D01*
X123662875Y-74421526D01*
X123701053Y-74662572D01*
X123776472Y-74894687D01*
X123887271Y-75112142D01*
X124030714Y-75309576D01*
X124030718Y-75309581D01*
X124203293Y-75482156D01*
X124203298Y-75482160D01*
X124375511Y-75607279D01*
X124400736Y-75625606D01*
X124618190Y-75736404D01*
X124850299Y-75811821D01*
X125091348Y-75850000D01*
X125091349Y-75850000D01*
X125335401Y-75850000D01*
X125335402Y-75850000D01*
X125576451Y-75811821D01*
X125808560Y-75736404D01*
X126026014Y-75625606D01*
X126223458Y-75482155D01*
X126396030Y-75309583D01*
X126539481Y-75112139D01*
X126650279Y-74894685D01*
X126725696Y-74662576D01*
X126763875Y-74421527D01*
X126763875Y-74177473D01*
X135662876Y-74177473D01*
X135662876Y-74421526D01*
X135701054Y-74662572D01*
X135776473Y-74894687D01*
X135887272Y-75112142D01*
X136030715Y-75309576D01*
X136030719Y-75309581D01*
X136203294Y-75482156D01*
X136203299Y-75482160D01*
X136375512Y-75607279D01*
X136400737Y-75625606D01*
X136618191Y-75736404D01*
X136850300Y-75811821D01*
X137091349Y-75850000D01*
X137091350Y-75850000D01*
X137335402Y-75850000D01*
X137335403Y-75850000D01*
X137576452Y-75811821D01*
X137808561Y-75736404D01*
X138026015Y-75625606D01*
X138223459Y-75482155D01*
X138396031Y-75309583D01*
X138539482Y-75112139D01*
X138650280Y-74894685D01*
X138725697Y-74662576D01*
X138763876Y-74421527D01*
X138763876Y-74177473D01*
X146662876Y-74177473D01*
X146662876Y-74421526D01*
X146701054Y-74662572D01*
X146776473Y-74894687D01*
X146887272Y-75112142D01*
X147030715Y-75309576D01*
X147030719Y-75309581D01*
X147203294Y-75482156D01*
X147203299Y-75482160D01*
X147375512Y-75607279D01*
X147400737Y-75625606D01*
X147618191Y-75736404D01*
X147850300Y-75811821D01*
X148091349Y-75850000D01*
X148091350Y-75850000D01*
X148335402Y-75850000D01*
X148335403Y-75850000D01*
X148576452Y-75811821D01*
X148808561Y-75736404D01*
X149026015Y-75625606D01*
X149223459Y-75482155D01*
X149396031Y-75309583D01*
X149539482Y-75112139D01*
X149650280Y-74894685D01*
X149725697Y-74662576D01*
X149763876Y-74421527D01*
X149763876Y-74177473D01*
X158662876Y-74177473D01*
X158662876Y-74421526D01*
X158701054Y-74662572D01*
X158776473Y-74894687D01*
X158887272Y-75112142D01*
X159030715Y-75309576D01*
X159030719Y-75309581D01*
X159203294Y-75482156D01*
X159203299Y-75482160D01*
X159375512Y-75607279D01*
X159400737Y-75625606D01*
X159618191Y-75736404D01*
X159850300Y-75811821D01*
X160091349Y-75850000D01*
X160091350Y-75850000D01*
X160335402Y-75850000D01*
X160335403Y-75850000D01*
X160576452Y-75811821D01*
X160808561Y-75736404D01*
X161026015Y-75625606D01*
X161223459Y-75482155D01*
X161396031Y-75309583D01*
X161539482Y-75112139D01*
X161650280Y-74894685D01*
X161725697Y-74662576D01*
X161763876Y-74421527D01*
X161763876Y-74177473D01*
X169662876Y-74177473D01*
X169662876Y-74421526D01*
X169701054Y-74662572D01*
X169776473Y-74894687D01*
X169887272Y-75112142D01*
X170030715Y-75309576D01*
X170030719Y-75309581D01*
X170203294Y-75482156D01*
X170203299Y-75482160D01*
X170375512Y-75607279D01*
X170400737Y-75625606D01*
X170618191Y-75736404D01*
X170850300Y-75811821D01*
X171091349Y-75850000D01*
X171091350Y-75850000D01*
X171335402Y-75850000D01*
X171335403Y-75850000D01*
X171576452Y-75811821D01*
X171808561Y-75736404D01*
X172026015Y-75625606D01*
X172223459Y-75482155D01*
X172396031Y-75309583D01*
X172539482Y-75112139D01*
X172650280Y-74894685D01*
X172725697Y-74662576D01*
X172763876Y-74421527D01*
X172763876Y-74177473D01*
X181662876Y-74177473D01*
X181662876Y-74421526D01*
X181701054Y-74662572D01*
X181776473Y-74894687D01*
X181887272Y-75112142D01*
X182030715Y-75309576D01*
X182030719Y-75309581D01*
X182203294Y-75482156D01*
X182203299Y-75482160D01*
X182375512Y-75607279D01*
X182400737Y-75625606D01*
X182618191Y-75736404D01*
X182850300Y-75811821D01*
X183091349Y-75850000D01*
X183091350Y-75850000D01*
X183335402Y-75850000D01*
X183335403Y-75850000D01*
X183576452Y-75811821D01*
X183808561Y-75736404D01*
X184026015Y-75625606D01*
X184223459Y-75482155D01*
X184396031Y-75309583D01*
X184539482Y-75112139D01*
X184650280Y-74894685D01*
X184725697Y-74662576D01*
X184763876Y-74421527D01*
X184763876Y-74177473D01*
X192662876Y-74177473D01*
X192662876Y-74421526D01*
X192701054Y-74662572D01*
X192776473Y-74894687D01*
X192887272Y-75112142D01*
X193030715Y-75309576D01*
X193030719Y-75309581D01*
X193203294Y-75482156D01*
X193203299Y-75482160D01*
X193375512Y-75607279D01*
X193400737Y-75625606D01*
X193618191Y-75736404D01*
X193850300Y-75811821D01*
X194091349Y-75850000D01*
X194091350Y-75850000D01*
X194335402Y-75850000D01*
X194335403Y-75850000D01*
X194576452Y-75811821D01*
X194808561Y-75736404D01*
X195026015Y-75625606D01*
X195223459Y-75482155D01*
X195396031Y-75309583D01*
X195539482Y-75112139D01*
X195650280Y-74894685D01*
X195725697Y-74662576D01*
X195763876Y-74421527D01*
X195763876Y-74177473D01*
X204662876Y-74177473D01*
X204662876Y-74421526D01*
X204701054Y-74662572D01*
X204776473Y-74894687D01*
X204887272Y-75112142D01*
X205030715Y-75309576D01*
X205030719Y-75309581D01*
X205203294Y-75482156D01*
X205203299Y-75482160D01*
X205375512Y-75607279D01*
X205400737Y-75625606D01*
X205618191Y-75736404D01*
X205850300Y-75811821D01*
X206091349Y-75850000D01*
X206091350Y-75850000D01*
X206335402Y-75850000D01*
X206335403Y-75850000D01*
X206576452Y-75811821D01*
X206808561Y-75736404D01*
X207026015Y-75625606D01*
X207223459Y-75482155D01*
X207396031Y-75309583D01*
X207539482Y-75112139D01*
X207650280Y-74894685D01*
X207725697Y-74662576D01*
X207763876Y-74421527D01*
X207763876Y-74177473D01*
X215662876Y-74177473D01*
X215662876Y-74421526D01*
X215701054Y-74662572D01*
X215776473Y-74894687D01*
X215887272Y-75112142D01*
X216030715Y-75309576D01*
X216030719Y-75309581D01*
X216203294Y-75482156D01*
X216203299Y-75482160D01*
X216375512Y-75607279D01*
X216400737Y-75625606D01*
X216618191Y-75736404D01*
X216850300Y-75811821D01*
X217091349Y-75850000D01*
X217091350Y-75850000D01*
X217335402Y-75850000D01*
X217335403Y-75850000D01*
X217576452Y-75811821D01*
X217808561Y-75736404D01*
X218026015Y-75625606D01*
X218223459Y-75482155D01*
X218396031Y-75309583D01*
X218539482Y-75112139D01*
X218650280Y-74894685D01*
X218725697Y-74662576D01*
X218763876Y-74421527D01*
X218763876Y-74177473D01*
X227662876Y-74177473D01*
X227662876Y-74421526D01*
X227701054Y-74662572D01*
X227776473Y-74894687D01*
X227887272Y-75112142D01*
X228030715Y-75309576D01*
X228030719Y-75309581D01*
X228203294Y-75482156D01*
X228203299Y-75482160D01*
X228375512Y-75607279D01*
X228400737Y-75625606D01*
X228618191Y-75736404D01*
X228850300Y-75811821D01*
X229091349Y-75850000D01*
X229091350Y-75850000D01*
X229335402Y-75850000D01*
X229335403Y-75850000D01*
X229576452Y-75811821D01*
X229808561Y-75736404D01*
X230026015Y-75625606D01*
X230223459Y-75482155D01*
X230396031Y-75309583D01*
X230539482Y-75112139D01*
X230650280Y-74894685D01*
X230725697Y-74662576D01*
X230763876Y-74421527D01*
X230763876Y-74177473D01*
X238662876Y-74177473D01*
X238662876Y-74421526D01*
X238701054Y-74662572D01*
X238776473Y-74894687D01*
X238887272Y-75112142D01*
X239030715Y-75309576D01*
X239030719Y-75309581D01*
X239203294Y-75482156D01*
X239203299Y-75482160D01*
X239375512Y-75607279D01*
X239400737Y-75625606D01*
X239618191Y-75736404D01*
X239850300Y-75811821D01*
X240091349Y-75850000D01*
X240091350Y-75850000D01*
X240335402Y-75850000D01*
X240335403Y-75850000D01*
X240576452Y-75811821D01*
X240808561Y-75736404D01*
X241026015Y-75625606D01*
X241223459Y-75482155D01*
X241396031Y-75309583D01*
X241539482Y-75112139D01*
X241650280Y-74894685D01*
X241725697Y-74662576D01*
X241763876Y-74421527D01*
X241763876Y-74177473D01*
X250662876Y-74177473D01*
X250662876Y-74421526D01*
X250701054Y-74662572D01*
X250776473Y-74894687D01*
X250887272Y-75112142D01*
X251030715Y-75309576D01*
X251030719Y-75309581D01*
X251203294Y-75482156D01*
X251203299Y-75482160D01*
X251375512Y-75607279D01*
X251400737Y-75625606D01*
X251618191Y-75736404D01*
X251850300Y-75811821D01*
X252091349Y-75850000D01*
X252091350Y-75850000D01*
X252335402Y-75850000D01*
X252335403Y-75850000D01*
X252576452Y-75811821D01*
X252808561Y-75736404D01*
X253026015Y-75625606D01*
X253223459Y-75482155D01*
X253396031Y-75309583D01*
X253539482Y-75112139D01*
X253650280Y-74894685D01*
X253725697Y-74662576D01*
X253763876Y-74421527D01*
X253763876Y-74177473D01*
X261662876Y-74177473D01*
X261662876Y-74421526D01*
X261701054Y-74662572D01*
X261776473Y-74894687D01*
X261887272Y-75112142D01*
X262030715Y-75309576D01*
X262030719Y-75309581D01*
X262203294Y-75482156D01*
X262203299Y-75482160D01*
X262375512Y-75607279D01*
X262400737Y-75625606D01*
X262618191Y-75736404D01*
X262850300Y-75811821D01*
X263091349Y-75850000D01*
X263091350Y-75850000D01*
X263335402Y-75850000D01*
X263335403Y-75850000D01*
X263576452Y-75811821D01*
X263808561Y-75736404D01*
X264026015Y-75625606D01*
X264223459Y-75482155D01*
X264396031Y-75309583D01*
X264539482Y-75112139D01*
X264650280Y-74894685D01*
X264725697Y-74662576D01*
X264763876Y-74421527D01*
X264763876Y-74177473D01*
X273662876Y-74177473D01*
X273662876Y-74421526D01*
X273701054Y-74662572D01*
X273776473Y-74894687D01*
X273887272Y-75112142D01*
X274030715Y-75309576D01*
X274030719Y-75309581D01*
X274203294Y-75482156D01*
X274203299Y-75482160D01*
X274375512Y-75607279D01*
X274400737Y-75625606D01*
X274618191Y-75736404D01*
X274850300Y-75811821D01*
X275091349Y-75850000D01*
X275091350Y-75850000D01*
X275335402Y-75850000D01*
X275335403Y-75850000D01*
X275576452Y-75811821D01*
X275808561Y-75736404D01*
X276026015Y-75625606D01*
X276223459Y-75482155D01*
X276396031Y-75309583D01*
X276539482Y-75112139D01*
X276650280Y-74894685D01*
X276725697Y-74662576D01*
X276763876Y-74421527D01*
X276763876Y-74177473D01*
X284662876Y-74177473D01*
X284662876Y-74421526D01*
X284701054Y-74662572D01*
X284776473Y-74894687D01*
X284887272Y-75112142D01*
X285030715Y-75309576D01*
X285030719Y-75309581D01*
X285203294Y-75482156D01*
X285203299Y-75482160D01*
X285375512Y-75607279D01*
X285400737Y-75625606D01*
X285618191Y-75736404D01*
X285850300Y-75811821D01*
X286091349Y-75850000D01*
X286091350Y-75850000D01*
X286335402Y-75850000D01*
X286335403Y-75850000D01*
X286576452Y-75811821D01*
X286808561Y-75736404D01*
X287026015Y-75625606D01*
X287223459Y-75482155D01*
X287396031Y-75309583D01*
X287539482Y-75112139D01*
X287650280Y-74894685D01*
X287725697Y-74662576D01*
X287763876Y-74421527D01*
X287763876Y-74177473D01*
X296662876Y-74177473D01*
X296662876Y-74421526D01*
X296701054Y-74662572D01*
X296776473Y-74894687D01*
X296887272Y-75112142D01*
X297030715Y-75309576D01*
X297030719Y-75309581D01*
X297203294Y-75482156D01*
X297203299Y-75482160D01*
X297375512Y-75607279D01*
X297400737Y-75625606D01*
X297618191Y-75736404D01*
X297850300Y-75811821D01*
X298091349Y-75850000D01*
X298091350Y-75850000D01*
X298335402Y-75850000D01*
X298335403Y-75850000D01*
X298576452Y-75811821D01*
X298808561Y-75736404D01*
X299026015Y-75625606D01*
X299223459Y-75482155D01*
X299396031Y-75309583D01*
X299539482Y-75112139D01*
X299650280Y-74894685D01*
X299725697Y-74662576D01*
X299763876Y-74421527D01*
X299763876Y-74177473D01*
X307662876Y-74177473D01*
X307662876Y-74421526D01*
X307701054Y-74662572D01*
X307776473Y-74894687D01*
X307887272Y-75112142D01*
X308030715Y-75309576D01*
X308030719Y-75309581D01*
X308203294Y-75482156D01*
X308203299Y-75482160D01*
X308375512Y-75607279D01*
X308400737Y-75625606D01*
X308618191Y-75736404D01*
X308850300Y-75811821D01*
X309091349Y-75850000D01*
X309091350Y-75850000D01*
X309335402Y-75850000D01*
X309335403Y-75850000D01*
X309576452Y-75811821D01*
X309808561Y-75736404D01*
X310026015Y-75625606D01*
X310223459Y-75482155D01*
X310396031Y-75309583D01*
X310539482Y-75112139D01*
X310650280Y-74894685D01*
X310725697Y-74662576D01*
X310763876Y-74421527D01*
X310763876Y-74177473D01*
X319537876Y-74177473D01*
X319537876Y-74421526D01*
X319576054Y-74662572D01*
X319651473Y-74894687D01*
X319762272Y-75112142D01*
X319905715Y-75309576D01*
X319905719Y-75309581D01*
X320078294Y-75482156D01*
X320078299Y-75482160D01*
X320250512Y-75607279D01*
X320275737Y-75625606D01*
X320493191Y-75736404D01*
X320725300Y-75811821D01*
X320966349Y-75850000D01*
X320966350Y-75850000D01*
X321210402Y-75850000D01*
X321210403Y-75850000D01*
X321451452Y-75811821D01*
X321683561Y-75736404D01*
X321901015Y-75625606D01*
X322098459Y-75482155D01*
X322271031Y-75309583D01*
X322414482Y-75112139D01*
X322525280Y-74894685D01*
X322600697Y-74662576D01*
X322638876Y-74421527D01*
X322638876Y-74177473D01*
X330537876Y-74177473D01*
X330537876Y-74421526D01*
X330576054Y-74662572D01*
X330651473Y-74894687D01*
X330762272Y-75112142D01*
X330905715Y-75309576D01*
X330905719Y-75309581D01*
X331078294Y-75482156D01*
X331078299Y-75482160D01*
X331250512Y-75607279D01*
X331275737Y-75625606D01*
X331493191Y-75736404D01*
X331725300Y-75811821D01*
X331966349Y-75850000D01*
X331966350Y-75850000D01*
X332210402Y-75850000D01*
X332210403Y-75850000D01*
X332451452Y-75811821D01*
X332683561Y-75736404D01*
X332901015Y-75625606D01*
X333098459Y-75482155D01*
X333271031Y-75309583D01*
X333414482Y-75112139D01*
X333525280Y-74894685D01*
X333600697Y-74662576D01*
X333638876Y-74421527D01*
X333638876Y-74177473D01*
X333600697Y-73936424D01*
X333525280Y-73704315D01*
X333414482Y-73486861D01*
X333396155Y-73461636D01*
X333271036Y-73289423D01*
X333271032Y-73289418D01*
X333098457Y-73116843D01*
X333098452Y-73116839D01*
X332901018Y-72973396D01*
X332901017Y-72973395D01*
X332901015Y-72973394D01*
X332683561Y-72862596D01*
X332451452Y-72787179D01*
X332451450Y-72787178D01*
X332451448Y-72787178D01*
X332283145Y-72760521D01*
X332210403Y-72749000D01*
X331966349Y-72749000D01*
X331910469Y-72757850D01*
X331725303Y-72787178D01*
X331493188Y-72862597D01*
X331275733Y-72973396D01*
X331078299Y-73116839D01*
X331078294Y-73116843D01*
X330905719Y-73289418D01*
X330905715Y-73289423D01*
X330762272Y-73486857D01*
X330651473Y-73704312D01*
X330576054Y-73936427D01*
X330537876Y-74177473D01*
X322638876Y-74177473D01*
X322600697Y-73936424D01*
X322525280Y-73704315D01*
X322414482Y-73486861D01*
X322396155Y-73461636D01*
X322271036Y-73289423D01*
X322271032Y-73289418D01*
X322098457Y-73116843D01*
X322098452Y-73116839D01*
X321901018Y-72973396D01*
X321901017Y-72973395D01*
X321901015Y-72973394D01*
X321683561Y-72862596D01*
X321451452Y-72787179D01*
X321451450Y-72787178D01*
X321451448Y-72787178D01*
X321283145Y-72760521D01*
X321210403Y-72749000D01*
X320966349Y-72749000D01*
X320910469Y-72757850D01*
X320725303Y-72787178D01*
X320493188Y-72862597D01*
X320275733Y-72973396D01*
X320078299Y-73116839D01*
X320078294Y-73116843D01*
X319905719Y-73289418D01*
X319905715Y-73289423D01*
X319762272Y-73486857D01*
X319651473Y-73704312D01*
X319576054Y-73936427D01*
X319537876Y-74177473D01*
X310763876Y-74177473D01*
X310725697Y-73936424D01*
X310650280Y-73704315D01*
X310539482Y-73486861D01*
X310521155Y-73461636D01*
X310396036Y-73289423D01*
X310396032Y-73289418D01*
X310223457Y-73116843D01*
X310223452Y-73116839D01*
X310026018Y-72973396D01*
X310026017Y-72973395D01*
X310026015Y-72973394D01*
X309808561Y-72862596D01*
X309576452Y-72787179D01*
X309576450Y-72787178D01*
X309576448Y-72787178D01*
X309408145Y-72760521D01*
X309335403Y-72749000D01*
X309091349Y-72749000D01*
X309035469Y-72757850D01*
X308850303Y-72787178D01*
X308618188Y-72862597D01*
X308400733Y-72973396D01*
X308203299Y-73116839D01*
X308203294Y-73116843D01*
X308030719Y-73289418D01*
X308030715Y-73289423D01*
X307887272Y-73486857D01*
X307776473Y-73704312D01*
X307701054Y-73936427D01*
X307662876Y-74177473D01*
X299763876Y-74177473D01*
X299725697Y-73936424D01*
X299650280Y-73704315D01*
X299539482Y-73486861D01*
X299521155Y-73461636D01*
X299396036Y-73289423D01*
X299396032Y-73289418D01*
X299223457Y-73116843D01*
X299223452Y-73116839D01*
X299026018Y-72973396D01*
X299026017Y-72973395D01*
X299026015Y-72973394D01*
X298808561Y-72862596D01*
X298576452Y-72787179D01*
X298576450Y-72787178D01*
X298576448Y-72787178D01*
X298408145Y-72760521D01*
X298335403Y-72749000D01*
X298091349Y-72749000D01*
X298035469Y-72757850D01*
X297850303Y-72787178D01*
X297618188Y-72862597D01*
X297400733Y-72973396D01*
X297203299Y-73116839D01*
X297203294Y-73116843D01*
X297030719Y-73289418D01*
X297030715Y-73289423D01*
X296887272Y-73486857D01*
X296776473Y-73704312D01*
X296701054Y-73936427D01*
X296662876Y-74177473D01*
X287763876Y-74177473D01*
X287725697Y-73936424D01*
X287650280Y-73704315D01*
X287539482Y-73486861D01*
X287521155Y-73461636D01*
X287396036Y-73289423D01*
X287396032Y-73289418D01*
X287223457Y-73116843D01*
X287223452Y-73116839D01*
X287026018Y-72973396D01*
X287026017Y-72973395D01*
X287026015Y-72973394D01*
X286808561Y-72862596D01*
X286576452Y-72787179D01*
X286576450Y-72787178D01*
X286576448Y-72787178D01*
X286408145Y-72760521D01*
X286335403Y-72749000D01*
X286091349Y-72749000D01*
X286035469Y-72757850D01*
X285850303Y-72787178D01*
X285618188Y-72862597D01*
X285400733Y-72973396D01*
X285203299Y-73116839D01*
X285203294Y-73116843D01*
X285030719Y-73289418D01*
X285030715Y-73289423D01*
X284887272Y-73486857D01*
X284776473Y-73704312D01*
X284701054Y-73936427D01*
X284662876Y-74177473D01*
X276763876Y-74177473D01*
X276725697Y-73936424D01*
X276650280Y-73704315D01*
X276539482Y-73486861D01*
X276521155Y-73461636D01*
X276396036Y-73289423D01*
X276396032Y-73289418D01*
X276223457Y-73116843D01*
X276223452Y-73116839D01*
X276026018Y-72973396D01*
X276026017Y-72973395D01*
X276026015Y-72973394D01*
X275808561Y-72862596D01*
X275576452Y-72787179D01*
X275576450Y-72787178D01*
X275576448Y-72787178D01*
X275408145Y-72760521D01*
X275335403Y-72749000D01*
X275091349Y-72749000D01*
X275035469Y-72757850D01*
X274850303Y-72787178D01*
X274618188Y-72862597D01*
X274400733Y-72973396D01*
X274203299Y-73116839D01*
X274203294Y-73116843D01*
X274030719Y-73289418D01*
X274030715Y-73289423D01*
X273887272Y-73486857D01*
X273776473Y-73704312D01*
X273701054Y-73936427D01*
X273662876Y-74177473D01*
X264763876Y-74177473D01*
X264725697Y-73936424D01*
X264650280Y-73704315D01*
X264539482Y-73486861D01*
X264521155Y-73461636D01*
X264396036Y-73289423D01*
X264396032Y-73289418D01*
X264223457Y-73116843D01*
X264223452Y-73116839D01*
X264026018Y-72973396D01*
X264026017Y-72973395D01*
X264026015Y-72973394D01*
X263808561Y-72862596D01*
X263576452Y-72787179D01*
X263576450Y-72787178D01*
X263576448Y-72787178D01*
X263408145Y-72760521D01*
X263335403Y-72749000D01*
X263091349Y-72749000D01*
X263035469Y-72757850D01*
X262850303Y-72787178D01*
X262618188Y-72862597D01*
X262400733Y-72973396D01*
X262203299Y-73116839D01*
X262203294Y-73116843D01*
X262030719Y-73289418D01*
X262030715Y-73289423D01*
X261887272Y-73486857D01*
X261776473Y-73704312D01*
X261701054Y-73936427D01*
X261662876Y-74177473D01*
X253763876Y-74177473D01*
X253725697Y-73936424D01*
X253650280Y-73704315D01*
X253539482Y-73486861D01*
X253521155Y-73461636D01*
X253396036Y-73289423D01*
X253396032Y-73289418D01*
X253223457Y-73116843D01*
X253223452Y-73116839D01*
X253026018Y-72973396D01*
X253026017Y-72973395D01*
X253026015Y-72973394D01*
X252808561Y-72862596D01*
X252576452Y-72787179D01*
X252576450Y-72787178D01*
X252576448Y-72787178D01*
X252408145Y-72760521D01*
X252335403Y-72749000D01*
X252091349Y-72749000D01*
X252035469Y-72757850D01*
X251850303Y-72787178D01*
X251618188Y-72862597D01*
X251400733Y-72973396D01*
X251203299Y-73116839D01*
X251203294Y-73116843D01*
X251030719Y-73289418D01*
X251030715Y-73289423D01*
X250887272Y-73486857D01*
X250776473Y-73704312D01*
X250701054Y-73936427D01*
X250662876Y-74177473D01*
X241763876Y-74177473D01*
X241725697Y-73936424D01*
X241650280Y-73704315D01*
X241539482Y-73486861D01*
X241521155Y-73461636D01*
X241396036Y-73289423D01*
X241396032Y-73289418D01*
X241223457Y-73116843D01*
X241223452Y-73116839D01*
X241026018Y-72973396D01*
X241026017Y-72973395D01*
X241026015Y-72973394D01*
X240808561Y-72862596D01*
X240576452Y-72787179D01*
X240576450Y-72787178D01*
X240576448Y-72787178D01*
X240408145Y-72760521D01*
X240335403Y-72749000D01*
X240091349Y-72749000D01*
X240035469Y-72757850D01*
X239850303Y-72787178D01*
X239618188Y-72862597D01*
X239400733Y-72973396D01*
X239203299Y-73116839D01*
X239203294Y-73116843D01*
X239030719Y-73289418D01*
X239030715Y-73289423D01*
X238887272Y-73486857D01*
X238776473Y-73704312D01*
X238701054Y-73936427D01*
X238662876Y-74177473D01*
X230763876Y-74177473D01*
X230725697Y-73936424D01*
X230650280Y-73704315D01*
X230539482Y-73486861D01*
X230521155Y-73461636D01*
X230396036Y-73289423D01*
X230396032Y-73289418D01*
X230223457Y-73116843D01*
X230223452Y-73116839D01*
X230026018Y-72973396D01*
X230026017Y-72973395D01*
X230026015Y-72973394D01*
X229808561Y-72862596D01*
X229576452Y-72787179D01*
X229576450Y-72787178D01*
X229576448Y-72787178D01*
X229408145Y-72760521D01*
X229335403Y-72749000D01*
X229091349Y-72749000D01*
X229035469Y-72757850D01*
X228850303Y-72787178D01*
X228618188Y-72862597D01*
X228400733Y-72973396D01*
X228203299Y-73116839D01*
X228203294Y-73116843D01*
X228030719Y-73289418D01*
X228030715Y-73289423D01*
X227887272Y-73486857D01*
X227776473Y-73704312D01*
X227701054Y-73936427D01*
X227662876Y-74177473D01*
X218763876Y-74177473D01*
X218725697Y-73936424D01*
X218650280Y-73704315D01*
X218539482Y-73486861D01*
X218521155Y-73461636D01*
X218396036Y-73289423D01*
X218396032Y-73289418D01*
X218223457Y-73116843D01*
X218223452Y-73116839D01*
X218026018Y-72973396D01*
X218026017Y-72973395D01*
X218026015Y-72973394D01*
X217808561Y-72862596D01*
X217576452Y-72787179D01*
X217576450Y-72787178D01*
X217576448Y-72787178D01*
X217408145Y-72760521D01*
X217335403Y-72749000D01*
X217091349Y-72749000D01*
X217035469Y-72757850D01*
X216850303Y-72787178D01*
X216618188Y-72862597D01*
X216400733Y-72973396D01*
X216203299Y-73116839D01*
X216203294Y-73116843D01*
X216030719Y-73289418D01*
X216030715Y-73289423D01*
X215887272Y-73486857D01*
X215776473Y-73704312D01*
X215701054Y-73936427D01*
X215662876Y-74177473D01*
X207763876Y-74177473D01*
X207725697Y-73936424D01*
X207650280Y-73704315D01*
X207539482Y-73486861D01*
X207521155Y-73461636D01*
X207396036Y-73289423D01*
X207396032Y-73289418D01*
X207223457Y-73116843D01*
X207223452Y-73116839D01*
X207026018Y-72973396D01*
X207026017Y-72973395D01*
X207026015Y-72973394D01*
X206808561Y-72862596D01*
X206576452Y-72787179D01*
X206576450Y-72787178D01*
X206576448Y-72787178D01*
X206408145Y-72760521D01*
X206335403Y-72749000D01*
X206091349Y-72749000D01*
X206035469Y-72757850D01*
X205850303Y-72787178D01*
X205618188Y-72862597D01*
X205400733Y-72973396D01*
X205203299Y-73116839D01*
X205203294Y-73116843D01*
X205030719Y-73289418D01*
X205030715Y-73289423D01*
X204887272Y-73486857D01*
X204776473Y-73704312D01*
X204701054Y-73936427D01*
X204662876Y-74177473D01*
X195763876Y-74177473D01*
X195725697Y-73936424D01*
X195650280Y-73704315D01*
X195539482Y-73486861D01*
X195521155Y-73461636D01*
X195396036Y-73289423D01*
X195396032Y-73289418D01*
X195223457Y-73116843D01*
X195223452Y-73116839D01*
X195026018Y-72973396D01*
X195026017Y-72973395D01*
X195026015Y-72973394D01*
X194808561Y-72862596D01*
X194576452Y-72787179D01*
X194576450Y-72787178D01*
X194576448Y-72787178D01*
X194408145Y-72760521D01*
X194335403Y-72749000D01*
X194091349Y-72749000D01*
X194035469Y-72757850D01*
X193850303Y-72787178D01*
X193618188Y-72862597D01*
X193400733Y-72973396D01*
X193203299Y-73116839D01*
X193203294Y-73116843D01*
X193030719Y-73289418D01*
X193030715Y-73289423D01*
X192887272Y-73486857D01*
X192776473Y-73704312D01*
X192701054Y-73936427D01*
X192662876Y-74177473D01*
X184763876Y-74177473D01*
X184725697Y-73936424D01*
X184650280Y-73704315D01*
X184539482Y-73486861D01*
X184521155Y-73461636D01*
X184396036Y-73289423D01*
X184396032Y-73289418D01*
X184223457Y-73116843D01*
X184223452Y-73116839D01*
X184026018Y-72973396D01*
X184026017Y-72973395D01*
X184026015Y-72973394D01*
X183808561Y-72862596D01*
X183576452Y-72787179D01*
X183576450Y-72787178D01*
X183576448Y-72787178D01*
X183408145Y-72760521D01*
X183335403Y-72749000D01*
X183091349Y-72749000D01*
X183035469Y-72757850D01*
X182850303Y-72787178D01*
X182618188Y-72862597D01*
X182400733Y-72973396D01*
X182203299Y-73116839D01*
X182203294Y-73116843D01*
X182030719Y-73289418D01*
X182030715Y-73289423D01*
X181887272Y-73486857D01*
X181776473Y-73704312D01*
X181701054Y-73936427D01*
X181662876Y-74177473D01*
X172763876Y-74177473D01*
X172725697Y-73936424D01*
X172650280Y-73704315D01*
X172539482Y-73486861D01*
X172521155Y-73461636D01*
X172396036Y-73289423D01*
X172396032Y-73289418D01*
X172223457Y-73116843D01*
X172223452Y-73116839D01*
X172026018Y-72973396D01*
X172026017Y-72973395D01*
X172026015Y-72973394D01*
X171808561Y-72862596D01*
X171576452Y-72787179D01*
X171576450Y-72787178D01*
X171576448Y-72787178D01*
X171408145Y-72760521D01*
X171335403Y-72749000D01*
X171091349Y-72749000D01*
X171035469Y-72757850D01*
X170850303Y-72787178D01*
X170618188Y-72862597D01*
X170400733Y-72973396D01*
X170203299Y-73116839D01*
X170203294Y-73116843D01*
X170030719Y-73289418D01*
X170030715Y-73289423D01*
X169887272Y-73486857D01*
X169776473Y-73704312D01*
X169701054Y-73936427D01*
X169662876Y-74177473D01*
X161763876Y-74177473D01*
X161725697Y-73936424D01*
X161650280Y-73704315D01*
X161539482Y-73486861D01*
X161521155Y-73461636D01*
X161396036Y-73289423D01*
X161396032Y-73289418D01*
X161223457Y-73116843D01*
X161223452Y-73116839D01*
X161026018Y-72973396D01*
X161026017Y-72973395D01*
X161026015Y-72973394D01*
X160808561Y-72862596D01*
X160576452Y-72787179D01*
X160576450Y-72787178D01*
X160576448Y-72787178D01*
X160408145Y-72760521D01*
X160335403Y-72749000D01*
X160091349Y-72749000D01*
X160035469Y-72757850D01*
X159850303Y-72787178D01*
X159618188Y-72862597D01*
X159400733Y-72973396D01*
X159203299Y-73116839D01*
X159203294Y-73116843D01*
X159030719Y-73289418D01*
X159030715Y-73289423D01*
X158887272Y-73486857D01*
X158776473Y-73704312D01*
X158701054Y-73936427D01*
X158662876Y-74177473D01*
X149763876Y-74177473D01*
X149725697Y-73936424D01*
X149650280Y-73704315D01*
X149539482Y-73486861D01*
X149521155Y-73461636D01*
X149396036Y-73289423D01*
X149396032Y-73289418D01*
X149223457Y-73116843D01*
X149223452Y-73116839D01*
X149026018Y-72973396D01*
X149026017Y-72973395D01*
X149026015Y-72973394D01*
X148808561Y-72862596D01*
X148576452Y-72787179D01*
X148576450Y-72787178D01*
X148576448Y-72787178D01*
X148408145Y-72760521D01*
X148335403Y-72749000D01*
X148091349Y-72749000D01*
X148035469Y-72757850D01*
X147850303Y-72787178D01*
X147618188Y-72862597D01*
X147400733Y-72973396D01*
X147203299Y-73116839D01*
X147203294Y-73116843D01*
X147030719Y-73289418D01*
X147030715Y-73289423D01*
X146887272Y-73486857D01*
X146776473Y-73704312D01*
X146701054Y-73936427D01*
X146662876Y-74177473D01*
X138763876Y-74177473D01*
X138725697Y-73936424D01*
X138650280Y-73704315D01*
X138539482Y-73486861D01*
X138521155Y-73461636D01*
X138396036Y-73289423D01*
X138396032Y-73289418D01*
X138223457Y-73116843D01*
X138223452Y-73116839D01*
X138026018Y-72973396D01*
X138026017Y-72973395D01*
X138026015Y-72973394D01*
X137808561Y-72862596D01*
X137576452Y-72787179D01*
X137576450Y-72787178D01*
X137576448Y-72787178D01*
X137408145Y-72760521D01*
X137335403Y-72749000D01*
X137091349Y-72749000D01*
X137035469Y-72757850D01*
X136850303Y-72787178D01*
X136618188Y-72862597D01*
X136400733Y-72973396D01*
X136203299Y-73116839D01*
X136203294Y-73116843D01*
X136030719Y-73289418D01*
X136030715Y-73289423D01*
X135887272Y-73486857D01*
X135776473Y-73704312D01*
X135701054Y-73936427D01*
X135662876Y-74177473D01*
X126763875Y-74177473D01*
X126725696Y-73936424D01*
X126650279Y-73704315D01*
X126539481Y-73486861D01*
X126521154Y-73461636D01*
X126396035Y-73289423D01*
X126396031Y-73289418D01*
X126223456Y-73116843D01*
X126223451Y-73116839D01*
X126026017Y-72973396D01*
X126026016Y-72973395D01*
X126026014Y-72973394D01*
X125808560Y-72862596D01*
X125576451Y-72787179D01*
X125576449Y-72787178D01*
X125576447Y-72787178D01*
X125408144Y-72760521D01*
X125335402Y-72749000D01*
X125091348Y-72749000D01*
X125035468Y-72757850D01*
X124850302Y-72787178D01*
X124618187Y-72862597D01*
X124400732Y-72973396D01*
X124203298Y-73116839D01*
X124203293Y-73116843D01*
X124030718Y-73289418D01*
X124030714Y-73289423D01*
X123887271Y-73486857D01*
X123776472Y-73704312D01*
X123701053Y-73936427D01*
X123662875Y-74177473D01*
X115763875Y-74177473D01*
X115725696Y-73936424D01*
X115650279Y-73704315D01*
X115539481Y-73486861D01*
X115521154Y-73461636D01*
X115396035Y-73289423D01*
X115396031Y-73289418D01*
X115223456Y-73116843D01*
X115223451Y-73116839D01*
X115026017Y-72973396D01*
X115026016Y-72973395D01*
X115026014Y-72973394D01*
X114808560Y-72862596D01*
X114576451Y-72787179D01*
X114576449Y-72787178D01*
X114576447Y-72787178D01*
X114408144Y-72760521D01*
X114335402Y-72749000D01*
X114091348Y-72749000D01*
X114035468Y-72757850D01*
X113850302Y-72787178D01*
X113618187Y-72862597D01*
X113400732Y-72973396D01*
X113203298Y-73116839D01*
X113203293Y-73116843D01*
X113030718Y-73289418D01*
X113030714Y-73289423D01*
X112887271Y-73486857D01*
X112776472Y-73704312D01*
X112701053Y-73936427D01*
X112662875Y-74177473D01*
X109300000Y-74177473D01*
X109300000Y-68121635D01*
X112662875Y-68121635D01*
X112662875Y-70317370D01*
X112662876Y-70317376D01*
X112669283Y-70376983D01*
X112719577Y-70511828D01*
X112719581Y-70511835D01*
X112805827Y-70627044D01*
X112805830Y-70627047D01*
X112921039Y-70713293D01*
X112921046Y-70713297D01*
X113055892Y-70763591D01*
X113055891Y-70763591D01*
X113062819Y-70764335D01*
X113115502Y-70770000D01*
X115311247Y-70769999D01*
X115370858Y-70763591D01*
X115505706Y-70713296D01*
X115620921Y-70627046D01*
X115707171Y-70511831D01*
X115757466Y-70376983D01*
X115763875Y-70317373D01*
X115763874Y-68121635D01*
X123662875Y-68121635D01*
X123662875Y-70317370D01*
X123662876Y-70317376D01*
X123669283Y-70376983D01*
X123719577Y-70511828D01*
X123719581Y-70511835D01*
X123805827Y-70627044D01*
X123805830Y-70627047D01*
X123921039Y-70713293D01*
X123921046Y-70713297D01*
X124055892Y-70763591D01*
X124055891Y-70763591D01*
X124062819Y-70764335D01*
X124115502Y-70770000D01*
X126311247Y-70769999D01*
X126370858Y-70763591D01*
X126505706Y-70713296D01*
X126620921Y-70627046D01*
X126707171Y-70511831D01*
X126757466Y-70376983D01*
X126763875Y-70317373D01*
X126763874Y-68121635D01*
X135662876Y-68121635D01*
X135662876Y-70317370D01*
X135662877Y-70317376D01*
X135669284Y-70376983D01*
X135719578Y-70511828D01*
X135719582Y-70511835D01*
X135805828Y-70627044D01*
X135805831Y-70627047D01*
X135921040Y-70713293D01*
X135921047Y-70713297D01*
X136055893Y-70763591D01*
X136055892Y-70763591D01*
X136062820Y-70764335D01*
X136115503Y-70770000D01*
X138311248Y-70769999D01*
X138370859Y-70763591D01*
X138505707Y-70713296D01*
X138620922Y-70627046D01*
X138707172Y-70511831D01*
X138757467Y-70376983D01*
X138763876Y-70317373D01*
X138763875Y-68121635D01*
X146662876Y-68121635D01*
X146662876Y-70317370D01*
X146662877Y-70317376D01*
X146669284Y-70376983D01*
X146719578Y-70511828D01*
X146719582Y-70511835D01*
X146805828Y-70627044D01*
X146805831Y-70627047D01*
X146921040Y-70713293D01*
X146921047Y-70713297D01*
X147055893Y-70763591D01*
X147055892Y-70763591D01*
X147062820Y-70764335D01*
X147115503Y-70770000D01*
X149311248Y-70769999D01*
X149370859Y-70763591D01*
X149505707Y-70713296D01*
X149620922Y-70627046D01*
X149707172Y-70511831D01*
X149757467Y-70376983D01*
X149763876Y-70317373D01*
X149763875Y-68121635D01*
X158662876Y-68121635D01*
X158662876Y-70317370D01*
X158662877Y-70317376D01*
X158669284Y-70376983D01*
X158719578Y-70511828D01*
X158719582Y-70511835D01*
X158805828Y-70627044D01*
X158805831Y-70627047D01*
X158921040Y-70713293D01*
X158921047Y-70713297D01*
X159055893Y-70763591D01*
X159055892Y-70763591D01*
X159062820Y-70764335D01*
X159115503Y-70770000D01*
X161311248Y-70769999D01*
X161370859Y-70763591D01*
X161505707Y-70713296D01*
X161620922Y-70627046D01*
X161707172Y-70511831D01*
X161757467Y-70376983D01*
X161763876Y-70317373D01*
X161763875Y-68121635D01*
X169662876Y-68121635D01*
X169662876Y-70317370D01*
X169662877Y-70317376D01*
X169669284Y-70376983D01*
X169719578Y-70511828D01*
X169719582Y-70511835D01*
X169805828Y-70627044D01*
X169805831Y-70627047D01*
X169921040Y-70713293D01*
X169921047Y-70713297D01*
X170055893Y-70763591D01*
X170055892Y-70763591D01*
X170062820Y-70764335D01*
X170115503Y-70770000D01*
X172311248Y-70769999D01*
X172370859Y-70763591D01*
X172505707Y-70713296D01*
X172620922Y-70627046D01*
X172707172Y-70511831D01*
X172757467Y-70376983D01*
X172763876Y-70317373D01*
X172763875Y-68121635D01*
X181662876Y-68121635D01*
X181662876Y-70317370D01*
X181662877Y-70317376D01*
X181669284Y-70376983D01*
X181719578Y-70511828D01*
X181719582Y-70511835D01*
X181805828Y-70627044D01*
X181805831Y-70627047D01*
X181921040Y-70713293D01*
X181921047Y-70713297D01*
X182055893Y-70763591D01*
X182055892Y-70763591D01*
X182062820Y-70764335D01*
X182115503Y-70770000D01*
X184311248Y-70769999D01*
X184370859Y-70763591D01*
X184505707Y-70713296D01*
X184620922Y-70627046D01*
X184707172Y-70511831D01*
X184757467Y-70376983D01*
X184763876Y-70317373D01*
X184763875Y-68121635D01*
X192662876Y-68121635D01*
X192662876Y-70317370D01*
X192662877Y-70317376D01*
X192669284Y-70376983D01*
X192719578Y-70511828D01*
X192719582Y-70511835D01*
X192805828Y-70627044D01*
X192805831Y-70627047D01*
X192921040Y-70713293D01*
X192921047Y-70713297D01*
X193055893Y-70763591D01*
X193055892Y-70763591D01*
X193062820Y-70764335D01*
X193115503Y-70770000D01*
X195311248Y-70769999D01*
X195370859Y-70763591D01*
X195505707Y-70713296D01*
X195620922Y-70627046D01*
X195707172Y-70511831D01*
X195757467Y-70376983D01*
X195763876Y-70317373D01*
X195763875Y-68121635D01*
X204662876Y-68121635D01*
X204662876Y-70317370D01*
X204662877Y-70317376D01*
X204669284Y-70376983D01*
X204719578Y-70511828D01*
X204719582Y-70511835D01*
X204805828Y-70627044D01*
X204805831Y-70627047D01*
X204921040Y-70713293D01*
X204921047Y-70713297D01*
X205055893Y-70763591D01*
X205055892Y-70763591D01*
X205062820Y-70764335D01*
X205115503Y-70770000D01*
X207311248Y-70769999D01*
X207370859Y-70763591D01*
X207505707Y-70713296D01*
X207620922Y-70627046D01*
X207707172Y-70511831D01*
X207757467Y-70376983D01*
X207763876Y-70317373D01*
X207763875Y-68121635D01*
X215662876Y-68121635D01*
X215662876Y-70317370D01*
X215662877Y-70317376D01*
X215669284Y-70376983D01*
X215719578Y-70511828D01*
X215719582Y-70511835D01*
X215805828Y-70627044D01*
X215805831Y-70627047D01*
X215921040Y-70713293D01*
X215921047Y-70713297D01*
X216055893Y-70763591D01*
X216055892Y-70763591D01*
X216062820Y-70764335D01*
X216115503Y-70770000D01*
X218311248Y-70769999D01*
X218370859Y-70763591D01*
X218505707Y-70713296D01*
X218620922Y-70627046D01*
X218707172Y-70511831D01*
X218757467Y-70376983D01*
X218763876Y-70317373D01*
X218763875Y-68121635D01*
X227662876Y-68121635D01*
X227662876Y-70317370D01*
X227662877Y-70317376D01*
X227669284Y-70376983D01*
X227719578Y-70511828D01*
X227719582Y-70511835D01*
X227805828Y-70627044D01*
X227805831Y-70627047D01*
X227921040Y-70713293D01*
X227921047Y-70713297D01*
X228055893Y-70763591D01*
X228055892Y-70763591D01*
X228062820Y-70764335D01*
X228115503Y-70770000D01*
X230311248Y-70769999D01*
X230370859Y-70763591D01*
X230505707Y-70713296D01*
X230620922Y-70627046D01*
X230707172Y-70511831D01*
X230757467Y-70376983D01*
X230763876Y-70317373D01*
X230763875Y-68121635D01*
X238662876Y-68121635D01*
X238662876Y-70317370D01*
X238662877Y-70317376D01*
X238669284Y-70376983D01*
X238719578Y-70511828D01*
X238719582Y-70511835D01*
X238805828Y-70627044D01*
X238805831Y-70627047D01*
X238921040Y-70713293D01*
X238921047Y-70713297D01*
X239055893Y-70763591D01*
X239055892Y-70763591D01*
X239062820Y-70764335D01*
X239115503Y-70770000D01*
X241311248Y-70769999D01*
X241370859Y-70763591D01*
X241505707Y-70713296D01*
X241620922Y-70627046D01*
X241707172Y-70511831D01*
X241757467Y-70376983D01*
X241763876Y-70317373D01*
X241763875Y-68121635D01*
X250662876Y-68121635D01*
X250662876Y-70317370D01*
X250662877Y-70317376D01*
X250669284Y-70376983D01*
X250719578Y-70511828D01*
X250719582Y-70511835D01*
X250805828Y-70627044D01*
X250805831Y-70627047D01*
X250921040Y-70713293D01*
X250921047Y-70713297D01*
X251055893Y-70763591D01*
X251055892Y-70763591D01*
X251062820Y-70764335D01*
X251115503Y-70770000D01*
X253311248Y-70769999D01*
X253370859Y-70763591D01*
X253505707Y-70713296D01*
X253620922Y-70627046D01*
X253707172Y-70511831D01*
X253757467Y-70376983D01*
X253763876Y-70317373D01*
X253763875Y-68121635D01*
X261662876Y-68121635D01*
X261662876Y-70317370D01*
X261662877Y-70317376D01*
X261669284Y-70376983D01*
X261719578Y-70511828D01*
X261719582Y-70511835D01*
X261805828Y-70627044D01*
X261805831Y-70627047D01*
X261921040Y-70713293D01*
X261921047Y-70713297D01*
X262055893Y-70763591D01*
X262055892Y-70763591D01*
X262062820Y-70764335D01*
X262115503Y-70770000D01*
X264311248Y-70769999D01*
X264370859Y-70763591D01*
X264505707Y-70713296D01*
X264620922Y-70627046D01*
X264707172Y-70511831D01*
X264757467Y-70376983D01*
X264763876Y-70317373D01*
X264763875Y-68121635D01*
X273662876Y-68121635D01*
X273662876Y-70317370D01*
X273662877Y-70317376D01*
X273669284Y-70376983D01*
X273719578Y-70511828D01*
X273719582Y-70511835D01*
X273805828Y-70627044D01*
X273805831Y-70627047D01*
X273921040Y-70713293D01*
X273921047Y-70713297D01*
X274055893Y-70763591D01*
X274055892Y-70763591D01*
X274062820Y-70764335D01*
X274115503Y-70770000D01*
X276311248Y-70769999D01*
X276370859Y-70763591D01*
X276505707Y-70713296D01*
X276620922Y-70627046D01*
X276707172Y-70511831D01*
X276757467Y-70376983D01*
X276763876Y-70317373D01*
X276763875Y-68121635D01*
X284662876Y-68121635D01*
X284662876Y-70317370D01*
X284662877Y-70317376D01*
X284669284Y-70376983D01*
X284719578Y-70511828D01*
X284719582Y-70511835D01*
X284805828Y-70627044D01*
X284805831Y-70627047D01*
X284921040Y-70713293D01*
X284921047Y-70713297D01*
X285055893Y-70763591D01*
X285055892Y-70763591D01*
X285062820Y-70764335D01*
X285115503Y-70770000D01*
X287311248Y-70769999D01*
X287370859Y-70763591D01*
X287505707Y-70713296D01*
X287620922Y-70627046D01*
X287707172Y-70511831D01*
X287757467Y-70376983D01*
X287763876Y-70317373D01*
X287763875Y-68121635D01*
X296662876Y-68121635D01*
X296662876Y-70317370D01*
X296662877Y-70317376D01*
X296669284Y-70376983D01*
X296719578Y-70511828D01*
X296719582Y-70511835D01*
X296805828Y-70627044D01*
X296805831Y-70627047D01*
X296921040Y-70713293D01*
X296921047Y-70713297D01*
X297055893Y-70763591D01*
X297055892Y-70763591D01*
X297062820Y-70764335D01*
X297115503Y-70770000D01*
X299311248Y-70769999D01*
X299370859Y-70763591D01*
X299505707Y-70713296D01*
X299620922Y-70627046D01*
X299707172Y-70511831D01*
X299757467Y-70376983D01*
X299763876Y-70317373D01*
X299763875Y-68121635D01*
X307662876Y-68121635D01*
X307662876Y-70317370D01*
X307662877Y-70317376D01*
X307669284Y-70376983D01*
X307719578Y-70511828D01*
X307719582Y-70511835D01*
X307805828Y-70627044D01*
X307805831Y-70627047D01*
X307921040Y-70713293D01*
X307921047Y-70713297D01*
X308055893Y-70763591D01*
X308055892Y-70763591D01*
X308062820Y-70764335D01*
X308115503Y-70770000D01*
X310311248Y-70769999D01*
X310370859Y-70763591D01*
X310505707Y-70713296D01*
X310620922Y-70627046D01*
X310707172Y-70511831D01*
X310757467Y-70376983D01*
X310763876Y-70317373D01*
X310763875Y-68121635D01*
X319537876Y-68121635D01*
X319537876Y-70317370D01*
X319537877Y-70317376D01*
X319544284Y-70376983D01*
X319594578Y-70511828D01*
X319594582Y-70511835D01*
X319680828Y-70627044D01*
X319680831Y-70627047D01*
X319796040Y-70713293D01*
X319796047Y-70713297D01*
X319930893Y-70763591D01*
X319930892Y-70763591D01*
X319937820Y-70764335D01*
X319990503Y-70770000D01*
X322186248Y-70769999D01*
X322245859Y-70763591D01*
X322380707Y-70713296D01*
X322495922Y-70627046D01*
X322582172Y-70511831D01*
X322632467Y-70376983D01*
X322638876Y-70317373D01*
X322638875Y-68121635D01*
X330537876Y-68121635D01*
X330537876Y-70317370D01*
X330537877Y-70317376D01*
X330544284Y-70376983D01*
X330594578Y-70511828D01*
X330594582Y-70511835D01*
X330680828Y-70627044D01*
X330680831Y-70627047D01*
X330796040Y-70713293D01*
X330796047Y-70713297D01*
X330930893Y-70763591D01*
X330930892Y-70763591D01*
X330937820Y-70764335D01*
X330990503Y-70770000D01*
X333186248Y-70769999D01*
X333245859Y-70763591D01*
X333380707Y-70713296D01*
X333495922Y-70627046D01*
X333582172Y-70511831D01*
X333632467Y-70376983D01*
X333638876Y-70317373D01*
X333638875Y-68121628D01*
X333632467Y-68062017D01*
X333582172Y-67927169D01*
X333582171Y-67927168D01*
X333582169Y-67927164D01*
X333495923Y-67811955D01*
X333495920Y-67811952D01*
X333380711Y-67725706D01*
X333380704Y-67725702D01*
X333245858Y-67675408D01*
X333245859Y-67675408D01*
X333186259Y-67669001D01*
X333186257Y-67669000D01*
X333186249Y-67669000D01*
X333186240Y-67669000D01*
X330990505Y-67669000D01*
X330990499Y-67669001D01*
X330930892Y-67675408D01*
X330796047Y-67725702D01*
X330796040Y-67725706D01*
X330680831Y-67811952D01*
X330680828Y-67811955D01*
X330594582Y-67927164D01*
X330594578Y-67927171D01*
X330544284Y-68062017D01*
X330537877Y-68121616D01*
X330537877Y-68121623D01*
X330537876Y-68121635D01*
X322638875Y-68121635D01*
X322638875Y-68121628D01*
X322632467Y-68062017D01*
X322582172Y-67927169D01*
X322582171Y-67927168D01*
X322582169Y-67927164D01*
X322495923Y-67811955D01*
X322495920Y-67811952D01*
X322380711Y-67725706D01*
X322380704Y-67725702D01*
X322245858Y-67675408D01*
X322245859Y-67675408D01*
X322186259Y-67669001D01*
X322186257Y-67669000D01*
X322186249Y-67669000D01*
X322186240Y-67669000D01*
X319990505Y-67669000D01*
X319990499Y-67669001D01*
X319930892Y-67675408D01*
X319796047Y-67725702D01*
X319796040Y-67725706D01*
X319680831Y-67811952D01*
X319680828Y-67811955D01*
X319594582Y-67927164D01*
X319594578Y-67927171D01*
X319544284Y-68062017D01*
X319537877Y-68121616D01*
X319537877Y-68121623D01*
X319537876Y-68121635D01*
X310763875Y-68121635D01*
X310763875Y-68121628D01*
X310757467Y-68062017D01*
X310707172Y-67927169D01*
X310707171Y-67927168D01*
X310707169Y-67927164D01*
X310620923Y-67811955D01*
X310620920Y-67811952D01*
X310505711Y-67725706D01*
X310505704Y-67725702D01*
X310370858Y-67675408D01*
X310370859Y-67675408D01*
X310311259Y-67669001D01*
X310311257Y-67669000D01*
X310311249Y-67669000D01*
X310311240Y-67669000D01*
X308115505Y-67669000D01*
X308115499Y-67669001D01*
X308055892Y-67675408D01*
X307921047Y-67725702D01*
X307921040Y-67725706D01*
X307805831Y-67811952D01*
X307805828Y-67811955D01*
X307719582Y-67927164D01*
X307719578Y-67927171D01*
X307669284Y-68062017D01*
X307662877Y-68121616D01*
X307662877Y-68121623D01*
X307662876Y-68121635D01*
X299763875Y-68121635D01*
X299763875Y-68121628D01*
X299757467Y-68062017D01*
X299707172Y-67927169D01*
X299707171Y-67927168D01*
X299707169Y-67927164D01*
X299620923Y-67811955D01*
X299620920Y-67811952D01*
X299505711Y-67725706D01*
X299505704Y-67725702D01*
X299370858Y-67675408D01*
X299370859Y-67675408D01*
X299311259Y-67669001D01*
X299311257Y-67669000D01*
X299311249Y-67669000D01*
X299311240Y-67669000D01*
X297115505Y-67669000D01*
X297115499Y-67669001D01*
X297055892Y-67675408D01*
X296921047Y-67725702D01*
X296921040Y-67725706D01*
X296805831Y-67811952D01*
X296805828Y-67811955D01*
X296719582Y-67927164D01*
X296719578Y-67927171D01*
X296669284Y-68062017D01*
X296662877Y-68121616D01*
X296662877Y-68121623D01*
X296662876Y-68121635D01*
X287763875Y-68121635D01*
X287763875Y-68121628D01*
X287757467Y-68062017D01*
X287707172Y-67927169D01*
X287707171Y-67927168D01*
X287707169Y-67927164D01*
X287620923Y-67811955D01*
X287620920Y-67811952D01*
X287505711Y-67725706D01*
X287505704Y-67725702D01*
X287370858Y-67675408D01*
X287370859Y-67675408D01*
X287311259Y-67669001D01*
X287311257Y-67669000D01*
X287311249Y-67669000D01*
X287311240Y-67669000D01*
X285115505Y-67669000D01*
X285115499Y-67669001D01*
X285055892Y-67675408D01*
X284921047Y-67725702D01*
X284921040Y-67725706D01*
X284805831Y-67811952D01*
X284805828Y-67811955D01*
X284719582Y-67927164D01*
X284719578Y-67927171D01*
X284669284Y-68062017D01*
X284662877Y-68121616D01*
X284662877Y-68121623D01*
X284662876Y-68121635D01*
X276763875Y-68121635D01*
X276763875Y-68121628D01*
X276757467Y-68062017D01*
X276707172Y-67927169D01*
X276707171Y-67927168D01*
X276707169Y-67927164D01*
X276620923Y-67811955D01*
X276620920Y-67811952D01*
X276505711Y-67725706D01*
X276505704Y-67725702D01*
X276370858Y-67675408D01*
X276370859Y-67675408D01*
X276311259Y-67669001D01*
X276311257Y-67669000D01*
X276311249Y-67669000D01*
X276311240Y-67669000D01*
X274115505Y-67669000D01*
X274115499Y-67669001D01*
X274055892Y-67675408D01*
X273921047Y-67725702D01*
X273921040Y-67725706D01*
X273805831Y-67811952D01*
X273805828Y-67811955D01*
X273719582Y-67927164D01*
X273719578Y-67927171D01*
X273669284Y-68062017D01*
X273662877Y-68121616D01*
X273662877Y-68121623D01*
X273662876Y-68121635D01*
X264763875Y-68121635D01*
X264763875Y-68121628D01*
X264757467Y-68062017D01*
X264707172Y-67927169D01*
X264707171Y-67927168D01*
X264707169Y-67927164D01*
X264620923Y-67811955D01*
X264620920Y-67811952D01*
X264505711Y-67725706D01*
X264505704Y-67725702D01*
X264370858Y-67675408D01*
X264370859Y-67675408D01*
X264311259Y-67669001D01*
X264311257Y-67669000D01*
X264311249Y-67669000D01*
X264311240Y-67669000D01*
X262115505Y-67669000D01*
X262115499Y-67669001D01*
X262055892Y-67675408D01*
X261921047Y-67725702D01*
X261921040Y-67725706D01*
X261805831Y-67811952D01*
X261805828Y-67811955D01*
X261719582Y-67927164D01*
X261719578Y-67927171D01*
X261669284Y-68062017D01*
X261662877Y-68121616D01*
X261662877Y-68121623D01*
X261662876Y-68121635D01*
X253763875Y-68121635D01*
X253763875Y-68121628D01*
X253757467Y-68062017D01*
X253707172Y-67927169D01*
X253707171Y-67927168D01*
X253707169Y-67927164D01*
X253620923Y-67811955D01*
X253620920Y-67811952D01*
X253505711Y-67725706D01*
X253505704Y-67725702D01*
X253370858Y-67675408D01*
X253370859Y-67675408D01*
X253311259Y-67669001D01*
X253311257Y-67669000D01*
X253311249Y-67669000D01*
X253311240Y-67669000D01*
X251115505Y-67669000D01*
X251115499Y-67669001D01*
X251055892Y-67675408D01*
X250921047Y-67725702D01*
X250921040Y-67725706D01*
X250805831Y-67811952D01*
X250805828Y-67811955D01*
X250719582Y-67927164D01*
X250719578Y-67927171D01*
X250669284Y-68062017D01*
X250662877Y-68121616D01*
X250662877Y-68121623D01*
X250662876Y-68121635D01*
X241763875Y-68121635D01*
X241763875Y-68121628D01*
X241757467Y-68062017D01*
X241707172Y-67927169D01*
X241707171Y-67927168D01*
X241707169Y-67927164D01*
X241620923Y-67811955D01*
X241620920Y-67811952D01*
X241505711Y-67725706D01*
X241505704Y-67725702D01*
X241370858Y-67675408D01*
X241370859Y-67675408D01*
X241311259Y-67669001D01*
X241311257Y-67669000D01*
X241311249Y-67669000D01*
X241311240Y-67669000D01*
X239115505Y-67669000D01*
X239115499Y-67669001D01*
X239055892Y-67675408D01*
X238921047Y-67725702D01*
X238921040Y-67725706D01*
X238805831Y-67811952D01*
X238805828Y-67811955D01*
X238719582Y-67927164D01*
X238719578Y-67927171D01*
X238669284Y-68062017D01*
X238662877Y-68121616D01*
X238662877Y-68121623D01*
X238662876Y-68121635D01*
X230763875Y-68121635D01*
X230763875Y-68121628D01*
X230757467Y-68062017D01*
X230707172Y-67927169D01*
X230707171Y-67927168D01*
X230707169Y-67927164D01*
X230620923Y-67811955D01*
X230620920Y-67811952D01*
X230505711Y-67725706D01*
X230505704Y-67725702D01*
X230370858Y-67675408D01*
X230370859Y-67675408D01*
X230311259Y-67669001D01*
X230311257Y-67669000D01*
X230311249Y-67669000D01*
X230311240Y-67669000D01*
X228115505Y-67669000D01*
X228115499Y-67669001D01*
X228055892Y-67675408D01*
X227921047Y-67725702D01*
X227921040Y-67725706D01*
X227805831Y-67811952D01*
X227805828Y-67811955D01*
X227719582Y-67927164D01*
X227719578Y-67927171D01*
X227669284Y-68062017D01*
X227662877Y-68121616D01*
X227662877Y-68121623D01*
X227662876Y-68121635D01*
X218763875Y-68121635D01*
X218763875Y-68121628D01*
X218757467Y-68062017D01*
X218707172Y-67927169D01*
X218707171Y-67927168D01*
X218707169Y-67927164D01*
X218620923Y-67811955D01*
X218620920Y-67811952D01*
X218505711Y-67725706D01*
X218505704Y-67725702D01*
X218370858Y-67675408D01*
X218370859Y-67675408D01*
X218311259Y-67669001D01*
X218311257Y-67669000D01*
X218311249Y-67669000D01*
X218311240Y-67669000D01*
X216115505Y-67669000D01*
X216115499Y-67669001D01*
X216055892Y-67675408D01*
X215921047Y-67725702D01*
X215921040Y-67725706D01*
X215805831Y-67811952D01*
X215805828Y-67811955D01*
X215719582Y-67927164D01*
X215719578Y-67927171D01*
X215669284Y-68062017D01*
X215662877Y-68121616D01*
X215662877Y-68121623D01*
X215662876Y-68121635D01*
X207763875Y-68121635D01*
X207763875Y-68121628D01*
X207757467Y-68062017D01*
X207707172Y-67927169D01*
X207707171Y-67927168D01*
X207707169Y-67927164D01*
X207620923Y-67811955D01*
X207620920Y-67811952D01*
X207505711Y-67725706D01*
X207505704Y-67725702D01*
X207370858Y-67675408D01*
X207370859Y-67675408D01*
X207311259Y-67669001D01*
X207311257Y-67669000D01*
X207311249Y-67669000D01*
X207311240Y-67669000D01*
X205115505Y-67669000D01*
X205115499Y-67669001D01*
X205055892Y-67675408D01*
X204921047Y-67725702D01*
X204921040Y-67725706D01*
X204805831Y-67811952D01*
X204805828Y-67811955D01*
X204719582Y-67927164D01*
X204719578Y-67927171D01*
X204669284Y-68062017D01*
X204662877Y-68121616D01*
X204662877Y-68121623D01*
X204662876Y-68121635D01*
X195763875Y-68121635D01*
X195763875Y-68121628D01*
X195757467Y-68062017D01*
X195707172Y-67927169D01*
X195707171Y-67927168D01*
X195707169Y-67927164D01*
X195620923Y-67811955D01*
X195620920Y-67811952D01*
X195505711Y-67725706D01*
X195505704Y-67725702D01*
X195370858Y-67675408D01*
X195370859Y-67675408D01*
X195311259Y-67669001D01*
X195311257Y-67669000D01*
X195311249Y-67669000D01*
X195311240Y-67669000D01*
X193115505Y-67669000D01*
X193115499Y-67669001D01*
X193055892Y-67675408D01*
X192921047Y-67725702D01*
X192921040Y-67725706D01*
X192805831Y-67811952D01*
X192805828Y-67811955D01*
X192719582Y-67927164D01*
X192719578Y-67927171D01*
X192669284Y-68062017D01*
X192662877Y-68121616D01*
X192662877Y-68121623D01*
X192662876Y-68121635D01*
X184763875Y-68121635D01*
X184763875Y-68121628D01*
X184757467Y-68062017D01*
X184707172Y-67927169D01*
X184707171Y-67927168D01*
X184707169Y-67927164D01*
X184620923Y-67811955D01*
X184620920Y-67811952D01*
X184505711Y-67725706D01*
X184505704Y-67725702D01*
X184370858Y-67675408D01*
X184370859Y-67675408D01*
X184311259Y-67669001D01*
X184311257Y-67669000D01*
X184311249Y-67669000D01*
X184311240Y-67669000D01*
X182115505Y-67669000D01*
X182115499Y-67669001D01*
X182055892Y-67675408D01*
X181921047Y-67725702D01*
X181921040Y-67725706D01*
X181805831Y-67811952D01*
X181805828Y-67811955D01*
X181719582Y-67927164D01*
X181719578Y-67927171D01*
X181669284Y-68062017D01*
X181662877Y-68121616D01*
X181662877Y-68121623D01*
X181662876Y-68121635D01*
X172763875Y-68121635D01*
X172763875Y-68121628D01*
X172757467Y-68062017D01*
X172707172Y-67927169D01*
X172707171Y-67927168D01*
X172707169Y-67927164D01*
X172620923Y-67811955D01*
X172620920Y-67811952D01*
X172505711Y-67725706D01*
X172505704Y-67725702D01*
X172370858Y-67675408D01*
X172370859Y-67675408D01*
X172311259Y-67669001D01*
X172311257Y-67669000D01*
X172311249Y-67669000D01*
X172311240Y-67669000D01*
X170115505Y-67669000D01*
X170115499Y-67669001D01*
X170055892Y-67675408D01*
X169921047Y-67725702D01*
X169921040Y-67725706D01*
X169805831Y-67811952D01*
X169805828Y-67811955D01*
X169719582Y-67927164D01*
X169719578Y-67927171D01*
X169669284Y-68062017D01*
X169662877Y-68121616D01*
X169662877Y-68121623D01*
X169662876Y-68121635D01*
X161763875Y-68121635D01*
X161763875Y-68121628D01*
X161757467Y-68062017D01*
X161707172Y-67927169D01*
X161707171Y-67927168D01*
X161707169Y-67927164D01*
X161620923Y-67811955D01*
X161620920Y-67811952D01*
X161505711Y-67725706D01*
X161505704Y-67725702D01*
X161370858Y-67675408D01*
X161370859Y-67675408D01*
X161311259Y-67669001D01*
X161311257Y-67669000D01*
X161311249Y-67669000D01*
X161311240Y-67669000D01*
X159115505Y-67669000D01*
X159115499Y-67669001D01*
X159055892Y-67675408D01*
X158921047Y-67725702D01*
X158921040Y-67725706D01*
X158805831Y-67811952D01*
X158805828Y-67811955D01*
X158719582Y-67927164D01*
X158719578Y-67927171D01*
X158669284Y-68062017D01*
X158662877Y-68121616D01*
X158662877Y-68121623D01*
X158662876Y-68121635D01*
X149763875Y-68121635D01*
X149763875Y-68121628D01*
X149757467Y-68062017D01*
X149707172Y-67927169D01*
X149707171Y-67927168D01*
X149707169Y-67927164D01*
X149620923Y-67811955D01*
X149620920Y-67811952D01*
X149505711Y-67725706D01*
X149505704Y-67725702D01*
X149370858Y-67675408D01*
X149370859Y-67675408D01*
X149311259Y-67669001D01*
X149311257Y-67669000D01*
X149311249Y-67669000D01*
X149311240Y-67669000D01*
X147115505Y-67669000D01*
X147115499Y-67669001D01*
X147055892Y-67675408D01*
X146921047Y-67725702D01*
X146921040Y-67725706D01*
X146805831Y-67811952D01*
X146805828Y-67811955D01*
X146719582Y-67927164D01*
X146719578Y-67927171D01*
X146669284Y-68062017D01*
X146662877Y-68121616D01*
X146662877Y-68121623D01*
X146662876Y-68121635D01*
X138763875Y-68121635D01*
X138763875Y-68121628D01*
X138757467Y-68062017D01*
X138707172Y-67927169D01*
X138707171Y-67927168D01*
X138707169Y-67927164D01*
X138620923Y-67811955D01*
X138620920Y-67811952D01*
X138505711Y-67725706D01*
X138505704Y-67725702D01*
X138370858Y-67675408D01*
X138370859Y-67675408D01*
X138311259Y-67669001D01*
X138311257Y-67669000D01*
X138311249Y-67669000D01*
X138311240Y-67669000D01*
X136115505Y-67669000D01*
X136115499Y-67669001D01*
X136055892Y-67675408D01*
X135921047Y-67725702D01*
X135921040Y-67725706D01*
X135805831Y-67811952D01*
X135805828Y-67811955D01*
X135719582Y-67927164D01*
X135719578Y-67927171D01*
X135669284Y-68062017D01*
X135662877Y-68121616D01*
X135662877Y-68121623D01*
X135662876Y-68121635D01*
X126763874Y-68121635D01*
X126763874Y-68121628D01*
X126757466Y-68062017D01*
X126707171Y-67927169D01*
X126707170Y-67927168D01*
X126707168Y-67927164D01*
X126620922Y-67811955D01*
X126620919Y-67811952D01*
X126505710Y-67725706D01*
X126505703Y-67725702D01*
X126370857Y-67675408D01*
X126370858Y-67675408D01*
X126311258Y-67669001D01*
X126311256Y-67669000D01*
X126311248Y-67669000D01*
X126311239Y-67669000D01*
X124115504Y-67669000D01*
X124115498Y-67669001D01*
X124055891Y-67675408D01*
X123921046Y-67725702D01*
X123921039Y-67725706D01*
X123805830Y-67811952D01*
X123805827Y-67811955D01*
X123719581Y-67927164D01*
X123719577Y-67927171D01*
X123669283Y-68062017D01*
X123662876Y-68121616D01*
X123662876Y-68121623D01*
X123662875Y-68121635D01*
X115763874Y-68121635D01*
X115763874Y-68121628D01*
X115757466Y-68062017D01*
X115707171Y-67927169D01*
X115707170Y-67927168D01*
X115707168Y-67927164D01*
X115620922Y-67811955D01*
X115620919Y-67811952D01*
X115505710Y-67725706D01*
X115505703Y-67725702D01*
X115370857Y-67675408D01*
X115370858Y-67675408D01*
X115311258Y-67669001D01*
X115311256Y-67669000D01*
X115311248Y-67669000D01*
X115311239Y-67669000D01*
X113115504Y-67669000D01*
X113115498Y-67669001D01*
X113055891Y-67675408D01*
X112921046Y-67725702D01*
X112921039Y-67725706D01*
X112805830Y-67811952D01*
X112805827Y-67811955D01*
X112719581Y-67927164D01*
X112719577Y-67927171D01*
X112669283Y-68062017D01*
X112662876Y-68121616D01*
X112662876Y-68121623D01*
X112662875Y-68121635D01*
X109300000Y-68121635D01*
X109300000Y-66245995D01*
X109301015Y-66240365D01*
X109300316Y-66237150D01*
X109307818Y-66202662D01*
X109332911Y-66135384D01*
X109340252Y-66119309D01*
X109434295Y-65947082D01*
X109443845Y-65932221D01*
X109561448Y-65775123D01*
X109573020Y-65761769D01*
X109711769Y-65623020D01*
X109725133Y-65611441D01*
X109840962Y-65524733D01*
X109906426Y-65500316D01*
X109915272Y-65500000D01*
X336484728Y-65500000D01*
X336551767Y-65519685D01*
G37*
G04 #@! TD.AperFunction*
M02*
