%TF.GenerationSoftware,KiCad,Pcbnew,9.0.0*%
%TF.CreationDate,2025-04-14T19:05:31-07:00*%
%TF.ProjectId,solenoid_10,736f6c65-6e6f-4696-945f-31302e6b6963,rev?*%
%TF.SameCoordinates,Original*%
%TF.FileFunction,Drillmap*%
%TF.FilePolarity,Positive*%
%FSLAX45Y45*%
G04 Gerber Fmt 4.5, Leading zero omitted, Abs format (unit mm)*
G04 Created by KiCad (PCBNEW 9.0.0) date 2025-04-14 19:05:31*
%MOMM*%
%LPD*%
G01*
G04 APERTURE LIST*
%ADD10C,0.050000*%
%ADD11C,0.200000*%
%ADD12C,0.350000*%
%ADD13C,0.450000*%
G04 APERTURE END LIST*
D10*
X10670000Y-6475000D02*
X33970000Y-6475000D01*
X33970000Y-11325000D01*
X10670000Y-11325000D01*
X10670000Y-6475000D01*
D11*
D12*
X11843200Y-7585900D02*
X12193200Y-7935900D01*
X12193200Y-7585900D02*
X11843200Y-7935900D01*
X14143200Y-7585900D02*
X14493200Y-7935900D01*
X14493200Y-7585900D02*
X14143200Y-7935900D01*
X16443200Y-7585900D02*
X16793200Y-7935900D01*
X16793200Y-7585900D02*
X16443200Y-7935900D01*
X18743200Y-7585900D02*
X19093200Y-7935900D01*
X19093200Y-7585900D02*
X18743200Y-7935900D01*
X21043200Y-7585900D02*
X21393200Y-7935900D01*
X21393200Y-7585900D02*
X21043200Y-7935900D01*
X23343200Y-7585900D02*
X23693200Y-7935900D01*
X23693200Y-7585900D02*
X23343200Y-7935900D01*
X25643200Y-7585900D02*
X25993200Y-7935900D01*
X25993200Y-7585900D02*
X25643200Y-7935900D01*
X27943200Y-7585900D02*
X28293200Y-7935900D01*
X28293200Y-7585900D02*
X27943200Y-7935900D01*
X30243200Y-7585900D02*
X30593200Y-7935900D01*
X30593200Y-7585900D02*
X30243200Y-7935900D01*
X32530700Y-7585900D02*
X32880700Y-7935900D01*
X32880700Y-7585900D02*
X32530700Y-7935900D01*
D13*
X11625000Y-10300000D02*
G75*
G02*
X11175000Y-10300000I-225000J0D01*
G01*
X11175000Y-10300000D02*
G75*
G02*
X11625000Y-10300000I225000J0D01*
G01*
X14825000Y-10300000D02*
G75*
G02*
X14375000Y-10300000I-225000J0D01*
G01*
X14375000Y-10300000D02*
G75*
G02*
X14825000Y-10300000I225000J0D01*
G01*
D11*
X10928277Y-11638984D02*
X10928277Y-11438984D01*
X10928277Y-11438984D02*
X10975896Y-11438984D01*
X10975896Y-11438984D02*
X11004467Y-11448508D01*
X11004467Y-11448508D02*
X11023515Y-11467555D01*
X11023515Y-11467555D02*
X11033039Y-11486603D01*
X11033039Y-11486603D02*
X11042563Y-11524698D01*
X11042563Y-11524698D02*
X11042563Y-11553269D01*
X11042563Y-11553269D02*
X11033039Y-11591365D01*
X11033039Y-11591365D02*
X11023515Y-11610412D01*
X11023515Y-11610412D02*
X11004467Y-11629460D01*
X11004467Y-11629460D02*
X10975896Y-11638984D01*
X10975896Y-11638984D02*
X10928277Y-11638984D01*
X11128277Y-11638984D02*
X11128277Y-11505650D01*
X11128277Y-11543746D02*
X11137801Y-11524698D01*
X11137801Y-11524698D02*
X11147324Y-11515174D01*
X11147324Y-11515174D02*
X11166372Y-11505650D01*
X11166372Y-11505650D02*
X11185420Y-11505650D01*
X11252086Y-11638984D02*
X11252086Y-11505650D01*
X11252086Y-11438984D02*
X11242562Y-11448508D01*
X11242562Y-11448508D02*
X11252086Y-11458031D01*
X11252086Y-11458031D02*
X11261610Y-11448508D01*
X11261610Y-11448508D02*
X11252086Y-11438984D01*
X11252086Y-11438984D02*
X11252086Y-11458031D01*
X11375896Y-11638984D02*
X11356848Y-11629460D01*
X11356848Y-11629460D02*
X11347324Y-11610412D01*
X11347324Y-11610412D02*
X11347324Y-11438984D01*
X11480658Y-11638984D02*
X11461610Y-11629460D01*
X11461610Y-11629460D02*
X11452086Y-11610412D01*
X11452086Y-11610412D02*
X11452086Y-11438984D01*
X11709229Y-11638984D02*
X11709229Y-11438984D01*
X11709229Y-11438984D02*
X11775896Y-11581841D01*
X11775896Y-11581841D02*
X11842562Y-11438984D01*
X11842562Y-11438984D02*
X11842562Y-11638984D01*
X12023515Y-11638984D02*
X12023515Y-11534222D01*
X12023515Y-11534222D02*
X12013991Y-11515174D01*
X12013991Y-11515174D02*
X11994943Y-11505650D01*
X11994943Y-11505650D02*
X11956848Y-11505650D01*
X11956848Y-11505650D02*
X11937801Y-11515174D01*
X12023515Y-11629460D02*
X12004467Y-11638984D01*
X12004467Y-11638984D02*
X11956848Y-11638984D01*
X11956848Y-11638984D02*
X11937801Y-11629460D01*
X11937801Y-11629460D02*
X11928277Y-11610412D01*
X11928277Y-11610412D02*
X11928277Y-11591365D01*
X11928277Y-11591365D02*
X11937801Y-11572317D01*
X11937801Y-11572317D02*
X11956848Y-11562793D01*
X11956848Y-11562793D02*
X12004467Y-11562793D01*
X12004467Y-11562793D02*
X12023515Y-11553269D01*
X12118753Y-11505650D02*
X12118753Y-11705650D01*
X12118753Y-11515174D02*
X12137801Y-11505650D01*
X12137801Y-11505650D02*
X12175896Y-11505650D01*
X12175896Y-11505650D02*
X12194943Y-11515174D01*
X12194943Y-11515174D02*
X12204467Y-11524698D01*
X12204467Y-11524698D02*
X12213991Y-11543746D01*
X12213991Y-11543746D02*
X12213991Y-11600888D01*
X12213991Y-11600888D02*
X12204467Y-11619936D01*
X12204467Y-11619936D02*
X12194943Y-11629460D01*
X12194943Y-11629460D02*
X12175896Y-11638984D01*
X12175896Y-11638984D02*
X12137801Y-11638984D01*
X12137801Y-11638984D02*
X12118753Y-11629460D01*
X12299705Y-11619936D02*
X12309229Y-11629460D01*
X12309229Y-11629460D02*
X12299705Y-11638984D01*
X12299705Y-11638984D02*
X12290182Y-11629460D01*
X12290182Y-11629460D02*
X12299705Y-11619936D01*
X12299705Y-11619936D02*
X12299705Y-11638984D01*
X12299705Y-11515174D02*
X12309229Y-11524698D01*
X12309229Y-11524698D02*
X12299705Y-11534222D01*
X12299705Y-11534222D02*
X12290182Y-11524698D01*
X12290182Y-11524698D02*
X12299705Y-11515174D01*
X12299705Y-11515174D02*
X12299705Y-11534222D01*
X10467500Y-11867500D02*
X10667500Y-12067500D01*
X10667500Y-11867500D02*
X10467500Y-12067500D01*
X10909229Y-11858984D02*
X11033039Y-11858984D01*
X11033039Y-11858984D02*
X10966372Y-11935174D01*
X10966372Y-11935174D02*
X10994944Y-11935174D01*
X10994944Y-11935174D02*
X11013991Y-11944698D01*
X11013991Y-11944698D02*
X11023515Y-11954222D01*
X11023515Y-11954222D02*
X11033039Y-11973269D01*
X11033039Y-11973269D02*
X11033039Y-12020888D01*
X11033039Y-12020888D02*
X11023515Y-12039936D01*
X11023515Y-12039936D02*
X11013991Y-12049460D01*
X11013991Y-12049460D02*
X10994944Y-12058984D01*
X10994944Y-12058984D02*
X10937801Y-12058984D01*
X10937801Y-12058984D02*
X10918753Y-12049460D01*
X10918753Y-12049460D02*
X10909229Y-12039936D01*
X11118753Y-12039936D02*
X11128277Y-12049460D01*
X11128277Y-12049460D02*
X11118753Y-12058984D01*
X11118753Y-12058984D02*
X11109229Y-12049460D01*
X11109229Y-12049460D02*
X11118753Y-12039936D01*
X11118753Y-12039936D02*
X11118753Y-12058984D01*
X11309229Y-11858984D02*
X11213991Y-11858984D01*
X11213991Y-11858984D02*
X11204467Y-11954222D01*
X11204467Y-11954222D02*
X11213991Y-11944698D01*
X11213991Y-11944698D02*
X11233039Y-11935174D01*
X11233039Y-11935174D02*
X11280658Y-11935174D01*
X11280658Y-11935174D02*
X11299705Y-11944698D01*
X11299705Y-11944698D02*
X11309229Y-11954222D01*
X11309229Y-11954222D02*
X11318753Y-11973269D01*
X11318753Y-11973269D02*
X11318753Y-12020888D01*
X11318753Y-12020888D02*
X11309229Y-12039936D01*
X11309229Y-12039936D02*
X11299705Y-12049460D01*
X11299705Y-12049460D02*
X11280658Y-12058984D01*
X11280658Y-12058984D02*
X11233039Y-12058984D01*
X11233039Y-12058984D02*
X11213991Y-12049460D01*
X11213991Y-12049460D02*
X11204467Y-12039936D01*
X11442562Y-11858984D02*
X11461610Y-11858984D01*
X11461610Y-11858984D02*
X11480658Y-11868508D01*
X11480658Y-11868508D02*
X11490182Y-11878031D01*
X11490182Y-11878031D02*
X11499705Y-11897079D01*
X11499705Y-11897079D02*
X11509229Y-11935174D01*
X11509229Y-11935174D02*
X11509229Y-11982793D01*
X11509229Y-11982793D02*
X11499705Y-12020888D01*
X11499705Y-12020888D02*
X11490182Y-12039936D01*
X11490182Y-12039936D02*
X11480658Y-12049460D01*
X11480658Y-12049460D02*
X11461610Y-12058984D01*
X11461610Y-12058984D02*
X11442562Y-12058984D01*
X11442562Y-12058984D02*
X11423515Y-12049460D01*
X11423515Y-12049460D02*
X11413991Y-12039936D01*
X11413991Y-12039936D02*
X11404467Y-12020888D01*
X11404467Y-12020888D02*
X11394943Y-11982793D01*
X11394943Y-11982793D02*
X11394943Y-11935174D01*
X11394943Y-11935174D02*
X11404467Y-11897079D01*
X11404467Y-11897079D02*
X11413991Y-11878031D01*
X11413991Y-11878031D02*
X11423515Y-11868508D01*
X11423515Y-11868508D02*
X11442562Y-11858984D01*
X11633039Y-11858984D02*
X11652086Y-11858984D01*
X11652086Y-11858984D02*
X11671134Y-11868508D01*
X11671134Y-11868508D02*
X11680658Y-11878031D01*
X11680658Y-11878031D02*
X11690182Y-11897079D01*
X11690182Y-11897079D02*
X11699705Y-11935174D01*
X11699705Y-11935174D02*
X11699705Y-11982793D01*
X11699705Y-11982793D02*
X11690182Y-12020888D01*
X11690182Y-12020888D02*
X11680658Y-12039936D01*
X11680658Y-12039936D02*
X11671134Y-12049460D01*
X11671134Y-12049460D02*
X11652086Y-12058984D01*
X11652086Y-12058984D02*
X11633039Y-12058984D01*
X11633039Y-12058984D02*
X11613991Y-12049460D01*
X11613991Y-12049460D02*
X11604467Y-12039936D01*
X11604467Y-12039936D02*
X11594943Y-12020888D01*
X11594943Y-12020888D02*
X11585420Y-11982793D01*
X11585420Y-11982793D02*
X11585420Y-11935174D01*
X11585420Y-11935174D02*
X11594943Y-11897079D01*
X11594943Y-11897079D02*
X11604467Y-11878031D01*
X11604467Y-11878031D02*
X11613991Y-11868508D01*
X11613991Y-11868508D02*
X11633039Y-11858984D01*
X11785420Y-12058984D02*
X11785420Y-11925650D01*
X11785420Y-11944698D02*
X11794943Y-11935174D01*
X11794943Y-11935174D02*
X11813991Y-11925650D01*
X11813991Y-11925650D02*
X11842563Y-11925650D01*
X11842563Y-11925650D02*
X11861610Y-11935174D01*
X11861610Y-11935174D02*
X11871134Y-11954222D01*
X11871134Y-11954222D02*
X11871134Y-12058984D01*
X11871134Y-11954222D02*
X11880658Y-11935174D01*
X11880658Y-11935174D02*
X11899705Y-11925650D01*
X11899705Y-11925650D02*
X11928277Y-11925650D01*
X11928277Y-11925650D02*
X11947324Y-11935174D01*
X11947324Y-11935174D02*
X11956848Y-11954222D01*
X11956848Y-11954222D02*
X11956848Y-12058984D01*
X12052086Y-12058984D02*
X12052086Y-11925650D01*
X12052086Y-11944698D02*
X12061610Y-11935174D01*
X12061610Y-11935174D02*
X12080658Y-11925650D01*
X12080658Y-11925650D02*
X12109229Y-11925650D01*
X12109229Y-11925650D02*
X12128277Y-11935174D01*
X12128277Y-11935174D02*
X12137801Y-11954222D01*
X12137801Y-11954222D02*
X12137801Y-12058984D01*
X12137801Y-11954222D02*
X12147324Y-11935174D01*
X12147324Y-11935174D02*
X12166372Y-11925650D01*
X12166372Y-11925650D02*
X12194943Y-11925650D01*
X12194943Y-11925650D02*
X12213991Y-11935174D01*
X12213991Y-11935174D02*
X12223515Y-11954222D01*
X12223515Y-11954222D02*
X12223515Y-12058984D01*
X12613991Y-11849460D02*
X12442563Y-12106603D01*
X12871134Y-11858984D02*
X12890182Y-11858984D01*
X12890182Y-11858984D02*
X12909229Y-11868508D01*
X12909229Y-11868508D02*
X12918753Y-11878031D01*
X12918753Y-11878031D02*
X12928277Y-11897079D01*
X12928277Y-11897079D02*
X12937801Y-11935174D01*
X12937801Y-11935174D02*
X12937801Y-11982793D01*
X12937801Y-11982793D02*
X12928277Y-12020888D01*
X12928277Y-12020888D02*
X12918753Y-12039936D01*
X12918753Y-12039936D02*
X12909229Y-12049460D01*
X12909229Y-12049460D02*
X12890182Y-12058984D01*
X12890182Y-12058984D02*
X12871134Y-12058984D01*
X12871134Y-12058984D02*
X12852086Y-12049460D01*
X12852086Y-12049460D02*
X12842563Y-12039936D01*
X12842563Y-12039936D02*
X12833039Y-12020888D01*
X12833039Y-12020888D02*
X12823515Y-11982793D01*
X12823515Y-11982793D02*
X12823515Y-11935174D01*
X12823515Y-11935174D02*
X12833039Y-11897079D01*
X12833039Y-11897079D02*
X12842563Y-11878031D01*
X12842563Y-11878031D02*
X12852086Y-11868508D01*
X12852086Y-11868508D02*
X12871134Y-11858984D01*
X13023515Y-12039936D02*
X13033039Y-12049460D01*
X13033039Y-12049460D02*
X13023515Y-12058984D01*
X13023515Y-12058984D02*
X13013991Y-12049460D01*
X13013991Y-12049460D02*
X13023515Y-12039936D01*
X13023515Y-12039936D02*
X13023515Y-12058984D01*
X13223515Y-12058984D02*
X13109229Y-12058984D01*
X13166372Y-12058984D02*
X13166372Y-11858984D01*
X13166372Y-11858984D02*
X13147325Y-11887555D01*
X13147325Y-11887555D02*
X13128277Y-11906603D01*
X13128277Y-11906603D02*
X13109229Y-11916127D01*
X13290182Y-11858984D02*
X13413991Y-11858984D01*
X13413991Y-11858984D02*
X13347325Y-11935174D01*
X13347325Y-11935174D02*
X13375896Y-11935174D01*
X13375896Y-11935174D02*
X13394944Y-11944698D01*
X13394944Y-11944698D02*
X13404467Y-11954222D01*
X13404467Y-11954222D02*
X13413991Y-11973269D01*
X13413991Y-11973269D02*
X13413991Y-12020888D01*
X13413991Y-12020888D02*
X13404467Y-12039936D01*
X13404467Y-12039936D02*
X13394944Y-12049460D01*
X13394944Y-12049460D02*
X13375896Y-12058984D01*
X13375896Y-12058984D02*
X13318753Y-12058984D01*
X13318753Y-12058984D02*
X13299706Y-12049460D01*
X13299706Y-12049460D02*
X13290182Y-12039936D01*
X13480658Y-11858984D02*
X13613991Y-11858984D01*
X13613991Y-11858984D02*
X13528277Y-12058984D01*
X13718753Y-11944698D02*
X13699706Y-11935174D01*
X13699706Y-11935174D02*
X13690182Y-11925650D01*
X13690182Y-11925650D02*
X13680658Y-11906603D01*
X13680658Y-11906603D02*
X13680658Y-11897079D01*
X13680658Y-11897079D02*
X13690182Y-11878031D01*
X13690182Y-11878031D02*
X13699706Y-11868508D01*
X13699706Y-11868508D02*
X13718753Y-11858984D01*
X13718753Y-11858984D02*
X13756848Y-11858984D01*
X13756848Y-11858984D02*
X13775896Y-11868508D01*
X13775896Y-11868508D02*
X13785420Y-11878031D01*
X13785420Y-11878031D02*
X13794944Y-11897079D01*
X13794944Y-11897079D02*
X13794944Y-11906603D01*
X13794944Y-11906603D02*
X13785420Y-11925650D01*
X13785420Y-11925650D02*
X13775896Y-11935174D01*
X13775896Y-11935174D02*
X13756848Y-11944698D01*
X13756848Y-11944698D02*
X13718753Y-11944698D01*
X13718753Y-11944698D02*
X13699706Y-11954222D01*
X13699706Y-11954222D02*
X13690182Y-11963746D01*
X13690182Y-11963746D02*
X13680658Y-11982793D01*
X13680658Y-11982793D02*
X13680658Y-12020888D01*
X13680658Y-12020888D02*
X13690182Y-12039936D01*
X13690182Y-12039936D02*
X13699706Y-12049460D01*
X13699706Y-12049460D02*
X13718753Y-12058984D01*
X13718753Y-12058984D02*
X13756848Y-12058984D01*
X13756848Y-12058984D02*
X13775896Y-12049460D01*
X13775896Y-12049460D02*
X13785420Y-12039936D01*
X13785420Y-12039936D02*
X13794944Y-12020888D01*
X13794944Y-12020888D02*
X13794944Y-11982793D01*
X13794944Y-11982793D02*
X13785420Y-11963746D01*
X13785420Y-11963746D02*
X13775896Y-11954222D01*
X13775896Y-11954222D02*
X13756848Y-11944698D01*
X13871134Y-11858984D02*
X13871134Y-11897079D01*
X13947325Y-11858984D02*
X13947325Y-11897079D01*
X14242563Y-12135174D02*
X14233039Y-12125650D01*
X14233039Y-12125650D02*
X14213991Y-12097079D01*
X14213991Y-12097079D02*
X14204468Y-12078031D01*
X14204468Y-12078031D02*
X14194944Y-12049460D01*
X14194944Y-12049460D02*
X14185420Y-12001841D01*
X14185420Y-12001841D02*
X14185420Y-11963746D01*
X14185420Y-11963746D02*
X14194944Y-11916127D01*
X14194944Y-11916127D02*
X14204468Y-11887555D01*
X14204468Y-11887555D02*
X14213991Y-11868508D01*
X14213991Y-11868508D02*
X14233039Y-11839936D01*
X14233039Y-11839936D02*
X14242563Y-11830412D01*
X14423515Y-12058984D02*
X14309229Y-12058984D01*
X14366372Y-12058984D02*
X14366372Y-11858984D01*
X14366372Y-11858984D02*
X14347325Y-11887555D01*
X14347325Y-11887555D02*
X14328277Y-11906603D01*
X14328277Y-11906603D02*
X14309229Y-11916127D01*
X14547325Y-11858984D02*
X14566372Y-11858984D01*
X14566372Y-11858984D02*
X14585420Y-11868508D01*
X14585420Y-11868508D02*
X14594944Y-11878031D01*
X14594944Y-11878031D02*
X14604468Y-11897079D01*
X14604468Y-11897079D02*
X14613991Y-11935174D01*
X14613991Y-11935174D02*
X14613991Y-11982793D01*
X14613991Y-11982793D02*
X14604468Y-12020888D01*
X14604468Y-12020888D02*
X14594944Y-12039936D01*
X14594944Y-12039936D02*
X14585420Y-12049460D01*
X14585420Y-12049460D02*
X14566372Y-12058984D01*
X14566372Y-12058984D02*
X14547325Y-12058984D01*
X14547325Y-12058984D02*
X14528277Y-12049460D01*
X14528277Y-12049460D02*
X14518753Y-12039936D01*
X14518753Y-12039936D02*
X14509229Y-12020888D01*
X14509229Y-12020888D02*
X14499706Y-11982793D01*
X14499706Y-11982793D02*
X14499706Y-11935174D01*
X14499706Y-11935174D02*
X14509229Y-11897079D01*
X14509229Y-11897079D02*
X14518753Y-11878031D01*
X14518753Y-11878031D02*
X14528277Y-11868508D01*
X14528277Y-11868508D02*
X14547325Y-11858984D01*
X14852087Y-12058984D02*
X14852087Y-11858984D01*
X14937801Y-12058984D02*
X14937801Y-11954222D01*
X14937801Y-11954222D02*
X14928277Y-11935174D01*
X14928277Y-11935174D02*
X14909230Y-11925650D01*
X14909230Y-11925650D02*
X14880658Y-11925650D01*
X14880658Y-11925650D02*
X14861610Y-11935174D01*
X14861610Y-11935174D02*
X14852087Y-11944698D01*
X15061610Y-12058984D02*
X15042563Y-12049460D01*
X15042563Y-12049460D02*
X15033039Y-12039936D01*
X15033039Y-12039936D02*
X15023515Y-12020888D01*
X15023515Y-12020888D02*
X15023515Y-11963746D01*
X15023515Y-11963746D02*
X15033039Y-11944698D01*
X15033039Y-11944698D02*
X15042563Y-11935174D01*
X15042563Y-11935174D02*
X15061610Y-11925650D01*
X15061610Y-11925650D02*
X15090182Y-11925650D01*
X15090182Y-11925650D02*
X15109230Y-11935174D01*
X15109230Y-11935174D02*
X15118753Y-11944698D01*
X15118753Y-11944698D02*
X15128277Y-11963746D01*
X15128277Y-11963746D02*
X15128277Y-12020888D01*
X15128277Y-12020888D02*
X15118753Y-12039936D01*
X15118753Y-12039936D02*
X15109230Y-12049460D01*
X15109230Y-12049460D02*
X15090182Y-12058984D01*
X15090182Y-12058984D02*
X15061610Y-12058984D01*
X15242563Y-12058984D02*
X15223515Y-12049460D01*
X15223515Y-12049460D02*
X15213991Y-12030412D01*
X15213991Y-12030412D02*
X15213991Y-11858984D01*
X15394944Y-12049460D02*
X15375896Y-12058984D01*
X15375896Y-12058984D02*
X15337801Y-12058984D01*
X15337801Y-12058984D02*
X15318753Y-12049460D01*
X15318753Y-12049460D02*
X15309230Y-12030412D01*
X15309230Y-12030412D02*
X15309230Y-11954222D01*
X15309230Y-11954222D02*
X15318753Y-11935174D01*
X15318753Y-11935174D02*
X15337801Y-11925650D01*
X15337801Y-11925650D02*
X15375896Y-11925650D01*
X15375896Y-11925650D02*
X15394944Y-11935174D01*
X15394944Y-11935174D02*
X15404468Y-11954222D01*
X15404468Y-11954222D02*
X15404468Y-11973269D01*
X15404468Y-11973269D02*
X15309230Y-11992317D01*
X15480658Y-12049460D02*
X15499706Y-12058984D01*
X15499706Y-12058984D02*
X15537801Y-12058984D01*
X15537801Y-12058984D02*
X15556849Y-12049460D01*
X15556849Y-12049460D02*
X15566372Y-12030412D01*
X15566372Y-12030412D02*
X15566372Y-12020888D01*
X15566372Y-12020888D02*
X15556849Y-12001841D01*
X15556849Y-12001841D02*
X15537801Y-11992317D01*
X15537801Y-11992317D02*
X15509230Y-11992317D01*
X15509230Y-11992317D02*
X15490182Y-11982793D01*
X15490182Y-11982793D02*
X15480658Y-11963746D01*
X15480658Y-11963746D02*
X15480658Y-11954222D01*
X15480658Y-11954222D02*
X15490182Y-11935174D01*
X15490182Y-11935174D02*
X15509230Y-11925650D01*
X15509230Y-11925650D02*
X15537801Y-11925650D01*
X15537801Y-11925650D02*
X15556849Y-11935174D01*
X15633039Y-12135174D02*
X15642563Y-12125650D01*
X15642563Y-12125650D02*
X15661611Y-12097079D01*
X15661611Y-12097079D02*
X15671134Y-12078031D01*
X15671134Y-12078031D02*
X15680658Y-12049460D01*
X15680658Y-12049460D02*
X15690182Y-12001841D01*
X15690182Y-12001841D02*
X15690182Y-11963746D01*
X15690182Y-11963746D02*
X15680658Y-11916127D01*
X15680658Y-11916127D02*
X15671134Y-11887555D01*
X15671134Y-11887555D02*
X15661611Y-11868508D01*
X15661611Y-11868508D02*
X15642563Y-11839936D01*
X15642563Y-11839936D02*
X15633039Y-11830412D01*
X15994944Y-12135174D02*
X15985420Y-12125650D01*
X15985420Y-12125650D02*
X15966372Y-12097079D01*
X15966372Y-12097079D02*
X15956849Y-12078031D01*
X15956849Y-12078031D02*
X15947325Y-12049460D01*
X15947325Y-12049460D02*
X15937801Y-12001841D01*
X15937801Y-12001841D02*
X15937801Y-11963746D01*
X15937801Y-11963746D02*
X15947325Y-11916127D01*
X15947325Y-11916127D02*
X15956849Y-11887555D01*
X15956849Y-11887555D02*
X15966372Y-11868508D01*
X15966372Y-11868508D02*
X15985420Y-11839936D01*
X15985420Y-11839936D02*
X15994944Y-11830412D01*
X16071134Y-11925650D02*
X16071134Y-12058984D01*
X16071134Y-11944698D02*
X16080658Y-11935174D01*
X16080658Y-11935174D02*
X16099706Y-11925650D01*
X16099706Y-11925650D02*
X16128277Y-11925650D01*
X16128277Y-11925650D02*
X16147325Y-11935174D01*
X16147325Y-11935174D02*
X16156849Y-11954222D01*
X16156849Y-11954222D02*
X16156849Y-12058984D01*
X16280658Y-12058984D02*
X16261611Y-12049460D01*
X16261611Y-12049460D02*
X16252087Y-12039936D01*
X16252087Y-12039936D02*
X16242563Y-12020888D01*
X16242563Y-12020888D02*
X16242563Y-11963746D01*
X16242563Y-11963746D02*
X16252087Y-11944698D01*
X16252087Y-11944698D02*
X16261611Y-11935174D01*
X16261611Y-11935174D02*
X16280658Y-11925650D01*
X16280658Y-11925650D02*
X16309230Y-11925650D01*
X16309230Y-11925650D02*
X16328277Y-11935174D01*
X16328277Y-11935174D02*
X16337801Y-11944698D01*
X16337801Y-11944698D02*
X16347325Y-11963746D01*
X16347325Y-11963746D02*
X16347325Y-12020888D01*
X16347325Y-12020888D02*
X16337801Y-12039936D01*
X16337801Y-12039936D02*
X16328277Y-12049460D01*
X16328277Y-12049460D02*
X16309230Y-12058984D01*
X16309230Y-12058984D02*
X16280658Y-12058984D01*
X16404468Y-11925650D02*
X16480658Y-11925650D01*
X16433039Y-11858984D02*
X16433039Y-12030412D01*
X16433039Y-12030412D02*
X16442563Y-12049460D01*
X16442563Y-12049460D02*
X16461611Y-12058984D01*
X16461611Y-12058984D02*
X16480658Y-12058984D01*
X16699706Y-11925650D02*
X16699706Y-12125650D01*
X16699706Y-11935174D02*
X16718753Y-11925650D01*
X16718753Y-11925650D02*
X16756849Y-11925650D01*
X16756849Y-11925650D02*
X16775896Y-11935174D01*
X16775896Y-11935174D02*
X16785420Y-11944698D01*
X16785420Y-11944698D02*
X16794944Y-11963746D01*
X16794944Y-11963746D02*
X16794944Y-12020888D01*
X16794944Y-12020888D02*
X16785420Y-12039936D01*
X16785420Y-12039936D02*
X16775896Y-12049460D01*
X16775896Y-12049460D02*
X16756849Y-12058984D01*
X16756849Y-12058984D02*
X16718753Y-12058984D01*
X16718753Y-12058984D02*
X16699706Y-12049460D01*
X16909230Y-12058984D02*
X16890182Y-12049460D01*
X16890182Y-12049460D02*
X16880658Y-12030412D01*
X16880658Y-12030412D02*
X16880658Y-11858984D01*
X17071135Y-12058984D02*
X17071135Y-11954222D01*
X17071135Y-11954222D02*
X17061611Y-11935174D01*
X17061611Y-11935174D02*
X17042563Y-11925650D01*
X17042563Y-11925650D02*
X17004468Y-11925650D01*
X17004468Y-11925650D02*
X16985420Y-11935174D01*
X17071135Y-12049460D02*
X17052087Y-12058984D01*
X17052087Y-12058984D02*
X17004468Y-12058984D01*
X17004468Y-12058984D02*
X16985420Y-12049460D01*
X16985420Y-12049460D02*
X16975896Y-12030412D01*
X16975896Y-12030412D02*
X16975896Y-12011365D01*
X16975896Y-12011365D02*
X16985420Y-11992317D01*
X16985420Y-11992317D02*
X17004468Y-11982793D01*
X17004468Y-11982793D02*
X17052087Y-11982793D01*
X17052087Y-11982793D02*
X17071135Y-11973269D01*
X17137801Y-11925650D02*
X17213992Y-11925650D01*
X17166373Y-11858984D02*
X17166373Y-12030412D01*
X17166373Y-12030412D02*
X17175896Y-12049460D01*
X17175896Y-12049460D02*
X17194944Y-12058984D01*
X17194944Y-12058984D02*
X17213992Y-12058984D01*
X17356849Y-12049460D02*
X17337801Y-12058984D01*
X17337801Y-12058984D02*
X17299706Y-12058984D01*
X17299706Y-12058984D02*
X17280658Y-12049460D01*
X17280658Y-12049460D02*
X17271135Y-12030412D01*
X17271135Y-12030412D02*
X17271135Y-11954222D01*
X17271135Y-11954222D02*
X17280658Y-11935174D01*
X17280658Y-11935174D02*
X17299706Y-11925650D01*
X17299706Y-11925650D02*
X17337801Y-11925650D01*
X17337801Y-11925650D02*
X17356849Y-11935174D01*
X17356849Y-11935174D02*
X17366373Y-11954222D01*
X17366373Y-11954222D02*
X17366373Y-11973269D01*
X17366373Y-11973269D02*
X17271135Y-11992317D01*
X17537801Y-12058984D02*
X17537801Y-11858984D01*
X17537801Y-12049460D02*
X17518754Y-12058984D01*
X17518754Y-12058984D02*
X17480658Y-12058984D01*
X17480658Y-12058984D02*
X17461611Y-12049460D01*
X17461611Y-12049460D02*
X17452087Y-12039936D01*
X17452087Y-12039936D02*
X17442563Y-12020888D01*
X17442563Y-12020888D02*
X17442563Y-11963746D01*
X17442563Y-11963746D02*
X17452087Y-11944698D01*
X17452087Y-11944698D02*
X17461611Y-11935174D01*
X17461611Y-11935174D02*
X17480658Y-11925650D01*
X17480658Y-11925650D02*
X17518754Y-11925650D01*
X17518754Y-11925650D02*
X17537801Y-11935174D01*
X17613992Y-12135174D02*
X17623516Y-12125650D01*
X17623516Y-12125650D02*
X17642563Y-12097079D01*
X17642563Y-12097079D02*
X17652087Y-12078031D01*
X17652087Y-12078031D02*
X17661611Y-12049460D01*
X17661611Y-12049460D02*
X17671135Y-12001841D01*
X17671135Y-12001841D02*
X17671135Y-11963746D01*
X17671135Y-11963746D02*
X17661611Y-11916127D01*
X17661611Y-11916127D02*
X17652087Y-11887555D01*
X17652087Y-11887555D02*
X17642563Y-11868508D01*
X17642563Y-11868508D02*
X17623516Y-11839936D01*
X17623516Y-11839936D02*
X17613992Y-11830412D01*
X10667500Y-12287500D02*
G75*
G02*
X10467500Y-12287500I-100000J0D01*
G01*
X10467500Y-12287500D02*
G75*
G02*
X10667500Y-12287500I100000J0D01*
G01*
X11013991Y-12245650D02*
X11013991Y-12378984D01*
X10966372Y-12169460D02*
X10918753Y-12312317D01*
X10918753Y-12312317D02*
X11042563Y-12312317D01*
X11118753Y-12359936D02*
X11128277Y-12369460D01*
X11128277Y-12369460D02*
X11118753Y-12378984D01*
X11118753Y-12378984D02*
X11109229Y-12369460D01*
X11109229Y-12369460D02*
X11118753Y-12359936D01*
X11118753Y-12359936D02*
X11118753Y-12378984D01*
X11309229Y-12178984D02*
X11213991Y-12178984D01*
X11213991Y-12178984D02*
X11204467Y-12274222D01*
X11204467Y-12274222D02*
X11213991Y-12264698D01*
X11213991Y-12264698D02*
X11233039Y-12255174D01*
X11233039Y-12255174D02*
X11280658Y-12255174D01*
X11280658Y-12255174D02*
X11299705Y-12264698D01*
X11299705Y-12264698D02*
X11309229Y-12274222D01*
X11309229Y-12274222D02*
X11318753Y-12293269D01*
X11318753Y-12293269D02*
X11318753Y-12340888D01*
X11318753Y-12340888D02*
X11309229Y-12359936D01*
X11309229Y-12359936D02*
X11299705Y-12369460D01*
X11299705Y-12369460D02*
X11280658Y-12378984D01*
X11280658Y-12378984D02*
X11233039Y-12378984D01*
X11233039Y-12378984D02*
X11213991Y-12369460D01*
X11213991Y-12369460D02*
X11204467Y-12359936D01*
X11442562Y-12178984D02*
X11461610Y-12178984D01*
X11461610Y-12178984D02*
X11480658Y-12188508D01*
X11480658Y-12188508D02*
X11490182Y-12198031D01*
X11490182Y-12198031D02*
X11499705Y-12217079D01*
X11499705Y-12217079D02*
X11509229Y-12255174D01*
X11509229Y-12255174D02*
X11509229Y-12302793D01*
X11509229Y-12302793D02*
X11499705Y-12340888D01*
X11499705Y-12340888D02*
X11490182Y-12359936D01*
X11490182Y-12359936D02*
X11480658Y-12369460D01*
X11480658Y-12369460D02*
X11461610Y-12378984D01*
X11461610Y-12378984D02*
X11442562Y-12378984D01*
X11442562Y-12378984D02*
X11423515Y-12369460D01*
X11423515Y-12369460D02*
X11413991Y-12359936D01*
X11413991Y-12359936D02*
X11404467Y-12340888D01*
X11404467Y-12340888D02*
X11394943Y-12302793D01*
X11394943Y-12302793D02*
X11394943Y-12255174D01*
X11394943Y-12255174D02*
X11404467Y-12217079D01*
X11404467Y-12217079D02*
X11413991Y-12198031D01*
X11413991Y-12198031D02*
X11423515Y-12188508D01*
X11423515Y-12188508D02*
X11442562Y-12178984D01*
X11633039Y-12178984D02*
X11652086Y-12178984D01*
X11652086Y-12178984D02*
X11671134Y-12188508D01*
X11671134Y-12188508D02*
X11680658Y-12198031D01*
X11680658Y-12198031D02*
X11690182Y-12217079D01*
X11690182Y-12217079D02*
X11699705Y-12255174D01*
X11699705Y-12255174D02*
X11699705Y-12302793D01*
X11699705Y-12302793D02*
X11690182Y-12340888D01*
X11690182Y-12340888D02*
X11680658Y-12359936D01*
X11680658Y-12359936D02*
X11671134Y-12369460D01*
X11671134Y-12369460D02*
X11652086Y-12378984D01*
X11652086Y-12378984D02*
X11633039Y-12378984D01*
X11633039Y-12378984D02*
X11613991Y-12369460D01*
X11613991Y-12369460D02*
X11604467Y-12359936D01*
X11604467Y-12359936D02*
X11594943Y-12340888D01*
X11594943Y-12340888D02*
X11585420Y-12302793D01*
X11585420Y-12302793D02*
X11585420Y-12255174D01*
X11585420Y-12255174D02*
X11594943Y-12217079D01*
X11594943Y-12217079D02*
X11604467Y-12198031D01*
X11604467Y-12198031D02*
X11613991Y-12188508D01*
X11613991Y-12188508D02*
X11633039Y-12178984D01*
X11785420Y-12378984D02*
X11785420Y-12245650D01*
X11785420Y-12264698D02*
X11794943Y-12255174D01*
X11794943Y-12255174D02*
X11813991Y-12245650D01*
X11813991Y-12245650D02*
X11842563Y-12245650D01*
X11842563Y-12245650D02*
X11861610Y-12255174D01*
X11861610Y-12255174D02*
X11871134Y-12274222D01*
X11871134Y-12274222D02*
X11871134Y-12378984D01*
X11871134Y-12274222D02*
X11880658Y-12255174D01*
X11880658Y-12255174D02*
X11899705Y-12245650D01*
X11899705Y-12245650D02*
X11928277Y-12245650D01*
X11928277Y-12245650D02*
X11947324Y-12255174D01*
X11947324Y-12255174D02*
X11956848Y-12274222D01*
X11956848Y-12274222D02*
X11956848Y-12378984D01*
X12052086Y-12378984D02*
X12052086Y-12245650D01*
X12052086Y-12264698D02*
X12061610Y-12255174D01*
X12061610Y-12255174D02*
X12080658Y-12245650D01*
X12080658Y-12245650D02*
X12109229Y-12245650D01*
X12109229Y-12245650D02*
X12128277Y-12255174D01*
X12128277Y-12255174D02*
X12137801Y-12274222D01*
X12137801Y-12274222D02*
X12137801Y-12378984D01*
X12137801Y-12274222D02*
X12147324Y-12255174D01*
X12147324Y-12255174D02*
X12166372Y-12245650D01*
X12166372Y-12245650D02*
X12194943Y-12245650D01*
X12194943Y-12245650D02*
X12213991Y-12255174D01*
X12213991Y-12255174D02*
X12223515Y-12274222D01*
X12223515Y-12274222D02*
X12223515Y-12378984D01*
X12613991Y-12169460D02*
X12442563Y-12426603D01*
X12871134Y-12178984D02*
X12890182Y-12178984D01*
X12890182Y-12178984D02*
X12909229Y-12188508D01*
X12909229Y-12188508D02*
X12918753Y-12198031D01*
X12918753Y-12198031D02*
X12928277Y-12217079D01*
X12928277Y-12217079D02*
X12937801Y-12255174D01*
X12937801Y-12255174D02*
X12937801Y-12302793D01*
X12937801Y-12302793D02*
X12928277Y-12340888D01*
X12928277Y-12340888D02*
X12918753Y-12359936D01*
X12918753Y-12359936D02*
X12909229Y-12369460D01*
X12909229Y-12369460D02*
X12890182Y-12378984D01*
X12890182Y-12378984D02*
X12871134Y-12378984D01*
X12871134Y-12378984D02*
X12852086Y-12369460D01*
X12852086Y-12369460D02*
X12842563Y-12359936D01*
X12842563Y-12359936D02*
X12833039Y-12340888D01*
X12833039Y-12340888D02*
X12823515Y-12302793D01*
X12823515Y-12302793D02*
X12823515Y-12255174D01*
X12823515Y-12255174D02*
X12833039Y-12217079D01*
X12833039Y-12217079D02*
X12842563Y-12198031D01*
X12842563Y-12198031D02*
X12852086Y-12188508D01*
X12852086Y-12188508D02*
X12871134Y-12178984D01*
X13023515Y-12359936D02*
X13033039Y-12369460D01*
X13033039Y-12369460D02*
X13023515Y-12378984D01*
X13023515Y-12378984D02*
X13013991Y-12369460D01*
X13013991Y-12369460D02*
X13023515Y-12359936D01*
X13023515Y-12359936D02*
X13023515Y-12378984D01*
X13223515Y-12378984D02*
X13109229Y-12378984D01*
X13166372Y-12378984D02*
X13166372Y-12178984D01*
X13166372Y-12178984D02*
X13147325Y-12207555D01*
X13147325Y-12207555D02*
X13128277Y-12226603D01*
X13128277Y-12226603D02*
X13109229Y-12236127D01*
X13290182Y-12178984D02*
X13423515Y-12178984D01*
X13423515Y-12178984D02*
X13337801Y-12378984D01*
X13480658Y-12178984D02*
X13613991Y-12178984D01*
X13613991Y-12178984D02*
X13528277Y-12378984D01*
X13680658Y-12198031D02*
X13690182Y-12188508D01*
X13690182Y-12188508D02*
X13709229Y-12178984D01*
X13709229Y-12178984D02*
X13756848Y-12178984D01*
X13756848Y-12178984D02*
X13775896Y-12188508D01*
X13775896Y-12188508D02*
X13785420Y-12198031D01*
X13785420Y-12198031D02*
X13794944Y-12217079D01*
X13794944Y-12217079D02*
X13794944Y-12236127D01*
X13794944Y-12236127D02*
X13785420Y-12264698D01*
X13785420Y-12264698D02*
X13671134Y-12378984D01*
X13671134Y-12378984D02*
X13794944Y-12378984D01*
X13871134Y-12178984D02*
X13871134Y-12217079D01*
X13947325Y-12178984D02*
X13947325Y-12217079D01*
X14242563Y-12455174D02*
X14233039Y-12445650D01*
X14233039Y-12445650D02*
X14213991Y-12417079D01*
X14213991Y-12417079D02*
X14204468Y-12398031D01*
X14204468Y-12398031D02*
X14194944Y-12369460D01*
X14194944Y-12369460D02*
X14185420Y-12321841D01*
X14185420Y-12321841D02*
X14185420Y-12283746D01*
X14185420Y-12283746D02*
X14194944Y-12236127D01*
X14194944Y-12236127D02*
X14204468Y-12207555D01*
X14204468Y-12207555D02*
X14213991Y-12188508D01*
X14213991Y-12188508D02*
X14233039Y-12159936D01*
X14233039Y-12159936D02*
X14242563Y-12150412D01*
X14309229Y-12198031D02*
X14318753Y-12188508D01*
X14318753Y-12188508D02*
X14337801Y-12178984D01*
X14337801Y-12178984D02*
X14385420Y-12178984D01*
X14385420Y-12178984D02*
X14404468Y-12188508D01*
X14404468Y-12188508D02*
X14413991Y-12198031D01*
X14413991Y-12198031D02*
X14423515Y-12217079D01*
X14423515Y-12217079D02*
X14423515Y-12236127D01*
X14423515Y-12236127D02*
X14413991Y-12264698D01*
X14413991Y-12264698D02*
X14299706Y-12378984D01*
X14299706Y-12378984D02*
X14423515Y-12378984D01*
X14661610Y-12378984D02*
X14661610Y-12178984D01*
X14747325Y-12378984D02*
X14747325Y-12274222D01*
X14747325Y-12274222D02*
X14737801Y-12255174D01*
X14737801Y-12255174D02*
X14718753Y-12245650D01*
X14718753Y-12245650D02*
X14690182Y-12245650D01*
X14690182Y-12245650D02*
X14671134Y-12255174D01*
X14671134Y-12255174D02*
X14661610Y-12264698D01*
X14871134Y-12378984D02*
X14852087Y-12369460D01*
X14852087Y-12369460D02*
X14842563Y-12359936D01*
X14842563Y-12359936D02*
X14833039Y-12340888D01*
X14833039Y-12340888D02*
X14833039Y-12283746D01*
X14833039Y-12283746D02*
X14842563Y-12264698D01*
X14842563Y-12264698D02*
X14852087Y-12255174D01*
X14852087Y-12255174D02*
X14871134Y-12245650D01*
X14871134Y-12245650D02*
X14899706Y-12245650D01*
X14899706Y-12245650D02*
X14918753Y-12255174D01*
X14918753Y-12255174D02*
X14928277Y-12264698D01*
X14928277Y-12264698D02*
X14937801Y-12283746D01*
X14937801Y-12283746D02*
X14937801Y-12340888D01*
X14937801Y-12340888D02*
X14928277Y-12359936D01*
X14928277Y-12359936D02*
X14918753Y-12369460D01*
X14918753Y-12369460D02*
X14899706Y-12378984D01*
X14899706Y-12378984D02*
X14871134Y-12378984D01*
X15052087Y-12378984D02*
X15033039Y-12369460D01*
X15033039Y-12369460D02*
X15023515Y-12350412D01*
X15023515Y-12350412D02*
X15023515Y-12178984D01*
X15204468Y-12369460D02*
X15185420Y-12378984D01*
X15185420Y-12378984D02*
X15147325Y-12378984D01*
X15147325Y-12378984D02*
X15128277Y-12369460D01*
X15128277Y-12369460D02*
X15118753Y-12350412D01*
X15118753Y-12350412D02*
X15118753Y-12274222D01*
X15118753Y-12274222D02*
X15128277Y-12255174D01*
X15128277Y-12255174D02*
X15147325Y-12245650D01*
X15147325Y-12245650D02*
X15185420Y-12245650D01*
X15185420Y-12245650D02*
X15204468Y-12255174D01*
X15204468Y-12255174D02*
X15213991Y-12274222D01*
X15213991Y-12274222D02*
X15213991Y-12293269D01*
X15213991Y-12293269D02*
X15118753Y-12312317D01*
X15290182Y-12369460D02*
X15309230Y-12378984D01*
X15309230Y-12378984D02*
X15347325Y-12378984D01*
X15347325Y-12378984D02*
X15366372Y-12369460D01*
X15366372Y-12369460D02*
X15375896Y-12350412D01*
X15375896Y-12350412D02*
X15375896Y-12340888D01*
X15375896Y-12340888D02*
X15366372Y-12321841D01*
X15366372Y-12321841D02*
X15347325Y-12312317D01*
X15347325Y-12312317D02*
X15318753Y-12312317D01*
X15318753Y-12312317D02*
X15299706Y-12302793D01*
X15299706Y-12302793D02*
X15290182Y-12283746D01*
X15290182Y-12283746D02*
X15290182Y-12274222D01*
X15290182Y-12274222D02*
X15299706Y-12255174D01*
X15299706Y-12255174D02*
X15318753Y-12245650D01*
X15318753Y-12245650D02*
X15347325Y-12245650D01*
X15347325Y-12245650D02*
X15366372Y-12255174D01*
X15442563Y-12455174D02*
X15452087Y-12445650D01*
X15452087Y-12445650D02*
X15471134Y-12417079D01*
X15471134Y-12417079D02*
X15480658Y-12398031D01*
X15480658Y-12398031D02*
X15490182Y-12369460D01*
X15490182Y-12369460D02*
X15499706Y-12321841D01*
X15499706Y-12321841D02*
X15499706Y-12283746D01*
X15499706Y-12283746D02*
X15490182Y-12236127D01*
X15490182Y-12236127D02*
X15480658Y-12207555D01*
X15480658Y-12207555D02*
X15471134Y-12188508D01*
X15471134Y-12188508D02*
X15452087Y-12159936D01*
X15452087Y-12159936D02*
X15442563Y-12150412D01*
X15804468Y-12455174D02*
X15794944Y-12445650D01*
X15794944Y-12445650D02*
X15775896Y-12417079D01*
X15775896Y-12417079D02*
X15766372Y-12398031D01*
X15766372Y-12398031D02*
X15756849Y-12369460D01*
X15756849Y-12369460D02*
X15747325Y-12321841D01*
X15747325Y-12321841D02*
X15747325Y-12283746D01*
X15747325Y-12283746D02*
X15756849Y-12236127D01*
X15756849Y-12236127D02*
X15766372Y-12207555D01*
X15766372Y-12207555D02*
X15775896Y-12188508D01*
X15775896Y-12188508D02*
X15794944Y-12159936D01*
X15794944Y-12159936D02*
X15804468Y-12150412D01*
X15880658Y-12245650D02*
X15880658Y-12378984D01*
X15880658Y-12264698D02*
X15890182Y-12255174D01*
X15890182Y-12255174D02*
X15909230Y-12245650D01*
X15909230Y-12245650D02*
X15937801Y-12245650D01*
X15937801Y-12245650D02*
X15956849Y-12255174D01*
X15956849Y-12255174D02*
X15966372Y-12274222D01*
X15966372Y-12274222D02*
X15966372Y-12378984D01*
X16090182Y-12378984D02*
X16071134Y-12369460D01*
X16071134Y-12369460D02*
X16061611Y-12359936D01*
X16061611Y-12359936D02*
X16052087Y-12340888D01*
X16052087Y-12340888D02*
X16052087Y-12283746D01*
X16052087Y-12283746D02*
X16061611Y-12264698D01*
X16061611Y-12264698D02*
X16071134Y-12255174D01*
X16071134Y-12255174D02*
X16090182Y-12245650D01*
X16090182Y-12245650D02*
X16118753Y-12245650D01*
X16118753Y-12245650D02*
X16137801Y-12255174D01*
X16137801Y-12255174D02*
X16147325Y-12264698D01*
X16147325Y-12264698D02*
X16156849Y-12283746D01*
X16156849Y-12283746D02*
X16156849Y-12340888D01*
X16156849Y-12340888D02*
X16147325Y-12359936D01*
X16147325Y-12359936D02*
X16137801Y-12369460D01*
X16137801Y-12369460D02*
X16118753Y-12378984D01*
X16118753Y-12378984D02*
X16090182Y-12378984D01*
X16213992Y-12245650D02*
X16290182Y-12245650D01*
X16242563Y-12178984D02*
X16242563Y-12350412D01*
X16242563Y-12350412D02*
X16252087Y-12369460D01*
X16252087Y-12369460D02*
X16271134Y-12378984D01*
X16271134Y-12378984D02*
X16290182Y-12378984D01*
X16509230Y-12245650D02*
X16509230Y-12445650D01*
X16509230Y-12255174D02*
X16528277Y-12245650D01*
X16528277Y-12245650D02*
X16566373Y-12245650D01*
X16566373Y-12245650D02*
X16585420Y-12255174D01*
X16585420Y-12255174D02*
X16594944Y-12264698D01*
X16594944Y-12264698D02*
X16604468Y-12283746D01*
X16604468Y-12283746D02*
X16604468Y-12340888D01*
X16604468Y-12340888D02*
X16594944Y-12359936D01*
X16594944Y-12359936D02*
X16585420Y-12369460D01*
X16585420Y-12369460D02*
X16566373Y-12378984D01*
X16566373Y-12378984D02*
X16528277Y-12378984D01*
X16528277Y-12378984D02*
X16509230Y-12369460D01*
X16718753Y-12378984D02*
X16699706Y-12369460D01*
X16699706Y-12369460D02*
X16690182Y-12350412D01*
X16690182Y-12350412D02*
X16690182Y-12178984D01*
X16880658Y-12378984D02*
X16880658Y-12274222D01*
X16880658Y-12274222D02*
X16871135Y-12255174D01*
X16871135Y-12255174D02*
X16852087Y-12245650D01*
X16852087Y-12245650D02*
X16813992Y-12245650D01*
X16813992Y-12245650D02*
X16794944Y-12255174D01*
X16880658Y-12369460D02*
X16861611Y-12378984D01*
X16861611Y-12378984D02*
X16813992Y-12378984D01*
X16813992Y-12378984D02*
X16794944Y-12369460D01*
X16794944Y-12369460D02*
X16785420Y-12350412D01*
X16785420Y-12350412D02*
X16785420Y-12331365D01*
X16785420Y-12331365D02*
X16794944Y-12312317D01*
X16794944Y-12312317D02*
X16813992Y-12302793D01*
X16813992Y-12302793D02*
X16861611Y-12302793D01*
X16861611Y-12302793D02*
X16880658Y-12293269D01*
X16947325Y-12245650D02*
X17023515Y-12245650D01*
X16975896Y-12178984D02*
X16975896Y-12350412D01*
X16975896Y-12350412D02*
X16985420Y-12369460D01*
X16985420Y-12369460D02*
X17004468Y-12378984D01*
X17004468Y-12378984D02*
X17023515Y-12378984D01*
X17166373Y-12369460D02*
X17147325Y-12378984D01*
X17147325Y-12378984D02*
X17109230Y-12378984D01*
X17109230Y-12378984D02*
X17090182Y-12369460D01*
X17090182Y-12369460D02*
X17080658Y-12350412D01*
X17080658Y-12350412D02*
X17080658Y-12274222D01*
X17080658Y-12274222D02*
X17090182Y-12255174D01*
X17090182Y-12255174D02*
X17109230Y-12245650D01*
X17109230Y-12245650D02*
X17147325Y-12245650D01*
X17147325Y-12245650D02*
X17166373Y-12255174D01*
X17166373Y-12255174D02*
X17175896Y-12274222D01*
X17175896Y-12274222D02*
X17175896Y-12293269D01*
X17175896Y-12293269D02*
X17080658Y-12312317D01*
X17347325Y-12378984D02*
X17347325Y-12178984D01*
X17347325Y-12369460D02*
X17328277Y-12378984D01*
X17328277Y-12378984D02*
X17290182Y-12378984D01*
X17290182Y-12378984D02*
X17271135Y-12369460D01*
X17271135Y-12369460D02*
X17261611Y-12359936D01*
X17261611Y-12359936D02*
X17252087Y-12340888D01*
X17252087Y-12340888D02*
X17252087Y-12283746D01*
X17252087Y-12283746D02*
X17261611Y-12264698D01*
X17261611Y-12264698D02*
X17271135Y-12255174D01*
X17271135Y-12255174D02*
X17290182Y-12245650D01*
X17290182Y-12245650D02*
X17328277Y-12245650D01*
X17328277Y-12245650D02*
X17347325Y-12255174D01*
X17423516Y-12455174D02*
X17433039Y-12445650D01*
X17433039Y-12445650D02*
X17452087Y-12417079D01*
X17452087Y-12417079D02*
X17461611Y-12398031D01*
X17461611Y-12398031D02*
X17471135Y-12369460D01*
X17471135Y-12369460D02*
X17480658Y-12321841D01*
X17480658Y-12321841D02*
X17480658Y-12283746D01*
X17480658Y-12283746D02*
X17471135Y-12236127D01*
X17471135Y-12236127D02*
X17461611Y-12207555D01*
X17461611Y-12207555D02*
X17452087Y-12188508D01*
X17452087Y-12188508D02*
X17433039Y-12159936D01*
X17433039Y-12159936D02*
X17423516Y-12150412D01*
M02*
