%TF.GenerationSoftware,KiCad,Pcbnew,9.0.0*%
%TF.CreationDate,2025-04-14T19:02:10-07:00*%
%TF.ProjectId,solenoid_10,736f6c65-6e6f-4696-945f-31302e6b6963,rev?*%
%TF.SameCoordinates,Original*%
%TF.FileFunction,Soldermask,Top*%
%TF.FilePolarity,Negative*%
%FSLAX46Y46*%
G04 Gerber Fmt 4.6, Leading zero omitted, Abs format (unit mm)*
G04 Created by KiCad (PCBNEW 9.0.0) date 2025-04-14 19:02:10*
%MOMM*%
%LPD*%
G01*
G04 APERTURE LIST*
G04 Aperture macros list*
%AMRoundRect*
0 Rectangle with rounded corners*
0 $1 Rounding radius*
0 $2 $3 $4 $5 $6 $7 $8 $9 X,Y pos of 4 corners*
0 Add a 4 corners polygon primitive as box body*
4,1,4,$2,$3,$4,$5,$6,$7,$8,$9,$2,$3,0*
0 Add four circle primitives for the rounded corners*
1,1,$1+$1,$2,$3*
1,1,$1+$1,$4,$5*
1,1,$1+$1,$6,$7*
1,1,$1+$1,$8,$9*
0 Add four rect primitives between the rounded corners*
20,1,$1+$1,$2,$3,$4,$5,0*
20,1,$1+$1,$4,$5,$6,$7,0*
20,1,$1+$1,$6,$7,$8,$9,0*
20,1,$1+$1,$8,$9,$2,$3,0*%
G04 Aperture macros list end*
%ADD10RoundRect,0.250000X0.350000X0.450000X-0.350000X0.450000X-0.350000X-0.450000X0.350000X-0.450000X0*%
%ADD11R,1.000000X1.000000*%
%ADD12RoundRect,0.250000X1.450000X-0.400000X1.450000X0.400000X-1.450000X0.400000X-1.450000X-0.400000X0*%
%ADD13RoundRect,0.250000X-0.350000X-0.450000X0.350000X-0.450000X0.350000X0.450000X-0.350000X0.450000X0*%
%ADD14RoundRect,0.150000X0.150000X-0.725000X0.150000X0.725000X-0.150000X0.725000X-0.150000X-0.725000X0*%
%ADD15RoundRect,0.225000X-0.375000X0.225000X-0.375000X-0.225000X0.375000X-0.225000X0.375000X0.225000X0*%
%ADD16RoundRect,0.100000X-0.130000X-0.100000X0.130000X-0.100000X0.130000X0.100000X-0.130000X0.100000X0*%
%ADD17R,2.000000X2.000000*%
%ADD18C,2.000000*%
%ADD19C,3.500000*%
%ADD20RoundRect,0.250000X-0.300000X-0.300000X0.300000X-0.300000X0.300000X0.300000X-0.300000X0.300000X0*%
%ADD21RoundRect,0.250001X-0.799999X2.049999X-0.799999X-2.049999X0.799999X-2.049999X0.799999X2.049999X0*%
%ADD22RoundRect,0.218750X-0.218750X-0.256250X0.218750X-0.256250X0.218750X0.256250X-0.218750X0.256250X0*%
%ADD23RoundRect,0.250000X-0.250000X0.250000X-0.250000X-0.250000X0.250000X-0.250000X0.250000X0.250000X0*%
%ADD24RoundRect,0.250000X-0.475000X0.337500X-0.475000X-0.337500X0.475000X-0.337500X0.475000X0.337500X0*%
%ADD25RoundRect,0.250000X-0.750000X-0.500000X0.750000X-0.500000X0.750000X0.500000X-0.750000X0.500000X0*%
%ADD26RoundRect,0.250000X-0.750000X-1.650000X0.750000X-1.650000X0.750000X1.650000X-0.750000X1.650000X0*%
%ADD27C,4.500000*%
%ADD28RoundRect,0.150000X-0.150000X0.825000X-0.150000X-0.825000X0.150000X-0.825000X0.150000X0.825000X0*%
%ADD29RoundRect,0.250000X-0.550000X1.500000X-0.550000X-1.500000X0.550000X-1.500000X0.550000X1.500000X0*%
%ADD30RoundRect,0.102000X-0.924896X0.000000X0.000000X-0.924896X0.924896X0.000000X0.000000X0.924896X0*%
%ADD31C,1.512000*%
%ADD32RoundRect,0.250000X-0.400000X-1.450000X0.400000X-1.450000X0.400000X1.450000X-0.400000X1.450000X0*%
%ADD33RoundRect,0.250000X-0.450000X0.350000X-0.450000X-0.350000X0.450000X-0.350000X0.450000X0.350000X0*%
%ADD34R,3.500000X2.950000*%
%ADD35RoundRect,0.102000X-1.050000X1.050000X-1.050000X-1.050000X1.050000X-1.050000X1.050000X1.050000X0*%
%ADD36C,2.304000*%
G04 APERTURE END LIST*
D10*
%TO.C,R7*%
X137613376Y-89209500D03*
X135613376Y-89209500D03*
%TD*%
D11*
%TO.C,TP8*%
X228800000Y-94000000D03*
%TD*%
D12*
%TO.C,F4*%
X159913376Y-81234500D03*
X159913376Y-76784500D03*
%TD*%
%TO.C,F10*%
X297913376Y-81234500D03*
X297913376Y-76784500D03*
%TD*%
D13*
%TO.C,R16*%
X257738376Y-82809500D03*
X259738376Y-82809500D03*
%TD*%
D14*
%TO.C,Q3*%
X147958376Y-82384500D03*
X149228376Y-82384500D03*
X150498376Y-82384500D03*
X151768376Y-82384500D03*
X151768376Y-77234500D03*
X150498376Y-77234500D03*
X149228376Y-77234500D03*
X147958376Y-77234500D03*
%TD*%
D12*
%TO.C,F7*%
X228913376Y-81234500D03*
X228913376Y-76784500D03*
%TD*%
D15*
%TO.C,D2*%
X224800000Y-105850000D03*
X224800000Y-109150000D03*
%TD*%
D11*
%TO.C,TP7*%
X205800000Y-94000000D03*
%TD*%
D16*
%TO.C,LED5*%
X159293376Y-86659500D03*
X159933376Y-86659500D03*
%TD*%
D13*
%TO.C,R8*%
X165738376Y-82809500D03*
X167738376Y-82809500D03*
%TD*%
D17*
%TO.C,S2*%
X143088376Y-85309500D03*
D18*
X149588376Y-85309500D03*
X143088376Y-89809500D03*
X149588376Y-89809500D03*
%TD*%
D19*
%TO.C,H4*%
X189182001Y-77609000D03*
%TD*%
D14*
%TO.C,Q9*%
X285958376Y-82384500D03*
X287228376Y-82384500D03*
X288498376Y-82384500D03*
X289768376Y-82384500D03*
X289768376Y-77234500D03*
X288498376Y-77234500D03*
X287228376Y-77234500D03*
X285958376Y-77234500D03*
%TD*%
D19*
%TO.C,H6*%
X235182001Y-77609000D03*
%TD*%
D14*
%TO.C,Q7*%
X239958376Y-82384500D03*
X241228376Y-82384500D03*
X242498376Y-82384500D03*
X243768376Y-82384500D03*
X243768376Y-77234500D03*
X242498376Y-77234500D03*
X241228376Y-77234500D03*
X239958376Y-77234500D03*
%TD*%
D16*
%TO.C,LED3*%
X113293375Y-86659500D03*
X113933375Y-86659500D03*
%TD*%
D10*
%TO.C,R17*%
X252613376Y-89209500D03*
X250613376Y-89209500D03*
%TD*%
D13*
%TO.C,R3*%
X119738375Y-82809500D03*
X121738375Y-82809500D03*
%TD*%
D20*
%TO.C,D10*%
X302313376Y-70159500D03*
X305113376Y-70159500D03*
%TD*%
D10*
%TO.C,R19*%
X275613376Y-89209500D03*
X273613376Y-89209500D03*
%TD*%
D13*
%TO.C,R10*%
X188738376Y-82809500D03*
X190738376Y-82809500D03*
%TD*%
D16*
%TO.C,LED6*%
X182293376Y-86659500D03*
X182933376Y-86659500D03*
%TD*%
D10*
%TO.C,R15*%
X229613376Y-89209500D03*
X227613376Y-89209500D03*
%TD*%
D21*
%TO.C,C1*%
X191300000Y-100600000D03*
X191300000Y-109400000D03*
%TD*%
D20*
%TO.C,D3*%
X141313376Y-70159500D03*
X144113376Y-70159500D03*
%TD*%
D16*
%TO.C,LED9*%
X251293376Y-86659500D03*
X251933376Y-86659500D03*
%TD*%
D10*
%TO.C,R21*%
X298613376Y-89209500D03*
X296613376Y-89209500D03*
%TD*%
D22*
%TO.C,LED2*%
X181012500Y-104000000D03*
X182587500Y-104000000D03*
%TD*%
D23*
%TO.C,DZ1*%
X246300000Y-103500000D03*
X246300000Y-106000000D03*
%TD*%
D16*
%TO.C,LED4*%
X136293376Y-86659500D03*
X136933376Y-86659500D03*
%TD*%
D19*
%TO.C,H2*%
X143182001Y-77609000D03*
%TD*%
D12*
%TO.C,F5*%
X182913376Y-81234500D03*
X182913376Y-76784500D03*
%TD*%
D13*
%TO.C,R6*%
X142738376Y-82809500D03*
X144738376Y-82809500D03*
%TD*%
D12*
%TO.C,F9*%
X274913376Y-81234500D03*
X274913376Y-76784500D03*
%TD*%
D11*
%TO.C,TP2*%
X181800000Y-110500000D03*
%TD*%
D19*
%TO.C,H5*%
X212182001Y-77609000D03*
%TD*%
D20*
%TO.C,D5*%
X187313376Y-70159500D03*
X190113376Y-70159500D03*
%TD*%
D17*
%TO.C,S9*%
X304088376Y-85309500D03*
D18*
X310588376Y-85309500D03*
X304088376Y-89809500D03*
X310588376Y-89809500D03*
%TD*%
D17*
%TO.C,S7*%
X258088376Y-85309500D03*
D18*
X264588376Y-85309500D03*
X258088376Y-89809500D03*
X264588376Y-89809500D03*
%TD*%
D19*
%TO.C,H9*%
X304182001Y-77609000D03*
%TD*%
D17*
%TO.C,S6*%
X235088376Y-85309500D03*
D18*
X241588376Y-85309500D03*
X235088376Y-89809500D03*
X241588376Y-89809500D03*
%TD*%
D24*
%TO.C,C2*%
X200645000Y-103162500D03*
X200645000Y-105237500D03*
%TD*%
D17*
%TO.C,S10*%
X326963376Y-85309500D03*
D18*
X333463376Y-85309500D03*
X326963376Y-89809500D03*
X333463376Y-89809500D03*
%TD*%
D11*
%TO.C,TP6*%
X182800000Y-94000000D03*
%TD*%
D12*
%TO.C,F11*%
X320788376Y-81234500D03*
X320788376Y-76784500D03*
%TD*%
D19*
%TO.C,H7*%
X258182001Y-77609000D03*
%TD*%
D12*
%TO.C,F1*%
X113913375Y-81234500D03*
X113913375Y-76784500D03*
%TD*%
D11*
%TO.C,TP1*%
X169300000Y-110500000D03*
%TD*%
D13*
%TO.C,R12*%
X211738376Y-82809500D03*
X213738376Y-82809500D03*
%TD*%
D16*
%TO.C,LED7*%
X205293376Y-86659500D03*
X205933376Y-86659500D03*
%TD*%
D25*
%TO.C,Q2*%
X251650000Y-104700000D03*
X251650000Y-107000000D03*
D26*
X257950000Y-107000000D03*
D25*
X251650000Y-109300000D03*
%TD*%
D19*
%TO.C,H1*%
X120182000Y-77609000D03*
%TD*%
D14*
%TO.C,Q1*%
X124958375Y-82384500D03*
X126228375Y-82384500D03*
X127498375Y-82384500D03*
X128768375Y-82384500D03*
X128768375Y-77234500D03*
X127498375Y-77234500D03*
X126228375Y-77234500D03*
X124958375Y-77234500D03*
%TD*%
D19*
%TO.C,H8*%
X281182001Y-77609000D03*
%TD*%
D27*
%TO.C,H11*%
X114000000Y-103000000D03*
%TD*%
D20*
%TO.C,D8*%
X256313376Y-70159500D03*
X259113376Y-70159500D03*
%TD*%
D14*
%TO.C,Q10*%
X308958376Y-82384500D03*
X310228376Y-82384500D03*
X311498376Y-82384500D03*
X312768376Y-82384500D03*
X312768376Y-77234500D03*
X311498376Y-77234500D03*
X310228376Y-77234500D03*
X308958376Y-77234500D03*
%TD*%
D20*
%TO.C,D9*%
X279313376Y-70159500D03*
X282113376Y-70159500D03*
%TD*%
D13*
%TO.C,R18*%
X280738376Y-82809500D03*
X282738376Y-82809500D03*
%TD*%
D22*
%TO.C,LED1*%
X168712500Y-104075000D03*
X170287500Y-104075000D03*
%TD*%
D20*
%TO.C,D4*%
X164313376Y-70159500D03*
X167113376Y-70159500D03*
%TD*%
D10*
%TO.C,R4*%
X114613375Y-89209500D03*
X112613375Y-89209500D03*
%TD*%
D14*
%TO.C,Q8*%
X262958376Y-82384500D03*
X264228376Y-82384500D03*
X265498376Y-82384500D03*
X266768376Y-82384500D03*
X266768376Y-77234500D03*
X265498376Y-77234500D03*
X264228376Y-77234500D03*
X262958376Y-77234500D03*
%TD*%
D28*
%TO.C,U1*%
X209800000Y-104000000D03*
X208530000Y-104000000D03*
X207260000Y-104000000D03*
X205990000Y-104000000D03*
X205990000Y-108950000D03*
X207260000Y-108950000D03*
X208530000Y-108950000D03*
X209800000Y-108950000D03*
%TD*%
D29*
%TO.C,C3*%
X232300000Y-103800000D03*
X232300000Y-109200000D03*
%TD*%
D13*
%TO.C,R1*%
X163125000Y-104100000D03*
X165125000Y-104100000D03*
%TD*%
D16*
%TO.C,LED8*%
X228293376Y-86659500D03*
X228933376Y-86659500D03*
%TD*%
D13*
%TO.C,R22*%
X326613376Y-82809500D03*
X328613376Y-82809500D03*
%TD*%
D16*
%TO.C,LED10*%
X274293376Y-86659500D03*
X274933376Y-86659500D03*
%TD*%
D10*
%TO.C,R23*%
X321488376Y-89209500D03*
X319488376Y-89209500D03*
%TD*%
D20*
%TO.C,D6*%
X210313376Y-70159500D03*
X213113376Y-70159500D03*
%TD*%
D13*
%TO.C,R2*%
X175400000Y-104050000D03*
X177400000Y-104050000D03*
%TD*%
D14*
%TO.C,Q6*%
X216958376Y-82384500D03*
X218228376Y-82384500D03*
X219498376Y-82384500D03*
X220768376Y-82384500D03*
X220768376Y-77234500D03*
X219498376Y-77234500D03*
X218228376Y-77234500D03*
X216958376Y-77234500D03*
%TD*%
D12*
%TO.C,F6*%
X205913376Y-81234500D03*
X205913376Y-76784500D03*
%TD*%
D30*
%TO.C,J22*%
X132524371Y-104428356D03*
D31*
X132525078Y-101573766D03*
X131128542Y-100328551D03*
X129263195Y-100195615D03*
X127704024Y-101228698D03*
X127100155Y-102999293D03*
X127702610Y-104769888D03*
X129261781Y-105804385D03*
X131127128Y-105671449D03*
X131100258Y-103000000D03*
X129449871Y-102046820D03*
X129449871Y-103953180D03*
%TD*%
D10*
%TO.C,R9*%
X160613376Y-89209500D03*
X158613376Y-89209500D03*
%TD*%
%TO.C,R11*%
X183613376Y-89209500D03*
X181613376Y-89209500D03*
%TD*%
D13*
%TO.C,R20*%
X303738376Y-82809500D03*
X305738376Y-82809500D03*
%TD*%
D11*
%TO.C,TP9*%
X251800000Y-94000000D03*
%TD*%
D19*
%TO.C,H10*%
X327057001Y-77609000D03*
%TD*%
D11*
%TO.C,TP10*%
X274800000Y-94000000D03*
%TD*%
D17*
%TO.C,S4*%
X189088376Y-85309500D03*
D18*
X195588376Y-85309500D03*
X189088376Y-89809500D03*
X195588376Y-89809500D03*
%TD*%
D10*
%TO.C,R13*%
X206613376Y-89209500D03*
X204613376Y-89209500D03*
%TD*%
D20*
%TO.C,D7*%
X233313376Y-70159500D03*
X236113376Y-70159500D03*
%TD*%
D11*
%TO.C,TP12*%
X320300000Y-94000000D03*
%TD*%
D16*
%TO.C,LED12*%
X320168376Y-86659500D03*
X320808376Y-86659500D03*
%TD*%
D17*
%TO.C,S5*%
X212088376Y-85309500D03*
D18*
X218588376Y-85309500D03*
X212088376Y-89809500D03*
X218588376Y-89809500D03*
%TD*%
D20*
%TO.C,D1*%
X118313375Y-70159500D03*
X121113375Y-70159500D03*
%TD*%
D14*
%TO.C,Q11*%
X331833376Y-82384500D03*
X333103376Y-82384500D03*
X334373376Y-82384500D03*
X335643376Y-82384500D03*
X335643376Y-77234500D03*
X334373376Y-77234500D03*
X333103376Y-77234500D03*
X331833376Y-77234500D03*
%TD*%
D12*
%TO.C,F8*%
X251913376Y-81234500D03*
X251913376Y-76784500D03*
%TD*%
D11*
%TO.C,TP4*%
X139000000Y-94000000D03*
%TD*%
%TO.C,TP5*%
X159800000Y-94000000D03*
%TD*%
%TO.C,TP3*%
X113800000Y-94000000D03*
%TD*%
D27*
%TO.C,H12*%
X146000000Y-103000000D03*
%TD*%
D14*
%TO.C,Q4*%
X170958376Y-82384500D03*
X172228376Y-82384500D03*
X173498376Y-82384500D03*
X174768376Y-82384500D03*
X174768376Y-77234500D03*
X173498376Y-77234500D03*
X172228376Y-77234500D03*
X170958376Y-77234500D03*
%TD*%
D19*
%TO.C,H3*%
X166182001Y-77609000D03*
%TD*%
D20*
%TO.C,D11*%
X325188376Y-70159500D03*
X327988376Y-70159500D03*
%TD*%
D16*
%TO.C,LED11*%
X297293376Y-86659500D03*
X297933376Y-86659500D03*
%TD*%
D17*
%TO.C,S3*%
X166088376Y-85309500D03*
D18*
X172588376Y-85309500D03*
X166088376Y-89809500D03*
X172588376Y-89809500D03*
%TD*%
D32*
%TO.C,F2*%
X238575000Y-103500000D03*
X243025000Y-103500000D03*
%TD*%
D17*
%TO.C,S8*%
X281088376Y-85309500D03*
D18*
X287588376Y-85309500D03*
X281088376Y-89809500D03*
X287588376Y-89809500D03*
%TD*%
D33*
%TO.C,R5*%
X246300000Y-108000000D03*
X246300000Y-110000000D03*
%TD*%
D34*
%TO.C,L1*%
X218300000Y-109100000D03*
X218300000Y-103650000D03*
%TD*%
D17*
%TO.C,S1*%
X120088375Y-85309500D03*
D18*
X126588375Y-85309500D03*
X120088375Y-89809500D03*
X126588375Y-89809500D03*
%TD*%
D12*
%TO.C,F3*%
X136913376Y-81234500D03*
X136913376Y-76784500D03*
%TD*%
D11*
%TO.C,TP11*%
X297800000Y-94000000D03*
%TD*%
D13*
%TO.C,R14*%
X234738376Y-82809500D03*
X236738376Y-82809500D03*
%TD*%
D14*
%TO.C,Q5*%
X193958376Y-82384500D03*
X195228376Y-82384500D03*
X196498376Y-82384500D03*
X197768376Y-82384500D03*
X197768376Y-77234500D03*
X196498376Y-77234500D03*
X195228376Y-77234500D03*
X193958376Y-77234500D03*
%TD*%
D35*
%TO.C,J3*%
X125213375Y-69219500D03*
D36*
X125213375Y-74299500D03*
%TD*%
D35*
%TO.C,J6*%
X160213376Y-69219500D03*
D36*
X160213376Y-74299500D03*
%TD*%
D35*
%TO.C,J20*%
X321088376Y-69219500D03*
D36*
X321088376Y-74299500D03*
%TD*%
D35*
%TO.C,J10*%
X206213376Y-69219500D03*
D36*
X206213376Y-74299500D03*
%TD*%
D35*
%TO.C,J12*%
X229213376Y-69219500D03*
D36*
X229213376Y-74299500D03*
%TD*%
D35*
%TO.C,J9*%
X194213376Y-69219500D03*
D36*
X194213376Y-74299500D03*
%TD*%
D35*
%TO.C,J13*%
X240213376Y-69219500D03*
D36*
X240213376Y-74299500D03*
%TD*%
D35*
%TO.C,J14*%
X252213376Y-69219500D03*
D36*
X252213376Y-74299500D03*
%TD*%
D35*
%TO.C,J5*%
X148213376Y-69219500D03*
D36*
X148213376Y-74299500D03*
%TD*%
D35*
%TO.C,J8*%
X183213376Y-69219500D03*
D36*
X183213376Y-74299500D03*
%TD*%
D35*
%TO.C,J18*%
X298213376Y-69219500D03*
D36*
X298213376Y-74299500D03*
%TD*%
D35*
%TO.C,J15*%
X263213376Y-69219500D03*
D36*
X263213376Y-74299500D03*
%TD*%
D35*
%TO.C,J4*%
X137213376Y-69219500D03*
D36*
X137213376Y-74299500D03*
%TD*%
D35*
%TO.C,J19*%
X309213376Y-69219500D03*
D36*
X309213376Y-74299500D03*
%TD*%
D35*
%TO.C,J7*%
X171213376Y-69219500D03*
D36*
X171213376Y-74299500D03*
%TD*%
D35*
%TO.C,J2*%
X114213375Y-69219500D03*
D36*
X114213375Y-74299500D03*
%TD*%
D35*
%TO.C,J17*%
X286213376Y-69219500D03*
D36*
X286213376Y-74299500D03*
%TD*%
D35*
%TO.C,J16*%
X275213376Y-69219500D03*
D36*
X275213376Y-74299500D03*
%TD*%
D35*
%TO.C,J21*%
X332088376Y-69219500D03*
D36*
X332088376Y-74299500D03*
%TD*%
D35*
%TO.C,J11*%
X217213376Y-69219500D03*
D36*
X217213376Y-74299500D03*
%TD*%
M02*
