M48
; DRILL file {KiCad 9.0.0} date 2025-04-14T19:05:31-0700
; FORMAT={-:-/ absolute / metric / decimal}
; #@! TF.CreationDate,2025-04-14T19:05:31-07:00
; #@! TF.GenerationSoftware,Kicad,Pcbnew,9.0.0
; #@! TF.FileFunction,Plated,1,4,PTH
FMAT,2
METRIC
; #@! TA.AperFunction,Plated,PTH,ViaDrill
T1C0.150
; #@! TA.AperFunction,Plated,PTH,ViaDrill
T2C0.300
; #@! TA.AperFunction,Plated,PTH,ComponentDrill
T3C0.800
; #@! TA.AperFunction,Plated,PTH,ComponentDrill
T4C1.000
; #@! TA.AperFunction,Plated,PTH,ComponentDrill
T5C1.400
%
G90
G05
T1
X127.35Y-98.85
X128.0Y-106.85
X130.2Y-107.15
X132.5Y-98.85
X133.7Y-105.8
X134.2Y-102.55
X181.8Y-108.95
X182.588Y-105.562
X241.0Y-103.5
X246.3Y-101.9
X260.1Y-107.0
T2
X113.3Y-79.25
X126.8Y-79.9
X136.3Y-79.25
X149.8Y-79.9
X159.3Y-79.25
X160.45Y-104.1
X167.8Y-110.5
X170.4Y-105.9
X172.8Y-79.9
X173.15Y-104.05
X182.3Y-79.25
X191.3Y-103.5
X191.35Y-105.85
X195.8Y-79.9
X200.645Y-101.155
X200.65Y-107.25
X204.25Y-104.0
X204.3Y-109.0
X205.3Y-79.25
X211.65Y-104.05
X218.8Y-79.9
X224.8Y-110.8
X228.3Y-79.25
X234.95Y-107.25
X241.8Y-79.9
X244.15Y-110.0
X251.3Y-79.25
X254.55Y-104.65
X264.8Y-79.9
X274.3Y-79.25
X287.8Y-79.9
X297.3Y-79.25
X310.8Y-79.9
X320.175Y-79.25
X333.675Y-79.9
T3
X127.1Y-102.999
X127.703Y-104.77
X127.704Y-101.229
X129.262Y-105.804
X129.263Y-100.196
X129.45Y-102.047
X129.45Y-103.953
X131.1Y-103.0
X131.127Y-105.671
X131.129Y-100.329
X132.524Y-104.428
X132.525Y-101.574
T4
X120.088Y-85.309
X120.088Y-89.809
X126.588Y-85.309
X126.588Y-89.809
X143.088Y-85.309
X143.088Y-89.809
X149.588Y-85.309
X149.588Y-89.809
X166.088Y-85.309
X166.088Y-89.809
X172.588Y-85.309
X172.588Y-89.809
X189.088Y-85.309
X189.088Y-89.809
X195.588Y-85.309
X195.588Y-89.809
X212.088Y-85.309
X212.088Y-89.809
X218.588Y-85.309
X218.588Y-89.809
X235.088Y-85.309
X235.088Y-89.809
X241.588Y-85.309
X241.588Y-89.809
X258.088Y-85.309
X258.088Y-89.809
X264.588Y-85.309
X264.588Y-89.809
X281.088Y-85.309
X281.088Y-89.809
X287.588Y-85.309
X287.588Y-89.809
X304.088Y-85.309
X304.088Y-89.809
X310.588Y-85.309
X310.588Y-89.809
X326.963Y-85.309
X326.963Y-89.809
X333.463Y-85.309
X333.463Y-89.809
T5
X114.213Y-69.219
X114.213Y-74.299
X125.213Y-69.219
X125.213Y-74.299
X137.213Y-69.219
X137.213Y-74.299
X148.213Y-69.219
X148.213Y-74.299
X160.213Y-69.219
X160.213Y-74.299
X171.213Y-69.219
X171.213Y-74.299
X183.213Y-69.219
X183.213Y-74.299
X194.213Y-69.219
X194.213Y-74.299
X206.213Y-69.219
X206.213Y-74.299
X217.213Y-69.219
X217.213Y-74.299
X229.213Y-69.219
X229.213Y-74.299
X240.213Y-69.219
X240.213Y-74.299
X252.213Y-69.219
X252.213Y-74.299
X263.213Y-69.219
X263.213Y-74.299
X275.213Y-69.219
X275.213Y-74.299
X286.213Y-69.219
X286.213Y-74.299
X298.213Y-69.219
X298.213Y-74.299
X309.213Y-69.219
X309.213Y-74.299
X321.088Y-69.219
X321.088Y-74.299
X332.088Y-69.219
X332.088Y-74.299
M30
