G04 #@! TF.GenerationSoftware,KiCad,Pcbnew,9.0.0*
G04 #@! TF.CreationDate,2025-04-14T19:28:55-07:00*
G04 #@! TF.ProjectId,solenoid_10,736f6c65-6e6f-4696-945f-31302e6b6963,rev?*
G04 #@! TF.SameCoordinates,Original*
G04 #@! TF.FileFunction,Legend,Bot*
G04 #@! TF.FilePolarity,Positive*
%FSLAX46Y46*%
G04 Gerber Fmt 4.6, Leading zero omitted, Abs format (unit mm)*
G04 Created by KiCad (PCBNEW 9.0.0) date 2025-04-14 19:28:55*
%MOMM*%
%LPD*%
G01*
G04 APERTURE LIST*
G04 Aperture macros list*
%AMRotRect*
0 Rectangle, with rotation*
0 The origin of the aperture is its center*
0 $1 length*
0 $2 width*
0 $3 Rotation angle, in degrees counterclockwise*
0 Add horizontal line*
21,1,$1,$2,0,0,$3*%
G04 Aperture macros list end*
%ADD10C,0.150000*%
%ADD11C,0.127000*%
%ADD12C,0.200000*%
%ADD13R,2.000000X2.000000*%
%ADD14C,2.000000*%
%ADD15C,3.500000*%
%ADD16C,4.500000*%
%ADD17RotRect,1.308000X1.308000X315.000000*%
%ADD18C,1.308000*%
%ADD19R,2.100000X2.100000*%
%ADD20C,2.100000*%
G04 APERTURE END LIST*
D10*
X127554819Y-71416666D02*
X128269104Y-71416666D01*
X128269104Y-71416666D02*
X128411961Y-71369047D01*
X128411961Y-71369047D02*
X128507200Y-71273809D01*
X128507200Y-71273809D02*
X128554819Y-71130952D01*
X128554819Y-71130952D02*
X128554819Y-71035714D01*
X127554819Y-71797619D02*
X127554819Y-72416666D01*
X127554819Y-72416666D02*
X127935771Y-72083333D01*
X127935771Y-72083333D02*
X127935771Y-72226190D01*
X127935771Y-72226190D02*
X127983390Y-72321428D01*
X127983390Y-72321428D02*
X128031009Y-72369047D01*
X128031009Y-72369047D02*
X128126247Y-72416666D01*
X128126247Y-72416666D02*
X128364342Y-72416666D01*
X128364342Y-72416666D02*
X128459580Y-72369047D01*
X128459580Y-72369047D02*
X128507200Y-72321428D01*
X128507200Y-72321428D02*
X128554819Y-72226190D01*
X128554819Y-72226190D02*
X128554819Y-71940476D01*
X128554819Y-71940476D02*
X128507200Y-71845238D01*
X128507200Y-71845238D02*
X128459580Y-71797619D01*
X156454820Y-71416666D02*
X157169105Y-71416666D01*
X157169105Y-71416666D02*
X157311962Y-71369047D01*
X157311962Y-71369047D02*
X157407201Y-71273809D01*
X157407201Y-71273809D02*
X157454820Y-71130952D01*
X157454820Y-71130952D02*
X157454820Y-71035714D01*
X156454820Y-72321428D02*
X156454820Y-72130952D01*
X156454820Y-72130952D02*
X156502439Y-72035714D01*
X156502439Y-72035714D02*
X156550058Y-71988095D01*
X156550058Y-71988095D02*
X156692915Y-71892857D01*
X156692915Y-71892857D02*
X156883391Y-71845238D01*
X156883391Y-71845238D02*
X157264343Y-71845238D01*
X157264343Y-71845238D02*
X157359581Y-71892857D01*
X157359581Y-71892857D02*
X157407201Y-71940476D01*
X157407201Y-71940476D02*
X157454820Y-72035714D01*
X157454820Y-72035714D02*
X157454820Y-72226190D01*
X157454820Y-72226190D02*
X157407201Y-72321428D01*
X157407201Y-72321428D02*
X157359581Y-72369047D01*
X157359581Y-72369047D02*
X157264343Y-72416666D01*
X157264343Y-72416666D02*
X157026248Y-72416666D01*
X157026248Y-72416666D02*
X156931010Y-72369047D01*
X156931010Y-72369047D02*
X156883391Y-72321428D01*
X156883391Y-72321428D02*
X156835772Y-72226190D01*
X156835772Y-72226190D02*
X156835772Y-72035714D01*
X156835772Y-72035714D02*
X156883391Y-71940476D01*
X156883391Y-71940476D02*
X156931010Y-71892857D01*
X156931010Y-71892857D02*
X157026248Y-71845238D01*
X317329820Y-70940476D02*
X318044105Y-70940476D01*
X318044105Y-70940476D02*
X318186962Y-70892857D01*
X318186962Y-70892857D02*
X318282201Y-70797619D01*
X318282201Y-70797619D02*
X318329820Y-70654762D01*
X318329820Y-70654762D02*
X318329820Y-70559524D01*
X317425058Y-71369048D02*
X317377439Y-71416667D01*
X317377439Y-71416667D02*
X317329820Y-71511905D01*
X317329820Y-71511905D02*
X317329820Y-71750000D01*
X317329820Y-71750000D02*
X317377439Y-71845238D01*
X317377439Y-71845238D02*
X317425058Y-71892857D01*
X317425058Y-71892857D02*
X317520296Y-71940476D01*
X317520296Y-71940476D02*
X317615534Y-71940476D01*
X317615534Y-71940476D02*
X317758391Y-71892857D01*
X317758391Y-71892857D02*
X318329820Y-71321429D01*
X318329820Y-71321429D02*
X318329820Y-71940476D01*
X317329820Y-72559524D02*
X317329820Y-72654762D01*
X317329820Y-72654762D02*
X317377439Y-72750000D01*
X317377439Y-72750000D02*
X317425058Y-72797619D01*
X317425058Y-72797619D02*
X317520296Y-72845238D01*
X317520296Y-72845238D02*
X317710772Y-72892857D01*
X317710772Y-72892857D02*
X317948867Y-72892857D01*
X317948867Y-72892857D02*
X318139343Y-72845238D01*
X318139343Y-72845238D02*
X318234581Y-72797619D01*
X318234581Y-72797619D02*
X318282201Y-72750000D01*
X318282201Y-72750000D02*
X318329820Y-72654762D01*
X318329820Y-72654762D02*
X318329820Y-72559524D01*
X318329820Y-72559524D02*
X318282201Y-72464286D01*
X318282201Y-72464286D02*
X318234581Y-72416667D01*
X318234581Y-72416667D02*
X318139343Y-72369048D01*
X318139343Y-72369048D02*
X317948867Y-72321429D01*
X317948867Y-72321429D02*
X317710772Y-72321429D01*
X317710772Y-72321429D02*
X317520296Y-72369048D01*
X317520296Y-72369048D02*
X317425058Y-72416667D01*
X317425058Y-72416667D02*
X317377439Y-72464286D01*
X317377439Y-72464286D02*
X317329820Y-72559524D01*
X202454820Y-70940476D02*
X203169105Y-70940476D01*
X203169105Y-70940476D02*
X203311962Y-70892857D01*
X203311962Y-70892857D02*
X203407201Y-70797619D01*
X203407201Y-70797619D02*
X203454820Y-70654762D01*
X203454820Y-70654762D02*
X203454820Y-70559524D01*
X203454820Y-71940476D02*
X203454820Y-71369048D01*
X203454820Y-71654762D02*
X202454820Y-71654762D01*
X202454820Y-71654762D02*
X202597677Y-71559524D01*
X202597677Y-71559524D02*
X202692915Y-71464286D01*
X202692915Y-71464286D02*
X202740534Y-71369048D01*
X202454820Y-72559524D02*
X202454820Y-72654762D01*
X202454820Y-72654762D02*
X202502439Y-72750000D01*
X202502439Y-72750000D02*
X202550058Y-72797619D01*
X202550058Y-72797619D02*
X202645296Y-72845238D01*
X202645296Y-72845238D02*
X202835772Y-72892857D01*
X202835772Y-72892857D02*
X203073867Y-72892857D01*
X203073867Y-72892857D02*
X203264343Y-72845238D01*
X203264343Y-72845238D02*
X203359581Y-72797619D01*
X203359581Y-72797619D02*
X203407201Y-72750000D01*
X203407201Y-72750000D02*
X203454820Y-72654762D01*
X203454820Y-72654762D02*
X203454820Y-72559524D01*
X203454820Y-72559524D02*
X203407201Y-72464286D01*
X203407201Y-72464286D02*
X203359581Y-72416667D01*
X203359581Y-72416667D02*
X203264343Y-72369048D01*
X203264343Y-72369048D02*
X203073867Y-72321429D01*
X203073867Y-72321429D02*
X202835772Y-72321429D01*
X202835772Y-72321429D02*
X202645296Y-72369048D01*
X202645296Y-72369048D02*
X202550058Y-72416667D01*
X202550058Y-72416667D02*
X202502439Y-72464286D01*
X202502439Y-72464286D02*
X202454820Y-72559524D01*
X225454820Y-70940476D02*
X226169105Y-70940476D01*
X226169105Y-70940476D02*
X226311962Y-70892857D01*
X226311962Y-70892857D02*
X226407201Y-70797619D01*
X226407201Y-70797619D02*
X226454820Y-70654762D01*
X226454820Y-70654762D02*
X226454820Y-70559524D01*
X226454820Y-71940476D02*
X226454820Y-71369048D01*
X226454820Y-71654762D02*
X225454820Y-71654762D01*
X225454820Y-71654762D02*
X225597677Y-71559524D01*
X225597677Y-71559524D02*
X225692915Y-71464286D01*
X225692915Y-71464286D02*
X225740534Y-71369048D01*
X225550058Y-72321429D02*
X225502439Y-72369048D01*
X225502439Y-72369048D02*
X225454820Y-72464286D01*
X225454820Y-72464286D02*
X225454820Y-72702381D01*
X225454820Y-72702381D02*
X225502439Y-72797619D01*
X225502439Y-72797619D02*
X225550058Y-72845238D01*
X225550058Y-72845238D02*
X225645296Y-72892857D01*
X225645296Y-72892857D02*
X225740534Y-72892857D01*
X225740534Y-72892857D02*
X225883391Y-72845238D01*
X225883391Y-72845238D02*
X226454820Y-72273810D01*
X226454820Y-72273810D02*
X226454820Y-72892857D01*
X196554820Y-71416666D02*
X197269105Y-71416666D01*
X197269105Y-71416666D02*
X197411962Y-71369047D01*
X197411962Y-71369047D02*
X197507201Y-71273809D01*
X197507201Y-71273809D02*
X197554820Y-71130952D01*
X197554820Y-71130952D02*
X197554820Y-71035714D01*
X197554820Y-71940476D02*
X197554820Y-72130952D01*
X197554820Y-72130952D02*
X197507201Y-72226190D01*
X197507201Y-72226190D02*
X197459581Y-72273809D01*
X197459581Y-72273809D02*
X197316724Y-72369047D01*
X197316724Y-72369047D02*
X197126248Y-72416666D01*
X197126248Y-72416666D02*
X196745296Y-72416666D01*
X196745296Y-72416666D02*
X196650058Y-72369047D01*
X196650058Y-72369047D02*
X196602439Y-72321428D01*
X196602439Y-72321428D02*
X196554820Y-72226190D01*
X196554820Y-72226190D02*
X196554820Y-72035714D01*
X196554820Y-72035714D02*
X196602439Y-71940476D01*
X196602439Y-71940476D02*
X196650058Y-71892857D01*
X196650058Y-71892857D02*
X196745296Y-71845238D01*
X196745296Y-71845238D02*
X196983391Y-71845238D01*
X196983391Y-71845238D02*
X197078629Y-71892857D01*
X197078629Y-71892857D02*
X197126248Y-71940476D01*
X197126248Y-71940476D02*
X197173867Y-72035714D01*
X197173867Y-72035714D02*
X197173867Y-72226190D01*
X197173867Y-72226190D02*
X197126248Y-72321428D01*
X197126248Y-72321428D02*
X197078629Y-72369047D01*
X197078629Y-72369047D02*
X196983391Y-72416666D01*
X242554820Y-70940476D02*
X243269105Y-70940476D01*
X243269105Y-70940476D02*
X243411962Y-70892857D01*
X243411962Y-70892857D02*
X243507201Y-70797619D01*
X243507201Y-70797619D02*
X243554820Y-70654762D01*
X243554820Y-70654762D02*
X243554820Y-70559524D01*
X243554820Y-71940476D02*
X243554820Y-71369048D01*
X243554820Y-71654762D02*
X242554820Y-71654762D01*
X242554820Y-71654762D02*
X242697677Y-71559524D01*
X242697677Y-71559524D02*
X242792915Y-71464286D01*
X242792915Y-71464286D02*
X242840534Y-71369048D01*
X242554820Y-72273810D02*
X242554820Y-72892857D01*
X242554820Y-72892857D02*
X242935772Y-72559524D01*
X242935772Y-72559524D02*
X242935772Y-72702381D01*
X242935772Y-72702381D02*
X242983391Y-72797619D01*
X242983391Y-72797619D02*
X243031010Y-72845238D01*
X243031010Y-72845238D02*
X243126248Y-72892857D01*
X243126248Y-72892857D02*
X243364343Y-72892857D01*
X243364343Y-72892857D02*
X243459581Y-72845238D01*
X243459581Y-72845238D02*
X243507201Y-72797619D01*
X243507201Y-72797619D02*
X243554820Y-72702381D01*
X243554820Y-72702381D02*
X243554820Y-72416667D01*
X243554820Y-72416667D02*
X243507201Y-72321429D01*
X243507201Y-72321429D02*
X243459581Y-72273810D01*
X248454820Y-70940476D02*
X249169105Y-70940476D01*
X249169105Y-70940476D02*
X249311962Y-70892857D01*
X249311962Y-70892857D02*
X249407201Y-70797619D01*
X249407201Y-70797619D02*
X249454820Y-70654762D01*
X249454820Y-70654762D02*
X249454820Y-70559524D01*
X249454820Y-71940476D02*
X249454820Y-71369048D01*
X249454820Y-71654762D02*
X248454820Y-71654762D01*
X248454820Y-71654762D02*
X248597677Y-71559524D01*
X248597677Y-71559524D02*
X248692915Y-71464286D01*
X248692915Y-71464286D02*
X248740534Y-71369048D01*
X248788153Y-72797619D02*
X249454820Y-72797619D01*
X248407201Y-72559524D02*
X249121486Y-72321429D01*
X249121486Y-72321429D02*
X249121486Y-72940476D01*
X150554820Y-71416666D02*
X151269105Y-71416666D01*
X151269105Y-71416666D02*
X151411962Y-71369047D01*
X151411962Y-71369047D02*
X151507201Y-71273809D01*
X151507201Y-71273809D02*
X151554820Y-71130952D01*
X151554820Y-71130952D02*
X151554820Y-71035714D01*
X150554820Y-72369047D02*
X150554820Y-71892857D01*
X150554820Y-71892857D02*
X151031010Y-71845238D01*
X151031010Y-71845238D02*
X150983391Y-71892857D01*
X150983391Y-71892857D02*
X150935772Y-71988095D01*
X150935772Y-71988095D02*
X150935772Y-72226190D01*
X150935772Y-72226190D02*
X150983391Y-72321428D01*
X150983391Y-72321428D02*
X151031010Y-72369047D01*
X151031010Y-72369047D02*
X151126248Y-72416666D01*
X151126248Y-72416666D02*
X151364343Y-72416666D01*
X151364343Y-72416666D02*
X151459581Y-72369047D01*
X151459581Y-72369047D02*
X151507201Y-72321428D01*
X151507201Y-72321428D02*
X151554820Y-72226190D01*
X151554820Y-72226190D02*
X151554820Y-71988095D01*
X151554820Y-71988095D02*
X151507201Y-71892857D01*
X151507201Y-71892857D02*
X151459581Y-71845238D01*
X179454820Y-71416666D02*
X180169105Y-71416666D01*
X180169105Y-71416666D02*
X180311962Y-71369047D01*
X180311962Y-71369047D02*
X180407201Y-71273809D01*
X180407201Y-71273809D02*
X180454820Y-71130952D01*
X180454820Y-71130952D02*
X180454820Y-71035714D01*
X179883391Y-72035714D02*
X179835772Y-71940476D01*
X179835772Y-71940476D02*
X179788153Y-71892857D01*
X179788153Y-71892857D02*
X179692915Y-71845238D01*
X179692915Y-71845238D02*
X179645296Y-71845238D01*
X179645296Y-71845238D02*
X179550058Y-71892857D01*
X179550058Y-71892857D02*
X179502439Y-71940476D01*
X179502439Y-71940476D02*
X179454820Y-72035714D01*
X179454820Y-72035714D02*
X179454820Y-72226190D01*
X179454820Y-72226190D02*
X179502439Y-72321428D01*
X179502439Y-72321428D02*
X179550058Y-72369047D01*
X179550058Y-72369047D02*
X179645296Y-72416666D01*
X179645296Y-72416666D02*
X179692915Y-72416666D01*
X179692915Y-72416666D02*
X179788153Y-72369047D01*
X179788153Y-72369047D02*
X179835772Y-72321428D01*
X179835772Y-72321428D02*
X179883391Y-72226190D01*
X179883391Y-72226190D02*
X179883391Y-72035714D01*
X179883391Y-72035714D02*
X179931010Y-71940476D01*
X179931010Y-71940476D02*
X179978629Y-71892857D01*
X179978629Y-71892857D02*
X180073867Y-71845238D01*
X180073867Y-71845238D02*
X180264343Y-71845238D01*
X180264343Y-71845238D02*
X180359581Y-71892857D01*
X180359581Y-71892857D02*
X180407201Y-71940476D01*
X180407201Y-71940476D02*
X180454820Y-72035714D01*
X180454820Y-72035714D02*
X180454820Y-72226190D01*
X180454820Y-72226190D02*
X180407201Y-72321428D01*
X180407201Y-72321428D02*
X180359581Y-72369047D01*
X180359581Y-72369047D02*
X180264343Y-72416666D01*
X180264343Y-72416666D02*
X180073867Y-72416666D01*
X180073867Y-72416666D02*
X179978629Y-72369047D01*
X179978629Y-72369047D02*
X179931010Y-72321428D01*
X179931010Y-72321428D02*
X179883391Y-72226190D01*
X294454820Y-70940476D02*
X295169105Y-70940476D01*
X295169105Y-70940476D02*
X295311962Y-70892857D01*
X295311962Y-70892857D02*
X295407201Y-70797619D01*
X295407201Y-70797619D02*
X295454820Y-70654762D01*
X295454820Y-70654762D02*
X295454820Y-70559524D01*
X295454820Y-71940476D02*
X295454820Y-71369048D01*
X295454820Y-71654762D02*
X294454820Y-71654762D01*
X294454820Y-71654762D02*
X294597677Y-71559524D01*
X294597677Y-71559524D02*
X294692915Y-71464286D01*
X294692915Y-71464286D02*
X294740534Y-71369048D01*
X294883391Y-72511905D02*
X294835772Y-72416667D01*
X294835772Y-72416667D02*
X294788153Y-72369048D01*
X294788153Y-72369048D02*
X294692915Y-72321429D01*
X294692915Y-72321429D02*
X294645296Y-72321429D01*
X294645296Y-72321429D02*
X294550058Y-72369048D01*
X294550058Y-72369048D02*
X294502439Y-72416667D01*
X294502439Y-72416667D02*
X294454820Y-72511905D01*
X294454820Y-72511905D02*
X294454820Y-72702381D01*
X294454820Y-72702381D02*
X294502439Y-72797619D01*
X294502439Y-72797619D02*
X294550058Y-72845238D01*
X294550058Y-72845238D02*
X294645296Y-72892857D01*
X294645296Y-72892857D02*
X294692915Y-72892857D01*
X294692915Y-72892857D02*
X294788153Y-72845238D01*
X294788153Y-72845238D02*
X294835772Y-72797619D01*
X294835772Y-72797619D02*
X294883391Y-72702381D01*
X294883391Y-72702381D02*
X294883391Y-72511905D01*
X294883391Y-72511905D02*
X294931010Y-72416667D01*
X294931010Y-72416667D02*
X294978629Y-72369048D01*
X294978629Y-72369048D02*
X295073867Y-72321429D01*
X295073867Y-72321429D02*
X295264343Y-72321429D01*
X295264343Y-72321429D02*
X295359581Y-72369048D01*
X295359581Y-72369048D02*
X295407201Y-72416667D01*
X295407201Y-72416667D02*
X295454820Y-72511905D01*
X295454820Y-72511905D02*
X295454820Y-72702381D01*
X295454820Y-72702381D02*
X295407201Y-72797619D01*
X295407201Y-72797619D02*
X295359581Y-72845238D01*
X295359581Y-72845238D02*
X295264343Y-72892857D01*
X295264343Y-72892857D02*
X295073867Y-72892857D01*
X295073867Y-72892857D02*
X294978629Y-72845238D01*
X294978629Y-72845238D02*
X294931010Y-72797619D01*
X294931010Y-72797619D02*
X294883391Y-72702381D01*
X265554820Y-70940476D02*
X266269105Y-70940476D01*
X266269105Y-70940476D02*
X266411962Y-70892857D01*
X266411962Y-70892857D02*
X266507201Y-70797619D01*
X266507201Y-70797619D02*
X266554820Y-70654762D01*
X266554820Y-70654762D02*
X266554820Y-70559524D01*
X266554820Y-71940476D02*
X266554820Y-71369048D01*
X266554820Y-71654762D02*
X265554820Y-71654762D01*
X265554820Y-71654762D02*
X265697677Y-71559524D01*
X265697677Y-71559524D02*
X265792915Y-71464286D01*
X265792915Y-71464286D02*
X265840534Y-71369048D01*
X265554820Y-72845238D02*
X265554820Y-72369048D01*
X265554820Y-72369048D02*
X266031010Y-72321429D01*
X266031010Y-72321429D02*
X265983391Y-72369048D01*
X265983391Y-72369048D02*
X265935772Y-72464286D01*
X265935772Y-72464286D02*
X265935772Y-72702381D01*
X265935772Y-72702381D02*
X265983391Y-72797619D01*
X265983391Y-72797619D02*
X266031010Y-72845238D01*
X266031010Y-72845238D02*
X266126248Y-72892857D01*
X266126248Y-72892857D02*
X266364343Y-72892857D01*
X266364343Y-72892857D02*
X266459581Y-72845238D01*
X266459581Y-72845238D02*
X266507201Y-72797619D01*
X266507201Y-72797619D02*
X266554820Y-72702381D01*
X266554820Y-72702381D02*
X266554820Y-72464286D01*
X266554820Y-72464286D02*
X266507201Y-72369048D01*
X266507201Y-72369048D02*
X266459581Y-72321429D01*
X133454820Y-71416666D02*
X134169105Y-71416666D01*
X134169105Y-71416666D02*
X134311962Y-71369047D01*
X134311962Y-71369047D02*
X134407201Y-71273809D01*
X134407201Y-71273809D02*
X134454820Y-71130952D01*
X134454820Y-71130952D02*
X134454820Y-71035714D01*
X133788153Y-72321428D02*
X134454820Y-72321428D01*
X133407201Y-72083333D02*
X134121486Y-71845238D01*
X134121486Y-71845238D02*
X134121486Y-72464285D01*
X311554820Y-70940476D02*
X312269105Y-70940476D01*
X312269105Y-70940476D02*
X312411962Y-70892857D01*
X312411962Y-70892857D02*
X312507201Y-70797619D01*
X312507201Y-70797619D02*
X312554820Y-70654762D01*
X312554820Y-70654762D02*
X312554820Y-70559524D01*
X312554820Y-71940476D02*
X312554820Y-71369048D01*
X312554820Y-71654762D02*
X311554820Y-71654762D01*
X311554820Y-71654762D02*
X311697677Y-71559524D01*
X311697677Y-71559524D02*
X311792915Y-71464286D01*
X311792915Y-71464286D02*
X311840534Y-71369048D01*
X312554820Y-72416667D02*
X312554820Y-72607143D01*
X312554820Y-72607143D02*
X312507201Y-72702381D01*
X312507201Y-72702381D02*
X312459581Y-72750000D01*
X312459581Y-72750000D02*
X312316724Y-72845238D01*
X312316724Y-72845238D02*
X312126248Y-72892857D01*
X312126248Y-72892857D02*
X311745296Y-72892857D01*
X311745296Y-72892857D02*
X311650058Y-72845238D01*
X311650058Y-72845238D02*
X311602439Y-72797619D01*
X311602439Y-72797619D02*
X311554820Y-72702381D01*
X311554820Y-72702381D02*
X311554820Y-72511905D01*
X311554820Y-72511905D02*
X311602439Y-72416667D01*
X311602439Y-72416667D02*
X311650058Y-72369048D01*
X311650058Y-72369048D02*
X311745296Y-72321429D01*
X311745296Y-72321429D02*
X311983391Y-72321429D01*
X311983391Y-72321429D02*
X312078629Y-72369048D01*
X312078629Y-72369048D02*
X312126248Y-72416667D01*
X312126248Y-72416667D02*
X312173867Y-72511905D01*
X312173867Y-72511905D02*
X312173867Y-72702381D01*
X312173867Y-72702381D02*
X312126248Y-72797619D01*
X312126248Y-72797619D02*
X312078629Y-72845238D01*
X312078629Y-72845238D02*
X311983391Y-72892857D01*
X173554820Y-71416666D02*
X174269105Y-71416666D01*
X174269105Y-71416666D02*
X174411962Y-71369047D01*
X174411962Y-71369047D02*
X174507201Y-71273809D01*
X174507201Y-71273809D02*
X174554820Y-71130952D01*
X174554820Y-71130952D02*
X174554820Y-71035714D01*
X173554820Y-71797619D02*
X173554820Y-72464285D01*
X173554820Y-72464285D02*
X174554820Y-72035714D01*
X110454819Y-71416666D02*
X111169104Y-71416666D01*
X111169104Y-71416666D02*
X111311961Y-71369047D01*
X111311961Y-71369047D02*
X111407200Y-71273809D01*
X111407200Y-71273809D02*
X111454819Y-71130952D01*
X111454819Y-71130952D02*
X111454819Y-71035714D01*
X110550057Y-71845238D02*
X110502438Y-71892857D01*
X110502438Y-71892857D02*
X110454819Y-71988095D01*
X110454819Y-71988095D02*
X110454819Y-72226190D01*
X110454819Y-72226190D02*
X110502438Y-72321428D01*
X110502438Y-72321428D02*
X110550057Y-72369047D01*
X110550057Y-72369047D02*
X110645295Y-72416666D01*
X110645295Y-72416666D02*
X110740533Y-72416666D01*
X110740533Y-72416666D02*
X110883390Y-72369047D01*
X110883390Y-72369047D02*
X111454819Y-71797619D01*
X111454819Y-71797619D02*
X111454819Y-72416666D01*
X288554820Y-70940476D02*
X289269105Y-70940476D01*
X289269105Y-70940476D02*
X289411962Y-70892857D01*
X289411962Y-70892857D02*
X289507201Y-70797619D01*
X289507201Y-70797619D02*
X289554820Y-70654762D01*
X289554820Y-70654762D02*
X289554820Y-70559524D01*
X289554820Y-71940476D02*
X289554820Y-71369048D01*
X289554820Y-71654762D02*
X288554820Y-71654762D01*
X288554820Y-71654762D02*
X288697677Y-71559524D01*
X288697677Y-71559524D02*
X288792915Y-71464286D01*
X288792915Y-71464286D02*
X288840534Y-71369048D01*
X288554820Y-72273810D02*
X288554820Y-72940476D01*
X288554820Y-72940476D02*
X289554820Y-72511905D01*
X271454820Y-70940476D02*
X272169105Y-70940476D01*
X272169105Y-70940476D02*
X272311962Y-70892857D01*
X272311962Y-70892857D02*
X272407201Y-70797619D01*
X272407201Y-70797619D02*
X272454820Y-70654762D01*
X272454820Y-70654762D02*
X272454820Y-70559524D01*
X272454820Y-71940476D02*
X272454820Y-71369048D01*
X272454820Y-71654762D02*
X271454820Y-71654762D01*
X271454820Y-71654762D02*
X271597677Y-71559524D01*
X271597677Y-71559524D02*
X271692915Y-71464286D01*
X271692915Y-71464286D02*
X271740534Y-71369048D01*
X271454820Y-72797619D02*
X271454820Y-72607143D01*
X271454820Y-72607143D02*
X271502439Y-72511905D01*
X271502439Y-72511905D02*
X271550058Y-72464286D01*
X271550058Y-72464286D02*
X271692915Y-72369048D01*
X271692915Y-72369048D02*
X271883391Y-72321429D01*
X271883391Y-72321429D02*
X272264343Y-72321429D01*
X272264343Y-72321429D02*
X272359581Y-72369048D01*
X272359581Y-72369048D02*
X272407201Y-72416667D01*
X272407201Y-72416667D02*
X272454820Y-72511905D01*
X272454820Y-72511905D02*
X272454820Y-72702381D01*
X272454820Y-72702381D02*
X272407201Y-72797619D01*
X272407201Y-72797619D02*
X272359581Y-72845238D01*
X272359581Y-72845238D02*
X272264343Y-72892857D01*
X272264343Y-72892857D02*
X272026248Y-72892857D01*
X272026248Y-72892857D02*
X271931010Y-72845238D01*
X271931010Y-72845238D02*
X271883391Y-72797619D01*
X271883391Y-72797619D02*
X271835772Y-72702381D01*
X271835772Y-72702381D02*
X271835772Y-72511905D01*
X271835772Y-72511905D02*
X271883391Y-72416667D01*
X271883391Y-72416667D02*
X271931010Y-72369048D01*
X271931010Y-72369048D02*
X272026248Y-72321429D01*
X334429820Y-70940476D02*
X335144105Y-70940476D01*
X335144105Y-70940476D02*
X335286962Y-70892857D01*
X335286962Y-70892857D02*
X335382201Y-70797619D01*
X335382201Y-70797619D02*
X335429820Y-70654762D01*
X335429820Y-70654762D02*
X335429820Y-70559524D01*
X334525058Y-71369048D02*
X334477439Y-71416667D01*
X334477439Y-71416667D02*
X334429820Y-71511905D01*
X334429820Y-71511905D02*
X334429820Y-71750000D01*
X334429820Y-71750000D02*
X334477439Y-71845238D01*
X334477439Y-71845238D02*
X334525058Y-71892857D01*
X334525058Y-71892857D02*
X334620296Y-71940476D01*
X334620296Y-71940476D02*
X334715534Y-71940476D01*
X334715534Y-71940476D02*
X334858391Y-71892857D01*
X334858391Y-71892857D02*
X335429820Y-71321429D01*
X335429820Y-71321429D02*
X335429820Y-71940476D01*
X335429820Y-72892857D02*
X335429820Y-72321429D01*
X335429820Y-72607143D02*
X334429820Y-72607143D01*
X334429820Y-72607143D02*
X334572677Y-72511905D01*
X334572677Y-72511905D02*
X334667915Y-72416667D01*
X334667915Y-72416667D02*
X334715534Y-72321429D01*
X219554820Y-70940476D02*
X220269105Y-70940476D01*
X220269105Y-70940476D02*
X220411962Y-70892857D01*
X220411962Y-70892857D02*
X220507201Y-70797619D01*
X220507201Y-70797619D02*
X220554820Y-70654762D01*
X220554820Y-70654762D02*
X220554820Y-70559524D01*
X220554820Y-71940476D02*
X220554820Y-71369048D01*
X220554820Y-71654762D02*
X219554820Y-71654762D01*
X219554820Y-71654762D02*
X219697677Y-71559524D01*
X219697677Y-71559524D02*
X219792915Y-71464286D01*
X219792915Y-71464286D02*
X219840534Y-71369048D01*
X220554820Y-72892857D02*
X220554820Y-72321429D01*
X220554820Y-72607143D02*
X219554820Y-72607143D01*
X219554820Y-72607143D02*
X219697677Y-72511905D01*
X219697677Y-72511905D02*
X219792915Y-72416667D01*
X219792915Y-72416667D02*
X219840534Y-72321429D01*
D11*
X123313375Y-70559500D02*
X123313375Y-72959500D01*
X124263375Y-68049500D02*
X126163375Y-68049500D01*
X124263375Y-75469500D02*
X126163375Y-75469500D01*
X127113375Y-70559500D02*
X127113375Y-72959500D01*
D12*
X125313375Y-67509500D02*
G75*
G02*
X125113375Y-67509500I-100000J0D01*
G01*
X125113375Y-67509500D02*
G75*
G02*
X125313375Y-67509500I100000J0D01*
G01*
D11*
X158313376Y-70559500D02*
X158313376Y-72959500D01*
X159263376Y-68049500D02*
X161163376Y-68049500D01*
X159263376Y-75469500D02*
X161163376Y-75469500D01*
X162113376Y-70559500D02*
X162113376Y-72959500D01*
D12*
X160313376Y-67509500D02*
G75*
G02*
X160113376Y-67509500I-100000J0D01*
G01*
X160113376Y-67509500D02*
G75*
G02*
X160313376Y-67509500I100000J0D01*
G01*
D11*
X319188376Y-70559500D02*
X319188376Y-72959500D01*
X320138376Y-68049500D02*
X322038376Y-68049500D01*
X320138376Y-75469500D02*
X322038376Y-75469500D01*
X322988376Y-70559500D02*
X322988376Y-72959500D01*
D12*
X321188376Y-67509500D02*
G75*
G02*
X320988376Y-67509500I-100000J0D01*
G01*
X320988376Y-67509500D02*
G75*
G02*
X321188376Y-67509500I100000J0D01*
G01*
D11*
X204313376Y-70559500D02*
X204313376Y-72959500D01*
X205263376Y-68049500D02*
X207163376Y-68049500D01*
X205263376Y-75469500D02*
X207163376Y-75469500D01*
X208113376Y-70559500D02*
X208113376Y-72959500D01*
D12*
X206313376Y-67509500D02*
G75*
G02*
X206113376Y-67509500I-100000J0D01*
G01*
X206113376Y-67509500D02*
G75*
G02*
X206313376Y-67509500I100000J0D01*
G01*
D11*
X227313376Y-70559500D02*
X227313376Y-72959500D01*
X228263376Y-68049500D02*
X230163376Y-68049500D01*
X228263376Y-75469500D02*
X230163376Y-75469500D01*
X231113376Y-70559500D02*
X231113376Y-72959500D01*
D12*
X229313376Y-67509500D02*
G75*
G02*
X229113376Y-67509500I-100000J0D01*
G01*
X229113376Y-67509500D02*
G75*
G02*
X229313376Y-67509500I100000J0D01*
G01*
D11*
X192313376Y-70559500D02*
X192313376Y-72959500D01*
X193263376Y-68049500D02*
X195163376Y-68049500D01*
X193263376Y-75469500D02*
X195163376Y-75469500D01*
X196113376Y-70559500D02*
X196113376Y-72959500D01*
D12*
X194313376Y-67509500D02*
G75*
G02*
X194113376Y-67509500I-100000J0D01*
G01*
X194113376Y-67509500D02*
G75*
G02*
X194313376Y-67509500I100000J0D01*
G01*
D11*
X238313376Y-70559500D02*
X238313376Y-72959500D01*
X239263376Y-68049500D02*
X241163376Y-68049500D01*
X239263376Y-75469500D02*
X241163376Y-75469500D01*
X242113376Y-70559500D02*
X242113376Y-72959500D01*
D12*
X240313376Y-67509500D02*
G75*
G02*
X240113376Y-67509500I-100000J0D01*
G01*
X240113376Y-67509500D02*
G75*
G02*
X240313376Y-67509500I100000J0D01*
G01*
D11*
X250313376Y-70559500D02*
X250313376Y-72959500D01*
X251263376Y-68049500D02*
X253163376Y-68049500D01*
X251263376Y-75469500D02*
X253163376Y-75469500D01*
X254113376Y-70559500D02*
X254113376Y-72959500D01*
D12*
X252313376Y-67509500D02*
G75*
G02*
X252113376Y-67509500I-100000J0D01*
G01*
X252113376Y-67509500D02*
G75*
G02*
X252313376Y-67509500I100000J0D01*
G01*
D11*
X146313376Y-70559500D02*
X146313376Y-72959500D01*
X147263376Y-68049500D02*
X149163376Y-68049500D01*
X147263376Y-75469500D02*
X149163376Y-75469500D01*
X150113376Y-70559500D02*
X150113376Y-72959500D01*
D12*
X148313376Y-67509500D02*
G75*
G02*
X148113376Y-67509500I-100000J0D01*
G01*
X148113376Y-67509500D02*
G75*
G02*
X148313376Y-67509500I100000J0D01*
G01*
D11*
X181313376Y-70559500D02*
X181313376Y-72959500D01*
X182263376Y-68049500D02*
X184163376Y-68049500D01*
X182263376Y-75469500D02*
X184163376Y-75469500D01*
X185113376Y-70559500D02*
X185113376Y-72959500D01*
D12*
X183313376Y-67509500D02*
G75*
G02*
X183113376Y-67509500I-100000J0D01*
G01*
X183113376Y-67509500D02*
G75*
G02*
X183313376Y-67509500I100000J0D01*
G01*
D11*
X296313376Y-70559500D02*
X296313376Y-72959500D01*
X297263376Y-68049500D02*
X299163376Y-68049500D01*
X297263376Y-75469500D02*
X299163376Y-75469500D01*
X300113376Y-70559500D02*
X300113376Y-72959500D01*
D12*
X298313376Y-67509500D02*
G75*
G02*
X298113376Y-67509500I-100000J0D01*
G01*
X298113376Y-67509500D02*
G75*
G02*
X298313376Y-67509500I100000J0D01*
G01*
D11*
X261313376Y-70559500D02*
X261313376Y-72959500D01*
X262263376Y-68049500D02*
X264163376Y-68049500D01*
X262263376Y-75469500D02*
X264163376Y-75469500D01*
X265113376Y-70559500D02*
X265113376Y-72959500D01*
D12*
X263313376Y-67509500D02*
G75*
G02*
X263113376Y-67509500I-100000J0D01*
G01*
X263113376Y-67509500D02*
G75*
G02*
X263313376Y-67509500I100000J0D01*
G01*
D11*
X135313376Y-70559500D02*
X135313376Y-72959500D01*
X136263376Y-68049500D02*
X138163376Y-68049500D01*
X136263376Y-75469500D02*
X138163376Y-75469500D01*
X139113376Y-70559500D02*
X139113376Y-72959500D01*
D12*
X137313376Y-67509500D02*
G75*
G02*
X137113376Y-67509500I-100000J0D01*
G01*
X137113376Y-67509500D02*
G75*
G02*
X137313376Y-67509500I100000J0D01*
G01*
D11*
X307313376Y-70559500D02*
X307313376Y-72959500D01*
X308263376Y-68049500D02*
X310163376Y-68049500D01*
X308263376Y-75469500D02*
X310163376Y-75469500D01*
X311113376Y-70559500D02*
X311113376Y-72959500D01*
D12*
X309313376Y-67509500D02*
G75*
G02*
X309113376Y-67509500I-100000J0D01*
G01*
X309113376Y-67509500D02*
G75*
G02*
X309313376Y-67509500I100000J0D01*
G01*
D11*
X169313376Y-70559500D02*
X169313376Y-72959500D01*
X170263376Y-68049500D02*
X172163376Y-68049500D01*
X170263376Y-75469500D02*
X172163376Y-75469500D01*
X173113376Y-70559500D02*
X173113376Y-72959500D01*
D12*
X171313376Y-67509500D02*
G75*
G02*
X171113376Y-67509500I-100000J0D01*
G01*
X171113376Y-67509500D02*
G75*
G02*
X171313376Y-67509500I100000J0D01*
G01*
D11*
X112313375Y-70559500D02*
X112313375Y-72959500D01*
X113263375Y-68049500D02*
X115163375Y-68049500D01*
X113263375Y-75469500D02*
X115163375Y-75469500D01*
X116113375Y-70559500D02*
X116113375Y-72959500D01*
D12*
X114313375Y-67509500D02*
G75*
G02*
X114113375Y-67509500I-100000J0D01*
G01*
X114113375Y-67509500D02*
G75*
G02*
X114313375Y-67509500I100000J0D01*
G01*
D11*
X284313376Y-70559500D02*
X284313376Y-72959500D01*
X285263376Y-68049500D02*
X287163376Y-68049500D01*
X285263376Y-75469500D02*
X287163376Y-75469500D01*
X288113376Y-70559500D02*
X288113376Y-72959500D01*
D12*
X286313376Y-67509500D02*
G75*
G02*
X286113376Y-67509500I-100000J0D01*
G01*
X286113376Y-67509500D02*
G75*
G02*
X286313376Y-67509500I100000J0D01*
G01*
D11*
X273313376Y-70559500D02*
X273313376Y-72959500D01*
X274263376Y-68049500D02*
X276163376Y-68049500D01*
X274263376Y-75469500D02*
X276163376Y-75469500D01*
X277113376Y-70559500D02*
X277113376Y-72959500D01*
D12*
X275313376Y-67509500D02*
G75*
G02*
X275113376Y-67509500I-100000J0D01*
G01*
X275113376Y-67509500D02*
G75*
G02*
X275313376Y-67509500I100000J0D01*
G01*
D11*
X330188376Y-70559500D02*
X330188376Y-72959500D01*
X331138376Y-68049500D02*
X333038376Y-68049500D01*
X331138376Y-75469500D02*
X333038376Y-75469500D01*
X333988376Y-70559500D02*
X333988376Y-72959500D01*
D12*
X332188376Y-67509500D02*
G75*
G02*
X331988376Y-67509500I-100000J0D01*
G01*
X331988376Y-67509500D02*
G75*
G02*
X332188376Y-67509500I100000J0D01*
G01*
D11*
X215313376Y-70559500D02*
X215313376Y-72959500D01*
X216263376Y-68049500D02*
X218163376Y-68049500D01*
X216263376Y-75469500D02*
X218163376Y-75469500D01*
X219113376Y-70559500D02*
X219113376Y-72959500D01*
D12*
X217313376Y-67509500D02*
G75*
G02*
X217113376Y-67509500I-100000J0D01*
G01*
X217113376Y-67509500D02*
G75*
G02*
X217313376Y-67509500I100000J0D01*
G01*
%LPC*%
D13*
X143088376Y-85309500D03*
D14*
X149588376Y-85309500D03*
X143088376Y-89809500D03*
X149588376Y-89809500D03*
D15*
X189182001Y-77609000D03*
X235182001Y-77609000D03*
X143182001Y-77609000D03*
X212182001Y-77609000D03*
D13*
X304088376Y-85309500D03*
D14*
X310588376Y-85309500D03*
X304088376Y-89809500D03*
X310588376Y-89809500D03*
D13*
X258088376Y-85309500D03*
D14*
X264588376Y-85309500D03*
X258088376Y-89809500D03*
X264588376Y-89809500D03*
D15*
X304182001Y-77609000D03*
D13*
X235088376Y-85309500D03*
D14*
X241588376Y-85309500D03*
X235088376Y-89809500D03*
X241588376Y-89809500D03*
D13*
X326963376Y-85309500D03*
D14*
X333463376Y-85309500D03*
X326963376Y-89809500D03*
X333463376Y-89809500D03*
D15*
X258182001Y-77609000D03*
X120182000Y-77609000D03*
X281182001Y-77609000D03*
D16*
X114000000Y-103000000D03*
D17*
X132524371Y-104428356D03*
D18*
X132525078Y-101573766D03*
X131128542Y-100328551D03*
X129263195Y-100195615D03*
X127704024Y-101228698D03*
X127100155Y-102999293D03*
X127702610Y-104769888D03*
X129261781Y-105804385D03*
X131127128Y-105671449D03*
X131100258Y-103000000D03*
X129449871Y-102046820D03*
X129449871Y-103953180D03*
D15*
X327057001Y-77609000D03*
D13*
X189088376Y-85309500D03*
D14*
X195588376Y-85309500D03*
X189088376Y-89809500D03*
X195588376Y-89809500D03*
D13*
X212088376Y-85309500D03*
D14*
X218588376Y-85309500D03*
X212088376Y-89809500D03*
X218588376Y-89809500D03*
D16*
X146000000Y-103000000D03*
D15*
X166182001Y-77609000D03*
D13*
X166088376Y-85309500D03*
D14*
X172588376Y-85309500D03*
X166088376Y-89809500D03*
X172588376Y-89809500D03*
D13*
X281088376Y-85309500D03*
D14*
X287588376Y-85309500D03*
X281088376Y-89809500D03*
X287588376Y-89809500D03*
D13*
X120088375Y-85309500D03*
D14*
X126588375Y-85309500D03*
X120088375Y-89809500D03*
X126588375Y-89809500D03*
D19*
X125213375Y-69219500D03*
D20*
X125213375Y-74299500D03*
D19*
X160213376Y-69219500D03*
D20*
X160213376Y-74299500D03*
D19*
X321088376Y-69219500D03*
D20*
X321088376Y-74299500D03*
D19*
X206213376Y-69219500D03*
D20*
X206213376Y-74299500D03*
D19*
X229213376Y-69219500D03*
D20*
X229213376Y-74299500D03*
D19*
X194213376Y-69219500D03*
D20*
X194213376Y-74299500D03*
D19*
X240213376Y-69219500D03*
D20*
X240213376Y-74299500D03*
D19*
X252213376Y-69219500D03*
D20*
X252213376Y-74299500D03*
D19*
X148213376Y-69219500D03*
D20*
X148213376Y-74299500D03*
D19*
X183213376Y-69219500D03*
D20*
X183213376Y-74299500D03*
D19*
X298213376Y-69219500D03*
D20*
X298213376Y-74299500D03*
D19*
X263213376Y-69219500D03*
D20*
X263213376Y-74299500D03*
D19*
X137213376Y-69219500D03*
D20*
X137213376Y-74299500D03*
D19*
X309213376Y-69219500D03*
D20*
X309213376Y-74299500D03*
D19*
X171213376Y-69219500D03*
D20*
X171213376Y-74299500D03*
D19*
X114213375Y-69219500D03*
D20*
X114213375Y-74299500D03*
D19*
X286213376Y-69219500D03*
D20*
X286213376Y-74299500D03*
D19*
X275213376Y-69219500D03*
D20*
X275213376Y-74299500D03*
D19*
X332088376Y-69219500D03*
D20*
X332088376Y-74299500D03*
D19*
X217213376Y-69219500D03*
D20*
X217213376Y-74299500D03*
%LPD*%
M02*
