G04 #@! TF.GenerationSoftware,KiCad,Pcbnew,9.0.0*
G04 #@! TF.CreationDate,2025-04-14T19:04:46-07:00*
G04 #@! TF.ProjectId,solenoid_10,736f6c65-6e6f-4696-945f-31302e6b6963,rev?*
G04 #@! TF.SameCoordinates,Original*
G04 #@! TF.FileFunction,Soldermask,Bot*
G04 #@! TF.FilePolarity,Negative*
%FSLAX46Y46*%
G04 Gerber Fmt 4.6, Leading zero omitted, Abs format (unit mm)*
G04 Created by KiCad (PCBNEW 9.0.0) date 2025-04-14 19:04:46*
%MOMM*%
%LPD*%
G01*
G04 APERTURE LIST*
G04 Aperture macros list*
%AMRotRect*
0 Rectangle, with rotation*
0 The origin of the aperture is its center*
0 $1 length*
0 $2 width*
0 $3 Rotation angle, in degrees counterclockwise*
0 Add horizontal line*
21,1,$1,$2,0,0,$3*%
G04 Aperture macros list end*
%ADD10R,2.000000X2.000000*%
%ADD11C,2.000000*%
%ADD12C,3.500000*%
%ADD13C,4.500000*%
%ADD14RotRect,1.308000X1.308000X315.000000*%
%ADD15C,1.308000*%
%ADD16R,2.100000X2.100000*%
%ADD17C,2.100000*%
G04 APERTURE END LIST*
D10*
X143088376Y-85309500D03*
D11*
X149588376Y-85309500D03*
X143088376Y-89809500D03*
X149588376Y-89809500D03*
D12*
X189182001Y-77609000D03*
X235182001Y-77609000D03*
X143182001Y-77609000D03*
X212182001Y-77609000D03*
D10*
X304088376Y-85309500D03*
D11*
X310588376Y-85309500D03*
X304088376Y-89809500D03*
X310588376Y-89809500D03*
D10*
X258088376Y-85309500D03*
D11*
X264588376Y-85309500D03*
X258088376Y-89809500D03*
X264588376Y-89809500D03*
D12*
X304182001Y-77609000D03*
D10*
X235088376Y-85309500D03*
D11*
X241588376Y-85309500D03*
X235088376Y-89809500D03*
X241588376Y-89809500D03*
D10*
X326963376Y-85309500D03*
D11*
X333463376Y-85309500D03*
X326963376Y-89809500D03*
X333463376Y-89809500D03*
D12*
X258182001Y-77609000D03*
X120182000Y-77609000D03*
X281182001Y-77609000D03*
D13*
X114000000Y-103000000D03*
D14*
X132524371Y-104428356D03*
D15*
X132525078Y-101573766D03*
X131128542Y-100328551D03*
X129263195Y-100195615D03*
X127704024Y-101228698D03*
X127100155Y-102999293D03*
X127702610Y-104769888D03*
X129261781Y-105804385D03*
X131127128Y-105671449D03*
X131100258Y-103000000D03*
X129449871Y-102046820D03*
X129449871Y-103953180D03*
D12*
X327057001Y-77609000D03*
D10*
X189088376Y-85309500D03*
D11*
X195588376Y-85309500D03*
X189088376Y-89809500D03*
X195588376Y-89809500D03*
D10*
X212088376Y-85309500D03*
D11*
X218588376Y-85309500D03*
X212088376Y-89809500D03*
X218588376Y-89809500D03*
D13*
X146000000Y-103000000D03*
D12*
X166182001Y-77609000D03*
D10*
X166088376Y-85309500D03*
D11*
X172588376Y-85309500D03*
X166088376Y-89809500D03*
X172588376Y-89809500D03*
D10*
X281088376Y-85309500D03*
D11*
X287588376Y-85309500D03*
X281088376Y-89809500D03*
X287588376Y-89809500D03*
D10*
X120088375Y-85309500D03*
D11*
X126588375Y-85309500D03*
X120088375Y-89809500D03*
X126588375Y-89809500D03*
D16*
X125213375Y-69219500D03*
D17*
X125213375Y-74299500D03*
D16*
X160213376Y-69219500D03*
D17*
X160213376Y-74299500D03*
D16*
X321088376Y-69219500D03*
D17*
X321088376Y-74299500D03*
D16*
X206213376Y-69219500D03*
D17*
X206213376Y-74299500D03*
D16*
X229213376Y-69219500D03*
D17*
X229213376Y-74299500D03*
D16*
X194213376Y-69219500D03*
D17*
X194213376Y-74299500D03*
D16*
X240213376Y-69219500D03*
D17*
X240213376Y-74299500D03*
D16*
X252213376Y-69219500D03*
D17*
X252213376Y-74299500D03*
D16*
X148213376Y-69219500D03*
D17*
X148213376Y-74299500D03*
D16*
X183213376Y-69219500D03*
D17*
X183213376Y-74299500D03*
D16*
X298213376Y-69219500D03*
D17*
X298213376Y-74299500D03*
D16*
X263213376Y-69219500D03*
D17*
X263213376Y-74299500D03*
D16*
X137213376Y-69219500D03*
D17*
X137213376Y-74299500D03*
D16*
X309213376Y-69219500D03*
D17*
X309213376Y-74299500D03*
D16*
X171213376Y-69219500D03*
D17*
X171213376Y-74299500D03*
D16*
X114213375Y-69219500D03*
D17*
X114213375Y-74299500D03*
D16*
X286213376Y-69219500D03*
D17*
X286213376Y-74299500D03*
D16*
X275213376Y-69219500D03*
D17*
X275213376Y-74299500D03*
D16*
X332088376Y-69219500D03*
D17*
X332088376Y-74299500D03*
D16*
X217213376Y-69219500D03*
D17*
X217213376Y-74299500D03*
M02*
